<svg width="61" height="32" viewBox="0 0 61 32" fill="none" xmlns="http://www.w3.org/2000/svg">
<path fill-rule="evenodd" clip-rule="evenodd" d="M26.1014 27.7551C23.5174 29.8774 20.1029 31.1692 16.5037 31.1692C8.01343 31.1692 1.20744 24.3399 1.20744 15.9653C1.20744 7.56744 8.01343 0.738103 16.5037 0.738103C22.1332 0.738103 27.0245 3.78355 29.7006 8.39789C30.0696 8.49024 30.3467 8.58259 30.7154 8.67494C28.0397 3.50685 22.6869 0 16.5037 0C7.64404 0 0.468994 7.10604 0.468994 15.9653C0.468994 24.802 7.64438 32 16.5037 32C20.6566 32 24.4402 30.3391 27.3012 27.7551H26.1014Z" fill="currentColor"/>
<path fill-rule="evenodd" clip-rule="evenodd" d="M18.5339 27.0173H60.4084V20.7417H18.5339V27.0173Z" fill="currentColor"/>
<path fill-rule="evenodd" clip-rule="evenodd" d="M20.6564 9.50508L20.4717 10.3359H18.4414C17.8876 16.2424 17.5186 21.0178 17.1495 23.2331C16.3191 27.2013 12.6275 29.416 10.2282 29.416C9.39772 29.416 8.38257 29.0473 8.38257 28.0321C8.38257 27.4784 8.84397 27.017 9.39772 27.017C10.2282 27.017 10.8743 27.6627 11.3357 28.4009C12.6279 27.6627 12.8122 27.017 13.366 24.4326C13.643 23.2331 14.3811 14.6732 14.7502 10.3359H13.0889L13.2736 9.50508H14.9349L15.1196 8.02888C16.0424 2.58408 20.0106 1.93799 21.4875 1.93799C22.2256 1.93799 23.7021 2.30704 23.7021 3.32219C23.7021 3.96794 23.1484 4.24499 22.5946 4.24499C21.5795 4.24499 21.1181 3.69124 20.6564 2.86044C18.9951 3.59889 18.7184 7.65948 18.5337 9.50474H20.6564V9.50508ZM20.472 17.0725C20.472 12.7356 23.2407 8.95168 27.9471 8.95168C30.9005 8.95168 32.5611 10.2439 32.5611 13.1046C32.5611 17.4419 29.7927 21.1105 25.086 21.1105C22.1332 21.1105 20.472 19.8183 20.472 17.0725ZM28.7779 13.7507C28.7779 12.6432 28.6855 9.96717 27.0246 9.96717C24.6253 9.96717 24.2559 14.6735 24.2559 16.4271C24.2559 17.4423 24.3482 20.188 26.0091 20.188C28.4085 20.1877 28.7779 15.504 28.7779 13.7507ZM33.5766 17.0725C33.5766 12.7356 36.4377 8.95168 41.144 8.95168C44.0051 8.95168 45.735 10.2439 45.735 13.1046C45.735 17.4419 42.8973 21.1105 38.1909 21.1105C35.3298 21.1105 33.5766 19.8183 33.5766 17.0725ZM41.9745 13.7507C41.9745 12.6432 41.8825 9.96717 40.2212 9.96717C37.7295 9.96717 37.4528 14.6735 37.4528 16.4271C37.4528 17.4423 37.4528 20.188 39.1137 20.188C41.6051 20.1877 41.9745 15.504 41.9745 13.7507ZM60.0398 19.7263C58.3782 20.4644 56.3479 21.1101 54.9641 21.1101C54.2259 21.1101 54.3176 20.0023 54.3176 19.5412C54.3176 18.9882 54.3176 18.249 54.5027 16.7962L54.41 16.7035C53.4872 18.6184 51.6416 21.1101 49.2422 21.1101C47.3963 21.1101 46.5655 19.1722 46.5655 17.5343C46.5655 13.4733 49.7953 9.13638 54.41 9.13638H55.3328C55.7022 6.27529 55.7021 5.07578 55.7021 4.15264C55.7021 3.87594 55.7022 3.59889 55.4251 3.59889C55.1481 3.59889 54.7794 3.69124 53.8562 3.96794L53.6719 3.22984C55.5178 2.58409 57.5481 2.21469 59.3933 2.12234C59.5784 2.12234 59.6704 2.12234 59.6704 2.49139C59.6704 4.89074 57.8245 17.4416 57.8245 18.7111C57.8245 18.9882 57.8245 19.4492 58.1939 19.4492C58.3782 19.4492 59.0246 19.2642 59.7627 18.9878L60.0398 19.7263ZM54.0406 15.781C54.687 14.2121 54.8714 12.6432 55.2408 10.2439C55.0557 10.1512 54.8714 10.1512 54.7794 10.1512C51.9183 10.1512 50.5337 14.3965 50.5337 16.7035C50.5337 17.2572 50.6264 18.6184 51.4569 18.6184C52.6567 18.6188 53.6719 16.7038 54.0406 15.781Z" fill="currentColor"/>
<path fill-rule="evenodd" clip-rule="evenodd" d="M21.0256 22.2178H22.0408L23.3326 24.1558V22.2178H24.1634V25.909H23.425L21.8561 23.7871V25.909H21.0256V22.2178ZM26.5624 22.2178H29.4235V22.9563H27.6699V23.6017H28.7778V24.4325H27.6699V25.0782H29.4235V25.909H26.5624V22.2178ZM32.4693 22.9563H31.4542V22.2178H34.5916V22.9563H33.5765V25.909H32.4693V22.9563ZM36.4376 22.2178H37.5444L38.0065 24.1558H38.0981L38.5595 22.2178H39.483L39.9441 24.1558H40.0368L40.4982 22.2178H41.3283L40.4055 25.909H39.483L38.9289 23.8787L38.3752 25.909H37.4527L36.4376 22.2178ZM45.0891 26.0017C44.005 26.0017 43.2666 25.2636 43.2666 24.0634C43.2666 22.8639 44.0047 22.1255 45.0891 22.1255C46.197 22.1255 46.8424 22.8636 46.8424 24.0634C46.8424 25.2633 46.1966 26.0017 45.0891 26.0017ZM44.4434 24.0631C44.4434 25.0782 44.7204 25.2633 45.0891 25.2633C45.4585 25.2633 45.7349 25.0782 45.7349 24.0631C45.7349 23.0486 45.4585 22.8636 45.0891 22.8636C44.6277 22.8636 44.4434 23.1406 44.4434 24.0631ZM49.0571 22.2178H50.903C52.1025 22.2178 52.3795 22.7709 52.3795 23.233C52.3795 23.6944 52.1025 24.0631 51.6414 24.1558L52.3795 25.909H51.18L50.6263 24.3401H50.1649V25.909H49.0571V22.2178ZM50.1649 23.6944H50.7186C50.995 23.6944 51.2724 23.5093 51.2724 23.325C51.2724 23.0486 51.0874 22.8636 50.7186 22.8636H50.1649V23.6944ZM54.6869 22.2178H55.7944V23.6944L56.9015 22.2178H57.9167L56.9939 23.4173L58.101 25.909H56.9939L56.2558 24.3401L55.7944 24.9866V25.909H54.6869V22.2178Z" fill="currentColor"/>
</svg>
