<svg width="67" height="32" viewBox="0 0 67 32" fill="none" xmlns="http://www.w3.org/2000/svg">
<path fill-rule="evenodd" clip-rule="evenodd" d="M1.50477 4.43062H5.71068C5.33393 4.17376 4.62467 3.84668 3.45718 3.84668C2.61212 3.84668 1.97929 4.08258 1.50477 4.43062ZM6.41683 4.43062H10.816C10.2976 4.08258 9.57204 3.84668 8.55859 3.84668C7.48849 3.84668 6.79591 4.17376 6.41683 4.43062ZM0.911133 5.01456H11.4445C11.2677 4.78747 11.0554 4.5903 10.816 4.43062H6.41683C6.17201 4.59629 6.05793 4.73248 6.05793 4.73248C6.05793 4.73248 5.95318 4.59629 5.71068 4.43062H1.50477C1.28042 4.59638 1.08057 4.79296 0.911133 5.01456Z" fill="currentColor"/>
<path fill-rule="evenodd" clip-rule="evenodd" d="M0.559082 5.5789H11.7866C11.6947 5.37844 11.58 5.18927 11.4448 5.01514H0.910997C0.771317 5.19672 0.655306 5.388 0.559082 5.5789Z" fill="currentColor"/>
<path fill-rule="evenodd" clip-rule="evenodd" d="M0.318743 6.16206H11.9909C11.9407 5.96153 11.8721 5.76606 11.786 5.57812H0.558914C0.458811 5.77678 0.380435 5.97505 0.318743 6.16206ZM0.16626 6.74639H2.85276C3.02581 6.54541 3.31099 6.36382 3.77698 6.36382C4.24335 6.36382 4.50874 6.54579 4.65928 6.74639H7.63679C7.81255 6.54541 8.10277 6.36382 8.57768 6.36382C9.02621 6.36382 9.29354 6.54579 9.45262 6.74639H12.0895C12.0716 6.54949 12.0385 6.35426 11.9905 6.16245H0.318743C0.255978 6.35378 0.205053 6.5488 0.16626 6.74639Z" fill="currentColor"/>
<path fill-rule="evenodd" clip-rule="evenodd" d="M0.0961348 7.31035H2.59679V7.26999C2.59679 7.26999 2.63947 6.99413 2.85287 6.74658H0.166362C0.105059 7.06125 0.0961348 7.26999 0.0961348 7.26999V7.31035ZM4.85765 7.31035H7.37848V7.26999C7.37848 7.26999 7.42155 6.99413 7.63766 6.74658H4.66016C4.77271 6.89969 4.84115 7.08072 4.85804 7.26999V7.31035H4.85765ZM9.67854 7.31035H12.0993V7.26999C12.0993 7.26999 12.1187 7.06086 12.0899 6.74658H9.45311C9.64789 6.99413 9.67854 7.26999 9.67854 7.26999V7.31035ZM0.0949707 7.89428H2.59679V7.31035H0.0961348L0.0949707 7.89428ZM4.85765 7.89428H7.37848V7.31035H4.85765V7.89428ZM9.67854 7.89428H12.0993V7.31035H9.67854V7.89428Z" fill="currentColor"/>
<path fill-rule="evenodd" clip-rule="evenodd" d="M0.093837 8.47896H2.5972V7.89502H0.0953893L0.093837 8.47896ZM4.85768 8.47896H7.37851V7.89502H4.85768V8.47896ZM9.67857 8.47896H12.0993V7.89502H9.67857V8.47896ZM0.0922852 9.04272H2.59682V8.47896H0.0934493L0.0922852 9.04272ZM4.85768 9.04272H7.37851V8.47896H4.85768V9.04272ZM9.67857 9.04272H12.0993V8.47896H9.67857V9.04272Z" fill="currentColor"/>
<path fill-rule="evenodd" clip-rule="evenodd" d="M0.0914961 9.62593H2.59719V9.04199H0.0922721L0.0914961 9.62593ZM4.85767 9.62593H7.3785V9.04199H4.85767V9.62593ZM9.67855 9.62593H12.0993V9.04199H9.67855V9.62593ZM0.090332 10.1897H2.59719V9.62593H0.0914961L0.090332 10.1897ZM4.85767 10.1897H7.3785V9.62593H4.85767V10.1897ZM9.67855 10.1897H12.0993V9.62593H9.67855V10.1897Z" fill="currentColor"/>
<path fill-rule="evenodd" clip-rule="evenodd" d="M0.0888106 10.7743H2.59683V10.1899H0.0899747L0.0888106 10.7743ZM4.8577 10.7743H7.37853V10.1899H4.8577V10.7743ZM9.67858 10.7743H12.0993V10.1899H9.67858V10.7743ZM0.0876465 11.3582H2.59722V10.7743H0.0891984L0.0876465 11.3582ZM4.8577 11.3582H7.37853V10.7743H4.8577V11.3582ZM9.67858 11.3582H12.0993V10.7743H9.67858V11.3582Z" fill="currentColor"/>
<path fill-rule="evenodd" clip-rule="evenodd" d="M0.0864258 11.9217H2.59717V11.3579H0.0875899L0.0864258 11.9217ZM4.85765 11.9217H7.37847V11.3579H4.85765V11.9217ZM9.67853 11.9217H12.0992V11.3579H9.67853V11.9217Z" fill="currentColor"/>
<path fill-rule="evenodd" clip-rule="evenodd" d="M0.0854492 12.5062H2.59735V11.9219H0.0866129L0.0854492 12.5062ZM4.85783 12.5062H7.37866V11.9219H4.85783V12.5062ZM9.67871 12.5062H12.0994V11.9219H9.67871V12.5062Z" fill="currentColor"/>
<path fill-rule="evenodd" clip-rule="evenodd" d="M0.0837402 13.0898H2.5972V12.5059H0.0852925L0.0837402 13.0898ZM4.85768 13.0898H7.3785V12.5059H4.85768V13.0898ZM9.67856 13.0898H12.0993V12.5059H9.67856V13.0898Z" fill="currentColor"/>
<path fill-rule="evenodd" clip-rule="evenodd" d="M0.0831819 13.6536H2.59741V13.0898H0.0839578L0.0831819 13.6536ZM4.85789 13.6536H7.37872V13.0898H4.85789V13.6536ZM9.67878 13.6536H12.0995V13.0898H9.67878V13.6536ZM0.08163 14.2375H2.59703V13.6536H0.0827941L0.08163 14.2375ZM4.85789 14.2375H7.37872V13.6536H4.85789V14.2375ZM9.67878 14.2375H12.0995V13.6536H9.67878V14.2375ZM0.0800781 14.8219H2.59703V14.2379H0.08163L0.0800781 14.8219ZM4.85789 14.8219H7.37872V14.2379H4.85789V14.8219ZM9.67878 14.8219H12.0995V14.2379H9.67878V14.8219Z" fill="currentColor"/>
<path fill-rule="evenodd" clip-rule="evenodd" d="M0.0788008 15.3855H2.59691V14.8218H0.0799649L0.0788008 15.3855ZM4.85778 15.3855H7.37861V14.8218H4.85778V15.3855ZM9.67866 15.3855H12.0994V14.8218H9.67866V15.3855ZM0.0776367 15.9695H2.59691V15.3855H0.0788008L0.0776367 15.9695ZM4.85778 15.9695H7.37861V15.3855H4.85778V15.9695ZM9.67866 15.9695H12.0994V15.3855H9.67866V15.9695Z" fill="currentColor"/>
<path fill-rule="evenodd" clip-rule="evenodd" d="M0.076416 16.5537H2.59724V15.9697H0.0779683L0.076416 16.5537ZM4.85772 16.5537H7.37855V15.9697H4.85772V16.5537ZM9.67861 16.5537H12.0993V15.9697H9.67861V16.5537Z" fill="currentColor"/>
<path fill-rule="evenodd" clip-rule="evenodd" d="M0.0751387 17.117H2.59713V16.5532H0.0763024L0.0751387 17.117ZM4.85761 17.117H7.37844V16.5532H4.85761V17.117ZM9.67849 17.117H12.0992V16.5532H9.67849V17.117ZM0.0739746 17.7013H2.59713V17.117H0.0751387L0.0739746 17.7013ZM4.85761 17.7013H7.37844V17.117H4.85761V17.7013ZM9.67849 17.7013H12.0992V17.117H9.67849V17.7013Z" fill="currentColor"/>
<path fill-rule="evenodd" clip-rule="evenodd" d="M0.0726407 18.2654H2.59696V17.7017H0.0738044L0.0726407 18.2654ZM4.85783 18.2654H7.37865V17.7017H4.85783V18.2654ZM9.67871 18.2654H12.0994V17.7017H9.67871V18.2654ZM0.0714766 18.8497H2.59735V18.2654H0.0730285L0.0714766 18.8497ZM4.85783 18.8497H7.37865V18.2654H4.85783V18.8497ZM9.67871 18.8497H12.0994V18.2654H9.67871V18.8497ZM0.0703125 19.4333H2.59735V18.8497H0.0714766L0.0703125 19.4333ZM4.85783 19.4333H7.37865V18.8497H4.85783V19.4333ZM9.67871 19.4333H12.0994V18.8497H9.67871V19.4333Z" fill="currentColor"/>
<path fill-rule="evenodd" clip-rule="evenodd" d="M0.0685469 19.9981H2.59713V19.4336H0.0700988L0.0685469 19.9981ZM4.85761 19.9981H7.37844V19.4336H4.85761V19.9981ZM9.6785 19.9981H12.0992V19.4336H9.6785V19.9981ZM0.0673828 20.5817H2.59675V19.9981H0.0681588L0.0673828 20.5817ZM4.85761 20.5817H7.37844V19.9981H4.85761V20.5817ZM9.6785 20.5817H12.0992V19.9981H9.6785V20.5817Z" fill="currentColor"/>
<path fill-rule="evenodd" clip-rule="evenodd" d="M0.0662491 21.1654H2.59678V20.5811H0.0674132L0.0662491 21.1654ZM4.85764 21.1654H7.37847V20.5811H4.85764V21.1654ZM9.67853 21.1654H12.0992V20.5811H9.67853V21.1654ZM0.0646973 21.7295H2.59678V21.1658H0.0662491L0.0646973 21.7295ZM4.85764 21.7295H7.37847V21.1658H4.85764V21.7295ZM9.67853 21.7295H12.0992V21.1658H9.67853V21.7295Z" fill="currentColor"/>
<path fill-rule="evenodd" clip-rule="evenodd" d="M0.0639648 22.3138H2.59721V21.7295H0.0651289L0.0639648 22.3138ZM4.85769 22.3138H7.37852V21.7295H4.85769V22.3138ZM9.67857 22.3138H12.0993V21.7295H9.67857V22.3138Z" fill="currentColor"/>
<path fill-rule="evenodd" clip-rule="evenodd" d="M0.0624434 22.897H2.59685V22.3135H0.0636071L0.0624434 22.897ZM4.85772 22.897H7.37854V22.3135H4.85772V22.897ZM9.6786 22.897H12.0993V22.3135H9.6786V22.897ZM0.0612793 23.4608H2.59685V22.897H0.0624434L0.0612793 23.4608ZM4.85772 23.4608H7.37854V22.897H4.85772V23.4608ZM9.6786 23.4608H12.0993V22.897H9.6786V23.4608Z" fill="currentColor"/>
<path fill-rule="evenodd" clip-rule="evenodd" d="M0.0601892 24.0453H2.59692V23.4609H0.0613532L0.0601892 24.0453ZM4.85779 24.0453H7.37862V23.4609H4.85779V24.0453ZM9.67868 24.0453H12.0994V23.4609H9.67868V24.0453ZM0.0594132 24.6296H2.59731V24.0453H0.0605773L0.0594132 24.6296ZM4.85779 24.6296H7.37862V24.0453H4.85779V24.6296ZM9.67868 24.6296H12.0994V24.0453H9.67868V24.6296ZM0.0578613 25.1933H2.59731V24.6296H0.0594132L0.0578613 25.1933ZM4.85779 25.1933H7.37862V24.6296H4.85779V25.1933ZM9.67868 25.1933H12.0994V24.6296H9.67868V25.1933Z" fill="currentColor"/>
<path fill-rule="evenodd" clip-rule="evenodd" d="M0.0566406 25.7764H2.59726V25.1929H0.0578047L0.0566406 25.7764ZM4.85774 25.7764H7.37856V25.1929H4.85774V25.7764ZM9.67862 25.7764H12.0993V25.1929H9.67862V25.7764Z" fill="currentColor"/>
<path fill-rule="evenodd" clip-rule="evenodd" d="M30.7244 3.60493H31.0546L30.7244 3.021V3.60493ZM30.7244 4.20905H31.3968L31.0546 3.60493H30.7244V4.20905Z" fill="currentColor"/>
<path fill-rule="evenodd" clip-rule="evenodd" d="M30.7244 4.8131H31.7386L31.3968 4.20898H30.7244V4.8131ZM35.6256 4.8131H37.9861V4.22916H35.6256V4.8131Z" fill="currentColor"/>
<path fill-rule="evenodd" clip-rule="evenodd" d="M30.7244 5.41749H32.0808L31.7386 4.81299H30.7244V5.41749ZM35.6256 5.41749H37.9861V4.81299H35.6256V5.41749Z" fill="currentColor"/>
<path fill-rule="evenodd" clip-rule="evenodd" d="M30.7244 6.00142H32.411L32.0808 5.41748H30.7244V6.00142ZM35.6256 6.00142H37.9861V5.41748H35.6256V6.00142Z" fill="currentColor"/>
<path fill-rule="evenodd" clip-rule="evenodd" d="M30.7244 6.60558H32.7532L32.411 6.00146H30.7244V6.60558ZM35.6256 6.60558H37.9861V6.00146H35.6256V6.60558ZM30.7244 7.20969H33.095L32.7532 6.60558H30.7244V7.20969ZM35.6256 7.20969H37.9861V6.60558H35.6256V7.20969Z" fill="currentColor"/>
<path fill-rule="evenodd" clip-rule="evenodd" d="M30.7245 7.8132H33.4374L33.0952 7.20947H30.7245V7.8132ZM35.6257 7.8132H37.9863V7.20947H35.6257V7.8132ZM30.7245 8.39753H33.7676L33.437 7.8132H30.7241V8.39753H30.7245ZM35.6257 8.39753H37.9863V7.8132H35.6257V8.39753Z" fill="currentColor"/>
<path fill-rule="evenodd" clip-rule="evenodd" d="M30.7244 9.00206H34.1093L33.7674 8.39795H30.7244V9.00206ZM35.6256 9.00206H37.9861V8.39795H35.6256V9.00206ZM30.7244 9.60618H34.4519L34.1093 9.00206H30.7244V9.60618ZM35.6256 9.60618H37.9861V9.00206H35.6256V9.60618Z" fill="currentColor"/>
<path fill-rule="evenodd" clip-rule="evenodd" d="M30.7244 10.2105H34.7937L34.4519 9.60596H30.7244V10.2105ZM35.6256 10.2105H37.9861V9.60596H35.6256V10.2105Z" fill="currentColor"/>
<path fill-rule="evenodd" clip-rule="evenodd" d="M30.7244 10.7939H35.1239L34.7933 10.21H30.7244V10.7939ZM35.6256 10.7939H37.9861V10.21H35.6256V10.7939ZM30.7244 11.398H35.4657L35.1239 10.7939H30.7244V11.398ZM35.6256 11.398H37.9861V10.7939H35.6256V11.398Z" fill="currentColor"/>
<path fill-rule="evenodd" clip-rule="evenodd" d="M30.7244 12.0021H37.9861V11.3979H35.6256V11.6804L35.4657 11.3979H30.7244V12.0021ZM30.7244 12.6062H33.0446V12.0626L33.3946 12.6062H37.9861V12.0021H30.7244V12.6062Z" fill="currentColor"/>
<path fill-rule="evenodd" clip-rule="evenodd" d="M30.7244 13.1909H33.0446V12.6069H30.7244V13.1909ZM33.7698 13.1909H37.9861V12.6069H33.3946L33.7698 13.1909Z" fill="currentColor"/>
<path fill-rule="evenodd" clip-rule="evenodd" d="M30.7244 13.795H33.0446V13.1909H30.7244V13.795ZM34.1585 13.795H37.9861V13.1909H33.7698L34.1585 13.795Z" fill="currentColor"/>
<path fill-rule="evenodd" clip-rule="evenodd" d="M30.7244 14.3985H33.0446V13.7944H30.7244V14.3985ZM34.5473 14.3985H37.9861V13.7944H34.1585L34.5473 14.3985Z" fill="currentColor"/>
<path fill-rule="evenodd" clip-rule="evenodd" d="M30.7244 14.9833H33.0446V14.3989H30.7244V14.9833ZM34.9225 14.9833H37.9861V14.3989H34.5473L34.9225 14.9833Z" fill="currentColor"/>
<path fill-rule="evenodd" clip-rule="evenodd" d="M30.7244 15.587H33.0446V14.9829H30.7244V15.587ZM35.3109 15.587H37.9861V14.9829H34.9225L35.3109 15.587Z" fill="currentColor"/>
<path fill-rule="evenodd" clip-rule="evenodd" d="M30.7244 16.191H33.0446V15.5869H30.7244V16.191ZM35.6997 16.191H37.9861V15.5869H35.3109L35.6997 16.191ZM30.7244 16.7951H33.0446V16.191H30.7244V16.7951ZM35.7257 16.7951H37.9861V16.191H35.6997L35.7253 16.2314V16.7951H35.7257ZM30.7244 17.3795H33.0446V16.7951H30.7244V17.3795ZM35.7257 17.3795H37.9861V16.7951H35.7257V17.3795Z" fill="currentColor"/>
<path fill-rule="evenodd" clip-rule="evenodd" d="M30.7244 17.983H33.0446V17.3789H30.7244V17.983ZM35.7257 17.983H37.9861V17.3789H35.7257V17.983ZM30.7244 18.5871H33.0446V17.983H30.7244V18.5871ZM35.7257 18.5871H37.9861V17.983H35.7257V18.5871Z" fill="currentColor"/>
<path fill-rule="evenodd" clip-rule="evenodd" d="M30.7244 19.1918H33.0446V18.5869H30.7244V19.1918ZM35.7257 19.1918H37.9861V18.5869H35.7257V19.1918Z" fill="currentColor"/>
<path fill-rule="evenodd" clip-rule="evenodd" d="M30.7244 19.7754H33.0446V19.1919H30.7244V19.7754ZM35.7257 19.7754H37.9861V19.1919H35.7257V19.7754ZM30.7244 20.3803H33.0446V19.7754H30.7244V20.3803ZM35.7257 20.3803H37.9861V19.7754H35.7257V20.3803Z" fill="currentColor"/>
<path fill-rule="evenodd" clip-rule="evenodd" d="M30.7244 20.9845H33.0446V20.3804H30.7244V20.9845ZM35.7257 20.9845H37.9861V20.3804H35.7257V20.9845Z" fill="currentColor"/>
<path fill-rule="evenodd" clip-rule="evenodd" d="M30.7244 21.588H33.0446V20.9839H30.7244V21.588ZM35.7257 21.588H37.9861V20.9839H35.7257V21.588ZM30.7244 22.1723H33.0446V21.588H30.7244V22.1723ZM35.7257 22.1723H37.9861V21.588H35.7257V22.1723Z" fill="currentColor"/>
<path fill-rule="evenodd" clip-rule="evenodd" d="M30.7244 22.777H33.0446V22.1729H30.7244V22.777ZM35.7257 22.777H37.9861V22.1729H35.7257V22.777Z" fill="currentColor"/>
<path fill-rule="evenodd" clip-rule="evenodd" d="M30.7244 23.3805H33.0446V22.7764H30.7244V23.3805ZM35.7257 23.3805H37.9861V22.7764H35.7257V23.3805Z" fill="currentColor"/>
<path fill-rule="evenodd" clip-rule="evenodd" d="M30.7244 23.9845H33.0446V23.3804H30.7244V23.9845ZM35.7257 23.9845H37.9861V23.3804H35.7257V23.9845Z" fill="currentColor"/>
<path fill-rule="evenodd" clip-rule="evenodd" d="M30.7244 24.5692H33.0446V23.9849H30.7244V24.5692ZM35.7257 24.5692H37.9861V23.9849H35.7257V24.5692ZM30.7244 25.1733H33.0446V24.5692H30.7244V25.1733ZM35.7257 25.1733H37.9861V24.5692H35.7257V25.1733Z" fill="currentColor"/>
<path fill-rule="evenodd" clip-rule="evenodd" d="M30.7244 25.777H33.0446V25.1729H30.7244V25.777ZM35.7257 25.777H37.9861V25.1729H35.7257V25.777Z" fill="currentColor"/>
<path fill-rule="evenodd" clip-rule="evenodd" d="M51.9573 0.846225H53.81V0C53.81 0 53.0642 0.255303 51.9573 0.846225Z" fill="currentColor"/>
<path fill-rule="evenodd" clip-rule="evenodd" d="M50.5249 1.69164H53.8101V0.846191H51.9574C51.468 1.10726 50.99 1.38934 50.5249 1.69164Z" fill="currentColor"/>
<path fill-rule="evenodd" clip-rule="evenodd" d="M49.3511 2.51756H53.81V1.69189H50.5248C50.1237 1.95275 49.7322 2.22816 49.3511 2.51756ZM48.3159 3.36339H53.81V2.51756H49.3511C48.9963 2.7874 48.6511 3.06951 48.3159 3.36339ZM47.4158 4.20923H52.9191C53.4654 3.95276 53.8104 3.84684 53.8104 3.84684V3.36339H48.3163C48.0065 3.63489 47.7061 3.917 47.4158 4.20923Z" fill="currentColor"/>
<path fill-rule="evenodd" clip-rule="evenodd" d="M46.6281 5.05472H51.4168C51.8965 4.737 52.3985 4.45419 52.9188 4.2085H47.4154C47.1438 4.48191 46.8813 4.76413 46.6281 5.05472ZM45.9395 5.90056H50.2815C50.6437 5.59749 51.0227 5.31522 51.4168 5.05511H46.6281C46.3895 5.32937 46.1598 5.61133 45.9395 5.90056Z" fill="currentColor"/>
<path fill-rule="evenodd" clip-rule="evenodd" d="M45.3347 6.74623H49.3683C49.6581 6.4488 49.9629 6.16648 50.2817 5.90039H45.9396C45.7289 6.17579 45.5272 6.45788 45.3347 6.74623ZM44.8179 7.57189H48.635C48.8667 7.28553 49.1116 7.01002 49.3687 6.74623H45.3351C45.1566 7.01201 44.9847 7.2871 44.8179 7.57189Z" fill="currentColor"/>
<path fill-rule="evenodd" clip-rule="evenodd" d="M44.3562 8.41761H48.0081C48.2046 8.12671 48.4137 7.8445 48.6347 7.57178H44.8176C44.6556 7.84918 44.5018 8.13124 44.3562 8.41761ZM43.9578 9.26384H47.4886C47.6554 8.96741 47.8288 8.68572 48.0085 8.418H44.3566C44.2169 8.69193 44.0835 8.97362 43.9578 9.26384Z" fill="currentColor"/>
<path fill-rule="evenodd" clip-rule="evenodd" d="M43.6169 10.1095H47.0581C47.1908 9.82225 47.3344 9.5401 47.4884 9.26367H43.9576C43.8363 9.54245 43.7227 9.8245 43.6169 10.1095Z" fill="currentColor"/>
<path fill-rule="evenodd" clip-rule="evenodd" d="M43.33 10.9547H46.706C46.815 10.6622 46.9326 10.3797 47.0575 10.1089H43.6164C43.5151 10.3844 43.4197 10.6664 43.33 10.9547ZM43.0984 11.7804H46.4266C46.5132 11.496 46.6063 11.2209 46.7064 10.9547H43.3304C43.2458 11.2279 43.1684 11.5032 43.0984 11.7804Z" fill="currentColor"/>
<path fill-rule="evenodd" clip-rule="evenodd" d="M42.9052 12.6266H46.2031C46.2707 12.336 46.3448 12.0539 46.4266 11.7808H43.0984C43.0269 12.061 42.9624 12.3431 42.9052 12.6266ZM42.7573 13.4724H46.0332C46.0825 13.1822 46.1391 12.9005 46.2031 12.6266H42.9052C42.8497 12.9032 42.8004 13.1853 42.7573 13.4724Z" fill="currentColor"/>
<path fill-rule="evenodd" clip-rule="evenodd" d="M42.6512 14.318H45.9143C45.9468 14.0286 45.9872 13.7465 46.0334 13.4722H42.7575C42.7155 13.7533 42.6801 14.0353 42.6512 14.318ZM42.581 15.1638H45.8417C45.8592 14.8752 45.8832 14.5931 45.9146 14.318H42.6516C42.6219 14.5994 42.5983 14.8814 42.581 15.1638ZM42.5522 15.9895H45.8114C45.8153 15.7086 45.825 15.4331 45.8417 15.1642H42.581C42.5658 15.4391 42.5562 15.7142 42.5522 15.9895Z" fill="currentColor"/>
<path fill-rule="evenodd" clip-rule="evenodd" d="M42.5542 16.8351H45.8204C45.8124 16.6338 45.8084 16.4324 45.8084 16.231C45.8084 16.1499 45.8099 16.07 45.8115 15.9893H42.5523C42.5507 16.1029 42.5476 16.2166 42.5476 16.3319C42.5476 16.5018 42.5507 16.6694 42.5542 16.8351ZM50.5493 16.8351H53.81V16.3319H50.5493V16.8351Z" fill="currentColor"/>
<path fill-rule="evenodd" clip-rule="evenodd" d="M42.5975 17.6821H45.8796C45.852 17.4005 45.8323 17.1182 45.8206 16.8354H42.5544C42.5626 17.1226 42.5769 17.4046 42.5975 17.6821ZM50.5492 17.6821H53.8099V16.8354H50.5492V17.6821Z" fill="currentColor"/>
<path fill-rule="evenodd" clip-rule="evenodd" d="M42.6764 18.528H45.9895C45.9442 18.2472 45.9076 17.9651 45.8797 17.6821H42.5977C42.6178 17.9685 42.6438 18.2513 42.6764 18.528ZM50.5493 18.528H53.81V17.6821H50.5493V18.528Z" fill="currentColor"/>
<path fill-rule="evenodd" clip-rule="evenodd" d="M42.8012 19.3732H46.1531C46.0897 19.093 46.0351 18.8109 45.9894 18.5273H42.6763C42.7112 18.8149 42.7535 19.0965 42.8012 19.3732ZM50.5491 19.3732H53.8099V18.5273H50.5491V19.3732Z" fill="currentColor"/>
<path fill-rule="evenodd" clip-rule="evenodd" d="M42.9704 20.2189H46.3759C46.2924 19.9395 46.2181 19.6574 46.1532 19.373H42.8013C42.8513 19.6609 42.9076 19.943 42.9704 20.2189ZM50.5492 20.2189H53.81V19.373H50.5492V20.2189Z" fill="currentColor"/>
<path fill-rule="evenodd" clip-rule="evenodd" d="M43.1804 21.0445H46.6533C46.5514 20.7727 46.4589 20.4974 46.3759 20.2192H42.9705C43.0341 20.5005 43.1035 20.7756 43.1804 21.0445ZM50.5492 21.0445H53.81V20.2192H50.5492V21.0445ZM43.4461 21.8911H47.0056C46.8783 21.6131 46.7608 21.3308 46.6533 21.0445H43.1804C43.2622 21.3332 43.3507 21.616 43.4461 21.8911ZM50.5492 21.8911H53.81V21.0445H50.5492V21.8911Z" fill="currentColor"/>
<path fill-rule="evenodd" clip-rule="evenodd" d="M43.7682 22.7365H47.4336C47.2803 22.46 47.1375 22.1778 47.0053 21.8906H43.4458C43.5471 22.1797 43.6545 22.4614 43.7682 22.7365ZM50.5493 22.7365H53.81V21.8906H50.5493V22.7365Z" fill="currentColor"/>
<path fill-rule="evenodd" clip-rule="evenodd" d="M44.1511 23.5822H47.9477C47.7655 23.307 47.5942 23.0248 47.434 22.7363H43.7686C43.8888 23.0258 44.0169 23.3079 44.1511 23.5822ZM50.5492 23.5822H53.81V22.7363H50.5492V23.5822Z" fill="currentColor"/>
<path fill-rule="evenodd" clip-rule="evenodd" d="M44.5989 24.4279H48.5615C48.345 24.1548 48.1402 23.8726 47.9477 23.582H44.1511C44.2935 23.873 44.4437 24.1543 44.5989 24.4279ZM50.5492 24.4279H53.81V23.582H50.5492V24.4279Z" fill="currentColor"/>
<path fill-rule="evenodd" clip-rule="evenodd" d="M45.1052 25.2535H49.2778C49.0266 24.9894 48.7876 24.714 48.5615 24.4282H44.5989C44.7585 24.7088 44.9274 24.9841 45.1052 25.2535ZM50.5492 25.2535H53.81V24.4282H50.5492V25.2535Z" fill="currentColor"/>
<path fill-rule="evenodd" clip-rule="evenodd" d="M45.7031 26.0995H50.1818C49.8639 25.8356 49.562 25.5529 49.2778 25.2529H45.1052C45.2951 25.5417 45.4945 25.824 45.7031 26.0995ZM50.5492 26.0995H53.81V25.2529H50.5492V26.0995Z" fill="currentColor"/>
<path fill-rule="evenodd" clip-rule="evenodd" d="M46.3903 26.9454H53.81V26.0996H50.5492V26.3817C50.5492 26.3817 50.4115 26.2886 50.1818 26.0996H45.7031C45.9225 26.3892 46.1517 26.6713 46.3903 26.9454Z" fill="currentColor"/>
<path fill-rule="evenodd" clip-rule="evenodd" d="M47.1805 27.7911H53.8098V26.9453H46.3901C46.6485 27.2425 46.9132 27.5234 47.1805 27.7911Z" fill="currentColor"/>
<path fill-rule="evenodd" clip-rule="evenodd" d="M48.0925 28.6369H53.81V27.791H47.1807C47.4745 28.0837 47.7786 28.3658 48.0925 28.6369Z" fill="currentColor"/>
<path fill-rule="evenodd" clip-rule="evenodd" d="M49.1489 29.4826H53.8103V28.6367H48.0928C48.434 28.9319 48.7863 29.214 49.1489 29.4826ZM50.3567 30.3086H53.8099V29.4826H49.1485C49.5406 29.7732 49.9436 30.0487 50.3567 30.3086ZM51.8467 31.1544H53.8103V30.3086H50.3571C50.8926 30.6442 51.397 30.9255 51.8467 31.1544Z" fill="currentColor"/>
<path fill-rule="evenodd" clip-rule="evenodd" d="M53.8101 32.0001V31.1543H51.8464C53.0151 31.7495 53.8101 32.0001 53.8101 32.0001Z" fill="currentColor"/>
<path fill-rule="evenodd" clip-rule="evenodd" d="M59.3518 17.158H61.7322V16.9966H59.3518V17.158ZM64.5134 17.158H66.9938V16.9966H64.5134V17.158ZM59.3518 17.7415H61.7322V17.158H59.3518V17.7415ZM64.5134 17.7415H66.9938V17.158H64.5134V17.7415Z" fill="currentColor"/>
<path fill-rule="evenodd" clip-rule="evenodd" d="M59.3518 18.326H61.7322V17.7417H59.3518V18.326ZM64.5134 18.326H66.9938V17.7417H64.5134V18.326Z" fill="currentColor"/>
<path fill-rule="evenodd" clip-rule="evenodd" d="M59.3518 18.9092H61.7322V18.3257H59.3518V18.9092ZM64.5134 18.9092H66.9938V18.3257H64.5134V18.9092ZM59.3518 19.4936H61.7322V18.9092H59.3518V19.4936ZM64.5134 19.4936H66.9938V18.9092H64.5134V19.4936Z" fill="currentColor"/>
<path fill-rule="evenodd" clip-rule="evenodd" d="M59.3518 20.0785H61.7322V19.4941H59.3518V20.0785ZM64.5134 20.0785H66.9938V19.4941H64.5134V20.0785ZM59.3518 20.6628H61.7322V20.0785H59.3518V20.6628ZM64.5134 20.6628H66.9938V20.0785H64.5134V20.6628Z" fill="currentColor"/>
<path fill-rule="evenodd" clip-rule="evenodd" d="M59.3518 21.2457H61.7322V20.6621H59.3518V21.2457ZM64.5134 21.2457H66.9938V20.6621H64.5134V21.2457ZM59.3518 21.8498H61.7322V21.2457H59.3518V21.8498ZM64.5134 21.8498H66.9938V21.2457H64.5134V21.8498ZM59.3518 22.4341H61.7322V21.8498H59.3518V22.4341ZM64.5134 22.4341H66.9938V21.8498H64.5134V22.4341Z" fill="currentColor"/>
<path fill-rule="evenodd" clip-rule="evenodd" d="M59.4104 23.0184H61.993C61.7815 22.7243 61.7322 22.4341 61.7322 22.4341H59.3518C59.3518 22.4341 59.3484 22.6696 59.4104 23.0184ZM64.4075 23.0184H66.9523C66.9811 22.8244 66.9911 22.6653 66.9939 22.5629V22.4341H64.5134C64.5134 22.4341 64.5421 22.7243 64.4075 23.0184ZM59.5606 23.602H62.9843C62.4818 23.5298 62.1765 23.2729 61.993 23.0184H59.4104C59.4415 23.1903 59.4884 23.3897 59.5606 23.602ZM63.5609 23.602H66.8193C66.8852 23.3897 66.926 23.1903 66.952 23.0184H64.4071C64.2907 23.2729 64.0505 23.5298 63.5609 23.602Z" fill="currentColor"/>
<path fill-rule="evenodd" clip-rule="evenodd" d="M59.8143 24.1864H66.5837C66.6854 23.9885 66.7618 23.7902 66.8192 23.6021H63.5608C63.3696 23.6299 63.1754 23.6299 62.9842 23.6021H59.5605C59.6242 23.7898 59.7064 23.9885 59.8143 24.1864Z" fill="currentColor"/>
<path fill-rule="evenodd" clip-rule="evenodd" d="M60.2204 24.7704H66.1964C66.347 24.5907 66.4769 24.3947 66.5836 24.186H59.8142C59.9277 24.3952 60.0639 24.5911 60.2204 24.7704ZM60.9053 25.3539H65.531C65.7808 25.1939 66.0051 24.9971 66.1964 24.7704H60.2204C60.419 24.9973 60.6497 25.1939 60.9053 25.3539Z" fill="currentColor"/>
<path fill-rule="evenodd" clip-rule="evenodd" d="M65.531 25.3535H60.9053C61.4601 25.7019 62.2117 25.9378 63.2325 25.9378C64.2483 25.9378 64.9901 25.7023 65.531 25.3535Z" fill="currentColor"/>
<path fill-rule="evenodd" clip-rule="evenodd" d="M60.8932 4.26948H65.4696C64.9155 3.92029 64.1609 3.68555 63.1327 3.68555C62.1549 3.68516 61.4305 3.92029 60.8932 4.26948ZM60.2285 4.85342H66.1509C65.954 4.6261 65.7244 4.4293 65.4696 4.26948H60.8932C60.6443 4.43066 60.4204 4.6274 60.2285 4.85342Z" fill="currentColor"/>
<path fill-rule="evenodd" clip-rule="evenodd" d="M59.8308 5.43745H66.5494C66.4385 5.22875 66.3048 5.03292 66.1509 4.85352H60.2285C60.0756 5.03345 59.9422 5.2292 59.8308 5.43745ZM59.5775 6.02139H66.7962C66.7312 5.81983 66.6485 5.62442 66.549 5.43745H59.8305C59.7303 5.62487 59.6457 5.82017 59.5775 6.02139ZM59.4238 6.60572H61.9489C62.1348 6.33373 62.477 6.08192 63.1121 6.08192C63.7578 6.08192 64.1058 6.33334 64.2928 6.60572H66.9398C66.9068 6.40775 66.8589 6.21255 66.7966 6.02178H59.5779C59.513 6.21261 59.4616 6.40773 59.4238 6.60572Z" fill="currentColor"/>
<path fill-rule="evenodd" clip-rule="evenodd" d="M59.3535 7.18931H61.7377C61.7606 6.98057 61.8331 6.78034 61.9492 6.60537H59.4241C59.3733 6.87115 59.3581 7.08105 59.3535 7.18931ZM64.5077 7.18931H66.9939V7.14314C66.9882 6.96273 66.9702 6.78293 66.94 6.60498H64.2931C64.4483 6.82963 64.4937 7.06825 64.5077 7.18931ZM59.3519 7.79342H61.7323V7.26962C61.7323 7.26962 61.7323 7.23936 61.7377 7.18931H59.3535C59.3512 7.24091 59.3519 7.26962 59.3519 7.26962V7.79342ZM64.5135 7.79342H66.9939V7.18931H64.5077C64.5139 7.23936 64.5139 7.26962 64.5139 7.26962V7.79342H64.5135Z" fill="currentColor"/>
<path fill-rule="evenodd" clip-rule="evenodd" d="M59.3518 8.37778H61.7322V7.79346H59.3518V8.37778ZM64.5134 8.37778H66.9938V7.79346H64.5134V8.37778ZM59.3518 8.96172H61.7322V8.37778H59.3518V8.96172ZM64.5134 8.96172H66.9938V8.37778H64.5134V8.96172Z" fill="currentColor"/>
<path fill-rule="evenodd" clip-rule="evenodd" d="M59.3518 9.54536H61.7322V8.96143H59.3518V9.54536ZM64.5134 9.54536H66.9938V8.96143H64.5134V9.54536ZM59.3518 10.1297H61.7322V9.54575H59.3518V10.1297ZM64.5134 10.1297H66.9938V9.54575H64.5134V10.1297Z" fill="currentColor"/>
<path fill-rule="evenodd" clip-rule="evenodd" d="M59.3518 10.7138H61.7322V10.1299H59.3518V10.7138ZM64.5134 10.7138H66.9938V10.1299H64.5134V10.7138ZM59.3518 11.2978H61.7322V10.7138H59.3518V11.2978ZM64.5134 11.2978H66.9938V10.7138H64.5134V11.2978ZM59.3518 11.8817H61.7322V11.2978H59.3518V11.8817ZM64.5134 11.8817H66.9938V11.2978H64.5134V11.8817Z" fill="currentColor"/>
<path fill-rule="evenodd" clip-rule="evenodd" d="M59.3518 12.4653H61.7322V11.8813H59.3518V12.4653ZM64.5134 12.4653H66.9938V11.8813H64.5134V12.4653Z" fill="currentColor"/>
<path fill-rule="evenodd" clip-rule="evenodd" d="M59.3518 13.0497H61.7322V12.4653H59.3518V13.0497ZM64.5134 13.0497H66.9938V12.4653H64.5134V13.0497Z" fill="currentColor"/>
<path fill-rule="evenodd" clip-rule="evenodd" d="M59.3518 13.6337H61.7322V13.0498H59.3518V13.6337ZM64.5134 13.6337H66.9938V13.0498H64.5134V13.6337ZM59.3518 14.2181H61.7322V13.6341H59.3518V14.2181ZM64.5134 14.2181H66.9938V13.6341H64.5134V14.2181ZM59.3518 14.8222H61.7322V14.2181H59.3518V14.8222ZM64.5134 14.8222H66.9938V14.2181H64.5134V14.8222Z" fill="currentColor"/>
<path fill-rule="evenodd" clip-rule="evenodd" d="M59.3518 15.4057H61.7322V14.8218H59.3518V15.4057ZM64.5134 15.4057H66.9938V14.8218H64.5134V15.4057ZM59.3518 15.9897H61.7322V15.4057H59.3518V15.9897ZM64.5134 15.9897H66.9938V15.4057H64.5134V15.9897Z" fill="currentColor"/>
<path fill-rule="evenodd" clip-rule="evenodd" d="M59.3518 16.5736H61.7322V15.9893H59.3518V16.5736ZM64.5134 16.5736H66.9938V15.9893H64.5134V16.5736ZM66.9938 16.9965V16.5736H64.5134V16.9965H66.9938ZM61.7322 16.5736H59.3518V16.9965H61.7322V16.5736Z" fill="currentColor"/>
<path fill-rule="evenodd" clip-rule="evenodd" d="M19.4388 4.43062H24.0509C23.5101 4.08258 22.7663 3.84668 21.7423 3.84668C20.7231 3.84668 19.9804 4.08258 19.4388 4.43062ZM18.7722 5.01456H24.7136C24.5237 4.78723 24.3001 4.5903 24.0505 4.43062H19.4388C19.1885 4.59059 18.9637 4.78746 18.7722 5.01456Z" fill="currentColor"/>
<path fill-rule="evenodd" clip-rule="evenodd" d="M18.3958 5.5789H25.0856C24.9828 5.37788 24.8582 5.18882 24.7139 5.01514H18.7721C18.6265 5.18878 18.5003 5.37782 18.3958 5.5789Z" fill="currentColor"/>
<path fill-rule="evenodd" clip-rule="evenodd" d="M18.1555 6.16206H25.3203C25.2598 5.96074 25.1812 5.76529 25.0855 5.57812H18.3957C18.2985 5.76531 18.2182 5.96072 18.1555 6.16206ZM18.0212 6.74639H20.6538C20.835 6.50156 21.1687 6.26294 21.7821 6.26294C22.4149 6.26294 22.7498 6.50156 22.9259 6.74639H25.4487C25.4212 6.54871 25.3784 6.35348 25.3207 6.16245H18.1555C18.0884 6.37702 18.0468 6.57683 18.0212 6.74639Z" fill="currentColor"/>
<path fill-rule="evenodd" clip-rule="evenodd" d="M17.9811 7.31035H20.4418V7.26999C20.4418 7.26999 20.4632 7.0046 20.654 6.74658H18.0215C17.9738 7.06125 17.9811 7.26999 17.9811 7.26999V7.31035ZM23.1225 7.31035H25.4831V7.14428C25.479 7.01117 25.4675 6.87839 25.4485 6.74658H22.9258C23.112 7.0046 23.1225 7.26999 23.1225 7.26999V7.31035ZM17.9811 7.89428H20.4418V7.31035H17.9811V7.89428ZM23.1225 7.89428H25.4831V7.31035H23.1225V7.89428Z" fill="currentColor"/>
<path fill-rule="evenodd" clip-rule="evenodd" d="M17.981 8.47896H20.4416V7.89502H17.981V8.47896ZM23.1223 8.47896H25.4829V7.89502H23.1223V8.47896ZM17.981 9.04272H20.4416V8.47896H17.981V9.04272ZM23.1223 9.04272H25.4829V8.47896H23.1223V9.04272Z" fill="currentColor"/>
<path fill-rule="evenodd" clip-rule="evenodd" d="M17.981 9.62593H20.4416V9.04199H17.981V9.62593ZM23.1223 9.62593H25.4829V9.04199H23.1223V9.62593ZM17.981 10.1897H20.4416V9.62593H17.981V10.1897ZM23.1223 10.1897H25.4829V9.62593H23.1223V10.1897Z" fill="currentColor"/>
<path fill-rule="evenodd" clip-rule="evenodd" d="M17.981 10.7743H20.4416V10.1899H17.981V10.7743ZM23.1223 10.7743H25.4829V10.1899H23.1223V10.7743ZM17.981 11.3582H20.4416V10.7743H17.981V11.3582ZM23.1223 11.3582H25.4829V10.7743H23.1223V11.3582Z" fill="currentColor"/>
<path fill-rule="evenodd" clip-rule="evenodd" d="M17.981 11.9217H20.4416V11.3579H17.981V11.9217ZM23.1223 11.9217H25.4829V11.3579H23.1223V11.9217Z" fill="currentColor"/>
<path fill-rule="evenodd" clip-rule="evenodd" d="M17.981 12.5062H20.4416V11.9219H17.981V12.5062ZM23.1223 12.5062H25.4829V11.9219H23.1223V12.5062Z" fill="currentColor"/>
<path fill-rule="evenodd" clip-rule="evenodd" d="M17.981 13.0898H20.4416V12.5059H17.981V13.0898ZM23.1223 13.0898H25.4829V12.5059H23.1223V13.0898Z" fill="currentColor"/>
<path fill-rule="evenodd" clip-rule="evenodd" d="M17.981 13.6536H20.4416V13.0898H17.981V13.6536ZM23.1223 13.6536H25.4829V13.0898H23.1223V13.6536ZM17.981 14.2375H20.4416V13.6536H17.981V14.2375ZM23.1223 14.2375H25.4829V13.6536H23.1223V14.2375ZM17.981 14.8219H20.4416V14.2379H17.981V14.8219ZM23.1223 14.8219H25.4829V14.2379H23.1223V14.8219Z" fill="currentColor"/>
<path fill-rule="evenodd" clip-rule="evenodd" d="M17.981 15.3855H20.4416V14.8218H17.981V15.3855ZM23.1223 15.3855H25.4829V14.8218H23.1223V15.3855ZM17.981 15.9695H20.4416V15.3855H17.981V15.9695ZM23.1223 15.9695H25.4829V15.3855H23.1223V15.9695Z" fill="currentColor"/>
<path fill-rule="evenodd" clip-rule="evenodd" d="M17.981 16.5537H20.4416V15.9697H17.981V16.5537ZM23.1223 16.5537H25.4829V15.9697H23.1223V16.5537Z" fill="currentColor"/>
<path fill-rule="evenodd" clip-rule="evenodd" d="M17.981 17.117H20.4416V16.5532H17.981V17.117ZM23.1223 17.117H25.4829V16.5532H23.1223V17.117ZM17.981 17.7013H20.4416V17.117H17.981V17.7013ZM23.1223 17.7013H25.4829V17.117H23.1223V17.7013Z" fill="currentColor"/>
<path fill-rule="evenodd" clip-rule="evenodd" d="M17.9811 18.2654H20.4418V17.7017H17.9811V18.2654ZM23.1225 18.2654H25.4831V17.7017H23.1225V18.2654ZM17.9811 18.8497H20.4418V18.2654H17.9811V18.8497ZM23.1225 18.8497H25.4831V18.2654H23.1225V18.8497ZM14.8872 19.4333H25.4831V18.8497H23.1225V18.9906H20.4418V18.8497H17.9811V18.9906H14.6001L14.8872 19.4333Z" fill="currentColor"/>
<path fill-rule="evenodd" clip-rule="evenodd" d="M15.2531 19.9981H25.4831V19.4336H14.8872L15.2531 19.9981ZM15.6314 20.5817H25.4831V19.9981H15.2531L15.6314 20.5817Z" fill="currentColor"/>
<path fill-rule="evenodd" clip-rule="evenodd" d="M16.01 21.1655H25.483V20.5815H15.6313L16.01 21.1655ZM18.0812 21.7296H20.4018V21.4072H23.1826V21.7296H25.483V21.1655H16.01L16.1408 21.3672H18.0812V21.7296Z" fill="currentColor"/>
<path fill-rule="evenodd" clip-rule="evenodd" d="M18.0811 22.3138H20.4017V21.7295H18.0811V22.3138ZM23.1825 22.3138H25.4829V21.7295H23.1825V22.3138Z" fill="currentColor"/>
<path fill-rule="evenodd" clip-rule="evenodd" d="M18.0811 22.897H20.4017V22.3135H18.0811V22.897ZM23.1825 22.897H25.4829V22.3135H23.1825V22.897ZM18.0811 23.4608H20.4017V22.897H18.0811V23.4608ZM23.1825 23.4608H25.4829V22.897H23.1825V23.4608Z" fill="currentColor"/>
<path fill-rule="evenodd" clip-rule="evenodd" d="M18.0811 24.0453H20.4017V23.4609H18.0811V24.0453ZM23.1825 24.0453H25.4829V23.4609H23.1825V24.0453ZM18.0811 24.6296H20.4017V24.0453H18.0811V24.6296ZM23.1825 24.6296H25.4829V24.0453H23.1825V24.6296ZM18.0811 25.1933H20.4017V24.6296H18.0811V25.1933ZM23.1825 25.1933H25.4829V24.6296H23.1825V25.1933Z" fill="currentColor"/>
<path fill-rule="evenodd" clip-rule="evenodd" d="M18.0811 25.7764H20.4017V25.1929H18.0811V25.7764ZM23.1825 25.7764H25.4829V25.1929H23.1825V25.7764Z" fill="currentColor"/>
</svg>
