<svg width="24" height="29" viewBox="0 0 24 29" fill="none" xmlns="http://www.w3.org/2000/svg">
<path d="M23.4239 22.0659C23.0156 23.0169 22.5113 23.9238 21.9189 24.7725C21.1268 25.9013 20.4787 26.6824 19.9793 27.1164C19.2053 27.828 18.3752 28.1932 17.4868 28.2136C16.8492 28.2136 16.0803 28.0322 15.1849 27.6641C14.2866 27.2978 13.4612 27.1158 12.7063 27.1158C11.9148 27.1158 11.066 27.2978 10.1578 27.6641C9.24833 28.0322 8.51567 28.2241 7.95567 28.2428C7.104 28.2795 6.25467 27.9044 5.4065 27.1164C4.86575 26.6439 4.18967 25.8354 3.37884 24.6897C2.50909 23.4659 1.79392 22.0472 1.23392 20.429C0.634252 18.682 0.333252 16.9897 0.333252 15.3517C0.333252 13.4751 0.738669 11.8569 1.55067 10.5007C2.18942 9.41103 3.03817 8.55237 4.101 7.9212C5.1437 7.29723 6.33344 6.96145 7.5485 6.9482C8.22517 6.9482 9.11242 7.15762 10.2155 7.56887C11.3151 7.98128 12.0209 8.1907 12.3307 8.1907C12.5617 8.1907 13.3463 7.9457 14.6757 7.45803C15.9333 7.00537 16.9944 6.81812 17.8636 6.8922C20.2197 7.08237 21.9895 8.01103 23.1661 9.68403C21.0597 10.9604 20.0173 12.7483 20.0383 15.0419C20.0569 16.8287 20.705 18.3156 21.979 19.4957C22.5565 20.044 23.2011 20.4675 23.918 20.768C23.7677 21.2059 23.6029 21.6388 23.4239 22.0659ZM18.0211 0.805701C18.0211 2.2057 17.5095 3.51353 16.4898 4.72337C15.259 6.16245 13.7709 6.9937 12.1568 6.86245C12.1351 6.68634 12.1242 6.50906 12.1242 6.33162C12.1242 4.98762 12.7093 3.54912 13.7488 2.37253C14.2679 1.77695 14.9271 1.2817 15.7274 0.886784C16.5266 0.497701 17.2814 0.282451 17.9919 0.245117C18.0123 0.432367 18.0211 0.619617 18.0211 0.805117V0.805701Z" fill="currentColor"/>
</svg>
