<svg width="127" height="125" viewBox="0 0 127 125" fill="none" xmlns="http://www.w3.org/2000/svg">
<path d="M1.12488 0.546575C-0.320049 2.23835 -0.398179 4.90616 1.03698 7.14451C2.08162 8.78424 3.27272 10.2418 4.33688 11.8555C5.99659 14.3931 6.62143 17.087 6.28948 20.7048C5.67441 27.4719 6.76788 33.8486 11.0636 38.3904C12.7331 40.1472 14.2073 42.0602 15.3496 44.4417C15.7792 45.3267 16.3454 46.2116 17.0092 46.7191C17.6145 47.1876 18.4444 47.1616 19.3134 47.3828C18.2101 53.2129 16.3844 58.5355 13.7484 63.3636C11.9911 66.578 10.2337 69.7924 8.47639 72.9937C8.1835 73.5403 7.88083 74.0739 7.49031 74.7766C7.01193 73.7616 6.71903 73.0068 6.32851 72.3431C4.92264 69.9485 3.25321 70.1568 2.58933 73.0198C2.16952 74.8026 1.97425 76.8848 2.21833 78.7067C2.73577 82.5458 2.41358 86.1115 1.47633 89.7814C0.402399 93.9848 0.529302 98.2012 2.13043 102.288C3.37034 105.45 4.99101 107.961 7.82228 109.146C7.39271 110.903 7.05099 112.295 6.70929 113.688C6.35782 115.106 5.85991 116.498 5.67441 117.956C5.31318 120.702 6.60192 124.138 8.07613 124.801C9.68702 125.517 11.6982 124.268 12.8991 121.574C13.4946 120.233 13.8558 118.685 14.383 117.071C14.9395 117.461 15.4179 117.8 15.9061 118.125C17.9661 119.466 20.0358 119.453 21.8615 117.631C23.6384 115.861 25.4933 115.34 27.6997 115.366C31.3218 115.405 32.5715 113.427 32.5422 108.43C37.99 104.383 41.7683 97.6417 46.269 91.9677C48.6219 89.0006 50.9454 86.0985 53.8646 83.9382C54.2844 84.3937 54.753 84.8102 55.1435 85.3307C60.6303 92.7095 66.9177 98.6827 73.3613 104.461C80.0783 110.473 87.3517 114.625 95.0742 117.618C99.6433 119.388 104.32 119.557 108.996 118.971C113.975 118.346 118.095 114.911 121.386 110.278C125.115 105.02 127.526 98.6697 126.902 90.9917C126.823 90.0286 126.824 89.0526 126.824 88.0896C126.814 79.3574 124.578 71.6924 120.614 64.8342C118.984 62.0232 117.344 59.2253 115.752 56.3753C111.886 49.4129 106.897 44.2595 101.264 40.0431C92.0868 33.1719 82.3628 28.513 71.8871 26.8082C70.2567 26.5479 69.378 25.676 68.8411 23.4767C67.6988 18.8438 65.9805 14.6274 63.1199 11.3349C55.4365 2.51164 44.1211 1.50959 36.0471 9.49999C34.6412 10.8925 31.7611 10.0075 30.8629 7.93835C30.0819 6.12944 28.9787 5.02328 27.4654 4.64588C25.5617 4.17739 23.6676 3.59178 21.7443 3.39657C20.4068 3.26643 18.9423 3.35753 17.7122 3.98219C15.5839 5.06232 13.5922 6.63698 11.6787 7.91232C10.1849 5.53081 8.63263 2.94109 6.98268 0.468493C6.86552 0.286301 6.71904 0.143151 6.58236 0H1.65206C1.47632 0.182192 1.29085 0.351369 1.12488 0.546575ZM29.3985 111.254C28.4905 111.618 27.5142 111.97 26.5867 111.892C24.556 111.722 22.7597 112.217 21.1878 114.052C20.7192 114.598 20.0944 115.002 19.4989 115.262C17.2729 116.238 15.3984 114.611 15.086 111.345C13.7191 110.877 13.0846 111.866 12.7233 113.115C12.323 114.507 12.0985 115.991 11.7958 117.435C11.376 119.453 10.8293 121.314 8.96454 121.912C7.34388 119.895 7.75394 117.605 8.61308 115.496C9.56986 113.128 9.90178 110.655 9.93106 108.066C9.94083 107.116 9.7944 106.153 9.64796 105.203C9.39412 103.446 9.08168 101.702 8.76926 99.7889C7.01192 100.869 7.64653 103.277 7.31459 105.528C4.66881 103.355 3.53633 100.205 3.2532 96.6526C3.07747 94.3752 3.35084 91.9026 3.86828 89.7033C4.75671 85.9944 4.9129 82.3636 4.27831 78.5896C4.09281 77.5095 4.0733 76.3773 3.92685 74.5944C4.49311 75.3883 4.70789 75.5574 4.77623 75.8047C5.9966 79.878 8.06636 82.8191 10.9953 84.8622C12.8698 86.1766 12.8893 87.2177 11.8934 89.7814C11.4346 90.9656 11.1808 92.28 10.8293 93.5423C10.966 93.6595 11.1026 93.7896 11.2296 93.9067C11.5713 93.6074 12.0497 93.4122 12.2254 92.9958C13.2896 90.354 15.1543 89.4561 17.1557 88.8184C18.8838 88.2848 20.6899 88.0376 22.3106 87.1526C23.9313 86.2807 25.3469 84.7711 26.8601 83.5348C27.8267 82.754 28.7347 81.83 29.75 81.2054C30.9801 80.4506 32.2493 80.2554 33.2354 82.2465C32.8058 83.3006 32.347 84.3937 31.6928 85.9814C32.7668 86.1896 33.6064 86.3588 34.4558 86.528C34.3679 86.8403 34.3386 87.2047 34.1922 87.4129C32.2005 90.328 31.0875 93.7896 30.1015 97.4855C29.008 101.585 26.2939 103.732 23.1697 104.799C22.086 105.177 20.9731 105.424 19.7429 105.762C19.8406 107.363 20.563 108.105 21.5979 108.053C22.7108 108.001 23.8238 107.701 24.9075 107.324C26.5184 106.764 28.8909 107.792 29.6817 109.679C29.8574 110.057 29.6133 111.163 29.3985 111.254ZM47.3527 85.7341C44.2676 89.6643 41.3582 93.8417 38.2731 97.7848C36.301 100.309 34.1824 102.652 32.0443 104.916C30.9508 106.075 30.8532 105.918 29.2521 104.5C29.6621 103.836 30.0429 103.172 30.4725 102.561C31.7124 100.778 32.5617 98.7608 32.8839 96.3533C33.2256 93.7766 33.8895 91.3821 35.2173 89.378C35.3247 89.2218 35.4126 89.0266 35.4907 88.8444C36.711 86.1376 36.5353 85.0965 34.5436 83.3526C35.4906 80.7369 34.7975 78.3294 32.7082 77.8478C31.4976 77.5746 30.1308 77.8348 28.9494 78.3294C27.8267 78.7978 26.743 79.7088 25.8155 80.7109C23.3747 83.3787 20.6509 85.0314 17.5267 85.617C16.6676 85.7732 15.8377 86.1766 14.8419 86.528C14.2756 83.5218 12.4792 82.2074 10.8195 80.6848C9.0329 79.0581 8.93527 78.8239 9.96038 76.2472C10.7902 74.165 11.7079 72.1088 12.8112 70.2869C16.3161 64.5739 19.3133 58.5095 20.8559 51.339C20.9144 51.0397 21.0902 50.7924 21.2854 50.376C22.1934 51.5082 23.0623 52.6143 23.941 53.6814C27.0847 57.4554 30.6677 60.3314 34.3777 62.9732C35.6566 63.8842 36.9551 64.7691 38.2535 65.602C43.7501 69.1547 48.2021 74.2821 51.5801 81.3485C50.2132 82.767 48.6609 84.0814 47.3527 85.7341ZM65.7657 24.3616C62.4951 23.4637 59.5955 21.7719 56.5885 20.5876C53.5815 19.4034 50.5647 18.2061 47.6553 16.6705C44.6971 15.1089 41.8659 13.1178 38.7222 11.1397C49.9497 3.22739 63.2859 11.2048 65.7657 24.3616ZM31.5855 17.152C32.0834 15.9678 32.015 14.3801 32.2298 12.6493C35.0415 13.2219 38.2145 13.7294 40.9091 15.8377C45.2048 19.1952 49.8325 21.3034 54.4992 23.3596C57.1743 24.5438 59.9177 25.4938 62.5537 26.8342C68.2455 29.7363 74.2791 30.6993 80.1564 32.5212C89.3141 35.3582 97.6028 40.7719 105.364 47.7082C109.016 50.9746 112.052 55.139 114.6 59.928C116.885 64.2095 119.452 68.2177 121.19 73.0328C122.43 76.4814 123.406 80.0081 123.621 83.756C123.856 87.8163 123.953 91.9417 123.68 95.9889C123.416 99.8019 121.844 103.172 119.97 105.97C115.45 112.712 109.836 115.835 102.904 114.924C94.1273 113.766 86.1508 109.692 78.6529 103.797C69.8564 96.8738 61.841 88.5841 54.6652 78.8629C53.6498 77.4835 52.6344 76.065 51.7948 74.5033C49.1881 69.6622 45.7515 66.1876 41.8463 63.4417C38.4976 61.0862 35.1489 58.7177 31.7807 56.3883C27.0554 53.1088 23.1404 48.476 19.6746 43.1924C19.0107 42.1773 18.669 40.4726 18.6495 39.0671C18.6104 35.9178 18.4933 32.8595 17.0483 29.9315C19.4403 28.2787 21.4514 26.8212 24.1753 28.513C27.0554 30.2828 30.4724 27.8102 31.5366 23.6068C30.7946 22.5007 29.9941 21.3294 29.1837 20.1192C30.0331 19.1171 31.0875 18.3363 31.5855 17.152ZM7.04125 4.71095C7.49035 5.6089 8.09567 6.81917 8.70098 8.04245C9.18913 9.01848 9.60888 10.0726 10.1751 10.9835C11.6103 13.287 12.3426 13.2349 13.6996 10.8014C15.4374 7.67807 17.9563 6.45479 20.6607 6.4678C22.8866 6.4678 25.1028 7.31369 27.319 7.84725C27.6704 7.92533 27.9731 8.34177 28.6663 8.88834C26.9968 9.09656 25.6105 7.9904 24.2046 9.76026C25.1907 10.424 26.0108 10.9575 26.8211 11.5301C27.6705 12.1288 28.598 12.6233 29.3107 13.4301C30.4236 14.6924 30.1308 16.189 28.7151 16.8137C27.5924 17.3082 26.5965 17.2692 25.6495 15.9287C24.0679 13.7164 22.0372 12.6753 19.7332 13.1438C18.9912 13.3 18.2394 13.8596 17.6146 14.4712C17.351 14.7315 17.2338 15.7205 17.3998 16.163C17.5169 16.4883 18.2785 16.7486 18.5811 16.5534C21.3245 14.8616 23.3259 16.3712 25.2785 18.8959C26.5868 20.5876 28.1586 21.902 29.8184 23.6068C28.1586 25.3767 26.4306 26.3397 24.7904 25.1815C22.4668 23.5418 20.3092 24.2965 18.2785 25.4287C16.3552 26.5089 14.6369 27.615 12.5866 25.9493C11.7958 27.9274 12.4304 28.8904 13.2895 29.6322C16.1306 32.0657 16.6676 35.5924 16.1306 40.0171C14.5588 38.2472 13.026 36.7376 11.6689 34.9808C8.91574 31.402 7.91016 26.639 8.56428 21.9411C9.39413 16.0459 7.68562 11.9596 4.85435 8.12054C4.74696 7.97739 4.70786 7.75615 4.62976 7.54794C5.40104 6.63698 6.17235 5.73903 7.04125 4.71095ZM4.47358 1.93904C4.13187 4.61986 3.63394 5.06232 1.71063 4.34657C2.13044 2.45959 3.22391 2.12123 4.47358 1.93904Z" fill="#E6E6E6"/>
</svg>
