<svg width="56" height="63" viewBox="0 0 56 63" fill="none" xmlns="http://www.w3.org/2000/svg">
<g opacity="0.15">
<path fill-rule="evenodd" clip-rule="evenodd" d="M4.28589 41.9174C4.23887 41.9307 4.17476 41.9659 4.15766 42.0101C4.13201 42.0895 4.13201 42.1821 4.11491 42.363C4.01232 42.5968 4.26452 42.8129 4.36284 43.0776C4.37566 43.1085 4.4868 43.1437 4.50817 43.1217C4.7219 42.932 4.92708 42.7335 5.12371 42.5262C5.15363 42.4953 5.15363 42.4027 5.13226 42.363C4.9228 42.0674 4.69198 41.8116 4.28589 41.9174Z" fill="#00B307"/>
<path fill-rule="evenodd" clip-rule="evenodd" d="M3.41878 42.7467C3.36322 42.5482 3.20933 42.4115 2.97423 42.4423C2.92294 42.46 2.86309 42.4644 2.82462 42.4997C2.8118 42.5129 2.8289 42.6011 2.85882 42.6276C3.03407 42.7908 3.14521 42.9717 3.09392 43.2319C3.07255 43.3422 3.08537 43.4613 3.10247 43.576C3.10674 43.6157 3.17513 43.6687 3.22216 43.6687C3.43588 43.6863 3.67526 43.3907 3.5684 43.2231C3.46581 43.0643 3.46581 42.9055 3.41878 42.7467Z" fill="#00B307"/>
<path fill-rule="evenodd" clip-rule="evenodd" d="M6.24387 44.5421C6.20112 44.4847 6.1541 44.3833 6.06006 44.4362C5.99167 44.4759 5.88908 44.6038 5.89763 44.6171C6.04297 44.82 5.83351 44.9744 5.85061 45.1552C5.85061 45.1773 5.88053 45.1994 5.91045 45.2391C5.9703 45.2038 6.03442 45.1641 6.09854 45.1288C6.41058 44.9479 6.44478 44.8112 6.24387 44.5421Z" fill="#00B307"/>
<path fill-rule="evenodd" clip-rule="evenodd" d="M2.52493 40.0249C2.49501 40.0161 2.42235 40.069 2.41807 40.0999C2.40097 40.1837 2.4138 40.2719 2.4138 40.3602C2.41807 40.3602 2.42235 40.3602 2.4309 40.3602C2.4309 40.4749 2.42235 40.594 2.43517 40.7086C2.44372 40.7836 2.49501 40.8101 2.53776 40.7836C2.69164 40.6822 2.77713 40.5454 2.76431 40.3513C2.75149 40.2278 2.63607 40.0514 2.52493 40.0249Z" fill="#00B307"/>
<path fill-rule="evenodd" clip-rule="evenodd" d="M16.439 51.9305C16.4433 51.9305 16.4347 51.882 16.4219 51.8644C16.2424 51.6173 15.9645 51.5732 15.7294 51.4453C15.6781 51.5247 15.6311 51.5644 15.6225 51.6129C15.6183 51.6615 15.6439 51.7497 15.6738 51.7541C15.7422 51.7717 15.8106 51.7938 15.8747 51.8114C15.9047 51.8511 15.9389 51.8864 15.9944 51.9217C16.0158 51.8952 16.0073 51.8688 15.9944 51.8467C16.097 51.882 16.1953 51.9217 16.2894 51.9791C16.3236 52.0011 16.392 51.9526 16.439 51.9305Z" fill="#00B307"/>
<path fill-rule="evenodd" clip-rule="evenodd" d="M3.84137 44.0392C3.74733 44.0083 3.62336 44.101 3.61482 44.2157C3.59344 44.4274 3.64901 44.5421 3.77725 44.5509C3.86701 44.5597 4.08074 44.4097 4.09784 44.3259C4.11494 44.2465 3.9696 44.0833 3.84137 44.0392Z" fill="#00B307"/>
<path fill-rule="evenodd" clip-rule="evenodd" d="M5.46642 43.4128C5.45788 43.3907 5.42795 43.3775 5.41085 43.3599C5.39376 43.3819 5.35956 43.404 5.35956 43.426C5.35529 43.651 5.35101 43.8716 5.35529 44.0965C5.35529 44.1186 5.38093 44.1583 5.39803 44.1627C5.41513 44.1671 5.44505 44.1406 5.46642 44.123C5.68443 43.9421 5.69298 43.898 5.55619 43.6378C5.52199 43.5672 5.50062 43.4878 5.46642 43.4128Z" fill="#00B307"/>
<path fill-rule="evenodd" clip-rule="evenodd" d="M4.4527 41.3086C4.44843 41.2866 4.41851 41.2425 4.40141 41.2469C4.27317 41.2601 4.12783 41.4763 4.14493 41.6307C4.14921 41.6571 4.17913 41.6792 4.19623 41.7012C4.31164 41.6836 4.4698 41.4498 4.4527 41.3086Z" fill="#00B307"/>
<path fill-rule="evenodd" clip-rule="evenodd" d="M4.50407 45.0139C4.4827 45.0889 4.4485 45.1639 4.53827 45.2256C4.57246 45.2036 4.64513 45.1727 4.64086 45.1595C4.61948 45.0889 4.58529 45.0227 4.55536 44.9565C4.53827 44.9742 4.50835 44.9918 4.50407 45.0139Z" fill="#00B307"/>
<path fill-rule="evenodd" clip-rule="evenodd" d="M18.1868 56.0422C18.2338 56.0422 18.2851 56.0025 18.3321 55.9804C18.2851 55.9584 18.2381 55.9143 18.191 55.9143C18.1782 55.9143 18.1654 55.9231 18.1483 55.9275C18.0671 55.879 17.9602 55.8305 17.9346 55.879C17.9773 55.9055 17.9944 55.9363 17.973 55.9716C18.0329 55.9981 18.0885 56.0157 18.1312 56.0201C18.144 56.029 18.1654 56.0378 18.1868 56.0422Z" fill="#00B307"/>
<path fill-rule="evenodd" clip-rule="evenodd" d="M8.48001 15.7723C8.45008 15.7899 8.44153 15.8428 8.42871 15.8869C8.47146 15.8737 8.51848 15.8693 8.53985 15.8384C8.57405 15.7987 8.5313 15.7458 8.48001 15.7723Z" fill="#00B307"/>
<path fill-rule="evenodd" clip-rule="evenodd" d="M8.42898 15.8867C8.42028 15.8867 8.41158 15.8911 8.40723 15.8911C8.40723 15.8954 8.40723 15.9041 8.40723 15.9085C8.41158 15.9085 8.42028 15.9085 8.42463 15.9041C8.42463 15.9041 8.42898 15.8954 8.42898 15.8867Z" fill="#00B307"/>
<path fill-rule="evenodd" clip-rule="evenodd" d="M8.30009 16.0194C8.30437 16.0415 8.36421 16.0503 8.40695 16.068C8.40695 16.015 8.40695 15.9665 8.40695 15.9136C8.34284 15.918 8.27872 15.9312 8.30009 16.0194Z" fill="#00B307"/>
<path fill-rule="evenodd" clip-rule="evenodd" d="M8.40723 16.0679C8.40723 16.0766 8.40723 16.0809 8.40723 16.0896C8.41158 16.0896 8.41593 16.0896 8.41593 16.0896C8.41593 16.0853 8.42028 16.0809 8.42028 16.0766C8.41593 16.0679 8.41158 16.0679 8.40723 16.0679Z" fill="#00B307"/>
<path fill-rule="evenodd" clip-rule="evenodd" d="M2.64081 20.9113C2.63654 20.9113 2.63226 20.9642 2.63654 20.9686C2.67073 20.9863 2.7092 20.9995 2.7434 21.0127C2.73485 20.9554 2.73058 20.8936 2.64081 20.9113Z" fill="#00B307"/>
<path fill-rule="evenodd" clip-rule="evenodd" d="M2.74316 21.0127C2.74316 21.0214 2.74751 21.0301 2.74751 21.0431C2.75621 21.0431 2.76492 21.0431 2.77362 21.0431C2.77362 21.0344 2.76927 21.0301 2.76927 21.0214C2.76057 21.0214 2.75186 21.017 2.74316 21.0127Z" fill="#00B307"/>
<path fill-rule="evenodd" clip-rule="evenodd" d="M1.98229 22.2479C2.00366 22.2303 2.02076 22.2082 2.04213 22.1906C2.01221 22.1068 1.96946 22.1024 1.93099 22.1862C1.92672 22.1906 1.96519 22.2259 1.98229 22.2479Z" fill="#00B307"/>
<path fill-rule="evenodd" clip-rule="evenodd" d="M1.44839 23.033C1.42701 23.0374 1.41419 23.0992 1.40137 23.1433C1.44839 23.1433 1.49968 23.1433 1.5467 23.1433C1.53388 23.086 1.53388 23.0154 1.44839 23.033Z" fill="#00B307"/>
<path fill-rule="evenodd" clip-rule="evenodd" d="M1.2263 23.3198C1.2176 23.3198 1.2089 23.3198 1.20455 23.3198C1.20455 23.3285 1.2002 23.3416 1.2002 23.3503C1.2089 23.3459 1.2176 23.3416 1.2263 23.3416C1.2263 23.3329 1.2263 23.3285 1.2263 23.3198Z" fill="#00B307"/>
<path fill-rule="evenodd" clip-rule="evenodd" d="M1.3752 23.1655C1.28543 23.1788 1.23414 23.2273 1.22559 23.3199C1.27688 23.3199 1.3239 23.3199 1.3752 23.3199C1.3752 23.2714 1.3752 23.2185 1.3752 23.1655Z" fill="#00B307"/>
<path fill-rule="evenodd" clip-rule="evenodd" d="M1.20014 23.3506C1.16594 23.3638 1.13175 23.377 1.09755 23.3947C1.089 23.3991 1.09755 23.4476 1.09755 23.4476C1.18732 23.4609 1.19159 23.4079 1.20014 23.3506Z" fill="#00B307"/>
<path fill-rule="evenodd" clip-rule="evenodd" d="M11.2492 50.7177C11.2663 50.7 11.2962 50.6868 11.2962 50.6691C11.2962 50.6515 11.2705 50.6339 11.2534 50.6162C11.2363 50.6427 11.2192 50.6691 11.2021 50.6912C11.2192 50.7 11.2321 50.7088 11.2492 50.7177Z" fill="#00B307"/>
<path fill-rule="evenodd" clip-rule="evenodd" d="M13.9301 51.5471C13.9557 51.6133 13.9942 51.6265 14.0241 51.5824C14.0326 51.5692 14.0284 51.5471 14.0284 51.5251C14.0113 51.5163 13.9899 51.4942 13.9813 51.4986C13.96 51.5074 13.9258 51.5383 13.9301 51.5471Z" fill="#00B307"/>
<path fill-rule="evenodd" clip-rule="evenodd" d="M17.0199 55.6184C17.0156 55.636 17.0498 55.6581 17.0626 55.6757C17.084 55.6581 17.1011 55.6404 17.1225 55.6228C17.1054 55.6007 17.0883 55.5831 17.0712 55.561C17.0541 55.5831 17.0242 55.5963 17.0199 55.6184Z" fill="#00B307"/>
<path fill-rule="evenodd" clip-rule="evenodd" d="M20.2048 55.9756C20.192 55.958 20.1706 55.9183 20.162 55.9227C20.0851 55.9492 20.0808 55.9933 20.1535 56.033C20.162 56.033 20.1877 55.9933 20.2048 55.9756Z" fill="#00B307"/>
<path fill-rule="evenodd" clip-rule="evenodd" d="M47.8609 10.9685C47.9463 10.823 47.8993 10.62 47.7027 10.3818C47.5531 10.5009 47.8352 10.7744 47.8609 10.9685Z" fill="#00B307"/>
<path fill-rule="evenodd" clip-rule="evenodd" d="M28.3908 3.65444C28.0531 3.62357 28.8054 3.56181 28.3993 3.48682C28.4079 3.61033 28.0574 3.49564 27.912 3.52211C27.8437 3.65444 28.3139 3.77355 28.3908 3.65444Z" fill="#00B307"/>
<path fill-rule="evenodd" clip-rule="evenodd" d="M17.1355 4.66504C16.8875 4.74885 16.8619 4.86354 16.9388 4.98705C17.1825 4.90324 17.2124 4.79296 17.1355 4.66504Z" fill="#00B307"/>
<path fill-rule="evenodd" clip-rule="evenodd" d="M31.8703 3.91934C31.6908 3.93699 31.5668 3.99874 31.3659 3.98991C31.3702 3.8664 30.1648 3.58409 29.9297 3.78259C30.558 3.87523 31.1308 3.95022 31.7079 4.0605C31.9986 4.11343 32.2892 4.16636 32.597 4.2193C32.9005 4.28106 33.2126 4.34722 33.5502 4.4178C33.4177 4.2193 33.0971 4.15754 32.7595 4.10902C32.426 4.06491 32.0712 4.05609 31.8703 3.91934Z" fill="#00B307"/>
<path fill-rule="evenodd" clip-rule="evenodd" d="M29.6769 3.42105C29.352 3.39017 29.3264 3.57103 28.9844 3.52251C29.1084 3.66367 28.7194 3.70778 28.9673 3.74748C29.0913 3.5578 29.5273 3.59309 29.6769 3.42105Z" fill="#00B307"/>
<path fill-rule="evenodd" clip-rule="evenodd" d="M1.42616 22.8876C1.52447 22.4773 1.64843 22.2215 1.7382 21.9965C1.66981 21.9789 1.56722 22.2215 1.49455 22.4597C1.41761 22.6979 1.40051 22.9361 1.42616 22.8876Z" fill="#00B307"/>
<path fill-rule="evenodd" clip-rule="evenodd" d="M14.3957 10.6333C14.5453 10.5274 14.6094 10.6112 14.7761 10.4789C14.7547 10.3465 14.2974 10.5406 14.3957 10.6333Z" fill="#00B307"/>
<path fill-rule="evenodd" clip-rule="evenodd" d="M33.1995 1.3126L33.409 1.36554C33.4389 1.29937 33.3449 1.26408 33.3662 1.20232C33.2337 1.17586 33.1269 1.16703 33.0713 1.20673C33.2765 1.24643 33.3107 1.2729 33.1995 1.3126Z" fill="#00B307"/>
<path fill-rule="evenodd" clip-rule="evenodd" d="M34.9736 5.58226L35.2729 5.68813C35.3541 5.54256 34.995 5.46316 34.9736 5.58226Z" fill="#00B307"/>
<path fill-rule="evenodd" clip-rule="evenodd" d="M36.3069 4.36489C36.2641 4.31196 35.9264 4.13992 35.8623 4.20168C36.0376 4.23256 36.1743 4.43547 36.3069 4.36489Z" fill="#00B307"/>
<path fill-rule="evenodd" clip-rule="evenodd" d="M36.5633 6.05007C36.3795 5.97508 36.2256 5.93979 36.123 5.96626C36.2641 5.98831 36.5633 6.20005 36.5633 6.05007Z" fill="#00B307"/>
<path fill-rule="evenodd" clip-rule="evenodd" d="M37.346 5.96625C37.423 5.92213 37.2904 5.83832 37.1665 5.78979C37.0382 5.75009 36.9271 5.74568 37.0511 5.83391C37.1408 5.7501 37.1836 5.93978 37.346 5.96625Z" fill="#00B307"/>
<path fill-rule="evenodd" clip-rule="evenodd" d="M37.4609 6.02346C37.7131 6.16462 37.773 6.1161 37.9269 6.24843C38.0209 6.13815 37.4695 5.922 37.4609 6.02346Z" fill="#00B307"/>
<path fill-rule="evenodd" clip-rule="evenodd" d="M40.4959 7.4966C40.3719 7.38632 40.3207 7.38632 40.2694 7.22752C40.2437 7.27163 40.1539 7.19663 40.124 7.2231C40.1625 7.29368 40.3634 7.53189 40.4959 7.4966Z" fill="#00B307"/>
<path fill-rule="evenodd" clip-rule="evenodd" d="M42.313 4.91203C42.1591 4.84586 41.8599 4.55472 41.8428 4.70911C42.0223 4.81498 42.2531 5.00025 42.313 4.91203Z" fill="#00B307"/>
<path fill-rule="evenodd" clip-rule="evenodd" d="M42.1973 9.40674C42.3853 9.55672 42.5392 9.7067 42.6632 9.85227C42.7017 9.7464 42.3341 9.41997 42.1973 9.40674Z" fill="#00B307"/>
<path fill-rule="evenodd" clip-rule="evenodd" d="M44.873 9.4288C45.0056 9.54349 45.1252 9.63171 45.2193 9.64936C45.1723 9.5082 44.9628 9.40674 44.873 9.4288Z" fill="#00B307"/>
<path fill-rule="evenodd" clip-rule="evenodd" d="M45.5956 11.564C45.4674 11.4273 45.2494 11.2773 45.3135 11.1935C45.4118 11.2553 45.5657 11.4891 45.6256 11.4361C45.4033 11.0303 44.8818 10.9244 44.4971 10.6377C44.6894 10.9421 45.3434 11.4361 45.5956 11.564Z" fill="#00B307"/>
<path fill-rule="evenodd" clip-rule="evenodd" d="M50.2979 13.5666C50.4175 13.7386 50.5458 13.6548 50.5287 13.571L50.4004 13.3945C50.3107 13.4254 50.4133 13.5489 50.2979 13.5666Z" fill="#00B307"/>
<path fill-rule="evenodd" clip-rule="evenodd" d="M51.4727 16.8178C51.1693 16.5267 51.2633 16.337 50.9769 16.0503C50.9641 16.1826 51.3189 16.9281 51.4727 16.8178Z" fill="#00B307"/>
<path fill-rule="evenodd" clip-rule="evenodd" d="M52.901 19.738C52.9566 19.7071 53.0079 19.7027 53.0592 19.7424C52.8668 19.3851 52.8155 19.0542 52.5975 18.7808C52.6232 18.8999 52.3881 18.7411 52.3154 18.5249C52.2812 18.5558 52.2171 18.5602 52.247 18.6396C52.4949 19.0631 52.8283 19.1381 52.901 19.738Z" fill="#00B307"/>
<path fill-rule="evenodd" clip-rule="evenodd" d="M53.2041 19.5175L53.3323 19.8528C53.4734 19.9101 53.2682 19.3675 53.2041 19.5175Z" fill="#00B307"/>
<path fill-rule="evenodd" clip-rule="evenodd" d="M53.1143 20.417C53.1613 20.3817 53.2468 20.3861 53.2254 20.2935C53.0331 20.3597 53.2212 19.8965 53.0117 19.923C53.0502 20.0994 53.063 20.1568 53.1143 20.417Z" fill="#00B307"/>
<path fill-rule="evenodd" clip-rule="evenodd" d="M50.9646 47.2417C50.8406 47.3167 50.9005 47.4181 50.7295 47.6078C50.7765 47.7534 51.0373 47.6167 51.0116 47.449C50.956 47.5152 50.8876 47.5637 50.8278 47.5902C50.8064 47.5196 51.0202 47.3035 50.9646 47.2417Z" fill="#00B307"/>
<path fill-rule="evenodd" clip-rule="evenodd" d="M40.2308 57.189C40.4958 57.017 40.7694 56.8891 40.7395 56.7876C40.5471 56.9949 40.188 57.0523 40.0684 57.189C40.1496 57.1493 40.2222 57.1184 40.2308 57.189Z" fill="#00B307"/>
<path fill-rule="evenodd" clip-rule="evenodd" d="M33.6742 59.7649C33.8324 59.7076 33.9606 59.6458 33.9905 59.562C33.8067 59.6149 33.5503 59.6458 33.6742 59.7649Z" fill="#00B307"/>
<path fill-rule="evenodd" clip-rule="evenodd" d="M27.4372 60.8589C26.9115 60.9339 26.6507 60.9074 26.2275 60.9339C26.5781 61.0133 27.0611 61.0706 27.3731 60.9383C27.2449 60.9251 27.3988 60.8942 27.4372 60.8589Z" fill="#00B307"/>
<path fill-rule="evenodd" clip-rule="evenodd" d="M26.7188 60.6117C26.8726 60.5323 27.1377 60.4838 27.2744 60.3779C26.9496 60.4176 26.7829 60.4 26.7188 60.6117Z" fill="#00B307"/>
<path fill-rule="evenodd" clip-rule="evenodd" d="M26.1552 60.6296C26.3005 60.5413 26.4459 60.7663 26.651 60.6472C26.6596 60.5546 26.6126 60.4928 26.5057 60.4531C26.3134 60.4928 26.1295 60.5414 25.8731 60.5414C25.9329 60.6781 25.8816 60.634 25.9415 60.7663C25.8261 60.7487 25.7491 60.8104 25.8688 60.8369C25.9586 60.7399 26.2877 60.7707 26.3646 60.6693C26.2834 60.6693 26.168 60.6737 26.1552 60.6296Z" fill="#00B307"/>
<path fill-rule="evenodd" clip-rule="evenodd" d="M25.0098 60.9958C25.3646 61.2251 25.0269 61.0443 25.2962 61.009C25.4629 60.9869 25.7022 61.0928 25.8006 60.9561C25.4671 60.9913 25.309 60.9164 25.0098 60.9958Z" fill="#00B307"/>
<path fill-rule="evenodd" clip-rule="evenodd" d="M22.7861 60.7752C23.0255 60.7972 23.641 60.8678 23.5769 60.8104C23.2606 60.7619 22.9699 60.731 22.7861 60.7752Z" fill="#00B307"/>
<path fill-rule="evenodd" clip-rule="evenodd" d="M21.8333 60.2903C22.0085 60.3123 22.0598 60.255 22.188 60.3476C22.2778 60.2064 21.7862 60.1314 21.8333 60.2903Z" fill="#00B307"/>
<path fill-rule="evenodd" clip-rule="evenodd" d="M21.1578 59.5712C21.3972 59.5756 21.4485 59.6462 21.5767 59.6065C21.534 59.5668 21.1193 59.4301 21.1578 59.5712Z" fill="#00B307"/>
<path fill-rule="evenodd" clip-rule="evenodd" d="M20.3506 55.367C20.5344 55.4155 20.7182 55.5523 20.8806 55.5037L20.9063 55.3935C20.6669 55.3317 20.5472 55.3891 20.3506 55.367Z" fill="#00B307"/>
<path fill-rule="evenodd" clip-rule="evenodd" d="M17.5586 55.9759C17.7766 56.0024 17.8749 56.1126 17.9946 56.095C17.9519 56.0685 17.9348 56.0377 17.9561 56.0024C17.7723 55.9362 17.5671 55.8347 17.5586 55.9759Z" fill="#00B307"/>
<path fill-rule="evenodd" clip-rule="evenodd" d="M16.1953 56.6418C16.2594 56.6815 16.2765 56.7256 16.2894 56.7697C16.5886 56.8006 16.6826 56.8403 16.9049 56.8447C16.6313 56.7124 16.5886 56.7389 16.4176 56.6198C16.4646 56.7874 16.1996 56.5492 16.1953 56.6418Z" fill="#00B307"/>
<path fill-rule="evenodd" clip-rule="evenodd" d="M15.2168 51.9396C15.3963 52.0279 15.4904 52.1205 15.6015 52.2131C15.7212 51.9264 16.0161 52.5307 16.2042 52.3102C16.0717 52.2749 15.7725 52.2043 15.8708 52.0632C16.0931 52.0455 16.3709 52.4116 16.435 52.2176C16.0845 52.0852 15.858 51.9926 15.6357 51.7588C15.7768 52.0411 15.4305 51.8117 15.5502 52.0543C15.4348 52.0146 15.2296 51.7897 15.2168 51.9396Z" fill="#00B307"/>
<path fill-rule="evenodd" clip-rule="evenodd" d="M8.97142 51.6177C8.80899 51.7147 9.03554 51.8823 9.17233 51.9044C9.00562 51.7853 9.14241 51.7368 8.97142 51.6177Z" fill="#00B307"/>
<path fill-rule="evenodd" clip-rule="evenodd" d="M6.74859 50.6294C6.9324 50.6867 6.50922 50.1618 6.38098 50.1133C6.3767 50.2765 6.31259 50.4177 6.38098 50.6073C6.47502 50.5897 6.54769 50.4927 6.67592 50.6029C6.69302 50.6912 7.10766 51.2161 7.17177 51.0882C7.05636 50.9029 6.90675 50.7882 6.74859 50.6294Z" fill="#00B307"/>
<path fill-rule="evenodd" clip-rule="evenodd" d="M17.0967 53.4878C17.101 53.4878 17.1054 53.4921 17.1097 53.4921C17.1054 53.4877 17.101 53.4877 17.101 53.4834L17.0967 53.4878Z" fill="#00B307"/>
<path fill-rule="evenodd" clip-rule="evenodd" d="M29.8438 58.9357L29.848 58.9666C29.9592 58.9402 30.0703 58.9093 30.1772 58.8828C30.066 58.9049 29.9549 58.9225 29.8438 58.9357Z" fill="#00B307"/>
<path fill-rule="evenodd" clip-rule="evenodd" d="M56 30.6558C55.953 29.853 55.906 29.0634 55.8632 28.3002C55.8504 28.1106 55.8376 27.9209 55.8247 27.7356C55.7991 27.5503 55.7777 27.3651 55.7521 27.1842C55.7008 26.8225 55.6538 26.4696 55.6067 26.1299C55.4315 25.8564 55.4614 24.8242 55.1194 24.5904C55.1023 24.1802 55.0981 24.0346 54.9271 23.6597C55.1622 23.7655 54.833 23.2186 55.0083 23.2538C54.8501 22.9495 54.9143 22.5172 54.7475 22.4113C54.8288 22.8612 54.9997 23.1127 54.8672 23.2935C54.8031 22.8657 54.5894 22.4554 54.6706 22.1246C54.5466 21.807 54.1918 21.2644 54.2389 20.9556C54.0722 20.9821 54.1363 20.5718 53.9738 20.4351C53.9055 20.4307 53.9268 20.5718 53.8755 20.4792C53.7088 20.241 53.7302 19.8484 53.572 19.6631C53.5977 19.7469 53.6233 19.8263 53.5549 19.8308C53.4524 19.6322 53.5378 19.6058 53.4353 19.4073C53.3156 19.4337 53.4908 19.7249 53.4908 19.8616C53.649 19.9543 53.9439 20.735 53.8969 20.8674C53.7558 20.6556 53.6447 20.6159 53.6661 20.338C53.5549 20.3292 53.649 20.5013 53.5806 20.5321C53.6618 20.7571 53.7729 20.7174 53.8542 20.9644C53.7473 20.9556 53.6575 20.8233 53.5549 20.7747C53.6319 21.0218 53.7558 20.9027 53.8371 21.1276C53.7986 21.2159 53.6533 20.9688 53.7003 21.1806C53.7302 21.2026 53.7516 21.2291 53.7644 21.26C53.743 21.2644 53.7216 21.2688 53.7003 21.2776C53.6575 21.2997 53.6105 21.3261 53.5678 21.3482C53.5763 21.3173 53.5934 21.2953 53.6233 21.282C53.5122 21.0968 53.5336 21.0571 53.5122 20.863C53.431 20.8983 53.4951 21.2026 53.5421 21.3614C53.4481 21.4144 53.354 21.4629 53.2557 21.5114C53.2472 21.5158 53.2301 21.5026 53.213 21.4849C53.1959 21.4188 53.1745 21.357 53.1531 21.2909C53.1489 21.2159 53.136 21.1409 53.0676 21.0835C52.9864 20.885 52.9223 20.6909 53.0078 20.541C52.7812 20.4263 52.5205 19.522 52.5504 19.2794C52.4649 19.297 52.3666 19.1779 52.2811 19.0367C52.2811 18.9838 52.2811 18.9353 52.2897 18.8823C52.2982 18.8118 52.2426 18.7853 52.17 18.8029C52.1187 18.675 52.0973 18.5647 52.1272 18.5471C52.0204 18.4456 51.9178 18.3398 51.8109 18.2251C51.7767 18.1369 51.7425 18.0486 51.7041 17.9604C51.7126 17.9604 51.7211 17.9648 51.7297 17.9692C51.5972 17.6737 51.4604 17.4002 51.3151 17.1355C51.3108 17.1311 51.3108 17.1267 51.3065 17.1223C50.9902 16.5179 50.6226 15.9313 50.2165 15.3887C50.0754 15.1417 49.9301 14.8814 49.7762 14.5947C49.7292 14.6344 49.6694 14.6079 49.6095 14.5461C49.5796 14.2638 49.2975 13.9771 49.0666 13.7213C49.0111 13.5272 48.9213 13.3419 48.8059 13.161C48.8144 13.1478 48.823 13.1346 48.8401 13.1213C48.7589 13.011 48.7247 12.9978 48.699 13.011C48.6648 12.9625 48.6264 12.9184 48.5922 12.8743C48.4383 12.6802 48.2673 12.4905 48.1091 12.3008C47.9424 12.1156 47.7843 11.9303 47.6603 11.7362C47.2756 11.1142 46.8909 10.4746 46.4549 9.86587C46.0018 9.27918 45.4931 8.72778 44.822 8.37929C44.6895 8.26901 44.6809 8.4631 44.5612 8.37488C44.168 7.99552 43.6465 7.65144 43.1207 7.28531C42.5736 6.95447 42.0264 6.59276 41.5049 6.28398C40.7783 5.81639 40.1456 5.22088 39.3292 4.90768C38.8504 4.74005 38.4187 4.62095 38.0126 4.58566C37.6065 4.55479 37.2304 4.59008 36.8756 4.70477C36.166 4.39599 35.1615 4.73565 34.5246 4.22836C34.3664 4.25042 34.3493 4.41804 34.0886 4.32981C33.9005 4.29011 33.9218 4.20189 33.8321 4.14014C33.7893 4.34305 33.8962 4.32099 33.7466 4.46656C34.298 4.51508 34.5374 4.61654 35.0375 4.56361C35.1615 4.62095 35.1914 4.69595 35.3923 4.74447C36.5037 4.76211 37.8288 4.86798 39.2266 5.35322C40.5688 5.83845 41.6845 6.83978 42.6676 7.12651C42.8471 7.27649 42.6548 7.39119 42.7659 7.53235C43.3045 7.68233 43.5225 8.18961 44.0569 8.52487C44.4245 8.7763 44.8818 8.81159 45.2794 9.13361C45.6726 9.47327 45.9419 9.80852 46.2241 10.1614C46.4934 10.5231 46.7712 10.9025 47.1773 11.3392C47.1816 11.3657 47.1858 11.3877 47.1901 11.4142C46.9935 11.2466 46.8567 11.0878 46.5446 10.8407C46.5874 10.7613 46.7071 10.9554 46.7584 10.9113C46.5318 10.6687 46.3309 10.5187 46.1599 10.3643C45.989 10.2099 45.8479 10.0467 45.7239 9.7997C45.6299 9.94968 45.3777 9.64972 45.258 9.72029C45.523 9.98056 45.865 10.307 45.8607 10.5805C45.6 10.4349 45.6427 10.1923 45.4888 10.1835C45.6513 10.5011 45.8436 10.6731 46.0702 10.8363C46.2967 10.9995 46.5233 11.1804 46.7797 11.4804C46.7456 11.5201 46.7028 11.5157 46.6558 11.5068C46.7883 11.7494 47.0533 11.9127 47.25 12.0582C47.2927 12.1288 47.344 12.195 47.391 12.2611C47.3568 12.2391 47.3226 12.2214 47.2799 12.2126C47.3226 12.3053 47.3782 12.4023 47.4124 12.4949C47.3739 12.4729 47.3397 12.4596 47.3183 12.4641C47.3654 12.5126 47.4081 12.5611 47.4466 12.6096C47.4551 12.6582 47.4594 12.7067 47.4466 12.7464C47.1046 12.5523 46.7883 12.4597 46.4805 12.3847C46.4335 12.3141 46.3993 12.2435 46.3737 12.1817L46.2967 12.2611C46.3437 12.3008 46.3737 12.3361 46.3993 12.367C46.3523 12.3582 46.3095 12.345 46.2625 12.3361C46.2412 12.3141 46.2198 12.292 46.2027 12.2656C46.2412 12.2259 46.1685 12.045 46.1129 12.1685C46.1728 12.2303 46.1856 12.2744 46.1642 12.3097C46.0573 12.2435 45.9334 12.2038 45.8479 12.1156C45.7539 12.0185 45.7197 11.8641 45.6427 11.7539C45.5358 11.6039 45.2153 11.6039 45.1426 11.7759C45.1169 11.8333 45.0913 11.8818 45.0614 11.9347C44.9631 11.8818 44.8647 11.82 44.7664 11.7539C44.8049 11.5686 44.7793 11.3789 44.698 11.1892C44.6852 11.1628 44.5997 11.1583 44.5484 11.1583C44.5271 11.1583 44.4929 11.1804 44.4843 11.2025C44.48 11.2113 44.4758 11.2201 44.4715 11.2333C44.3219 11.1672 44.168 11.0789 44.1295 10.8937C44.0868 10.9422 44.0654 10.9907 44.0825 11.0525C44.1979 11.1319 44.309 11.198 44.4416 11.3348C44.4416 11.348 44.4416 11.3613 44.4458 11.3657C44.51 11.4318 44.5399 11.5068 44.5655 11.5818C44.262 11.2819 43.9799 11.0304 43.6978 10.8407C43.6337 10.7966 43.5695 10.7613 43.5097 10.7216C43.5183 10.7128 43.5268 10.704 43.5354 10.6952C43.5183 10.6731 43.5012 10.6511 43.4841 10.629C43.467 10.6466 43.4499 10.6599 43.437 10.6775C43.2361 10.5584 43.0438 10.4658 42.8557 10.3864C42.7873 10.3158 42.7232 10.2452 42.6719 10.1835C42.6035 10.1305 42.5266 10.0864 42.4496 10.0379C41.3211 8.9748 39.8421 7.947 38.2221 7.19268C36.4524 6.35014 34.5502 5.83845 32.9601 5.662C32.5967 5.48555 32.2548 5.35321 31.8786 5.27381C31.5024 5.19 31.1006 5.12824 30.6219 5.12824C30.1303 4.67389 29.1643 4.61213 28.2238 4.66065C27.9887 4.67389 27.7536 4.68712 27.5271 4.70035C27.3005 4.718 27.0783 4.74005 26.8731 4.74888C26.4584 4.76211 26.0994 4.74888 25.8344 4.65625C25.3855 5.23411 23.8723 5.09296 23.3423 4.89886C23.2782 5.10619 23.0559 5.19882 22.7951 5.23411C22.5344 5.27381 22.2309 5.2694 21.9915 5.25175C21.9744 5.17235 22.342 5.00032 21.9573 5.08854C21.7735 5.1106 21.7906 5.19882 21.7051 5.25617C21.517 5.16794 21.2819 5.12824 21.1665 4.97826C20.8203 5.02678 20.7989 5.17235 20.4527 5.22088C20.5168 5.08854 20.551 4.94738 20.7519 4.85475C21.2307 4.65624 21.3375 4.81064 21.6154 4.81946C21.5769 4.68271 21.4016 4.68271 21.6624 4.58126C21.8547 4.89886 22.2437 4.37393 22.5387 4.63419C22.3677 4.6783 22.2352 4.73123 22.1882 4.81946C22.5387 4.69153 22.9661 4.56802 23.2739 4.46215C23.1756 4.4798 23.0302 4.47098 23.1713 4.42245C21.4743 4.35628 19.8884 4.67389 18.3966 5.21205C16.9005 5.75463 15.4942 6.51336 14.0793 7.41765C13.857 7.39118 13.5364 7.54558 13.2244 7.6735C12.4763 8.32636 11.9035 8.72777 12.0318 9.3674C12.9465 8.68366 13.6305 8.05286 15.2591 7.20592C15.6566 7.15298 16.0071 7.21474 16.2123 7.47059C15.024 8.28225 13.5151 8.74542 12.4934 9.71147C12.3481 9.85263 12.331 9.96291 12.1857 10.082C11.3008 10.8099 10.7836 11.0834 10.1638 11.5642C8.95837 12.5038 7.94529 13.8095 6.96642 14.9784C6.75269 15.2387 6.34661 15.3534 6.32096 15.7857C6.6159 15.4857 6.9194 15.1681 7.1716 14.8505C7.43235 14.5373 7.66745 14.2418 7.81706 13.9771C8.15047 13.6992 8.5993 13.3198 9.02676 12.8964C9.47986 12.4993 9.92015 12.0582 10.3091 11.7318C10.5314 11.6039 10.7409 11.4715 10.9418 11.3392C11.1469 11.2113 11.3393 11.0834 11.5274 10.951C11.8993 10.6775 12.2626 10.4129 12.6345 10.1349C13.3783 9.57914 14.1862 9.01009 15.2933 8.51604C15.5369 8.71896 15.7635 8.53369 16.1311 8.37929C16.2508 8.68808 16.5714 8.67926 16.9775 8.52487C17.1655 8.34401 16.7466 8.38371 16.9433 8.23372C17.2126 8.21608 17.469 8.21608 17.5973 8.4234C17.3835 8.51604 17.157 8.65279 17.0202 8.63073C17.1997 8.83806 17.6657 8.58662 17.7896 8.88658C17.4177 9.09391 17.0715 9.33211 16.7381 9.56591C16.4132 9.81735 16.0969 10.0644 15.7891 10.3158C15.1736 10.8275 14.5709 11.3171 13.8656 11.7318C13.6048 11.7362 13.3868 11.6215 13.1047 11.6789C13.1004 11.9744 13.6647 11.7142 13.8613 11.873C13.716 12.0935 13.4894 12.3097 13.2842 12.5346C13.2244 12.6052 13.1645 12.6758 13.1047 12.742C13.0919 12.7464 13.0791 12.7508 13.062 12.7552C12.7969 12.8214 12.4892 12.914 12.3695 13.2007C12.3481 13.2493 12.3225 13.2934 12.3011 13.3375C12.1002 13.4963 11.9164 13.6551 11.7497 13.8139C11.7411 13.8183 11.7326 13.8227 11.7197 13.8271C11.7026 13.8536 11.6813 13.8712 11.6642 13.8933C11.6342 13.9242 11.5958 13.955 11.5659 13.9903C11.3521 14.1624 11.0786 14.1712 10.8007 14.1668C10.7024 14.1668 10.6511 14.2241 10.6254 14.3168C10.6083 14.3697 10.5827 14.427 10.5485 14.4667C10.463 14.5638 10.3861 14.7358 10.2236 14.555C10.074 14.5903 9.99709 14.7094 9.94579 14.8373C9.85175 15.0755 9.72351 15.2431 9.44567 15.2255C9.39437 15.2211 9.32598 15.2431 9.29178 15.2784C9.09943 15.4901 8.81731 15.6225 8.72754 15.9224C8.67197 16.1165 8.51809 16.0768 8.39412 16.0989C8.37275 16.1474 8.35565 16.2136 8.32573 16.2268C7.90255 16.3591 7.58623 16.6371 7.28701 16.9547C7.12885 17.1223 6.98352 17.2855 6.75696 17.3781C6.45347 17.5061 6.09441 17.6207 6.15425 18.1016C6.1628 18.1633 6.06021 18.2427 6.00037 18.3089C5.89778 18.4148 5.79519 18.5118 5.68405 18.6089C5.62848 18.6574 5.57718 18.7721 5.48742 18.6618C5.42757 18.5868 5.27369 18.5427 5.39338 18.3927C5.42757 18.3486 5.45322 18.2912 5.45322 18.2339C5.45322 18.181 5.41902 18.128 5.40193 18.0795C5.37628 18.0972 5.35491 18.1104 5.32926 18.128C5.14118 18.2736 5.02576 18.4853 5.03859 18.7059C5.04714 18.8206 5.07706 18.9044 4.99157 18.9926C4.85051 19.1338 4.72227 19.297 4.49572 19.2926C4.22214 19.2882 4.42305 19.447 4.40168 19.544C4.35893 19.7293 4.25634 19.9719 4.10673 20.0513C3.95285 20.1351 3.84598 20.2454 3.76477 20.3689C3.79896 20.2013 3.83743 20.0337 3.90155 19.8705C4.25207 18.8735 5.09843 17.8016 5.44467 16.8135C5.86785 16.6679 5.53016 16.5179 5.99609 16.1562C5.94052 16.0283 5.87213 15.7857 5.73534 15.8563C5.6755 15.8386 5.60711 15.896 5.53871 15.9533C5.33353 16.5091 5.00439 16.8311 4.87188 17.3561C3.85881 18.4236 3.28174 19.694 2.86283 21.0659C2.82436 21.0703 2.79016 21.0747 2.74742 21.0703C2.75169 21.1276 2.78162 21.1718 2.82009 21.1982C2.81154 21.2291 2.80299 21.2556 2.79444 21.2864C2.75597 21.4188 2.72177 21.5511 2.68757 21.6835C2.61491 21.732 2.54224 21.7761 2.46102 21.8158C2.31569 21.882 2.21737 22.0143 2.2131 22.2216C2.20455 22.8127 2.19172 22.8171 1.6745 23.1259C1.63176 23.1524 1.58474 23.1656 1.53772 23.1788C1.52489 23.2847 1.46932 23.3465 1.37101 23.3597C1.38383 23.5009 1.59756 23.6332 1.37101 23.7876C1.25559 23.867 1.153 23.9817 1.08034 24.1052C1.05042 24.1581 1.02049 24.2067 0.986296 24.2552C0.986296 24.2331 0.982021 24.2155 0.977747 24.1978C0.969198 24.2331 0.956374 24.2772 0.94355 24.3169C0.89653 24.3743 0.840961 24.4272 0.759745 24.4713C0.597311 24.5596 0.751195 24.7228 0.815314 24.8419C0.55029 25.1727 0.819588 25.6624 0.507545 25.98C0.50327 26.2138 0.541741 26.4608 0.486172 26.6813C0.422053 26.9328 0.302365 27.1577 0.340836 27.4357C0.370758 27.6386 0.263894 27.7621 0.0758135 27.8194C0.0416169 27.8282 -0.00112933 27.9385 0.0159689 27.965C0.135657 28.1547 0.0587153 28.3311 0.0116951 28.512C0.229698 28.7899 0.178403 29.1251 0.165579 29.4427C0.152755 29.7559 0.246796 30.0912 0.0159689 30.3735C-0.0267767 30.4264 0.020244 30.55 0.11001 30.5852C0.216874 30.6294 0.328013 30.6558 0.319464 30.8102C0.315189 30.9293 0.319464 31.044 0.328013 31.1631C0.357935 31.6483 0.263894 32.1512 0.498996 32.6188C0.528918 32.6762 0.481897 32.7864 0.45625 32.8658C0.430602 32.9364 0.336562 32.9849 0.422053 33.082C0.554565 33.2276 0.520369 33.4128 0.507545 33.5849C0.481898 33.9554 0.486172 34.123 0.567389 34.273C0.687077 34.498 0.781118 34.745 0.990572 34.917C1.07179 34.9832 1.1701 35.0979 1.17438 35.1949C1.1872 35.464 1.2385 35.7111 1.36246 35.9404C1.31116 36.3992 1.52489 36.7786 1.71725 37.1623C1.74289 37.2109 1.78564 37.2991 1.80274 37.2947C2.13188 37.2064 2.18318 37.5593 2.38408 37.6696C2.58499 37.7799 2.79444 37.8814 3.00389 37.9828C3.04236 38.0799 3.08084 38.1813 3.11931 38.2828C3.10648 38.3137 3.11503 38.3401 3.14923 38.3578C3.18342 38.4548 3.21762 38.5607 3.25182 38.6621C3.13213 38.7901 3.05091 38.9092 3.17915 39.1341C3.31594 39.3723 3.36296 39.6679 3.43135 39.9414C3.45272 40.034 3.47837 40.1134 3.55959 40.1399C3.67927 40.1796 3.75194 40.2061 3.67072 40.3649C3.61088 40.4884 3.6408 40.6781 3.55959 40.7751C3.35868 41.0089 3.62371 41.1368 3.64508 41.3177C3.65363 41.4103 3.79896 41.4015 3.85881 41.353C4.01697 41.225 4.1452 41.0662 4.29909 40.9383C4.4487 40.8148 4.36321 40.7266 4.31619 40.5854C4.22215 40.3075 4.27771 40.012 4.31619 39.7208C4.32046 39.6988 4.35038 39.6811 4.36748 39.6591C4.38885 39.6811 4.42305 39.7032 4.42305 39.7252C4.43587 39.959 4.65815 40.0473 4.74364 40.2237C4.78639 40.3075 4.57693 40.4443 4.74364 40.4928C5.00012 40.5678 5.10271 40.7486 5.18392 40.978C5.28224 41.2471 5.37628 41.5162 5.49169 41.7764C5.61565 42.0632 5.76099 42.3455 5.89778 42.6278C5.93197 42.7028 5.99609 42.791 5.98754 42.8616C5.94907 43.1616 6.08586 43.3821 6.29104 43.5453C6.50904 43.7174 6.50904 43.9335 6.50476 44.1761C6.50049 44.3217 6.47912 44.4761 6.59881 44.5864C6.83391 44.8025 6.91512 45.1201 7.08183 45.3804C7.1545 45.4951 7.1716 45.3275 7.20152 45.2701C7.22289 45.226 7.26136 45.1907 7.29128 45.151C7.30838 45.1731 7.34258 45.1995 7.34258 45.2216C7.33403 45.5657 7.42807 45.9053 7.24854 46.245C7.12458 46.4788 7.20152 46.739 7.34685 46.9861C7.5905 47.3963 7.62043 47.4581 8.00086 47.5904C8.32146 47.7007 8.37703 47.7624 8.38557 48.0668C8.39412 48.3315 8.3642 48.6006 8.61213 48.7858C8.65487 48.8167 8.71044 48.8785 8.71044 48.927C8.70617 49.3372 9.00539 49.5446 9.24476 49.7872C9.42429 49.968 9.56963 50.2062 9.8432 50.268C9.96716 50.5371 10.1894 50.7224 10.3604 50.9517C10.5485 51.2076 10.9289 51.2252 11.0187 51.5781C11.0315 51.6355 11.0999 51.6178 11.1298 51.5428C11.1512 51.4899 11.1469 51.4281 11.1726 51.3752C11.1811 51.3576 11.194 51.3399 11.2025 51.3223C11.335 51.4326 11.4846 51.5428 11.63 51.6487C11.5274 51.5428 11.4077 51.3531 11.2837 51.1899C11.288 51.1767 11.2966 51.1679 11.2966 51.1546C11.3222 51.0135 11.2196 50.9694 11.0999 50.9341C11.0273 50.912 10.9332 50.8414 10.9076 50.7753C10.8905 50.7268 10.8648 50.6871 10.8435 50.6429C10.8563 50.6429 10.8734 50.6474 10.8905 50.6518C10.8605 50.6121 10.8349 50.5944 10.8093 50.5768C10.6639 50.343 10.4459 50.171 10.2963 49.9416C10.1894 49.7739 10.0056 49.6063 10.0056 49.4343C10.0014 49.2225 10.151 49.0108 10.2322 48.7991C10.2621 48.7197 10.2878 48.6403 10.322 48.5609C10.3305 48.5344 10.3562 48.5123 10.3775 48.4947C10.4716 48.4285 10.4032 48.4638 10.4245 48.5609C10.4716 48.7814 10.587 48.8344 10.7793 48.8299C10.9631 48.8255 10.9118 48.9182 10.8648 49.0417C10.7922 49.2402 11.0016 49.1431 11.0657 49.2049C11.1298 49.2622 11.1427 49.3196 11.0615 49.3284C10.7879 49.3461 10.8648 49.496 10.9289 49.6504C10.7879 49.7872 10.7836 49.9592 10.8264 50.1357C10.8306 50.1621 10.852 50.1974 10.8734 50.2062C10.8905 50.2151 10.9247 50.1886 10.9418 50.1709C11.0016 50.1092 11.0914 50.0518 11.1085 49.9769C11.1897 49.6416 11.3863 49.5137 11.7155 49.5137C11.8394 49.5798 11.9634 49.6151 12.0617 49.5843C12.0275 49.6637 12.0104 49.7386 12.0361 49.8225C12.0147 49.8092 12.0019 49.8004 11.9976 49.796C12.0147 49.818 12.0361 49.8357 12.0532 49.8578C12.0703 49.8975 12.0959 49.9328 12.1429 49.9725C12.1899 50.0121 12.1728 50.1004 12.1429 50.1798C12.1002 50.1489 12.0574 50.1136 12.0061 50.0827C12.0703 49.9372 11.7839 49.6284 11.7668 49.8048C12.0574 49.8401 11.7582 49.968 11.8181 50.0298C11.9164 50.0827 11.9976 50.193 12.0874 50.2989C12.0061 50.4797 11.9377 50.6606 11.8779 50.8459C11.7839 51.1414 11.7881 51.4237 12.0703 51.6266C12.3353 51.8163 12.4037 52.081 12.3524 52.3942C12.3396 52.478 12.3566 52.5706 12.3438 52.6589C12.3396 52.6986 12.3438 52.7339 12.3438 52.7691C12.3011 52.7603 12.2541 52.7515 12.2028 52.7338C12.2541 52.7868 12.3054 52.8265 12.3566 52.8618C12.3609 52.8882 12.3695 52.9147 12.378 52.9368C12.0403 52.7647 11.6941 52.478 11.3436 52.1692C11.07 51.9222 10.7922 51.6663 10.5314 51.4281C10.2792 51.1811 10.0484 50.9429 9.82183 50.7753C9.90732 50.8547 9.56108 50.6738 9.46704 50.4974C9.46704 50.8017 9.95862 51.3443 10.0356 51.7634C10.2407 51.9575 10.3647 52.1207 10.3903 52.2795C10.4801 52.3501 10.5571 52.3986 10.6212 52.4118C10.5186 52.7206 11.7924 53.5764 11.5402 53.6602C11.7668 53.7572 11.9719 53.7881 12.2797 53.9822C12.3481 53.9205 12.2199 53.8499 12.3182 53.7881C12.4763 53.894 12.6088 53.9557 12.6901 53.9337C12.3566 53.7043 12.2199 53.8366 11.9249 53.669C12.0361 53.5896 11.9078 53.4308 11.771 53.4176C11.6171 53.4661 11.942 53.572 11.8736 53.6293C11.7881 53.5676 11.7839 53.6778 11.6727 53.572C11.8907 53.4837 11.2196 53.2544 11.1683 53.0118C11.2153 52.9588 11.2709 52.9368 11.3564 52.9676C11.7112 53.2985 11.6 53.0559 11.8052 53.1176C11.9805 53.2235 11.8907 53.3073 12.0104 53.4088C12.1344 53.2808 12.4293 53.4661 12.6388 53.6382C12.9337 53.744 13.2415 53.7661 13.5279 53.8014C13.545 53.8146 13.5578 53.8278 13.5749 53.8411C13.7373 53.991 13.9297 54.1101 14.1135 54.2381C14.1562 54.2689 14.2161 54.2425 14.2204 54.1675C14.2289 53.9954 14.3016 53.7969 14.1819 53.6602C14.0195 53.4749 13.8955 53.2147 13.5792 53.2411C13.5108 53.2455 13.4082 53.1926 13.3654 53.1309C13.3056 53.0426 13.25 52.95 13.1902 52.8618C13.203 52.853 13.2244 52.8441 13.25 52.8397C13.203 52.8177 13.1688 52.7956 13.1346 52.7735C13.0449 52.6324 12.9594 52.4868 12.8696 52.3413C12.9551 52.1031 13.032 51.8604 13.1303 51.6266C13.1688 51.5428 13.1902 51.4678 13.1645 51.384C13.156 51.362 13.1175 51.3267 13.1175 51.3267C12.8055 51.5869 12.7542 51.212 12.6088 51.0973C12.4977 51.0135 12.4934 50.8723 12.502 50.74C12.6858 50.6738 12.7585 51.04 12.9679 50.9517C12.985 50.9694 13.0064 50.9914 13.0278 51.0091C13.1432 51.1811 13.3441 51.3929 13.5706 51.5561C13.8057 51.7325 14.028 51.8869 14.1349 51.984C14.1178 51.9443 14.2417 51.8913 14.2845 51.909C14.3999 52.0942 15.0112 52.178 14.7248 52.2221C14.9086 52.3545 14.9941 52.2927 15.1009 52.2751C14.6478 52.0942 14.293 51.7899 13.9639 51.7502C13.9083 51.5384 13.6219 51.4061 13.4082 51.2649C13.327 51.2076 13.2543 51.159 13.1987 51.1061C13.2329 51.1017 13.2757 51.0797 13.3099 51.0664C13.3227 51.062 13.3313 51.0179 13.3227 51.0047C13.2971 50.9517 13.25 50.912 13.2329 50.8591C13.2073 50.7797 13.1816 50.6826 13.2757 50.6297C13.3483 50.59 13.4296 50.5724 13.5108 50.6341C13.5749 50.6827 13.6433 50.7179 13.7117 50.7576C13.7202 50.8459 13.7074 50.9473 13.7502 51.0091C13.7886 51.0664 13.8869 51.0929 13.9639 51.1061C14.0793 51.1238 14.1947 51.1105 14.3059 51.1458C14.2503 51.1679 14.1904 51.1591 14.3272 51.2385C14.3785 51.2385 14.4384 51.2473 14.4982 51.2649C14.5196 51.2782 14.541 51.2826 14.5623 51.287C14.8829 51.4017 15.2634 51.6972 15.507 51.7413C15.3574 51.6399 15.2121 51.5472 15.071 51.4502C15.1565 51.4546 15.242 51.4546 15.3317 51.4502C15.3531 51.4502 15.3788 51.4193 15.3873 51.3973C15.3916 51.3884 15.3745 51.3531 15.3617 51.3443C15.242 51.2605 15.118 51.2649 14.9983 51.3443C14.9855 51.3531 14.9812 51.3708 14.9727 51.3884C14.8915 51.3355 14.8145 51.2782 14.7376 51.2252C14.8145 51.1679 14.8872 51.1017 14.9812 51.1194C15.0795 51.137 15.1821 51.1326 15.2847 51.1238C15.3745 51.2164 15.4728 51.3046 15.5839 51.3576C15.6139 51.2605 15.7849 51.4458 15.7977 51.3134C15.8105 51.2826 15.802 51.2517 15.7849 51.2208C15.9558 51.3134 16.1225 51.3002 16.2978 51.2958C16.4816 51.2914 16.597 51.3223 16.6654 51.5472C16.6996 51.6619 16.7808 51.7502 16.892 51.7987C16.8749 51.8648 16.939 51.9443 17.0202 52.0237C16.8364 52.0148 16.768 52.1957 16.5415 52.1207C16.6355 52.1736 16.7039 52.2266 16.7167 52.2883C16.644 52.3457 16.4859 52.2663 16.4346 52.3545C16.644 52.4074 16.8749 52.553 17.0843 52.7515C17.157 52.5662 17.4605 52.7868 17.546 52.8485C17.4434 52.9147 17.2852 52.8618 17.1527 52.7427C17.1869 52.9456 16.9262 52.6897 16.9219 52.8397C17.1185 52.9853 17.8452 52.8574 18.0076 53.2544C17.5417 53.0117 17.3878 53.1353 17.0758 53.0779C16.9176 53.2411 16.9689 53.3735 17.0971 53.4926L17.1356 53.3955C17.2553 53.4352 17.2681 53.4882 17.3365 53.5323C17.2895 53.5455 17.2468 53.5632 17.3109 53.6029C17.2639 53.6823 17.2382 53.5235 17.11 53.5014C17.2724 53.647 17.5417 53.7749 17.6956 53.9293C18.1914 54.0616 18.8454 54.5292 19.2601 54.5424C19.0976 54.4366 18.6916 54.3572 18.7001 54.141C18.8754 54.0087 19.0036 54.3483 19.1147 54.2116C18.8839 54.0749 18.7514 54.119 18.7044 53.9425C18.777 53.969 18.7771 53.8984 18.8369 53.9116C19.0463 54.0352 19.2686 54.2292 19.2045 54.3219C19.2216 54.2028 19.337 54.4719 19.384 54.3483C19.3114 54.2866 19.337 54.2028 19.3242 54.1278C19.0506 54.0396 18.8882 53.9205 18.8839 53.7705C19.243 53.7396 19.4824 53.9249 19.7517 53.9513C19.8029 54.0572 19.8671 54.1543 19.9483 54.2381C20.021 54.3131 20.0979 54.2954 20.1791 54.2645C20.2475 54.2381 20.286 54.1278 20.3886 54.194C20.5296 54.2822 20.7006 54.3395 20.816 54.4542C21.0768 54.7277 21.3803 54.913 21.7265 55.0497C21.7308 55.0497 21.7308 55.0541 21.7308 55.0586C21.7222 55.0718 21.7094 55.085 21.7051 55.1027C21.3803 55.0497 21.1494 55.1335 20.8246 54.9571C20.8374 54.988 20.863 55.0012 20.8844 55.0233C20.6792 54.9791 20.4698 54.9394 20.2561 54.8997C20.1107 55.1291 20.4997 54.8953 20.4826 55.085C20.3458 55.1203 19.897 55.0188 19.8884 54.86C19.991 54.9086 20.0979 54.9571 20.1962 54.988C20.1663 54.9042 20.0295 54.8512 19.9098 54.7983V54.7939C19.9055 54.7939 19.897 54.7895 19.8927 54.7895C19.82 54.7542 19.7517 54.7189 19.7217 54.666C19.679 54.688 19.3926 54.6439 19.5208 54.7145C19.5251 54.7145 19.5379 54.7189 19.5422 54.7233C19.1147 54.6263 18.7172 54.4763 18.3368 54.3616C17.8537 54.194 17.3921 54.0616 16.9133 54.0616C16.8193 53.8543 16.6312 53.7749 16.4346 53.7572C15.9259 53.6029 15.5327 53.2853 15.2676 53.0162C15.1052 53.2147 14.8658 52.6809 14.6264 52.6721C14.6307 52.6148 14.5922 52.5795 14.6777 52.5751C14.1691 52.5398 14.1349 51.9663 13.6005 51.781C13.8057 51.9398 13.3056 51.834 13.7117 52.0678C13.8228 52.0369 13.6518 51.8648 13.7886 51.9398C13.6604 52.1251 14.1092 52.3501 14.1733 52.6147C14.5623 52.6103 14.759 52.9676 15.1693 53.2147C15.1779 53.2985 15.1779 53.5543 15.3617 53.519C15.1308 53.4264 15.46 53.422 15.4985 53.3779C15.7207 53.4838 15.9003 53.6381 16.0841 53.7749C15.9558 53.8014 15.849 53.8411 15.7891 53.8808C15.8404 53.9028 15.8874 53.9205 15.9387 53.9425C15.9345 53.9822 15.943 54.0043 15.8703 54.0528C16.1097 54.2204 16.1696 54.1234 16.3064 54.141C16.1311 54.3307 16.9133 54.538 17.0629 54.7498C17.08 54.6704 17.1484 54.666 17.2767 54.7145C17.2339 54.7542 17.1826 54.7454 17.2382 54.8203C18.3624 55.2218 19.4011 55.5305 20.4313 55.8482C20.8117 55.8217 21.8462 55.9673 21.7265 56.329C22.979 56.7392 24.3212 56.823 25.7275 56.9465C26.202 56.7745 26.7833 56.8627 27.215 56.9024C27.1509 56.8936 27.3433 56.8098 27.463 56.8539C27.9075 57.0039 27.1595 57.1539 26.7876 57.1362C27.1125 57.1318 26.7961 57.3833 26.732 57.4715C26.0224 57.5421 25.4454 57.5112 24.8213 57.5773C24.6546 57.5553 24.6375 57.4582 24.4451 57.445C24.1673 57.5773 23.8894 57.3038 23.5646 57.295C23.3765 57.2862 23.2226 57.4318 23.0388 57.4053C22.8293 57.3788 22.6626 57.198 22.4874 57.1715C22.3805 57.1539 22.1882 57.1936 22.0984 57.1847C22.1069 57.1847 22.154 57.1186 22.1711 57.123C21.983 57.0921 21.8718 57.1803 21.7094 57.1627C21.6795 57.1583 21.6795 57.0436 21.6667 57.0392C21.4529 56.9245 21.1409 57.048 20.893 56.9995C20.7348 56.8495 21.1366 56.8848 20.8673 56.801C20.8246 56.9201 20.5638 56.8319 20.4527 56.8892C20.3202 56.6422 19.7474 56.726 19.8713 56.5451C19.6533 56.5187 19.3498 56.4966 19.0592 56.426C18.7728 56.3554 18.4907 56.276 18.3026 56.2011C18.371 56.2319 18.3496 56.2804 18.3325 56.329C17.8751 56.1613 17.7255 56.1084 17.4562 56.0864C17.469 56.0511 17.5203 56.0643 17.5417 56.0378C17.1955 55.9143 16.8706 55.8217 16.5927 55.6938C16.3149 55.5658 16.0712 55.4423 15.8746 55.3232C15.7977 55.3409 15.7336 55.3806 15.6395 55.3762C15.5284 55.2174 15.4771 55.235 15.3317 55.2659C15.242 55.1468 15.3531 55.0321 15.1565 55.0144C15.3147 55.2085 14.8744 55.0144 14.7419 54.9747C14.7718 54.9086 14.6008 54.8512 14.6863 54.7806C14.7077 54.6968 14.8744 54.8292 14.9086 54.7674C14.5239 54.5866 14.4768 54.688 14.37 54.8336C14.4854 54.9571 14.7205 55.0762 14.853 55.1997C15.0496 55.063 15.631 55.4864 15.7378 55.632C15.6609 55.5967 15.6609 55.6673 15.5925 55.6408C15.601 55.5967 15.6438 55.5482 15.5754 55.5085C15.1394 55.5526 14.8188 55.2526 14.3657 54.9968C14.4384 55.1997 14.2033 55.0409 14.1349 55.1688C14.6051 55.4026 15.0838 55.6276 15.507 55.8438C15.3488 55.6849 15.725 55.8261 15.802 55.8217C15.896 55.9276 16.1952 56.1878 16.2978 56.1834C16.2294 56.1437 16.2551 56.0996 16.2764 56.0511C16.4602 56.3378 16.8706 56.404 17.2083 56.5892C16.8236 56.4216 16.9732 56.576 16.674 56.5054C16.9304 56.6554 17.0672 56.7613 17.3109 56.7039L17.2767 56.8098C17.5887 56.8627 17.9563 57.0259 18.3453 57.198C18.5419 57.2818 18.7386 57.3744 18.9395 57.445C19.1447 57.5068 19.3498 57.5509 19.5507 57.5729C19.5507 57.617 19.5166 57.6744 19.5892 57.7009C20.2945 57.7406 21.2392 58.2478 21.6068 58.1596C21.6111 58.3096 21.2734 58.292 21.1323 58.1684C21.1281 58.4331 21.5427 58.3316 21.7137 58.3272C21.7051 58.3272 21.7137 58.4022 21.7009 58.4022C21.9702 58.4066 22.1112 58.2567 22.3933 58.2831C22.7524 58.314 22.8293 58.5258 23.3038 58.5302C23.1841 58.3361 23.7911 58.5875 23.9749 58.5125C23.6201 58.4552 23.8253 58.4375 24.1117 58.4684C24.3981 58.4905 24.7743 58.5213 24.7657 58.6493C24.5477 58.6272 24.5092 58.7198 24.3596 58.7375C24.7272 58.7419 24.552 58.786 24.6161 58.9404C24.9153 58.9139 24.9453 59.0198 25.1504 59.0419C25.1248 58.9228 24.8555 58.9228 24.7572 58.8345C24.8469 58.8389 24.9025 58.8257 24.9581 58.8081C25.112 58.861 25.206 59.0551 25.3556 58.9007C25.3471 58.9669 25.3684 59.0198 25.4197 59.0551C24.8769 59.0727 24.505 59.0904 24.1416 59.0771C23.7826 59.0374 23.4321 58.9669 22.9362 58.8213C22.6284 58.8345 22.3207 58.7551 22.0129 58.6846C21.7009 58.614 21.3888 58.561 21.0597 58.5743C21.0639 58.5037 20.8459 58.4949 20.8844 58.4155C20.0423 58.3096 19.2558 57.7317 18.5291 57.7803C18.7087 57.8552 18.978 57.8905 18.9609 57.9964C18.7557 57.9479 17.8195 57.7273 18.1017 57.5509C17.9435 57.5156 17.7939 57.4979 17.5802 57.4009C17.4348 57.5156 17.9093 57.5288 17.8666 57.6259C17.5716 57.5376 16.9005 57.3656 16.7552 57.0965C16.1696 56.898 15.6823 56.6466 15.242 56.4304C14.806 56.2055 14.4255 55.9761 14.1092 55.7026C13.9895 55.857 14.0237 55.5658 13.8998 55.5129C13.7288 55.4688 13.8741 55.707 13.7587 55.6452C13.6989 55.61 13.6775 55.632 13.6262 55.61C13.3868 55.5041 13.4595 55.4026 13.327 55.3012C13.2073 55.3497 12.938 55.1468 12.7114 55.0144C12.8012 54.7409 12.3011 54.6395 12.0745 54.4851C11.6043 54.1895 11.1256 53.744 10.6468 53.3514C10.1809 52.9456 9.71496 52.5883 9.3901 52.2927C9.8432 52.8309 10.0997 52.875 10.4502 53.3691C10.8135 53.5543 11.1683 53.8411 11.5274 54.1454C11.895 54.4366 12.284 54.7189 12.6687 54.9439C12.6131 55.0189 12.7029 55.0983 12.6943 55.1777C12.6003 55.1821 12.4464 55.0938 12.3481 55.0938C12.5362 55.3056 13.2671 55.482 13.545 55.9099C13.6305 55.8217 13.7929 55.9937 13.9254 56.0731C14.2332 55.9452 15.1437 56.4128 15.4771 56.6245C15.4343 56.6819 14.9171 56.3599 15.0795 56.5142C15.2634 56.6025 15.4557 56.6907 15.4087 56.7966C15.2933 56.7657 15.0625 56.5804 15.024 56.651C15.1992 56.7966 15.631 56.9289 15.4343 57.0965C15.6865 57.2465 15.4044 56.9245 15.678 57.048C15.6823 57.0833 15.7165 57.1142 15.7891 57.1406C15.8062 57.3391 15.6096 57.2553 15.507 57.295C15.7507 57.52 15.8233 57.3877 15.8618 57.3391C16.02 57.5244 15.6481 57.3921 15.7806 57.5465C16.0242 57.7361 16.3234 57.8508 16.4688 57.9038C16.3961 57.8685 16.379 57.8244 16.3619 57.7847C16.4688 57.8508 16.6697 57.7847 16.6868 57.9082C16.6098 57.8861 16.503 57.8332 16.4773 57.8685C16.8107 58.1023 17.4348 58.239 17.6015 58.486C17.7768 58.4993 17.5161 58.3361 17.7127 58.367C18.1059 58.4508 18.0162 58.614 18.2641 58.7243C18.3154 58.6846 18.2385 58.5125 18.3795 58.5699C18.6061 58.6757 19.0421 58.6934 18.9523 58.8566C18.8754 58.8654 18.4308 58.7507 18.5932 58.8389C18.9908 58.8742 19.2387 59.0242 19.4396 58.9095C19.7004 59.0242 19.3456 59.0904 19.5935 59.1786C19.6918 59.183 19.6362 59.0419 19.7602 59.0683C19.8329 59.1566 20.5211 59.4962 20.2176 59.2624C20.4997 59.3683 20.5553 59.3771 20.9614 59.483C20.9827 59.43 20.9614 59.3418 21.0554 59.3506C21.6154 59.5403 22.1582 59.5977 22.6797 59.6727C23.2012 59.7344 23.7056 59.805 24.2143 59.902C24.2442 59.8403 24.1203 59.8006 24.2229 59.7918C24.6076 59.8712 24.9239 59.9417 25.1889 59.805C25.1889 59.8579 25.1547 59.8844 25.1162 59.9153C25.4026 59.8623 25.7617 59.9594 26.0182 60.03C25.8258 60.1711 25.471 60.03 25.3855 60.2682C25.8728 60.2682 26.0866 59.9682 26.6423 60.052C26.7363 59.9682 26.4627 59.9064 26.638 59.902C26.8474 59.955 26.9073 59.9462 27.0526 59.8668C27.0526 59.9947 27.2578 59.9947 27.4031 60.0388C27.946 59.8712 28.4974 60.0961 28.9847 59.8359C29.2626 59.8403 29.5703 59.8447 29.8909 59.8182C30.2115 59.7785 30.5407 59.73 30.8613 59.6682C31.5067 59.5491 32.1137 59.3992 32.5326 59.2492C32.6138 59.333 32.9173 59.1962 32.913 59.3506C33.2678 59.1168 33.5371 59.2845 33.7722 59.0463C33.6867 59.0639 33.6098 59.0772 33.6184 59.011C33.7722 58.936 33.7893 58.9404 34.0757 58.8478C34.0971 58.9007 34.1014 58.9757 34.2424 58.9184C34.3921 58.6272 34.9905 58.7066 35.3239 58.6493C35.3196 58.5743 35.2085 58.6052 35.1529 58.5831C35.4094 58.4949 35.8668 58.2787 35.9907 58.4419C35.8369 58.5434 35.7086 58.3758 35.653 58.5302C35.7471 58.5037 35.7556 58.5787 35.8198 58.5875C36.4652 58.1199 37.4612 57.8023 37.9314 57.6435C38.0981 57.5773 38.1237 57.423 38.2007 57.3877C38.3973 57.2994 38.6239 57.3744 38.9359 57.145C38.8803 57.1847 39.0257 57.1054 39.1838 57.0171C39.248 56.9862 39.8592 56.5848 40.09 56.6333C40.1627 56.7039 39.6284 56.9333 39.8336 56.8936C40.0516 56.7657 40.1071 56.6863 40.3337 56.6333C40.261 56.5628 40.3251 56.4834 40.4235 56.4304C40.5175 56.3687 40.65 56.3202 40.7227 56.3246C40.5645 56.4966 40.291 56.651 40.2653 56.801C40.6329 56.5584 41.2271 55.9584 41.351 56.2805C41.334 56.2496 41.4323 56.1746 41.4707 56.2055C41.2741 56.4393 41.4109 56.4437 41.2442 56.6554C41.552 56.2716 41.9281 56.0952 42.2872 55.9011C42.642 55.7026 42.9968 55.5173 43.1848 55.0674C43.2404 55.1159 43.1677 55.1821 43.2148 55.2306C43.3943 55.0983 43.3088 55.0144 43.5653 54.8645C43.5952 54.9306 43.6764 54.8821 43.7106 54.9394C43.8474 54.8159 44.0098 54.6836 44.0611 54.5733C43.8217 54.7806 43.6679 54.8027 43.5567 54.7321C43.9628 54.4851 44.044 54.2116 44.4971 54.0881C44.2535 54.2381 44.3988 54.3086 44.1509 54.4542C44.2578 54.4807 44.3133 54.6263 44.5142 54.4498C44.4886 54.4013 44.4116 54.3572 44.48 54.291C44.5399 54.4454 45.3264 53.9205 45.6128 53.6382C45.5786 53.4838 45.4119 53.6823 45.3606 53.5676C45.4504 53.5411 45.5743 53.4264 45.6983 53.3029C45.647 53.4705 45.6769 53.4308 45.7923 53.519C45.9847 53.3867 45.7838 53.3602 45.9291 53.2411C46.0146 53.3514 46.254 53.0382 46.3694 53.0823C46.5147 52.7736 46.6515 52.7868 46.6814 52.8838C46.8097 52.6192 46.9123 52.5706 46.9721 52.3501C47.1089 52.3192 47.002 52.3898 47.0747 52.4559C47.2713 52.2133 47.2585 52.2486 47.4637 52.1295C47.515 52.0236 47.515 51.931 47.5577 51.8163C47.6988 51.7722 47.7715 51.6134 47.686 51.8384C48.2716 51.2914 48.1348 50.8062 48.4468 50.5768C48.2716 50.365 48.5665 50.1842 48.8102 50.0386C48.8102 49.9107 48.5836 50.0915 48.699 49.946C48.8871 49.8445 48.994 49.721 49.135 49.474C49.2633 49.496 49.1564 49.6372 49.1949 49.7034C49.2419 49.5357 49.43 49.3946 49.4214 49.3328C49.3445 49.4034 49.2718 49.4387 49.2077 49.4387C49.3103 49.3019 49.2846 49.2314 49.4343 49.0681L49.5197 49.1343C49.7164 48.5212 50.3533 47.9389 50.3704 47.6257C50.473 47.4184 50.5328 47.5551 50.6269 47.4536C50.5884 47.4228 50.5414 47.436 50.4944 47.4536C50.5414 47.2728 51.1911 46.6861 50.8021 46.9684C50.9859 46.6861 51.1612 46.6729 51.1911 46.4479C51.0971 46.5891 51.0244 46.5405 51.0971 46.3905C51.0928 46.5052 51.1697 46.4964 51.2638 46.3244C51.2467 46.2317 51.3065 46.0906 51.3493 45.9583C51.3364 46.1744 51.5715 45.7068 51.5929 45.601C51.5587 45.6451 51.5202 45.7245 51.4903 45.7068C51.5502 45.5745 51.6741 45.2039 51.8109 45.1466C51.8323 45.2084 51.6784 45.3892 51.734 45.4333C51.9092 45.2525 51.8494 45.129 51.952 44.8996C52.2042 44.9084 52.1144 44.1806 52.3923 44.2379C52.2042 44.4673 52.1828 44.7231 52.1401 44.9393C52.093 45.151 52.0417 45.3319 51.8323 45.4113C52.0075 45.5215 51.7767 45.6715 51.6741 45.9847C51.8152 45.9715 51.6955 46.1259 51.7297 46.1832C51.9221 45.9053 51.7981 45.9847 51.8109 45.8965C51.8793 45.8568 51.952 45.6715 52.0161 45.7598C51.9776 45.8347 51.9092 45.9362 51.9392 45.9671C52.0631 45.6892 52.1785 45.5789 52.2854 45.5745C52.341 45.3848 52.4265 45.2481 52.5376 45.0628C52.6402 44.8687 52.7641 44.6305 52.9138 44.2511C52.9138 44.1012 52.7684 44.2952 52.8454 44.057C53.3882 43.2586 53.4737 42.3499 53.7729 41.6794C53.7174 41.4985 53.5336 41.7323 53.6404 41.3971C53.7473 41.2471 53.8029 41.3177 53.8713 41.4015C53.9567 40.7222 54.303 40.3869 54.4953 39.6855C54.2816 39.315 54.8117 38.4195 54.6749 37.9255C54.645 38.2651 54.5424 38.6886 54.3799 38.8209C54.3201 38.5254 54.474 37.6961 54.692 37.8505C54.6578 37.4402 55.004 37.1623 54.8159 36.9903C55.0767 36.9594 55.1964 36.1389 55.1836 35.6581C55.1836 35.7287 55.2391 35.5567 55.2605 35.3758C55.3161 34.8994 55.393 34.3656 55.4486 33.8407C55.4699 33.4305 55.4657 33.0202 55.4315 32.6453C55.47 32.6453 55.5127 32.6497 55.564 32.6673C55.5341 32.2174 55.5041 31.7719 55.4742 31.3307C55.4828 31.3396 55.4913 31.344 55.5127 31.3351C55.4529 31.1146 55.47 31.0352 55.44 30.8279C55.4272 30.6779 55.4187 30.5323 55.4058 30.3823C55.4785 30.1971 55.5341 29.8618 55.5512 29.6721C55.5597 29.8133 55.6538 29.7559 55.6367 29.9544C55.5854 30.272 55.6067 30.6646 55.7435 30.894C55.7179 31.044 55.6837 31.0484 55.6324 30.969C55.7222 31.816 55.6067 32.4468 55.7606 33.2231C55.6367 33.029 55.6324 33.9333 55.7692 33.7348C55.6666 34.2245 55.5597 34.8509 55.5041 35.4728C55.4742 35.786 55.4529 36.0948 55.4486 36.386C55.4443 36.5315 55.4443 36.6727 55.4486 36.805C55.4443 36.9374 55.4443 37.0609 55.4486 37.18C55.4956 36.8183 55.7008 36.183 55.6025 35.861C55.735 36.0507 55.6751 35.5434 55.6196 35.4905L55.7264 35.5037C55.9573 33.9333 55.9829 32.2659 56 30.6558ZM45.7752 10.2585C45.8992 10.1967 45.9761 10.3908 46.0231 10.4923C45.9548 10.5452 45.7923 10.307 45.7752 10.2585ZM15.7934 55.6673C15.8062 55.4732 16.1054 55.7555 16.1311 55.707C16.285 55.8526 15.9473 55.7687 15.7934 55.6673ZM17.8666 56.9245C17.9563 56.7304 18.0675 56.9862 18.3154 57.048C18.2641 57.1186 18.0034 56.951 17.8666 56.9245ZM18.3881 56.3599C18.418 56.2628 18.7001 56.3775 18.7642 56.4569C18.73 56.5319 18.4992 56.3775 18.3881 56.3599ZM22.8635 58.2567C22.9234 58.2346 23.0174 58.239 23.1286 58.2567C23.1157 58.3096 23.1072 58.3625 23.1799 58.3802C23.1243 58.4552 22.7738 58.3537 22.8635 58.2567ZM24.9581 58.6713C24.9153 58.5655 25.0949 58.6007 25.0949 58.5302C24.5734 58.3978 24.0305 58.4772 23.8638 58.1729C24.3126 58.3052 24.4964 58.1993 24.8469 58.142C24.9324 58.1817 24.9709 58.2478 25.1034 58.2655C25.0008 58.3493 24.941 58.314 24.7743 58.2875C24.8213 58.4331 24.9965 58.5169 25.2915 58.539C25.3385 58.6801 25.1846 58.6978 24.9581 58.6713ZM53.2643 37.9563C53.3455 37.9652 53.2215 38.199 53.2172 38.3004C53.1959 38.2651 53.1745 38.2254 53.166 38.1725C53.1916 38.1107 53.2172 38.0534 53.2386 37.9916C53.2472 37.9916 53.2557 37.9828 53.2643 37.9563ZM52.6829 42.7866C52.5376 43.038 52.5761 43.0072 52.4478 43.3071C52.341 43.3909 52.2298 43.2718 52.3709 43.0381C52.4777 43.3248 52.482 42.7425 52.6829 42.7866ZM35.1486 56.6466C35.1315 56.7392 34.8152 56.801 34.6699 56.8539C34.7255 56.651 34.8922 56.7304 35.1486 56.6466ZM31.7589 58.2081C31.3913 58.2434 31.2203 58.1905 30.81 58.1773C30.998 57.9788 31.387 58.067 31.7717 57.9391C31.7675 58.0317 31.6948 58.0979 31.7589 58.2081ZM29.7499 58.2346C29.6986 58.3625 29.5276 58.239 29.4848 58.2214C29.4549 58.1376 29.6687 58.1684 29.6644 58.0934C29.8952 58.0714 29.5233 58.2611 29.7499 58.2346ZM30.5407 58.1861C30.5107 58.2787 30.3398 58.3184 30.3098 58.4111C30.2072 58.314 29.7456 58.4949 29.6986 58.3537C30.0021 58.4199 30.1987 58.1596 30.5407 58.1861ZM30.0534 57.6523C29.8439 57.7053 29.6558 57.7758 29.3096 57.8244C29.16 57.6347 29.4592 57.5641 29.8354 57.4671C30.2115 57.3788 30.6732 57.3171 30.8527 57.2642C31.1348 57.3171 31.2118 57.4582 30.8399 57.5685C30.8484 57.5376 30.8997 57.52 30.8912 57.4847C30.4851 57.5509 30.2628 57.5994 30.0534 57.6523ZM29.425 58.2655C28.9505 58.3934 27.8434 58.3978 28.1084 58.2037C28.4461 58.3405 28.8779 58.1508 29.425 58.2655ZM31.1989 57.3965C31.1605 57.3038 31.3144 57.2774 31.4298 57.2421C31.4469 57.3391 31.3229 57.445 31.1989 57.3965ZM31.682 56.2628C31.2417 56.329 30.7971 56.3731 30.4552 56.4216C30.3056 56.4834 30.5321 56.576 30.6646 56.5407C30.6219 56.6554 30.4039 56.5716 30.297 56.6025C30.2799 56.5363 30.3611 56.5142 30.3355 56.4437C30.297 56.3643 30.032 56.479 29.9038 56.4745C30.2927 56.2275 30.6988 56.1393 31.169 56.0819C31.4041 56.0555 31.6563 56.029 31.9214 55.9981C32.1864 55.954 32.4685 55.8834 32.7763 55.7952C32.7848 55.8482 32.7934 55.9011 32.866 55.8878C32.7079 55.9717 32.5241 56.0467 32.3232 56.1128C32.2248 56.1481 32.118 56.179 32.0111 56.2055C31.9 56.2231 31.7931 56.2452 31.682 56.2628ZM17.1442 51.8163C17.1698 51.8119 17.1997 51.8163 17.2254 51.8296C17.2211 51.8384 17.2254 51.8472 17.2168 51.856C17.1356 51.8384 17.0971 51.8296 17.0758 51.8163C17.1014 51.8163 17.1228 51.8207 17.1442 51.8163ZM13.7117 50.3121C13.6946 50.3298 13.6732 50.3474 13.6561 50.365C13.639 50.3562 13.6219 50.3474 13.6048 50.3386C13.6134 50.3253 13.6219 50.3121 13.6305 50.2989C13.639 50.2856 13.6476 50.2724 13.6561 50.2592C13.6732 50.2768 13.6903 50.2945 13.7117 50.3121ZM24.6546 9.09831C24.6076 9.14684 24.5349 9.17331 24.4238 9.18213C24.4067 9.18213 24.3896 9.18213 24.3725 9.18213C24.3254 9.16448 24.2485 9.17772 24.1716 9.18654C24.3254 9.10273 24.4879 9.08508 24.6546 9.09831ZM54.4526 23.8758C54.4996 24.039 54.4612 24.1096 54.4184 24.1758C54.3671 23.9773 54.3543 23.77 54.2944 23.5714C54.2987 23.5317 54.303 23.4965 54.3115 23.47C54.4312 23.8846 54.2731 23.8493 54.4526 23.8758ZM54.5424 24.2243C54.5637 24.3522 54.5851 24.4449 54.6022 24.5287C54.5937 24.5243 54.5894 24.5199 54.5766 24.5199C54.5509 24.4846 54.5295 24.4493 54.5124 24.414C54.4782 24.2993 54.4526 24.1978 54.5424 24.2243ZM54.3073 33.5628C54.3158 33.4658 54.2987 33.4084 54.2688 33.3731C54.2816 33.2099 54.303 33.0555 54.3372 32.9408C54.3628 32.9849 54.3842 33.0335 54.4056 33.082C54.4141 33.0158 54.3885 32.9188 54.3799 32.8305C54.3842 32.8217 54.3885 32.8085 54.3928 32.7997C54.3885 32.782 54.3842 32.76 54.3799 32.7379C54.3842 32.707 54.397 32.6806 54.4227 32.6629C54.4312 32.7952 54.521 32.7908 54.4782 33.0158C54.2346 33.2849 54.397 33.1349 54.3073 33.5628ZM31.8444 9.47768C31.8017 9.4865 31.7803 9.47327 31.7675 9.45563C31.7931 9.44681 31.823 9.44239 31.853 9.43357C31.853 9.45563 31.8487 9.47768 31.8444 9.47768ZM49.2676 16.6062C49.1564 16.5973 49.0624 16.5665 49.0538 16.4253C49.0538 16.4209 49.0538 16.4209 49.0538 16.4165C49.1265 16.4738 49.1992 16.5356 49.2676 16.6062ZM54.2389 31.4057C54.2303 31.2954 54.2218 31.1808 54.2132 31.0661C54.2175 31.0572 54.2218 31.0484 54.2218 31.0396C54.2474 30.9558 54.3201 30.8852 54.3885 30.8146C54.3885 30.9293 54.3885 31.0484 54.3928 31.1631C54.4013 31.419 54.4184 31.666 54.4569 31.8998C54.4013 31.9042 54.3329 31.891 54.3415 32.0365C54.397 32.0498 54.4782 32.0145 54.4825 32.1071C54.4569 32.3144 54.4141 32.4821 54.35 32.6144C54.2773 32.2747 54.256 31.8513 54.2389 31.4057ZM54.3714 30.4176C54.3714 30.4353 54.3714 30.4573 54.3757 30.475C54.3671 30.4529 54.3671 30.4353 54.3714 30.4176ZM50.8235 18.3442C50.7423 18.256 50.7594 18.1324 50.862 18.0486C50.8705 18.0442 50.8791 18.0398 50.8919 18.0398C51.0116 18.1898 51.1227 18.3618 51.2296 18.5559C51.0757 18.5868 50.9902 18.5295 50.8235 18.3442ZM50.7038 17.8325C50.5798 17.7972 50.4986 17.7134 50.4559 17.5855C50.5414 17.6604 50.6226 17.7398 50.7038 17.8325ZM54.2645 33.4349C54.2773 33.5187 54.2731 33.6113 54.256 33.704C54.256 33.6157 54.256 33.5231 54.2645 33.4349ZM55.0724 26.946C55.0895 26.8931 55.1152 26.8357 55.1451 26.7828C55.1494 26.9019 55.1323 27.0034 55.0852 27.0431C55.081 27.0122 55.0767 26.9769 55.0724 26.946ZM54.9869 26.2534C54.9869 26.2314 54.9869 26.2005 54.9912 26.1829C55.0168 26.2138 55.0382 26.2623 55.0596 26.324C55.0382 26.3064 55.0126 26.2843 54.9869 26.2534ZM54.7689 25.4947C54.6792 25.6976 54.8074 25.9403 54.8715 25.9138C54.863 26.0064 54.8373 26.0373 54.8074 26.0417C54.7775 26.002 54.7475 25.9623 54.7219 25.9226C54.7134 25.8961 54.7091 25.8697 54.7048 25.8432C54.6706 25.7991 54.6321 25.7594 54.5937 25.7241C54.5723 25.6844 54.5509 25.6491 54.5424 25.6271C54.5124 25.5521 54.5979 25.4506 54.6877 25.4638C54.7091 25.4683 54.7347 25.4727 54.7561 25.4815C54.7646 25.4859 54.7646 25.4903 54.7689 25.4947ZM54.2602 23.4788C54.256 23.4744 54.256 23.4656 54.2517 23.4568C54.2389 23.4259 54.2389 23.4038 54.2431 23.3774C54.2517 23.4126 54.256 23.4479 54.2602 23.4788ZM25.0692 9.19095C25.0265 9.18654 24.9923 9.17772 24.9581 9.16007C24.9923 9.16889 25.0307 9.17772 25.0692 9.19095ZM33.7509 56.726C33.8022 56.8848 33.5585 56.7613 33.3875 56.8627C33.4474 56.7525 33.5842 56.7436 33.7509 56.726ZM47.7543 49.796C47.8227 49.9195 47.5663 50.0033 47.4167 50.2415C47.3739 50.193 47.3012 50.2548 47.2628 50.1974C47.4338 50.0474 47.6047 49.8842 47.7543 49.796ZM48.0878 49.3505C48.122 49.3902 48.1604 49.4254 48.216 49.3681C48.2972 49.4387 48.0279 49.7254 47.9296 49.7607C47.8826 49.6681 47.9424 49.5269 48.0878 49.3505ZM53.3797 37.6167C53.3925 37.6255 53.4053 37.6299 53.4182 37.6387C53.3754 37.7402 53.3583 37.749 53.3369 37.7358C53.3498 37.6917 53.3669 37.6564 53.3797 37.6167ZM54.1662 34.8112C54.1619 34.7538 54.1577 34.7009 54.1491 34.6524C54.1705 34.6303 54.1918 34.6127 54.2132 34.6038C54.2089 34.67 54.1918 34.7406 54.1662 34.8112ZM54.2987 34.3612C54.2859 34.273 54.2731 34.1583 54.2645 34.0348C54.2859 33.9333 54.3115 33.8407 54.3671 33.7084C54.35 34.0216 54.3201 34.123 54.3329 34.3524C54.3244 34.3568 54.3115 34.3612 54.2987 34.3612ZM55.1622 28.2385C55.1964 28.0665 55.2092 27.8944 55.1793 27.6827C55.3802 27.7665 55.2947 28.2605 55.1921 28.437C55.1836 28.3708 55.1707 28.3047 55.1622 28.2385ZM55.1066 27.1842C55.1707 27.2636 55.2092 27.418 55.2391 27.5989C55.1109 27.6827 55.0681 27.2989 55.1066 27.1842ZM54.5937 23.6861L54.4526 23.7258C54.4013 23.6067 54.4825 23.4082 54.3628 23.3774C54.3372 23.1347 54.4526 23.4347 54.4868 23.4171C54.5039 23.3244 54.4569 23.2715 54.397 23.2009C54.4227 23.1788 54.444 23.1568 54.4654 23.1347C54.5552 23.2803 54.6193 23.4612 54.5937 23.6861ZM54.3158 22.4863C54.2688 22.4819 54.2431 22.354 54.2175 22.2525C54.2218 22.2525 54.2261 22.2525 54.2303 22.2525C54.2645 22.2481 54.2944 22.2216 54.3158 22.1907C54.4056 22.3892 54.303 22.3716 54.3158 22.4863ZM53.7302 21.7893C53.743 21.7805 53.7772 21.7849 53.7943 21.7981C53.9183 21.882 53.9995 21.9878 54.0294 22.1466C54.0422 22.2216 54.1021 22.2481 54.1705 22.2525C54.1833 22.3098 54.1918 22.3716 54.1918 22.451C54.1576 22.4598 54.1662 22.5216 54.1406 22.5436C54.0508 22.2216 53.8798 22.3319 54.0893 22.4863C54.0978 22.5304 54.1064 22.5745 54.1149 22.6186C53.9995 22.6142 53.8841 22.6142 53.7687 22.601C53.7345 22.5966 53.6832 22.5084 53.6917 22.4687C53.7174 22.3628 53.8114 22.2569 53.7986 22.1687C53.7815 22.0672 53.6575 21.9922 53.6832 21.8599C53.6832 21.8334 53.7046 21.807 53.7302 21.7893ZM52.5077 19.4558C52.4649 19.4337 52.4222 19.4161 52.3794 19.4382C52.3538 19.372 52.3239 19.3191 52.2982 19.2705C52.2897 19.2264 52.2854 19.1779 52.2854 19.1338C52.3538 19.2308 52.435 19.3499 52.5077 19.4558ZM47.8569 12.8743C47.8826 12.9052 47.9125 12.9405 47.9382 12.9713C47.9339 12.9802 47.9296 12.9934 47.9211 13.0022C47.7714 12.9713 47.6988 12.7684 47.609 12.5743C47.6902 12.6758 47.7715 12.7773 47.8569 12.8743ZM45.3777 12.0582C45.3905 12.0671 45.3991 12.0847 45.4076 12.1023C45.3777 12.0891 45.3478 12.0759 45.3178 12.0671C45.3307 12.0494 45.352 12.0406 45.3777 12.0582ZM23.6757 9.25712C23.6757 9.288 23.6757 9.31888 23.68 9.34535C23.7484 9.34535 23.7911 9.30564 23.8168 9.25271C23.9322 9.25271 24.0476 9.25712 24.1673 9.26153C24.1245 9.35858 24.039 9.42033 23.9578 9.47768C23.821 9.57031 23.7227 9.51738 23.6757 9.36299C23.6287 9.38063 23.5774 9.39387 23.5304 9.41592C23.3038 9.53502 23.2226 9.53062 23.1029 9.37181C23.0986 9.3674 23.0944 9.35858 23.0901 9.35417C23.2824 9.288 23.4748 9.26594 23.6757 9.25712ZM22.0043 9.53062C22.201 9.49092 22.3891 9.47327 22.56 9.47327C22.5173 9.51297 22.4617 9.53944 22.372 9.53503C22.3164 9.53503 22.2395 9.53503 22.2138 9.57032C22.0215 9.82175 21.7137 9.61442 21.5 9.77323C21.3503 9.88351 21.2648 9.82616 21.1922 9.74235C21.4658 9.64531 21.7436 9.57914 22.0043 9.53062ZM7.79141 45.0275C7.76576 45.0231 7.74439 44.9393 7.74866 44.8952C7.75294 44.8731 7.76576 44.8511 7.77858 44.829C7.79141 44.8069 7.80851 44.7893 7.82133 44.7672C7.8427 44.8113 7.8769 44.851 7.88545 44.8952C7.89827 44.9657 7.88973 45.0495 7.79141 45.0275ZM8.57366 47.2463C8.56511 47.286 8.51381 47.3125 8.48389 47.3478C8.46679 47.3257 8.4326 47.3081 8.4326 47.286C8.42405 47.2066 8.42404 47.1272 8.41977 47.0478C8.4155 47.0478 8.41122 47.0478 8.40695 47.0478C8.40695 47.0434 8.40695 47.0346 8.40695 47.0302C8.36848 47.0125 8.33 46.9949 8.29581 46.9728C8.28726 46.9684 8.30008 46.9155 8.30436 46.9155C8.3984 46.9022 8.40267 46.964 8.40695 47.0302C8.41122 47.0302 8.4155 47.0346 8.41977 47.0346C8.41977 47.039 8.41977 47.0434 8.41977 47.0478C8.54373 47.0478 8.60785 47.114 8.57366 47.2463ZM9.09088 47.7316C9.04813 47.7051 9.00539 47.6786 8.95837 47.6522C9.00539 47.6257 9.05241 47.5816 9.09943 47.586C9.14645 47.586 9.18919 47.6345 9.23621 47.6654C9.18919 47.683 9.1379 47.7095 9.09088 47.7316ZM9.43712 48.1109C9.43284 48.1771 9.42857 48.2433 9.33025 48.2256C9.32598 48.2256 9.31316 48.1727 9.3217 48.1683C9.3559 48.1462 9.39437 48.1286 9.43712 48.1109C9.43712 48.1065 9.43712 48.0977 9.43712 48.0933C9.44139 48.0933 9.44567 48.0933 9.44994 48.0933C9.44567 47.9874 9.43284 47.8815 9.51833 47.7977C9.56963 47.7492 9.73634 47.7492 9.73206 47.7977C9.72779 47.8418 9.71496 47.8948 9.68932 47.9256C9.6252 48.0051 9.56963 48.1021 9.44567 48.0933C9.44567 48.0977 9.44567 48.1021 9.44567 48.1065C9.44567 48.1065 9.44139 48.1109 9.43712 48.1109ZM10.1125 48.2741C9.99281 48.5565 9.74061 48.7726 9.71497 49.1078C9.71497 49.1255 9.61238 49.152 9.56963 49.1387C9.52689 49.1255 9.46277 49.0593 9.46704 49.0284C9.54826 48.6976 9.68932 48.3888 9.89022 48.1153C9.90732 48.0933 9.99709 48.1153 10.0484 48.1286C10.0484 48.1286 10.0484 48.1286 10.0527 48.1286C10.0655 48.1418 10.0783 48.155 10.0954 48.1683C10.0997 48.1771 10.1039 48.1815 10.1125 48.1859C10.1082 48.2212 10.1253 48.2521 10.1125 48.2741ZM12.673 50.4665C12.643 50.5327 12.6003 50.5591 12.5362 50.5371C12.5533 50.4797 12.5875 50.4312 12.673 50.418C12.8183 50.3959 12.8824 50.4886 12.8653 50.6209C12.8653 50.6385 12.8696 50.6474 12.8696 50.6606C12.8226 50.6121 12.767 50.5503 12.673 50.4665ZM13.7416 50.74C13.7416 50.7444 13.7373 50.7532 13.7373 50.7576L13.7245 50.7444C13.7288 50.7444 13.7331 50.7444 13.7416 50.74C13.7459 50.7268 13.7502 50.7135 13.7544 50.7003C13.7673 50.7091 13.7801 50.7135 13.7886 50.7223C13.7715 50.7312 13.7544 50.7356 13.7416 50.74ZM19.5166 55.3894C18.9865 55.138 18.4693 54.8865 17.8409 54.7674C17.6357 54.6704 17.4348 54.5336 17.2168 54.3925C17.1955 54.3748 17.1698 54.3572 17.1442 54.3439C17.2425 54.366 17.3408 54.3881 17.4348 54.4101C17.6699 54.463 17.8965 54.516 18.123 54.5866C18.3539 54.6483 18.5932 54.7277 18.8497 54.8468C19.2815 54.6483 19.8927 55.4379 20.3031 55.3806C20.1406 55.1115 20.8331 55.332 21.2307 55.3806C21.1665 55.4997 21.2136 55.6541 21.2392 55.8702C20.6066 55.804 20.0594 55.5967 19.5166 55.3894ZM27.5143 56.7745C27.6425 56.6907 27.7194 56.8627 27.9503 56.823C27.946 56.7877 27.8733 56.801 27.822 56.7922C27.8349 56.7392 28.0058 56.7701 28.0016 56.7083C27.9289 56.6289 27.6126 56.7172 27.4459 56.7039C27.6981 56.5187 28.3264 56.5319 28.5316 56.4128C28.6342 56.4878 28.5915 56.6113 28.553 56.6378C28.6214 56.7613 28.6898 56.6334 28.8052 56.6951C28.9719 56.6334 28.6043 56.6334 28.6641 56.5187C29.1343 56.4834 29.2455 56.5231 29.4506 56.3907C29.6516 56.4216 29.4506 56.4569 29.8183 56.3731C29.8824 56.6245 29.4335 56.4966 29.2882 56.5892C29.5148 56.748 30.0619 56.3378 30.1004 56.5936C29.908 56.6157 29.7071 56.6598 29.4977 56.7039C29.2882 56.7348 29.0702 56.7701 28.8479 56.801C28.4077 56.8583 27.946 56.8892 27.5143 56.7745ZM27.6553 58.3008C27.5955 58.4155 27.8049 58.3581 27.9204 58.3625C27.7066 58.4243 27.3561 58.4419 26.9671 58.4552C26.5739 58.4419 26.1421 58.4199 25.7574 58.4464C26.2191 58.1684 26.9628 58.4331 27.6553 58.3008ZM25.5608 58.5478C25.9327 58.6096 26.0224 58.5831 26.42 58.6184C26.0481 58.4287 27.245 58.5258 27.3433 58.614C27.0312 58.7198 26.6636 58.6978 26.3174 58.6757C25.9711 58.6581 25.6506 58.6404 25.424 58.7287C25.3684 58.6096 25.5309 58.6184 25.5608 58.5478ZM25.3513 58.8786C25.4069 58.7507 25.5864 58.8478 25.6848 58.8919C25.6677 58.9801 25.3898 58.9007 25.3513 58.8786ZM29.861 59.086L29.8439 58.9669C29.814 58.9757 29.7841 58.9801 29.7541 58.9889C29.6088 59.0154 29.4592 59.033 29.301 59.0551C28.989 59.0948 28.6599 59.1301 28.3264 59.1521C27.6553 59.1918 26.9458 59.2271 26.2832 59.0992C26.2105 59.108 26.2362 59.1742 26.1507 59.1698C25.9925 59.1521 25.8728 59.1124 25.7489 59.0771C25.766 58.9625 26.0823 59.0286 26.2875 59.0242C26.2917 58.9713 26.296 58.9183 26.2191 58.9095C26.8688 58.8919 28.0443 58.8963 29.0018 58.6272C29.2198 58.6537 29.4293 58.6846 29.5532 58.7728C29.7456 58.7287 29.4977 58.6581 29.5319 58.5875C29.6986 58.5522 29.8525 58.6978 29.9337 58.5787C30.1303 58.5831 30.0149 58.6228 30.0192 58.7154C30.3483 58.6096 30.5834 58.5258 30.8014 58.5169C30.8484 58.3846 30.5877 58.4949 30.4594 58.4949C30.6475 58.3317 31.1135 58.3052 31.3144 58.3537C31.3913 58.4861 31.0493 58.6493 31.4298 58.6007C31.1605 58.7816 30.3569 58.6493 30.2414 58.8345C30.7629 58.8478 31.635 58.5654 31.9427 58.7419C31.2545 59.033 30.6176 58.9183 29.861 59.086ZM32.9173 58.1905C32.9088 58.1243 32.819 58.1332 32.819 58.0626C33.0669 57.9567 33.0413 58.1199 33.2892 58.014C33.2379 58.089 33.0242 58.1287 32.9173 58.1905ZM34.6742 57.5112C33.8834 57.6391 33.2037 57.8508 32.3958 58.0185C32.4215 58.0846 32.6181 57.9832 32.6694 58.0229C32.6865 58.1376 32.289 58.1949 32.2719 58.0802C32.1052 58.1861 32.0966 58.2214 32.1949 58.3581C31.8957 58.2787 31.8359 58.1817 31.9384 58.0979C32.0453 58.0096 32.3189 57.9435 32.695 57.8597C32.6267 57.82 32.477 57.8597 32.3574 57.8729C32.3018 57.767 32.6438 57.767 32.6523 57.6788C32.7421 57.6656 32.7292 57.7582 32.7506 57.8067C33.3619 57.6038 33.4046 57.5729 34.0715 57.37C34.1954 57.4803 34.3921 57.2818 34.563 57.3877C34.7255 57.3083 34.345 57.3612 34.516 57.2465C34.9734 57.1495 34.9606 57.2553 35.4137 57.0215C35.388 56.9201 35.0247 57.2156 35.0674 57.0348C35.3709 56.9818 35.5847 56.8671 35.7941 56.7172C35.8454 56.7921 35.8326 56.8539 35.7984 56.9157C35.9651 56.8627 35.9822 56.7877 35.9309 56.7039C36.2301 56.5451 36.3327 56.6201 36.478 56.651C36.2515 57.0304 35.0418 57.22 34.6742 57.5112ZM40.6115 55.8614C40.603 55.6673 40.8723 55.6497 41.0219 55.4732C41.0775 55.5879 40.7355 55.7335 40.6115 55.8614ZM42.5009 55.4467C42.3898 55.7202 42.3983 55.3938 42.2231 55.5394C42.2145 55.4864 42.3556 55.4159 42.4411 55.3541C42.4667 55.4026 42.4881 55.4467 42.5607 55.407C42.5693 55.4511 42.5095 55.4644 42.5009 55.4467ZM42.2829 54.8821L42.5137 54.7321L42.5778 54.8248C42.4582 54.8821 42.3214 54.9747 42.2829 54.8821ZM42.5522 54.6615C42.5052 54.5821 42.6933 54.463 42.8386 54.3483L42.9027 54.4366C42.7702 54.5469 42.642 54.6483 42.5522 54.6615ZM42.4539 54.4807C42.0948 54.7365 41.7272 54.9747 41.5434 55.138C41.5648 54.9836 41.8725 54.7454 42.2402 54.4851C42.6035 54.2204 43.0096 53.9028 43.2789 53.6734C43.1335 53.9072 42.8001 54.2028 42.4539 54.4807ZM44.9973 53.9205C44.8733 53.8366 44.8519 53.8411 44.8861 53.6778C45.0186 53.669 45.2281 53.7308 44.9973 53.9205ZM45.2024 53.6117C45.1426 53.6117 45.0528 53.6867 45.0186 53.6161C45.0827 53.594 45.1469 53.572 45.1298 53.5279C45.1939 53.4838 45.211 53.5499 45.2836 53.4882C45.2751 53.5367 45.2666 53.5852 45.3008 53.6205C45.2366 53.669 45.1255 53.6867 45.2024 53.6117ZM46.1856 53.1C46.1685 53.0471 46.2967 52.9544 46.3694 52.875C46.3309 52.853 46.254 52.9412 46.1856 52.9985C46.0915 52.9941 46.2583 52.7603 46.0873 52.8882C46.1001 52.8 46.3779 52.778 46.472 52.7735C46.2967 52.9588 46.4121 52.9721 46.1856 53.1ZM47.4209 50.9076L47.5022 50.9826L47.267 51.2473C47.173 51.1899 47.3654 51.0223 47.4209 50.9076ZM47.8056 51.362C47.8484 51.1899 47.7373 51.3223 47.609 51.4723C47.5577 51.3046 47.9168 51.159 48.0621 51.0091C48.1177 51.0752 47.874 51.2517 47.8056 51.362ZM48.0151 50.3959C47.9681 50.7135 47.8869 51.0047 47.4209 51.2958C47.468 51.0885 47.8954 50.8018 47.7458 50.5371C48.1775 50.1313 48.4426 49.7298 48.6777 49.5666C48.6734 49.8578 48.2844 50.2856 48.0151 50.3959ZM49.2504 48.9314C49.0111 49.2093 48.8786 49.2755 48.7803 49.5578L48.6392 49.4431C48.9213 49.174 49.1393 48.702 49.4685 48.3844C49.4685 48.5962 49.1906 48.7329 49.2504 48.9314ZM52.0973 44.3305C51.9776 44.3261 52.0546 44.1717 51.9306 44.1673C52.0375 44.0967 52.1315 43.7218 52.2426 43.8453C52.1657 43.6953 52.4265 43.4218 52.5419 43.1968C52.3196 43.6159 52.2982 44.035 52.0973 44.3305ZM52.1443 45.5745C52.093 45.5392 52.0332 45.5745 51.9776 45.6495C51.9135 45.6009 51.999 45.4554 52.093 45.301C52.0973 45.4466 52.1828 45.2878 52.1871 45.4333C52.2683 45.323 52.3581 45.0275 52.4307 45.151C52.3367 45.2084 52.2384 45.4069 52.1443 45.5745ZM52.5248 44.7893C52.5119 44.5643 52.6188 44.5202 52.7428 44.3261C52.7513 44.5511 52.6487 44.5952 52.5248 44.7893ZM52.7727 42.1337C52.7513 42.0588 52.7684 41.9397 52.8325 41.7764C52.9351 41.7985 52.871 42.0632 52.7727 42.1337ZM52.7129 41.128C52.7086 40.9383 52.8069 40.8766 52.8625 40.5854C52.9693 40.6295 52.7941 41.0486 52.7129 41.128ZM53.0762 39.6282C53.1788 39.7252 52.9779 39.8929 52.9907 40.1134C52.8411 40.1267 53.0505 39.787 53.0762 39.6282ZM53.0591 40.806C53.0206 40.5413 53.0719 40.4178 53.136 40.0164C53.1574 40.1311 53.0976 40.5016 53.2514 40.1267C53.3711 40.2678 53.1232 40.5546 53.0591 40.806ZM53.5763 37.7446C53.4353 38.4284 53.4994 38.6886 53.4865 39.0194C53.4566 39.1782 53.3669 39.068 53.3284 39.1915C53.5207 39.1253 53.3882 39.6414 53.2985 39.9855C53.1831 39.9237 53.1189 39.9237 53.1147 39.8532C53.1788 39.7958 53.2301 39.5532 53.213 39.4429C53.0805 39.6105 53.1531 39.2091 53.0676 39.1827C53.1275 39.0503 53.1617 39.0547 53.1916 39.1474C53.2386 38.6269 53.4823 38.0269 53.5207 37.5108C53.5592 37.5285 53.572 37.6476 53.6276 37.5329C53.478 37.6079 53.6618 37.2991 53.5678 37.3079C53.5207 37.3829 53.4908 37.3608 53.4737 37.2991C53.525 37.1403 53.5763 36.9815 53.6191 36.8183C53.7516 36.7697 53.5549 37.1138 53.649 37.1138C53.7046 36.8094 53.961 36.3463 53.8328 36.2316C53.7558 36.5315 53.7601 36.6595 53.6233 36.8006C53.6276 36.7918 53.6276 36.783 53.6319 36.7742C53.6917 36.5095 53.7388 36.236 53.7772 35.9537C53.8328 35.9537 53.8798 35.9272 53.9268 35.8875C53.9268 35.8919 53.9268 35.8919 53.9226 35.8963C54.0251 36.0463 54.0038 36.2404 53.961 36.4389C53.914 36.6374 53.8371 36.8359 53.8584 37.0168C53.7687 37.1756 53.7217 37.1579 53.6704 37.1932C53.7644 37.33 53.649 37.9696 53.602 38.1063C53.4823 38.1152 53.649 37.7931 53.5763 37.7446ZM53.572 41.2118C53.6875 40.978 53.6105 40.8545 53.7387 40.7354C53.914 40.7045 53.6917 41.3441 53.572 41.2118ZM53.7473 40.5854C53.8969 40.4796 54.0209 40.1928 54.1876 40.1928C54.0593 40.4531 53.9311 40.7045 53.7473 40.5854ZM55.2135 28.6178C55.2135 28.6178 55.2135 28.6223 55.2135 28.6267C55.2135 28.6267 55.2135 28.6223 55.2135 28.6178ZM55.3759 28.3091C55.4058 28.1988 55.4101 28.6134 55.4486 28.8825C55.2861 28.8075 55.3246 28.4811 55.3759 28.3091Z" fill="#00B307"/>
<path fill-rule="evenodd" clip-rule="evenodd" d="M15.7382 5.87793C15.6356 6.04114 14.973 6.25729 14.9346 6.32787C15.0799 6.30581 15.9519 5.90881 15.7382 5.87793Z" fill="#00B307"/>
<path fill-rule="evenodd" clip-rule="evenodd" d="M30.1557 0.7477C30.113 0.659476 29.7582 0.707997 29.7325 0.628595C30.1856 0.527138 30.4763 0.849158 30.938 0.89327C30.9551 0.849158 30.938 0.787396 31.0192 0.791807C31.0876 0.853564 31.126 0.919734 31.2158 0.972668C31.7031 0.950612 32.605 1.24616 33.0154 1.11824C32.9128 1.03443 32.4939 0.999135 32.7589 0.910912C32.4041 0.835921 32.6991 1.01237 32.5195 1.02119C32.511 0.990313 32.4682 0.968257 32.3828 0.959435C32.511 0.809454 31.9168 0.85798 31.6817 0.734466C31.4979 0.756522 31.7971 0.866801 31.592 0.871212C31.4466 0.725643 31.1517 0.655064 31.1645 0.809456C31.2115 0.760933 30.5917 0.74329 30.8183 0.646244C30.0488 0.571254 30.1301 0.491851 29.5273 0.500674C29.5829 0.637421 29.5316 0.593304 29.5872 0.730051C29.8693 0.672705 29.9676 0.791811 30.1557 0.7477Z" fill="#00B307"/>
<path fill-rule="evenodd" clip-rule="evenodd" d="M38.3379 6.44266C38.5131 6.49119 38.7525 6.63234 38.8936 6.63234C38.7525 6.53971 38.4319 6.38973 38.3379 6.44266Z" fill="#00B307"/>
<path fill-rule="evenodd" clip-rule="evenodd" d="M40.996 6.5835C40.9276 6.69819 40.654 6.4644 40.5215 6.46881C40.5942 6.60997 41.1156 6.75554 40.996 6.5835Z" fill="#00B307"/>
<path fill-rule="evenodd" clip-rule="evenodd" d="M42.8388 5.45862C42.873 5.40569 43.0184 5.54685 43.0611 5.51156C42.9542 5.46304 42.9243 5.26012 43.0739 5.34394C43.1509 5.46304 43.2449 5.38364 43.433 5.42775C43.0825 5.30865 42.5781 4.96016 42.4199 5.02192C42.6849 5.07486 43.0013 5.38363 42.8388 5.45862Z" fill="#00B307"/>
<path fill-rule="evenodd" clip-rule="evenodd" d="M42.9881 9.16846C42.8983 9.24345 43.0308 9.34932 43.1847 9.4596C43.1505 9.28315 43.5096 9.64487 43.3514 9.45077C43.2189 9.35373 43.1463 9.38461 43.1634 9.2611C43.1933 9.28315 43.2403 9.28315 43.1847 9.23021C43.1334 9.24786 43.0821 9.25668 43.0138 9.23904C43.0309 9.21698 43.0351 9.19492 42.9881 9.16846Z" fill="#00B307"/>
<path fill-rule="evenodd" clip-rule="evenodd" d="M43.4629 9.62752C43.7621 9.98924 44.1212 10.5803 44.4973 10.6377C44.4631 10.598 44.4033 10.5495 44.4247 10.5186C44.5786 10.6421 44.6683 10.5892 44.8564 10.8185C44.9333 10.7568 44.8179 10.6509 44.7324 10.5539C44.4931 10.4392 43.6296 9.85249 43.7065 9.62752C43.6253 9.62752 43.5227 9.579 43.4629 9.62752Z" fill="#00B307"/>
<path fill-rule="evenodd" clip-rule="evenodd" d="M45.9717 8.3833C46.0657 8.61709 46.8009 9.02734 46.7967 9.29642C46.9206 9.41111 46.9933 9.39347 47.1344 9.5655C47.0702 9.57874 46.9976 9.56109 46.9335 9.57874C47.0446 9.65814 47.16 9.74195 47.2712 9.84341C47.378 9.94927 47.4849 10.064 47.596 10.1875C47.814 10.4301 48.032 10.6992 48.25 10.9639C48.6903 11.4976 49.1391 12.0225 49.5751 12.3975C49.6179 12.8563 50.2206 12.9798 50.1608 13.315C50.2206 13.2047 50.1864 13.2312 50.3018 13.2003C49.9428 12.9092 49.6093 12.3225 49.6435 12.0931C49.6307 12.0843 49.6307 12.0667 49.6606 12.0314C49.6478 12.0446 49.6478 12.0711 49.6435 12.0931C49.6863 12.124 49.9043 12.0578 49.9086 12.3004C50.0325 12.3269 49.9 12.0578 50.0197 12.2034C50.0582 12.349 50.0838 12.4857 50.0966 12.6136C50.2078 12.7416 50.3104 12.8254 50.413 12.918C50.3873 12.9533 50.3232 12.9754 50.3702 13.0459C50.4985 12.8607 50.6352 13.315 50.6994 13.4341C50.725 13.2488 50.4642 12.918 50.5113 12.7416C50.3745 12.768 50.4172 12.6445 50.2634 12.4681C50.289 12.4328 50.3488 12.4107 50.3061 12.3401C50.242 12.3181 50.1693 12.0181 49.9684 11.952C50.0453 12.0887 50.0197 12.1152 49.9299 12.0843C49.759 11.7535 49.4213 11.4932 49.2759 11.0962C49.1007 11.2109 48.9981 10.9418 48.8356 10.708C48.7886 10.7389 48.7544 10.8227 48.6818 10.7565C48.592 10.6374 48.6561 10.5801 48.6433 10.4919C48.7202 10.5933 48.981 10.7653 48.8656 10.5801C48.7843 10.6462 48.5535 10.1831 48.4723 10.2492C48.5834 10.3639 48.6048 10.4433 48.5407 10.4919C48.4894 10.2933 48.3825 10.4301 48.2244 10.1919C48.1389 10.2404 48.0577 10.311 47.9465 10.2713C47.9594 10.0066 47.6259 10.0287 47.4592 9.84782C47.3866 9.63608 47.3224 9.45522 47.3737 9.29642C47.1899 9.15967 47.16 9.0891 47.0873 9.07586C47.1899 9.18614 47.1258 9.2479 47.1472 9.33612C46.771 9.08909 46.6813 8.95676 46.3564 8.59945C46.2282 8.60827 46.0914 8.55093 45.9717 8.3833ZM48.7929 11.1579C48.8698 11.1976 48.9553 11.2682 49.0579 11.405C49.0194 11.5947 48.7972 11.0962 48.7587 11.2903C48.7117 11.2197 48.7715 11.1932 48.7929 11.1579Z" fill="#00B307"/>
<path fill-rule="evenodd" clip-rule="evenodd" d="M45.6943 11.5549C45.7756 11.6828 45.7499 11.7799 45.7456 11.8813C45.8482 12.0313 45.8867 11.9254 45.9722 12.0225C45.9252 12.0666 45.9423 12.1284 45.985 12.1989C46.109 11.9784 45.7798 11.8108 45.8354 11.5946C45.7969 11.6343 45.7328 11.5373 45.6943 11.5549Z" fill="#00B307"/>
<path fill-rule="evenodd" clip-rule="evenodd" d="M53.2896 19.2396C53.2639 18.8603 53.5247 19.3499 53.5546 19.1161C53.4349 19.1558 53.3238 18.9 53.2041 18.8823C53.3665 19.1029 53.1742 19.0499 53.2896 19.2396Z" fill="#00B307"/>
<path fill-rule="evenodd" clip-rule="evenodd" d="M53.3886 20.5317C53.3373 20.5317 53.2903 20.4611 53.2305 20.5229C53.3117 20.717 53.2518 20.7787 53.2518 20.8978C53.2946 20.867 53.4442 21.211 53.4015 20.9905C53.2006 20.7479 53.4271 20.6949 53.3886 20.5317Z" fill="#00B307"/>
<path fill-rule="evenodd" clip-rule="evenodd" d="M51.4092 46.4123C51.5331 46.324 51.7255 46.3461 51.6742 46.3152C51.7255 46.1211 51.4861 46.2446 51.4092 46.4123Z" fill="#00B307"/>
<path fill-rule="evenodd" clip-rule="evenodd" d="M49.0963 49.8089C48.921 50.0339 48.6987 50.1353 48.7073 50.325C48.8312 50.2456 49.0834 50.0074 49.0364 50.2236C49.0792 50.0383 49.5878 49.6942 49.451 49.7207C49.31 49.8354 48.9466 50.1177 49.0963 49.8089Z" fill="#00B307"/>
<path fill-rule="evenodd" clip-rule="evenodd" d="M51.5711 52.7381C51.5625 52.8263 51.5625 52.8175 51.5283 53.1263C51.7378 52.8307 51.9216 52.544 51.8062 52.4028C51.7463 52.5043 51.5027 52.694 51.5711 52.7381Z" fill="#00B307"/>
<path fill-rule="evenodd" clip-rule="evenodd" d="M42.6291 56.2935C42.5308 56.3729 42.441 56.3464 42.4453 56.4126C42.6932 56.3376 42.2401 56.6067 42.2615 56.664C42.4239 56.6111 42.8129 56.3376 42.7317 56.3155C42.4795 56.4831 42.5735 56.3905 42.6291 56.2935Z" fill="#00B307"/>
<path fill-rule="evenodd" clip-rule="evenodd" d="M34.4132 59.7561C34.5158 59.7649 34.6825 59.7164 34.721 59.7869C34.3961 59.8928 33.8489 59.8178 34.0285 59.9766C34.1268 59.8619 34.4602 59.906 34.5457 59.9502C34.6055 59.8487 35.2425 59.5487 35.0458 59.6149C34.7466 59.7737 34.5115 59.637 34.4132 59.7561Z" fill="#00B307"/>
<path fill-rule="evenodd" clip-rule="evenodd" d="M32.7461 59.8532C32.7504 60.0296 32.4854 60.2281 32.776 60.3031C32.7376 60.237 32.853 60.2105 32.8914 60.162C32.6649 60.1223 32.6948 59.9017 33.1052 59.8355C33.1479 59.6944 32.8786 59.8355 32.7461 59.8532Z" fill="#00B307"/>
<path fill-rule="evenodd" clip-rule="evenodd" d="M31.5192 60.2196C31.3781 60.2769 31.6816 60.3431 31.6389 60.4666L31.3567 60.5151L31.3225 60.3299C31.1088 60.4842 30.6899 60.5107 30.8652 60.6298C30.7497 60.5901 30.5702 60.6475 30.5146 60.7225C31.0618 60.6872 31.1986 60.5284 31.6517 60.5372C31.6517 60.4931 31.656 60.449 31.7799 60.4401C31.5619 60.3784 31.7628 60.2108 31.5192 60.2196Z" fill="#00B307"/>
<path fill-rule="evenodd" clip-rule="evenodd" d="M28.4844 62.3366C28.6254 62.3852 28.9845 62.3058 28.8776 62.4998C29.4162 62.4469 28.6596 62.1999 28.4844 62.3366Z" fill="#00B307"/>
<path fill-rule="evenodd" clip-rule="evenodd" d="M25.5225 60.343C25.6037 60.3651 25.6806 60.3915 25.7319 60.4268C26.5142 60.3959 25.6763 60.3386 25.5225 60.343Z" fill="#00B307"/>
<path fill-rule="evenodd" clip-rule="evenodd" d="M25.0946 60.5105C25.1544 60.6252 25.475 60.6693 25.6588 60.6473C25.6075 60.5635 25.3511 60.4973 25.522 60.4179C25.1459 60.3738 24.9193 60.4179 24.6757 60.4532C24.8809 60.5899 24.4662 60.5811 24.5945 60.6341C24.6885 60.5855 24.9322 60.5988 25.0219 60.6561C25.1117 60.5679 24.9877 60.5414 25.0946 60.5105Z" fill="#00B307"/>
<path fill-rule="evenodd" clip-rule="evenodd" d="M24.1242 60.1622C24.1285 60.2548 24.0088 60.2769 23.9062 60.2901C23.8934 60.2107 23.5984 60.2372 23.5642 60.1666C23.4873 60.1886 23.53 60.2989 23.3462 60.2504C22.1322 60.0563 21.226 59.9372 20.3839 59.6858C19.9608 59.5711 19.5461 59.4564 19.1059 59.3373C18.8878 59.2755 18.6613 59.2138 18.4262 59.1476C18.1954 59.0638 17.956 58.98 17.6995 58.8873C17.6568 59.1344 17.4815 58.7726 17.3447 58.8388C17.4174 59.0726 17.5798 59.0902 17.8876 59.2711C17.9816 59.1785 17.7337 59.1344 17.7294 59.055C17.8192 59.0903 17.8833 59.0902 17.9389 59.0902C17.8021 59.2138 18.2552 59.3152 18.0116 59.3549C18.5117 59.4961 19.0759 59.5711 19.6872 59.7078C19.995 59.774 20.3113 59.8446 20.649 59.924C20.8157 59.9637 20.9867 60.0078 21.1662 60.0519C21.3457 60.0872 21.5253 60.1225 21.7133 60.1622C21.7176 60.096 21.7817 60.0739 21.8672 60.0739C22.0254 60.193 22.0468 60.1401 22.3545 60.1886C22.2605 60.2857 22.2947 60.321 22.4699 60.396C22.487 60.3563 22.4699 60.2901 22.5554 60.2945C22.9188 60.3474 23.4018 60.3695 23.825 60.3519C24.2054 60.3342 24.5346 60.2592 24.7055 60.1886C24.573 60.2151 24.2866 60.1489 24.1242 60.1622Z" fill="#00B307"/>
<path fill-rule="evenodd" clip-rule="evenodd" d="M15.1826 54.0439C15.4263 54.141 15.6956 54.3307 15.4177 54.2822C15.5502 54.388 15.7255 54.5071 15.8324 54.441C16.0076 54.613 16.029 54.8909 16.3026 54.9571C16.2812 55.0188 16.247 55.0585 16.1871 55.0673C16.388 55.1335 16.4906 55.0673 16.6573 55.085C16.7642 55.1512 16.6488 55.2394 16.8454 55.2967C16.9352 55.2306 17.2601 55.3144 17.5636 55.4335C17.5465 55.4511 17.5294 55.4732 17.5251 55.4908C17.5208 55.5393 17.555 55.5879 17.5678 55.6408C17.5977 55.6099 17.6448 55.579 17.6448 55.5482C17.6448 55.5217 17.6405 55.4908 17.6277 55.4644C17.9654 55.6099 18.2518 55.7908 18.1321 55.8658C18.3073 55.9099 18.4826 55.9805 18.6536 56.0554H18.6493C18.6279 56.0599 18.6065 56.0907 18.5852 56.1084C18.5467 56.1437 18.5638 56.1966 18.6365 56.2143C18.7946 56.254 18.9742 56.2054 19.0981 56.3598C19.2435 56.254 19.3674 56.3025 19.517 56.3819C19.6025 56.426 19.6666 56.3819 19.7008 56.2892C19.7137 56.2848 19.7222 56.2848 19.735 56.2804C19.7265 56.276 19.7179 56.2716 19.7094 56.2672C19.7179 56.2363 19.7179 56.2054 19.7222 56.1657C19.8291 56.1878 19.9488 56.2187 19.9659 56.1481C19.8889 56.1304 19.8034 56.1128 19.7222 56.0951C19.7094 56.0157 19.6752 55.9055 19.6324 55.9364C19.5726 55.9805 19.5085 56.0069 19.4444 56.0246C19.3845 56.0113 19.3289 55.9981 19.2691 55.9805C19.034 55.9011 18.7904 55.8128 18.5553 55.7202C18.085 55.5393 17.6319 55.3629 17.2772 55.2306C17.3199 55.1997 17.3712 55.1732 17.4353 55.1688C17.6148 55.2262 17.679 55.4158 17.7901 55.3011C17.6063 55.235 17.5208 55.1512 17.4011 55.0762C17.3071 55.16 17.1361 55.1203 16.9694 55.0541C16.8027 54.9791 16.636 54.8865 16.5248 54.8997C16.6146 54.8909 16.6488 54.8071 16.5932 54.7277C16.3496 54.6439 16.0333 54.4542 15.9007 54.2689C15.9349 54.2248 16.0204 54.2557 16.0589 54.2204C15.6998 54.0528 15.546 54.1189 15.1826 54.0439Z" fill="#00B307"/>
<path fill-rule="evenodd" clip-rule="evenodd" d="M16.7812 56.995C17.1232 57.0347 17.4182 57.07 17.743 57.3126C17.7601 57.2641 17.7388 57.2244 17.7131 57.1847C17.82 57.2244 17.8841 57.2155 17.9226 57.1803C17.525 57.0876 17.3412 56.9862 16.9522 56.9023C17.3711 57.0523 16.8796 56.9994 16.7812 56.995Z" fill="#00B307"/>
<path fill-rule="evenodd" clip-rule="evenodd" d="M16.1606 56.545C16.0537 56.4965 15.9725 56.448 15.9298 56.395C15.8229 56.4656 16.1349 56.7611 16.058 56.62C15.887 56.5141 16.1734 56.6068 16.1606 56.545Z" fill="#00B307"/>
<path fill-rule="evenodd" clip-rule="evenodd" d="M14.7415 56.77C14.5748 56.9773 15.3057 57.145 15.3314 57.3435L15.357 57.2729C15.3955 57.2905 15.434 57.3038 15.434 57.2685C15.2886 57.1759 15.0792 57.092 14.8227 56.9332C14.8398 56.8759 14.8826 56.8185 14.7415 56.77Z" fill="#00B307"/>
<path fill-rule="evenodd" clip-rule="evenodd" d="M12.6215 58.4547C12.6899 58.4636 12.9036 58.4018 12.7669 58.3224C12.5916 58.3753 12.5104 58.243 12.3693 58.2827C12.4805 58.3489 12.5275 58.4018 12.536 58.4592C12.3009 58.3974 12.3138 58.3401 12.0787 58.1989C12.0316 58.2518 12.1128 58.3136 12.0787 58.3709C11.8777 58.1901 11.6726 58.2165 11.5059 58.1548C11.7025 58.2607 11.6683 58.3489 11.8649 58.4592C12.1128 58.4327 12.271 58.5915 12.7284 58.7635C12.7412 58.6885 12.8523 58.7415 12.9122 58.7282C12.7369 58.6356 12.7027 58.543 12.6215 58.4547Z" fill="#00B307"/>
<path fill-rule="evenodd" clip-rule="evenodd" d="M14.3955 51.481C14.5408 51.5162 14.5964 51.7015 14.6434 51.6354C14.4254 51.4854 14.5494 51.4501 14.5366 51.353C14.4212 51.3839 14.3998 51.3486 14.3955 51.481Z" fill="#00B307"/>
<path fill-rule="evenodd" clip-rule="evenodd" d="M44.3564 6.44716C44.6043 6.65448 44.7197 6.59714 44.9035 6.67654C45.0488 6.82652 45.0574 6.95445 45.1429 7.0956C45.2839 7.14413 45.4335 7.27646 45.6045 7.42644C45.767 7.58966 45.9508 7.77052 46.1645 7.91168C45.8909 7.68671 45.908 7.54114 45.8439 7.37351C45.5917 7.27205 45.4977 7.10001 45.2668 7.05149C45.3096 6.99855 45.2668 6.95445 45.1728 6.93239C45.2369 6.86622 45.2882 6.79564 45.1642 6.69418C44.9762 6.68095 44.7026 6.49127 44.5145 6.47362C44.4846 6.38981 44.4803 6.31041 44.4205 6.21777C44.3948 6.26189 44.3478 6.2663 44.3008 6.2663C44.4076 6.34129 44.4162 6.39863 44.3564 6.44716Z" fill="#00B307"/>
<path fill-rule="evenodd" clip-rule="evenodd" d="M18.1617 59.6903C18.0207 59.5844 17.854 59.483 17.6787 59.3903C17.3239 59.2051 16.9136 59.0595 16.5203 59.0462C16.4947 59.355 16.204 59.3771 15.815 59.2977C15.9005 59.1301 15.4645 59.0198 15.426 58.8654C15.3918 59.0286 15.1524 58.8522 15.161 58.9448C15.1439 58.8786 15.0883 58.8125 15.0028 58.7463C14.9558 58.9271 14.5497 58.6581 14.2847 58.5654C14.2377 58.6978 14.3189 58.6978 14.1992 58.7728C14.4642 59.0286 15.1311 59.3727 15.3448 59.5094C16.0373 59.5624 16.7811 60.3961 17.6616 60.6034C18.2515 60.7357 18.6362 60.4711 18.5165 59.9682C18.4268 59.8844 18.3071 59.7917 18.1617 59.6903Z" fill="#00B307"/>
</g>
<path d="M30.8154 22.9082C32.1999 23.2806 33.4622 24.0102 34.476 25.0239C35.4898 26.0377 36.2194 27.3 36.5917 28.6845" stroke="#00B307" stroke-width="1.5" stroke-linecap="round" stroke-linejoin="round"/>
<path d="M29.9697 26.0649C30.8002 26.2884 31.5575 26.7261 32.1656 27.3342C32.7737 27.9423 33.2114 28.6996 33.4348 29.5301" stroke="#00B307" stroke-width="1.5" stroke-linecap="round" stroke-linejoin="round"/>
<path d="M23.9823 31.5666C24.8292 33.2986 26.2329 34.6962 27.9685 35.5356C28.0956 35.5958 28.2362 35.6218 28.3764 35.6111C28.5166 35.6004 28.6516 35.5532 28.768 35.4744L31.3242 33.7708C31.4371 33.6954 31.567 33.6494 31.7022 33.6368C31.8373 33.6243 31.9735 33.6456 32.0984 33.6989L36.88 35.7488C37.0424 35.8178 37.178 35.9377 37.2664 36.0904C37.3547 36.2432 37.3911 36.4205 37.37 36.5957C37.2186 37.7782 36.6415 38.865 35.7466 39.6527C34.8518 40.4404 33.7005 40.8749 32.5083 40.875C28.8262 40.875 25.295 39.4123 22.6913 36.8087C20.0877 34.205 18.625 30.6738 18.625 26.9917C18.6251 25.7996 19.0597 24.6484 19.8474 23.7537C20.6351 22.859 21.7219 22.282 22.9043 22.1309C23.0795 22.1097 23.2568 22.1461 23.4096 22.2345C23.5623 22.3228 23.6822 22.4584 23.7512 22.6209L25.8027 27.4065C25.8554 27.5302 25.8769 27.6649 25.865 27.7989C25.8532 27.9328 25.8085 28.0617 25.7349 28.1742L24.0362 30.7696C23.9591 30.8864 23.9137 31.0213 23.9042 31.161C23.8948 31.3007 23.9217 31.4404 23.9823 31.5666V31.5666Z" stroke="#00B307" stroke-width="1.5" stroke-linecap="round" stroke-linejoin="round"/>
</svg>
