<svg width="16" height="14" viewBox="0 0 16 14" fill="none" xmlns="http://www.w3.org/2000/svg">
<path d="M9.52381 11.2728L8.48206 13.0087C8.43209 13.092 8.36139 13.1609 8.27687 13.2088C8.19234 13.2566 8.09686 13.2818 7.99972 13.2818C7.90258 13.2818 7.8071 13.2566 7.72257 13.2088C7.63804 13.1609 7.56735 13.092 7.51738 13.0087L6.47675 11.2728C6.42671 11.1895 6.35596 11.1206 6.27138 11.0728C6.1868 11.025 6.09128 10.9999 5.99413 11H1.8125C1.66332 11 1.52024 10.9407 1.41475 10.8352C1.30926 10.7298 1.25 10.5867 1.25 10.4375V1.4375C1.25 1.28832 1.30926 1.14524 1.41475 1.03975C1.52024 0.934263 1.66332 0.875 1.8125 0.875H14.1875C14.3367 0.875 14.4798 0.934263 14.5852 1.03975C14.6907 1.14524 14.75 1.28832 14.75 1.4375V10.4375C14.75 10.5867 14.6907 10.7298 14.5852 10.8352C14.4798 10.9407 14.3367 11 14.1875 11H10.0059C9.90881 11 9.81341 11.0252 9.72894 11.073C9.64446 11.1208 9.5738 11.1896 9.52381 11.2728V11.2728Z" stroke="currentColor" stroke-width="1.2" stroke-linecap="round" stroke-linejoin="round"/>
</svg>
