<svg width="39" height="40" viewBox="0 0 39 40" fill="none" xmlns="http://www.w3.org/2000/svg">
<path d="M33.0182 15.2101V13.6723C33.0182 9.9916 31.7157 6.57143 29.3543 4.03361C26.9342 1.42857 23.6064 0 19.9762 0H18.7073C15.077 0 11.7493 1.42857 9.32912 4.03361C6.96778 6.57143 5.66526 9.9916 5.66526 13.6723V15.2101C2.79971 15.4034 0.5224 17.7899 0.5224 20.7059V23.1092C0.5224 26.1429 2.99299 28.6134 6.0266 28.6134H9.12744C9.68207 28.6134 10.1358 28.1597 10.1358 27.605V16.2017C10.1358 15.6471 9.68207 15.1933 9.12744 15.1933H7.68206V13.6723C7.68206 7.02521 12.4216 2.01681 18.6989 2.01681H19.9678C26.2535 2.01681 30.9846 7.02521 30.9846 13.6723V15.1933H29.5392C28.9846 15.1933 28.5308 15.6471 28.5308 16.2017V27.5966C28.5308 28.1513 28.9846 28.605 29.5392 28.605H30.951C30.5392 33.8655 26.9174 35.084 25.2367 35.3613C24.7745 33.9412 23.4384 32.916 21.8669 32.916H19.3459C17.3964 32.916 15.8081 34.5042 15.8081 36.4538C15.8081 38.4034 17.3964 40 19.3459 40H21.8753C23.5056 40 24.8753 38.8908 25.2871 37.395C26.1106 37.2773 27.4132 36.9832 28.7073 36.2269C30.5308 35.1597 32.6905 32.9832 32.9762 28.5966C35.8585 28.4202 38.1443 26.0252 38.1443 23.1008V20.6975C38.1527 17.7899 35.8838 15.395 33.0182 15.2101ZM8.13585 26.5882H6.04341C4.11904 26.5882 2.55601 25.0252 2.55601 23.1008V20.6975C2.55601 18.7731 4.11904 17.2101 6.04341 17.2101H8.13585V26.5882ZM21.8753 37.9832H19.3459C18.5056 37.9832 17.8249 37.3025 17.8249 36.4622C17.8249 35.6218 18.5056 34.9412 19.3459 34.9412H21.8753C22.7157 34.9412 23.3964 35.6218 23.3964 36.4622C23.3964 37.3025 22.7157 37.9832 21.8753 37.9832ZM36.1359 23.1008C36.1359 25.0252 34.5728 26.5882 32.6485 26.5882H30.556V17.2101H32.6485C34.5728 17.2101 36.1359 18.7731 36.1359 20.6975V23.1008Z" fill="#00B307"/>
</svg>
