<svg width="56" height="62" viewBox="0 0 56 62" fill="none" xmlns="http://www.w3.org/2000/svg">
<g opacity="0.15">
<path fill-rule="evenodd" clip-rule="evenodd" d="M4.28589 41.4174C4.23887 41.4307 4.17476 41.4659 4.15766 41.5101C4.13201 41.5895 4.13201 41.6821 4.11491 41.863C4.01232 42.0968 4.26452 42.3129 4.36284 42.5776C4.37566 42.6085 4.4868 42.6437 4.50817 42.6217C4.7219 42.432 4.92708 42.2335 5.12371 42.0262C5.15363 41.9953 5.15363 41.9027 5.13226 41.863C4.9228 41.5674 4.69198 41.3116 4.28589 41.4174Z" fill="#00B307"/>
<path fill-rule="evenodd" clip-rule="evenodd" d="M3.41878 42.2467C3.36322 42.0482 3.20933 41.9115 2.97423 41.9423C2.92294 41.96 2.86309 41.9644 2.82462 41.9997C2.8118 42.0129 2.8289 42.1011 2.85882 42.1276C3.03407 42.2908 3.14521 42.4717 3.09392 42.7319C3.07255 42.8422 3.08537 42.9613 3.10247 43.076C3.10674 43.1157 3.17513 43.1687 3.22216 43.1687C3.43588 43.1863 3.67526 42.8907 3.5684 42.7231C3.46581 42.5643 3.46581 42.4055 3.41878 42.2467Z" fill="#00B307"/>
<path fill-rule="evenodd" clip-rule="evenodd" d="M6.24387 44.0421C6.20112 43.9847 6.1541 43.8833 6.06006 43.9362C5.99167 43.9759 5.88908 44.1038 5.89763 44.1171C6.04297 44.32 5.83351 44.4744 5.85061 44.6552C5.85061 44.6773 5.88053 44.6994 5.91045 44.7391C5.9703 44.7038 6.03442 44.6641 6.09854 44.6288C6.41058 44.4479 6.44478 44.3112 6.24387 44.0421Z" fill="#00B307"/>
<path fill-rule="evenodd" clip-rule="evenodd" d="M2.52493 39.5249C2.49501 39.5161 2.42235 39.569 2.41807 39.5999C2.40097 39.6837 2.4138 39.7719 2.4138 39.8602C2.41807 39.8602 2.42235 39.8602 2.4309 39.8602C2.4309 39.9749 2.42235 40.094 2.43517 40.2086C2.44372 40.2836 2.49501 40.3101 2.53776 40.2836C2.69164 40.1822 2.77713 40.0454 2.76431 39.8513C2.75149 39.7278 2.63607 39.5514 2.52493 39.5249Z" fill="#00B307"/>
<path fill-rule="evenodd" clip-rule="evenodd" d="M16.439 51.4305C16.4433 51.4305 16.4347 51.382 16.4219 51.3644C16.2424 51.1173 15.9645 51.0732 15.7294 50.9453C15.6781 51.0247 15.6311 51.0644 15.6225 51.1129C15.6183 51.1615 15.6439 51.2497 15.6738 51.2541C15.7422 51.2717 15.8106 51.2938 15.8747 51.3114C15.9047 51.3511 15.9389 51.3864 15.9944 51.4217C16.0158 51.3952 16.0073 51.3688 15.9944 51.3467C16.097 51.382 16.1953 51.4217 16.2894 51.4791C16.3236 51.5011 16.392 51.4526 16.439 51.4305Z" fill="#00B307"/>
<path fill-rule="evenodd" clip-rule="evenodd" d="M3.84137 43.5392C3.74733 43.5083 3.62336 43.601 3.61482 43.7157C3.59344 43.9274 3.64901 44.0421 3.77725 44.0509C3.86701 44.0597 4.08074 43.9097 4.09784 43.8259C4.11494 43.7465 3.9696 43.5833 3.84137 43.5392Z" fill="#00B307"/>
<path fill-rule="evenodd" clip-rule="evenodd" d="M5.46642 42.9128C5.45788 42.8907 5.42795 42.8775 5.41085 42.8599C5.39376 42.8819 5.35956 42.904 5.35956 42.926C5.35529 43.151 5.35101 43.3716 5.35529 43.5965C5.35529 43.6186 5.38093 43.6583 5.39803 43.6627C5.41513 43.6671 5.44505 43.6406 5.46642 43.623C5.68443 43.4421 5.69298 43.398 5.55619 43.1378C5.52199 43.0672 5.50062 42.9878 5.46642 42.9128Z" fill="#00B307"/>
<path fill-rule="evenodd" clip-rule="evenodd" d="M4.4527 40.8086C4.44843 40.7866 4.41851 40.7425 4.40141 40.7469C4.27317 40.7601 4.12783 40.9763 4.14493 41.1307C4.14921 41.1571 4.17913 41.1792 4.19623 41.2012C4.31164 41.1836 4.4698 40.9498 4.4527 40.8086Z" fill="#00B307"/>
<path fill-rule="evenodd" clip-rule="evenodd" d="M4.50407 44.5139C4.4827 44.5889 4.4485 44.6639 4.53827 44.7256C4.57246 44.7036 4.64513 44.6727 4.64086 44.6595C4.61948 44.5889 4.58529 44.5227 4.55536 44.4565C4.53827 44.4742 4.50835 44.4918 4.50407 44.5139Z" fill="#00B307"/>
<path fill-rule="evenodd" clip-rule="evenodd" d="M18.1868 55.5422C18.2338 55.5422 18.2851 55.5025 18.3321 55.4804C18.2851 55.4584 18.2381 55.4143 18.191 55.4143C18.1782 55.4143 18.1654 55.4231 18.1483 55.4275C18.0671 55.379 17.9602 55.3305 17.9346 55.379C17.9773 55.4055 17.9944 55.4363 17.973 55.4716C18.0329 55.4981 18.0885 55.5157 18.1312 55.5201C18.144 55.529 18.1654 55.5378 18.1868 55.5422Z" fill="#00B307"/>
<path fill-rule="evenodd" clip-rule="evenodd" d="M8.48001 15.2723C8.45008 15.2899 8.44153 15.3428 8.42871 15.3869C8.47146 15.3737 8.51848 15.3693 8.53985 15.3384C8.57405 15.2987 8.5313 15.2458 8.48001 15.2723Z" fill="#00B307"/>
<path fill-rule="evenodd" clip-rule="evenodd" d="M8.42898 15.3867C8.42028 15.3867 8.41158 15.3911 8.40723 15.3911C8.40723 15.3954 8.40723 15.4041 8.40723 15.4085C8.41158 15.4085 8.42028 15.4085 8.42463 15.4041C8.42463 15.4041 8.42898 15.3954 8.42898 15.3867Z" fill="#00B307"/>
<path fill-rule="evenodd" clip-rule="evenodd" d="M8.30009 15.5194C8.30437 15.5415 8.36421 15.5503 8.40695 15.568C8.40695 15.515 8.40695 15.4665 8.40695 15.4136C8.34284 15.418 8.27872 15.4312 8.30009 15.5194Z" fill="#00B307"/>
<path fill-rule="evenodd" clip-rule="evenodd" d="M8.40723 15.5679C8.40723 15.5766 8.40723 15.5809 8.40723 15.5896C8.41158 15.5896 8.41593 15.5896 8.41593 15.5896C8.41593 15.5853 8.42028 15.5809 8.42028 15.5766C8.41593 15.5679 8.41158 15.5679 8.40723 15.5679Z" fill="#00B307"/>
<path fill-rule="evenodd" clip-rule="evenodd" d="M2.64081 20.4113C2.63654 20.4113 2.63226 20.4642 2.63654 20.4686C2.67073 20.4863 2.7092 20.4995 2.7434 20.5127C2.73485 20.4554 2.73058 20.3936 2.64081 20.4113Z" fill="#00B307"/>
<path fill-rule="evenodd" clip-rule="evenodd" d="M2.74316 20.5127C2.74316 20.5214 2.74751 20.5301 2.74751 20.5431C2.75621 20.5431 2.76492 20.5431 2.77362 20.5431C2.77362 20.5344 2.76927 20.5301 2.76927 20.5214C2.76057 20.5214 2.75186 20.517 2.74316 20.5127Z" fill="#00B307"/>
<path fill-rule="evenodd" clip-rule="evenodd" d="M1.98229 21.7479C2.00366 21.7303 2.02076 21.7082 2.04213 21.6906C2.01221 21.6068 1.96946 21.6024 1.93099 21.6862C1.92672 21.6906 1.96519 21.7259 1.98229 21.7479Z" fill="#00B307"/>
<path fill-rule="evenodd" clip-rule="evenodd" d="M1.44839 22.533C1.42701 22.5374 1.41419 22.5992 1.40137 22.6433C1.44839 22.6433 1.49968 22.6433 1.5467 22.6433C1.53388 22.586 1.53388 22.5154 1.44839 22.533Z" fill="#00B307"/>
<path fill-rule="evenodd" clip-rule="evenodd" d="M1.2263 22.8198C1.2176 22.8198 1.2089 22.8198 1.20455 22.8198C1.20455 22.8285 1.2002 22.8416 1.2002 22.8503C1.2089 22.8459 1.2176 22.8416 1.2263 22.8416C1.2263 22.8329 1.2263 22.8285 1.2263 22.8198Z" fill="#00B307"/>
<path fill-rule="evenodd" clip-rule="evenodd" d="M1.3752 22.6655C1.28543 22.6788 1.23414 22.7273 1.22559 22.8199C1.27688 22.8199 1.3239 22.8199 1.3752 22.8199C1.3752 22.7714 1.3752 22.7185 1.3752 22.6655Z" fill="#00B307"/>
<path fill-rule="evenodd" clip-rule="evenodd" d="M1.20014 22.8506C1.16594 22.8638 1.13175 22.877 1.09755 22.8947C1.089 22.8991 1.09755 22.9476 1.09755 22.9476C1.18732 22.9609 1.19159 22.9079 1.20014 22.8506Z" fill="#00B307"/>
<path fill-rule="evenodd" clip-rule="evenodd" d="M11.2492 50.2177C11.2663 50.2 11.2962 50.1868 11.2962 50.1691C11.2962 50.1515 11.2705 50.1339 11.2534 50.1162C11.2363 50.1427 11.2192 50.1691 11.2021 50.1912C11.2192 50.2 11.2321 50.2088 11.2492 50.2177Z" fill="#00B307"/>
<path fill-rule="evenodd" clip-rule="evenodd" d="M13.9301 51.0471C13.9557 51.1133 13.9942 51.1265 14.0241 51.0824C14.0326 51.0692 14.0284 51.0471 14.0284 51.0251C14.0113 51.0163 13.9899 50.9942 13.9813 50.9986C13.96 51.0074 13.9258 51.0383 13.9301 51.0471Z" fill="#00B307"/>
<path fill-rule="evenodd" clip-rule="evenodd" d="M17.0199 55.1184C17.0156 55.136 17.0498 55.1581 17.0626 55.1757C17.084 55.1581 17.1011 55.1404 17.1225 55.1228C17.1054 55.1007 17.0883 55.0831 17.0712 55.061C17.0541 55.0831 17.0242 55.0963 17.0199 55.1184Z" fill="#00B307"/>
<path fill-rule="evenodd" clip-rule="evenodd" d="M20.2048 55.4756C20.192 55.458 20.1706 55.4183 20.162 55.4227C20.0851 55.4492 20.0808 55.4933 20.1535 55.533C20.162 55.533 20.1877 55.4933 20.2048 55.4756Z" fill="#00B307"/>
<path fill-rule="evenodd" clip-rule="evenodd" d="M47.8609 10.4685C47.9463 10.323 47.8993 10.12 47.7027 9.88184C47.5531 10.0009 47.8352 10.2744 47.8609 10.4685Z" fill="#00B307"/>
<path fill-rule="evenodd" clip-rule="evenodd" d="M28.3908 3.15444C28.0531 3.12357 28.8054 3.06181 28.3993 2.98682C28.4079 3.11033 28.0574 2.99564 27.912 3.02211C27.8437 3.15444 28.3139 3.27355 28.3908 3.15444Z" fill="#00B307"/>
<path fill-rule="evenodd" clip-rule="evenodd" d="M17.1355 4.16504C16.8875 4.24885 16.8619 4.36354 16.9388 4.48705C17.1825 4.40324 17.2124 4.29296 17.1355 4.16504Z" fill="#00B307"/>
<path fill-rule="evenodd" clip-rule="evenodd" d="M31.8703 3.41934C31.6908 3.43699 31.5668 3.49874 31.3659 3.48991C31.3702 3.3664 30.1648 3.08409 29.9297 3.28259C30.558 3.37523 31.1308 3.45022 31.7079 3.5605C31.9986 3.61343 32.2892 3.66636 32.597 3.7193C32.9005 3.78106 33.2126 3.84722 33.5502 3.9178C33.4177 3.7193 33.0971 3.65754 32.7595 3.60902C32.426 3.56491 32.0712 3.55609 31.8703 3.41934Z" fill="#00B307"/>
<path fill-rule="evenodd" clip-rule="evenodd" d="M29.6769 2.92105C29.352 2.89017 29.3264 3.07103 28.9844 3.02251C29.1084 3.16367 28.7194 3.20778 28.9673 3.24748C29.0913 3.0578 29.5273 3.09309 29.6769 2.92105Z" fill="#00B307"/>
<path fill-rule="evenodd" clip-rule="evenodd" d="M1.42616 22.3876C1.52447 21.9773 1.64843 21.7215 1.7382 21.4965C1.66981 21.4789 1.56722 21.7215 1.49455 21.9597C1.41761 22.1979 1.40051 22.4361 1.42616 22.3876Z" fill="#00B307"/>
<path fill-rule="evenodd" clip-rule="evenodd" d="M14.3957 10.1333C14.5453 10.0274 14.6094 10.1112 14.7761 9.97887C14.7547 9.84654 14.2974 10.0406 14.3957 10.1333Z" fill="#00B307"/>
<path fill-rule="evenodd" clip-rule="evenodd" d="M33.1995 0.812603L33.409 0.865536C33.4389 0.799368 33.3449 0.76408 33.3662 0.702324C33.2337 0.675856 33.1269 0.667032 33.0713 0.706732C33.2765 0.746433 33.3107 0.772903 33.1995 0.812603Z" fill="#00B307"/>
<path fill-rule="evenodd" clip-rule="evenodd" d="M34.9736 5.08226L35.2729 5.18813C35.3541 5.04256 34.995 4.96316 34.9736 5.08226Z" fill="#00B307"/>
<path fill-rule="evenodd" clip-rule="evenodd" d="M36.3069 3.86489C36.2641 3.81196 35.9264 3.63992 35.8623 3.70168C36.0376 3.73256 36.1743 3.93547 36.3069 3.86489Z" fill="#00B307"/>
<path fill-rule="evenodd" clip-rule="evenodd" d="M36.5633 5.55007C36.3795 5.47508 36.2256 5.43979 36.123 5.46626C36.2641 5.48831 36.5633 5.70005 36.5633 5.55007Z" fill="#00B307"/>
<path fill-rule="evenodd" clip-rule="evenodd" d="M37.346 5.46625C37.423 5.42213 37.2904 5.33832 37.1665 5.28979C37.0382 5.25009 36.9271 5.24568 37.0511 5.33391C37.1408 5.2501 37.1836 5.43978 37.346 5.46625Z" fill="#00B307"/>
<path fill-rule="evenodd" clip-rule="evenodd" d="M37.4609 5.52346C37.7131 5.66462 37.773 5.6161 37.9269 5.74843C38.0209 5.63815 37.4695 5.422 37.4609 5.52346Z" fill="#00B307"/>
<path fill-rule="evenodd" clip-rule="evenodd" d="M40.4959 6.9966C40.3719 6.88632 40.3207 6.88632 40.2694 6.72752C40.2437 6.77163 40.1539 6.69663 40.124 6.7231C40.1625 6.79368 40.3634 7.03189 40.4959 6.9966Z" fill="#00B307"/>
<path fill-rule="evenodd" clip-rule="evenodd" d="M42.313 4.41203C42.1591 4.34586 41.8599 4.05472 41.8428 4.20911C42.0223 4.31498 42.2531 4.50025 42.313 4.41203Z" fill="#00B307"/>
<path fill-rule="evenodd" clip-rule="evenodd" d="M42.1973 8.90674C42.3853 9.05672 42.5392 9.2067 42.6632 9.35227C42.7017 9.2464 42.3341 8.91997 42.1973 8.90674Z" fill="#00B307"/>
<path fill-rule="evenodd" clip-rule="evenodd" d="M44.873 8.9288C45.0056 9.04349 45.1252 9.13171 45.2193 9.14936C45.1723 9.0082 44.9628 8.90674 44.873 8.9288Z" fill="#00B307"/>
<path fill-rule="evenodd" clip-rule="evenodd" d="M45.5956 11.064C45.4674 10.9273 45.2494 10.7773 45.3135 10.6935C45.4118 10.7553 45.5657 10.9891 45.6256 10.9361C45.4033 10.5303 44.8818 10.4244 44.4971 10.1377C44.6894 10.4421 45.3434 10.9361 45.5956 11.064Z" fill="#00B307"/>
<path fill-rule="evenodd" clip-rule="evenodd" d="M50.2979 13.0666C50.4175 13.2386 50.5458 13.1548 50.5287 13.071L50.4004 12.8945C50.3107 12.9254 50.4133 13.0489 50.2979 13.0666Z" fill="#00B307"/>
<path fill-rule="evenodd" clip-rule="evenodd" d="M51.4727 16.3178C51.1693 16.0267 51.2633 15.837 50.9769 15.5503C50.9641 15.6826 51.3189 16.4281 51.4727 16.3178Z" fill="#00B307"/>
<path fill-rule="evenodd" clip-rule="evenodd" d="M52.901 19.238C52.9566 19.2071 53.0079 19.2027 53.0592 19.2424C52.8668 18.8851 52.8155 18.5542 52.5975 18.2808C52.6232 18.3999 52.3881 18.2411 52.3154 18.0249C52.2812 18.0558 52.2171 18.0602 52.247 18.1396C52.4949 18.5631 52.8283 18.6381 52.901 19.238Z" fill="#00B307"/>
<path fill-rule="evenodd" clip-rule="evenodd" d="M53.2041 19.0175L53.3323 19.3528C53.4734 19.4101 53.2682 18.8675 53.2041 19.0175Z" fill="#00B307"/>
<path fill-rule="evenodd" clip-rule="evenodd" d="M53.1143 19.917C53.1613 19.8817 53.2468 19.8861 53.2254 19.7935C53.0331 19.8597 53.2212 19.3965 53.0117 19.423C53.0502 19.5994 53.063 19.6568 53.1143 19.917Z" fill="#00B307"/>
<path fill-rule="evenodd" clip-rule="evenodd" d="M50.9646 46.7417C50.8406 46.8167 50.9005 46.9181 50.7295 47.1078C50.7765 47.2534 51.0373 47.1167 51.0116 46.949C50.956 47.0152 50.8876 47.0637 50.8278 47.0902C50.8064 47.0196 51.0202 46.8035 50.9646 46.7417Z" fill="#00B307"/>
<path fill-rule="evenodd" clip-rule="evenodd" d="M40.2308 56.689C40.4958 56.517 40.7694 56.3891 40.7395 56.2876C40.5471 56.4949 40.188 56.5523 40.0684 56.689C40.1496 56.6493 40.2222 56.6184 40.2308 56.689Z" fill="#00B307"/>
<path fill-rule="evenodd" clip-rule="evenodd" d="M33.6742 59.2649C33.8324 59.2076 33.9606 59.1458 33.9905 59.062C33.8067 59.1149 33.5503 59.1458 33.6742 59.2649Z" fill="#00B307"/>
<path fill-rule="evenodd" clip-rule="evenodd" d="M27.4372 60.3589C26.9115 60.4339 26.6507 60.4074 26.2275 60.4339C26.5781 60.5133 27.0611 60.5706 27.3731 60.4383C27.2449 60.4251 27.3988 60.3942 27.4372 60.3589Z" fill="#00B307"/>
<path fill-rule="evenodd" clip-rule="evenodd" d="M26.7188 60.1117C26.8726 60.0323 27.1377 59.9838 27.2744 59.8779C26.9496 59.9176 26.7829 59.9 26.7188 60.1117Z" fill="#00B307"/>
<path fill-rule="evenodd" clip-rule="evenodd" d="M26.1552 60.1296C26.3005 60.0413 26.4459 60.2663 26.651 60.1472C26.6596 60.0546 26.6126 59.9928 26.5057 59.9531C26.3134 59.9928 26.1295 60.0414 25.8731 60.0414C25.9329 60.1781 25.8816 60.134 25.9415 60.2663C25.8261 60.2487 25.7491 60.3104 25.8688 60.3369C25.9586 60.2399 26.2877 60.2707 26.3646 60.1693C26.2834 60.1693 26.168 60.1737 26.1552 60.1296Z" fill="#00B307"/>
<path fill-rule="evenodd" clip-rule="evenodd" d="M25.0098 60.4958C25.3646 60.7251 25.0269 60.5443 25.2962 60.509C25.4629 60.4869 25.7022 60.5928 25.8006 60.4561C25.4671 60.4913 25.309 60.4164 25.0098 60.4958Z" fill="#00B307"/>
<path fill-rule="evenodd" clip-rule="evenodd" d="M22.7861 60.2752C23.0255 60.2972 23.641 60.3678 23.5769 60.3104C23.2606 60.2619 22.9699 60.231 22.7861 60.2752Z" fill="#00B307"/>
<path fill-rule="evenodd" clip-rule="evenodd" d="M21.8333 59.7903C22.0085 59.8123 22.0598 59.755 22.188 59.8476C22.2778 59.7064 21.7862 59.6314 21.8333 59.7903Z" fill="#00B307"/>
<path fill-rule="evenodd" clip-rule="evenodd" d="M21.1578 59.0712C21.3972 59.0756 21.4485 59.1462 21.5767 59.1065C21.534 59.0668 21.1193 58.9301 21.1578 59.0712Z" fill="#00B307"/>
<path fill-rule="evenodd" clip-rule="evenodd" d="M20.3506 54.867C20.5344 54.9155 20.7182 55.0523 20.8806 55.0037L20.9063 54.8935C20.6669 54.8317 20.5472 54.8891 20.3506 54.867Z" fill="#00B307"/>
<path fill-rule="evenodd" clip-rule="evenodd" d="M17.5586 55.4759C17.7766 55.5024 17.8749 55.6126 17.9946 55.595C17.9519 55.5685 17.9348 55.5377 17.9561 55.5024C17.7723 55.4362 17.5671 55.3347 17.5586 55.4759Z" fill="#00B307"/>
<path fill-rule="evenodd" clip-rule="evenodd" d="M16.1953 56.1418C16.2594 56.1815 16.2765 56.2256 16.2894 56.2697C16.5886 56.3006 16.6826 56.3403 16.9049 56.3447C16.6313 56.2124 16.5886 56.2389 16.4176 56.1198C16.4646 56.2874 16.1996 56.0492 16.1953 56.1418Z" fill="#00B307"/>
<path fill-rule="evenodd" clip-rule="evenodd" d="M15.2168 51.4396C15.3963 51.5279 15.4904 51.6205 15.6015 51.7131C15.7212 51.4264 16.0161 52.0307 16.2042 51.8102C16.0717 51.7749 15.7725 51.7043 15.8708 51.5632C16.0931 51.5455 16.3709 51.9116 16.435 51.7176C16.0845 51.5852 15.858 51.4926 15.6357 51.2588C15.7768 51.5411 15.4305 51.3117 15.5502 51.5543C15.4348 51.5146 15.2296 51.2897 15.2168 51.4396Z" fill="#00B307"/>
<path fill-rule="evenodd" clip-rule="evenodd" d="M8.97142 51.1177C8.80899 51.2147 9.03554 51.3823 9.17233 51.4044C9.00562 51.2853 9.14241 51.2368 8.97142 51.1177Z" fill="#00B307"/>
<path fill-rule="evenodd" clip-rule="evenodd" d="M6.74859 50.1294C6.9324 50.1867 6.50922 49.6618 6.38098 49.6133C6.3767 49.7765 6.31259 49.9177 6.38098 50.1073C6.47502 50.0897 6.54769 49.9927 6.67592 50.1029C6.69302 50.1912 7.10766 50.7161 7.17177 50.5882C7.05636 50.4029 6.90675 50.2882 6.74859 50.1294Z" fill="#00B307"/>
<path fill-rule="evenodd" clip-rule="evenodd" d="M17.0967 52.9878C17.101 52.9878 17.1054 52.9921 17.1097 52.9921C17.1054 52.9877 17.101 52.9877 17.101 52.9834L17.0967 52.9878Z" fill="#00B307"/>
<path fill-rule="evenodd" clip-rule="evenodd" d="M29.8438 58.4357L29.848 58.4666C29.9592 58.4402 30.0703 58.4093 30.1772 58.3828C30.066 58.4049 29.9549 58.4225 29.8438 58.4357Z" fill="#00B307"/>
<path fill-rule="evenodd" clip-rule="evenodd" d="M56 30.1558C55.953 29.353 55.906 28.5634 55.8632 27.8002C55.8504 27.6106 55.8376 27.4209 55.8247 27.2356C55.7991 27.0503 55.7777 26.8651 55.7521 26.6842C55.7008 26.3225 55.6538 25.9696 55.6067 25.6299C55.4315 25.3564 55.4614 24.3242 55.1194 24.0904C55.1023 23.6802 55.0981 23.5346 54.9271 23.1597C55.1622 23.2655 54.833 22.7186 55.0083 22.7538C54.8501 22.4495 54.9143 22.0172 54.7475 21.9113C54.8288 22.3612 54.9997 22.6127 54.8672 22.7935C54.8031 22.3657 54.5894 21.9554 54.6706 21.6246C54.5466 21.307 54.1918 20.7644 54.2389 20.4556C54.0722 20.4821 54.1363 20.0718 53.9738 19.9351C53.9055 19.9307 53.9268 20.0718 53.8755 19.9792C53.7088 19.741 53.7302 19.3484 53.572 19.1631C53.5977 19.2469 53.6233 19.3263 53.5549 19.3308C53.4524 19.1322 53.5378 19.1058 53.4353 18.9073C53.3156 18.9337 53.4908 19.2249 53.4908 19.3616C53.649 19.4543 53.9439 20.235 53.8969 20.3674C53.7558 20.1556 53.6447 20.1159 53.6661 19.838C53.5549 19.8292 53.649 20.0013 53.5806 20.0321C53.6618 20.2571 53.7729 20.2174 53.8542 20.4644C53.7473 20.4556 53.6575 20.3233 53.5549 20.2747C53.6319 20.5218 53.7558 20.4027 53.8371 20.6276C53.7986 20.7159 53.6533 20.4688 53.7003 20.6806C53.7302 20.7026 53.7516 20.7291 53.7644 20.76C53.743 20.7644 53.7216 20.7688 53.7003 20.7776C53.6575 20.7997 53.6105 20.8261 53.5678 20.8482C53.5763 20.8173 53.5934 20.7953 53.6233 20.782C53.5122 20.5968 53.5336 20.5571 53.5122 20.363C53.431 20.3983 53.4951 20.7026 53.5421 20.8614C53.4481 20.9144 53.354 20.9629 53.2557 21.0114C53.2472 21.0158 53.2301 21.0026 53.213 20.9849C53.1959 20.9188 53.1745 20.857 53.1531 20.7909C53.1489 20.7159 53.136 20.6409 53.0676 20.5835C52.9864 20.385 52.9223 20.1909 53.0078 20.041C52.7812 19.9263 52.5205 19.022 52.5504 18.7794C52.4649 18.797 52.3666 18.6779 52.2811 18.5367C52.2811 18.4838 52.2811 18.4353 52.2897 18.3823C52.2982 18.3118 52.2426 18.2853 52.17 18.3029C52.1187 18.175 52.0973 18.0647 52.1272 18.0471C52.0204 17.9456 51.9178 17.8398 51.8109 17.7251C51.7767 17.6369 51.7425 17.5486 51.7041 17.4604C51.7126 17.4604 51.7211 17.4648 51.7297 17.4692C51.5972 17.1737 51.4604 16.9002 51.3151 16.6355C51.3108 16.6311 51.3108 16.6267 51.3065 16.6223C50.9902 16.0179 50.6226 15.4313 50.2165 14.8887C50.0754 14.6417 49.9301 14.3814 49.7762 14.0947C49.7292 14.1344 49.6694 14.1079 49.6095 14.0461C49.5796 13.7638 49.2975 13.4771 49.0666 13.2213C49.0111 13.0272 48.9213 12.8419 48.8059 12.661C48.8144 12.6478 48.823 12.6346 48.8401 12.6213C48.7589 12.511 48.7247 12.4978 48.699 12.511C48.6648 12.4625 48.6264 12.4184 48.5922 12.3743C48.4383 12.1802 48.2673 11.9905 48.1091 11.8008C47.9424 11.6156 47.7843 11.4303 47.6603 11.2362C47.2756 10.6142 46.8909 9.97461 46.4549 9.36587C46.0018 8.77918 45.4931 8.22778 44.822 7.87929C44.6895 7.76901 44.6809 7.9631 44.5612 7.87488C44.168 7.49552 43.6465 7.15144 43.1207 6.78531C42.5736 6.45447 42.0264 6.09276 41.5049 5.78398C40.7783 5.31639 40.1456 4.72088 39.3292 4.40768C38.8504 4.24005 38.4187 4.12095 38.0126 4.08566C37.6065 4.05479 37.2304 4.09008 36.8756 4.20477C36.166 3.89599 35.1615 4.23565 34.5246 3.72836C34.3664 3.75042 34.3493 3.91804 34.0886 3.82981C33.9005 3.79011 33.9218 3.70189 33.8321 3.64014C33.7893 3.84305 33.8962 3.82099 33.7466 3.96656C34.298 4.01508 34.5374 4.11654 35.0375 4.06361C35.1615 4.12095 35.1914 4.19595 35.3923 4.24447C36.5037 4.26211 37.8288 4.36798 39.2266 4.85322C40.5688 5.33845 41.6845 6.33978 42.6676 6.62651C42.8471 6.77649 42.6548 6.89119 42.7659 7.03235C43.3045 7.18233 43.5225 7.68961 44.0569 8.02487C44.4245 8.2763 44.8818 8.31159 45.2794 8.63361C45.6726 8.97327 45.9419 9.30852 46.2241 9.66141C46.4934 10.0231 46.7712 10.4025 47.1773 10.8392C47.1816 10.8657 47.1858 10.8877 47.1901 10.9142C46.9935 10.7466 46.8567 10.5878 46.5446 10.3407C46.5874 10.2613 46.7071 10.4554 46.7584 10.4113C46.5318 10.1687 46.3309 10.0187 46.1599 9.86433C45.989 9.70994 45.8479 9.54673 45.7239 9.2997C45.6299 9.44968 45.3777 9.14972 45.258 9.22029C45.523 9.48056 45.865 9.80698 45.8607 10.0805C45.6 9.93491 45.6427 9.69229 45.4888 9.68347C45.6513 10.0011 45.8436 10.1731 46.0702 10.3363C46.2967 10.4995 46.5233 10.6804 46.7797 10.9804C46.7456 11.0201 46.7028 11.0157 46.6558 11.0068C46.7883 11.2494 47.0533 11.4127 47.25 11.5582C47.2927 11.6288 47.344 11.695 47.391 11.7611C47.3568 11.7391 47.3226 11.7214 47.2799 11.7126C47.3226 11.8053 47.3782 11.9023 47.4124 11.9949C47.3739 11.9729 47.3397 11.9596 47.3183 11.9641C47.3654 12.0126 47.4081 12.0611 47.4466 12.1096C47.4551 12.1582 47.4594 12.2067 47.4466 12.2464C47.1046 12.0523 46.7883 11.9597 46.4805 11.8847C46.4335 11.8141 46.3993 11.7435 46.3737 11.6817L46.2967 11.7611C46.3437 11.8008 46.3737 11.8361 46.3993 11.867C46.3523 11.8582 46.3095 11.845 46.2625 11.8361C46.2412 11.8141 46.2198 11.792 46.2027 11.7656C46.2412 11.7259 46.1685 11.545 46.1129 11.6685C46.1728 11.7303 46.1856 11.7744 46.1642 11.8097C46.0573 11.7435 45.9334 11.7038 45.8479 11.6156C45.7539 11.5185 45.7197 11.3641 45.6427 11.2539C45.5358 11.1039 45.2153 11.1039 45.1426 11.2759C45.1169 11.3333 45.0913 11.3818 45.0614 11.4347C44.9631 11.3818 44.8647 11.32 44.7664 11.2539C44.8049 11.0686 44.7793 10.8789 44.698 10.6892C44.6852 10.6628 44.5997 10.6583 44.5484 10.6583C44.5271 10.6583 44.4929 10.6804 44.4843 10.7025C44.48 10.7113 44.4758 10.7201 44.4715 10.7333C44.3219 10.6672 44.168 10.5789 44.1295 10.3937C44.0868 10.4422 44.0654 10.4907 44.0825 10.5525C44.1979 10.6319 44.309 10.698 44.4416 10.8348C44.4416 10.848 44.4416 10.8613 44.4458 10.8657C44.51 10.9318 44.5399 11.0068 44.5655 11.0818C44.262 10.7819 43.9799 10.5304 43.6978 10.3407C43.6337 10.2966 43.5695 10.2613 43.5097 10.2216C43.5183 10.2128 43.5268 10.204 43.5354 10.1952C43.5183 10.1731 43.5012 10.1511 43.4841 10.129C43.467 10.1466 43.4499 10.1599 43.437 10.1775C43.2361 10.0584 43.0438 9.96578 42.8557 9.88638C42.7873 9.8158 42.7232 9.74523 42.6719 9.68347C42.6035 9.63054 42.5266 9.58642 42.4496 9.5379C41.3211 8.4748 39.8421 7.447 38.2221 6.69268C36.4524 5.85014 34.5502 5.33845 32.9601 5.162C32.5967 4.98555 32.2548 4.85321 31.8786 4.77381C31.5024 4.69 31.1006 4.62824 30.6219 4.62824C30.1303 4.17389 29.1643 4.11213 28.2238 4.16065C27.9887 4.17389 27.7536 4.18712 27.5271 4.20035C27.3005 4.218 27.0783 4.24005 26.8731 4.24888C26.4584 4.26211 26.0994 4.24888 25.8344 4.15625C25.3855 4.73411 23.8723 4.59296 23.3423 4.39886C23.2782 4.60619 23.0559 4.69882 22.7951 4.73411C22.5344 4.77381 22.2309 4.7694 21.9915 4.75175C21.9744 4.67235 22.342 4.50032 21.9573 4.58854C21.7735 4.6106 21.7906 4.69882 21.7051 4.75617C21.517 4.66794 21.2819 4.62824 21.1665 4.47826C20.8203 4.52678 20.7989 4.67235 20.4527 4.72088C20.5168 4.58854 20.551 4.44738 20.7519 4.35475C21.2307 4.15624 21.3375 4.31064 21.6154 4.31946C21.5769 4.18271 21.4016 4.18271 21.6624 4.08126C21.8547 4.39886 22.2437 3.87393 22.5387 4.13419C22.3677 4.1783 22.2352 4.23123 22.1882 4.31946C22.5387 4.19153 22.9661 4.06802 23.2739 3.96215C23.1756 3.9798 23.0302 3.97098 23.1713 3.92245C21.4743 3.85628 19.8884 4.17389 18.3966 4.71205C16.9005 5.25463 15.4942 6.01336 14.0793 6.91765C13.857 6.89118 13.5364 7.04558 13.2244 7.1735C12.4763 7.82636 11.9035 8.22777 12.0318 8.8674C12.9465 8.18366 13.6305 7.55286 15.2591 6.70592C15.6566 6.65298 16.0071 6.71474 16.2123 6.97059C15.024 7.78225 13.5151 8.24542 12.4934 9.21147C12.3481 9.35263 12.331 9.46291 12.1857 9.58202C11.3008 10.3099 10.7836 10.5834 10.1638 11.0642C8.95837 12.0038 7.94529 13.3095 6.96642 14.4784C6.75269 14.7387 6.34661 14.8534 6.32096 15.2857C6.6159 14.9857 6.9194 14.6681 7.1716 14.3505C7.43235 14.0373 7.66745 13.7418 7.81706 13.4771C8.15047 13.1992 8.5993 12.8198 9.02676 12.3964C9.47986 11.9993 9.92015 11.5582 10.3091 11.2318C10.5314 11.1039 10.7409 10.9715 10.9418 10.8392C11.1469 10.7113 11.3393 10.5834 11.5274 10.451C11.8993 10.1775 12.2626 9.91285 12.6345 9.63495C13.3783 9.07914 14.1862 8.51009 15.2933 8.01604C15.5369 8.21896 15.7635 8.03369 16.1311 7.87929C16.2508 8.18808 16.5714 8.17926 16.9775 8.02487C17.1655 7.84401 16.7466 7.88371 16.9433 7.73372C17.2126 7.71608 17.469 7.71608 17.5973 7.9234C17.3835 8.01604 17.157 8.15279 17.0202 8.13073C17.1997 8.33806 17.6657 8.08662 17.7896 8.38658C17.4177 8.59391 17.0715 8.83211 16.7381 9.06591C16.4132 9.31735 16.0969 9.56437 15.7891 9.81581C15.1736 10.3275 14.5709 10.8171 13.8656 11.2318C13.6048 11.2362 13.3868 11.1215 13.1047 11.1789C13.1004 11.4744 13.6647 11.2142 13.8613 11.373C13.716 11.5935 13.4894 11.8097 13.2842 12.0346C13.2244 12.1052 13.1645 12.1758 13.1047 12.242C13.0919 12.2464 13.0791 12.2508 13.062 12.2552C12.7969 12.3214 12.4892 12.414 12.3695 12.7007C12.3481 12.7493 12.3225 12.7934 12.3011 12.8375C12.1002 12.9963 11.9164 13.1551 11.7497 13.3139C11.7411 13.3183 11.7326 13.3227 11.7197 13.3271C11.7026 13.3536 11.6813 13.3712 11.6642 13.3933C11.6342 13.4242 11.5958 13.455 11.5659 13.4903C11.3521 13.6624 11.0786 13.6712 10.8007 13.6668C10.7024 13.6668 10.6511 13.7241 10.6254 13.8168C10.6083 13.8697 10.5827 13.927 10.5485 13.9667C10.463 14.0638 10.3861 14.2358 10.2236 14.055C10.074 14.0903 9.99709 14.2094 9.94579 14.3373C9.85175 14.5755 9.72351 14.7431 9.44567 14.7255C9.39437 14.7211 9.32598 14.7431 9.29178 14.7784C9.09943 14.9901 8.81731 15.1225 8.72754 15.4224C8.67197 15.6165 8.51809 15.5768 8.39412 15.5989C8.37275 15.6474 8.35565 15.7136 8.32573 15.7268C7.90255 15.8591 7.58623 16.1371 7.28701 16.4547C7.12885 16.6223 6.98352 16.7855 6.75696 16.8781C6.45347 17.0061 6.09441 17.1207 6.15425 17.6016C6.1628 17.6633 6.06021 17.7427 6.00037 17.8089C5.89778 17.9148 5.79519 18.0118 5.68405 18.1089C5.62848 18.1574 5.57718 18.2721 5.48742 18.1618C5.42757 18.0868 5.27369 18.0427 5.39338 17.8927C5.42757 17.8486 5.45322 17.7912 5.45322 17.7339C5.45322 17.681 5.41902 17.628 5.40193 17.5795C5.37628 17.5972 5.35491 17.6104 5.32926 17.628C5.14118 17.7736 5.02576 17.9853 5.03859 18.2059C5.04714 18.3206 5.07706 18.4044 4.99157 18.4926C4.85051 18.6338 4.72227 18.797 4.49572 18.7926C4.22214 18.7882 4.42305 18.947 4.40168 19.044C4.35893 19.2293 4.25634 19.4719 4.10673 19.5513C3.95285 19.6351 3.84598 19.7454 3.76477 19.8689C3.79896 19.7013 3.83743 19.5337 3.90155 19.3705C4.25207 18.3735 5.09843 17.3016 5.44467 16.3135C5.86785 16.1679 5.53016 16.0179 5.99609 15.6562C5.94052 15.5283 5.87213 15.2857 5.73534 15.3563C5.6755 15.3386 5.60711 15.396 5.53871 15.4533C5.33353 16.0091 5.00439 16.3311 4.87188 16.8561C3.85881 17.9236 3.28174 19.194 2.86283 20.5659C2.82436 20.5703 2.79016 20.5747 2.74742 20.5703C2.75169 20.6276 2.78162 20.6718 2.82009 20.6982C2.81154 20.7291 2.80299 20.7556 2.79444 20.7864C2.75597 20.9188 2.72177 21.0511 2.68757 21.1835C2.61491 21.232 2.54224 21.2761 2.46102 21.3158C2.31569 21.382 2.21737 21.5143 2.2131 21.7216C2.20455 22.3127 2.19172 22.3171 1.6745 22.6259C1.63176 22.6524 1.58474 22.6656 1.53772 22.6788C1.52489 22.7847 1.46932 22.8465 1.37101 22.8597C1.38383 23.0009 1.59756 23.1332 1.37101 23.2876C1.25559 23.367 1.153 23.4817 1.08034 23.6052C1.05042 23.6581 1.02049 23.7067 0.986296 23.7552C0.986296 23.7331 0.982021 23.7155 0.977747 23.6978C0.969198 23.7331 0.956374 23.7772 0.94355 23.8169C0.89653 23.8743 0.840961 23.9272 0.759745 23.9713C0.597311 24.0596 0.751195 24.2228 0.815314 24.3419C0.55029 24.6727 0.819588 25.1624 0.507545 25.48C0.50327 25.7138 0.541741 25.9608 0.486172 26.1813C0.422053 26.4328 0.302365 26.6577 0.340836 26.9357C0.370758 27.1386 0.263894 27.2621 0.0758135 27.3194C0.0416169 27.3282 -0.00112933 27.4385 0.0159689 27.465C0.135657 27.6547 0.0587153 27.8311 0.0116951 28.012C0.229698 28.2899 0.178403 28.6251 0.165579 28.9427C0.152755 29.2559 0.246796 29.5912 0.0159689 29.8735C-0.0267767 29.9264 0.020244 30.05 0.11001 30.0852C0.216874 30.1294 0.328013 30.1558 0.319464 30.3102C0.315189 30.4293 0.319464 30.544 0.328013 30.6631C0.357935 31.1483 0.263894 31.6512 0.498996 32.1188C0.528918 32.1762 0.481897 32.2864 0.45625 32.3658C0.430602 32.4364 0.336562 32.4849 0.422053 32.582C0.554565 32.7276 0.520369 32.9128 0.507545 33.0849C0.481898 33.4554 0.486172 33.623 0.567389 33.773C0.687077 33.998 0.781118 34.245 0.990572 34.417C1.07179 34.4832 1.1701 34.5979 1.17438 34.6949C1.1872 34.964 1.2385 35.2111 1.36246 35.4404C1.31116 35.8992 1.52489 36.2786 1.71725 36.6623C1.74289 36.7109 1.78564 36.7991 1.80274 36.7947C2.13188 36.7064 2.18318 37.0593 2.38408 37.1696C2.58499 37.2799 2.79444 37.3814 3.00389 37.4828C3.04236 37.5799 3.08084 37.6813 3.11931 37.7828C3.10648 37.8137 3.11503 37.8401 3.14923 37.8578C3.18342 37.9548 3.21762 38.0607 3.25182 38.1621C3.13213 38.2901 3.05091 38.4092 3.17915 38.6341C3.31594 38.8723 3.36296 39.1679 3.43135 39.4414C3.45272 39.534 3.47837 39.6134 3.55959 39.6399C3.67927 39.6796 3.75194 39.7061 3.67072 39.8649C3.61088 39.9884 3.6408 40.1781 3.55959 40.2751C3.35868 40.5089 3.62371 40.6368 3.64508 40.8177C3.65363 40.9103 3.79896 40.9015 3.85881 40.853C4.01697 40.725 4.1452 40.5662 4.29909 40.4383C4.4487 40.3148 4.36321 40.2266 4.31619 40.0854C4.22215 39.8075 4.27771 39.512 4.31619 39.2208C4.32046 39.1988 4.35038 39.1811 4.36748 39.1591C4.38885 39.1811 4.42305 39.2032 4.42305 39.2252C4.43587 39.459 4.65815 39.5473 4.74364 39.7237C4.78639 39.8075 4.57693 39.9443 4.74364 39.9928C5.00012 40.0678 5.10271 40.2486 5.18392 40.478C5.28224 40.7471 5.37628 41.0162 5.49169 41.2764C5.61565 41.5632 5.76099 41.8455 5.89778 42.1278C5.93197 42.2028 5.99609 42.291 5.98754 42.3616C5.94907 42.6616 6.08586 42.8821 6.29104 43.0453C6.50904 43.2174 6.50904 43.4335 6.50476 43.6761C6.50049 43.8217 6.47912 43.9761 6.59881 44.0864C6.83391 44.3025 6.91512 44.6201 7.08183 44.8804C7.1545 44.9951 7.1716 44.8275 7.20152 44.7701C7.22289 44.726 7.26136 44.6907 7.29128 44.651C7.30838 44.6731 7.34258 44.6995 7.34258 44.7216C7.33403 45.0657 7.42807 45.4053 7.24854 45.745C7.12458 45.9788 7.20152 46.239 7.34685 46.4861C7.5905 46.8963 7.62043 46.9581 8.00086 47.0904C8.32146 47.2007 8.37703 47.2624 8.38557 47.5668C8.39412 47.8315 8.3642 48.1006 8.61213 48.2858C8.65487 48.3167 8.71044 48.3785 8.71044 48.427C8.70617 48.8372 9.00539 49.0446 9.24476 49.2872C9.42429 49.468 9.56963 49.7062 9.8432 49.768C9.96716 50.0371 10.1894 50.2224 10.3604 50.4517C10.5485 50.7076 10.9289 50.7252 11.0187 51.0781C11.0315 51.1355 11.0999 51.1178 11.1298 51.0428C11.1512 50.9899 11.1469 50.9281 11.1726 50.8752C11.1811 50.8576 11.194 50.8399 11.2025 50.8223C11.335 50.9326 11.4846 51.0428 11.63 51.1487C11.5274 51.0428 11.4077 50.8531 11.2837 50.6899C11.288 50.6767 11.2966 50.6679 11.2966 50.6546C11.3222 50.5135 11.2196 50.4694 11.0999 50.4341C11.0273 50.412 10.9332 50.3414 10.9076 50.2753C10.8905 50.2268 10.8648 50.1871 10.8435 50.1429C10.8563 50.1429 10.8734 50.1474 10.8905 50.1518C10.8605 50.1121 10.8349 50.0944 10.8093 50.0768C10.6639 49.843 10.4459 49.671 10.2963 49.4416C10.1894 49.2739 10.0056 49.1063 10.0056 48.9343C10.0014 48.7225 10.151 48.5108 10.2322 48.2991C10.2621 48.2197 10.2878 48.1403 10.322 48.0609C10.3305 48.0344 10.3562 48.0123 10.3775 47.9947C10.4716 47.9285 10.4032 47.9638 10.4245 48.0609C10.4716 48.2814 10.587 48.3344 10.7793 48.3299C10.9631 48.3255 10.9118 48.4182 10.8648 48.5417C10.7922 48.7402 11.0016 48.6431 11.0657 48.7049C11.1298 48.7622 11.1427 48.8196 11.0615 48.8284C10.7879 48.8461 10.8648 48.996 10.9289 49.1504C10.7879 49.2872 10.7836 49.4592 10.8264 49.6357C10.8306 49.6621 10.852 49.6974 10.8734 49.7062C10.8905 49.7151 10.9247 49.6886 10.9418 49.6709C11.0016 49.6092 11.0914 49.5518 11.1085 49.4769C11.1897 49.1416 11.3863 49.0137 11.7155 49.0137C11.8394 49.0798 11.9634 49.1151 12.0617 49.0843C12.0275 49.1637 12.0104 49.2386 12.0361 49.3225C12.0147 49.3092 12.0019 49.3004 11.9976 49.296C12.0147 49.318 12.0361 49.3357 12.0532 49.3578C12.0703 49.3975 12.0959 49.4328 12.1429 49.4725C12.1899 49.5121 12.1728 49.6004 12.1429 49.6798C12.1002 49.6489 12.0574 49.6136 12.0061 49.5827C12.0703 49.4372 11.7839 49.1284 11.7668 49.3048C12.0574 49.3401 11.7582 49.468 11.8181 49.5298C11.9164 49.5827 11.9976 49.693 12.0874 49.7989C12.0061 49.9797 11.9377 50.1606 11.8779 50.3459C11.7839 50.6414 11.7881 50.9237 12.0703 51.1266C12.3353 51.3163 12.4037 51.581 12.3524 51.8942C12.3396 51.978 12.3566 52.0706 12.3438 52.1589C12.3396 52.1986 12.3438 52.2339 12.3438 52.2691C12.3011 52.2603 12.2541 52.2515 12.2028 52.2338C12.2541 52.2868 12.3054 52.3265 12.3566 52.3618C12.3609 52.3882 12.3695 52.4147 12.378 52.4368C12.0403 52.2647 11.6941 51.978 11.3436 51.6692C11.07 51.4222 10.7922 51.1663 10.5314 50.9281C10.2792 50.6811 10.0484 50.4429 9.82183 50.2753C9.90732 50.3547 9.56108 50.1738 9.46704 49.9974C9.46704 50.3017 9.95862 50.8443 10.0356 51.2634C10.2407 51.4575 10.3647 51.6207 10.3903 51.7795C10.4801 51.8501 10.5571 51.8986 10.6212 51.9118C10.5186 52.2206 11.7924 53.0764 11.5402 53.1602C11.7668 53.2572 11.9719 53.2881 12.2797 53.4822C12.3481 53.4205 12.2199 53.3499 12.3182 53.2881C12.4763 53.394 12.6088 53.4557 12.6901 53.4337C12.3566 53.2043 12.2199 53.3366 11.9249 53.169C12.0361 53.0896 11.9078 52.9308 11.771 52.9176C11.6171 52.9661 11.942 53.072 11.8736 53.1293C11.7881 53.0676 11.7839 53.1778 11.6727 53.072C11.8907 52.9837 11.2196 52.7544 11.1683 52.5118C11.2153 52.4588 11.2709 52.4368 11.3564 52.4676C11.7112 52.7985 11.6 52.5559 11.8052 52.6176C11.9805 52.7235 11.8907 52.8073 12.0104 52.9088C12.1344 52.7808 12.4293 52.9661 12.6388 53.1382C12.9337 53.244 13.2415 53.2661 13.5279 53.3014C13.545 53.3146 13.5578 53.3278 13.5749 53.3411C13.7373 53.491 13.9297 53.6101 14.1135 53.7381C14.1562 53.7689 14.2161 53.7425 14.2204 53.6675C14.2289 53.4954 14.3016 53.2969 14.1819 53.1602C14.0195 52.9749 13.8955 52.7147 13.5792 52.7411C13.5108 52.7455 13.4082 52.6926 13.3654 52.6309C13.3056 52.5426 13.25 52.45 13.1902 52.3618C13.203 52.353 13.2244 52.3441 13.25 52.3397C13.203 52.3177 13.1688 52.2956 13.1346 52.2735C13.0449 52.1324 12.9594 51.9868 12.8696 51.8413C12.9551 51.6031 13.032 51.3604 13.1303 51.1266C13.1688 51.0428 13.1902 50.9678 13.1645 50.884C13.156 50.862 13.1175 50.8267 13.1175 50.8267C12.8055 51.0869 12.7542 50.712 12.6088 50.5973C12.4977 50.5135 12.4934 50.3723 12.502 50.24C12.6858 50.1738 12.7585 50.54 12.9679 50.4517C12.985 50.4694 13.0064 50.4914 13.0278 50.5091C13.1432 50.6811 13.3441 50.8929 13.5706 51.0561C13.8057 51.2325 14.028 51.3869 14.1349 51.484C14.1178 51.4443 14.2417 51.3913 14.2845 51.409C14.3999 51.5942 15.0112 51.678 14.7248 51.7221C14.9086 51.8545 14.9941 51.7927 15.1009 51.7751C14.6478 51.5942 14.293 51.2899 13.9639 51.2502C13.9083 51.0384 13.6219 50.9061 13.4082 50.7649C13.327 50.7076 13.2543 50.659 13.1987 50.6061C13.2329 50.6017 13.2757 50.5797 13.3099 50.5664C13.3227 50.562 13.3313 50.5179 13.3227 50.5047C13.2971 50.4517 13.25 50.412 13.2329 50.3591C13.2073 50.2797 13.1816 50.1826 13.2757 50.1297C13.3483 50.09 13.4296 50.0724 13.5108 50.1341C13.5749 50.1827 13.6433 50.2179 13.7117 50.2576C13.7202 50.3459 13.7074 50.4473 13.7502 50.5091C13.7886 50.5664 13.8869 50.5929 13.9639 50.6061C14.0793 50.6238 14.1947 50.6105 14.3059 50.6458C14.2503 50.6679 14.1904 50.6591 14.3272 50.7385C14.3785 50.7385 14.4384 50.7473 14.4982 50.7649C14.5196 50.7782 14.541 50.7826 14.5623 50.787C14.8829 50.9017 15.2634 51.1972 15.507 51.2413C15.3574 51.1399 15.2121 51.0472 15.071 50.9502C15.1565 50.9546 15.242 50.9546 15.3317 50.9502C15.3531 50.9502 15.3788 50.9193 15.3873 50.8973C15.3916 50.8884 15.3745 50.8531 15.3617 50.8443C15.242 50.7605 15.118 50.7649 14.9983 50.8443C14.9855 50.8531 14.9812 50.8708 14.9727 50.8884C14.8915 50.8355 14.8145 50.7782 14.7376 50.7252C14.8145 50.6679 14.8872 50.6017 14.9812 50.6194C15.0795 50.637 15.1821 50.6326 15.2847 50.6238C15.3745 50.7164 15.4728 50.8046 15.5839 50.8576C15.6139 50.7605 15.7849 50.9458 15.7977 50.8134C15.8105 50.7826 15.802 50.7517 15.7849 50.7208C15.9558 50.8134 16.1225 50.8002 16.2978 50.7958C16.4816 50.7914 16.597 50.8223 16.6654 51.0472C16.6996 51.1619 16.7808 51.2502 16.892 51.2987C16.8749 51.3648 16.939 51.4443 17.0202 51.5237C16.8364 51.5148 16.768 51.6957 16.5415 51.6207C16.6355 51.6736 16.7039 51.7266 16.7167 51.7883C16.644 51.8457 16.4859 51.7663 16.4346 51.8545C16.644 51.9074 16.8749 52.053 17.0843 52.2515C17.157 52.0662 17.4605 52.2868 17.546 52.3485C17.4434 52.4147 17.2852 52.3618 17.1527 52.2427C17.1869 52.4456 16.9262 52.1897 16.9219 52.3397C17.1185 52.4853 17.8452 52.3574 18.0076 52.7544C17.5417 52.5117 17.3878 52.6353 17.0758 52.5779C16.9176 52.7411 16.9689 52.8735 17.0971 52.9926L17.1356 52.8955C17.2553 52.9352 17.2681 52.9882 17.3365 53.0323C17.2895 53.0455 17.2468 53.0632 17.3109 53.1029C17.2639 53.1823 17.2382 53.0235 17.11 53.0014C17.2724 53.147 17.5417 53.2749 17.6956 53.4293C18.1914 53.5616 18.8454 54.0292 19.2601 54.0424C19.0976 53.9366 18.6916 53.8572 18.7001 53.641C18.8754 53.5087 19.0036 53.8483 19.1147 53.7116C18.8839 53.5749 18.7514 53.619 18.7044 53.4425C18.777 53.469 18.7771 53.3984 18.8369 53.4116C19.0463 53.5352 19.2686 53.7292 19.2045 53.8219C19.2216 53.7028 19.337 53.9719 19.384 53.8483C19.3114 53.7866 19.337 53.7028 19.3242 53.6278C19.0506 53.5396 18.8882 53.4205 18.8839 53.2705C19.243 53.2396 19.4824 53.4249 19.7517 53.4513C19.8029 53.5572 19.8671 53.6543 19.9483 53.7381C20.021 53.8131 20.0979 53.7954 20.1791 53.7645C20.2475 53.7381 20.286 53.6278 20.3886 53.694C20.5296 53.7822 20.7006 53.8395 20.816 53.9542C21.0768 54.2277 21.3803 54.413 21.7265 54.5497C21.7308 54.5497 21.7308 54.5541 21.7308 54.5586C21.7222 54.5718 21.7094 54.585 21.7051 54.6027C21.3803 54.5497 21.1494 54.6335 20.8246 54.4571C20.8374 54.488 20.863 54.5012 20.8844 54.5233C20.6792 54.4791 20.4698 54.4394 20.2561 54.3997C20.1107 54.6291 20.4997 54.3953 20.4826 54.585C20.3458 54.6203 19.897 54.5188 19.8884 54.36C19.991 54.4086 20.0979 54.4571 20.1962 54.488C20.1663 54.4042 20.0295 54.3512 19.9098 54.2983V54.2939C19.9055 54.2939 19.897 54.2895 19.8927 54.2895C19.82 54.2542 19.7517 54.2189 19.7217 54.166C19.679 54.188 19.3926 54.1439 19.5208 54.2145C19.5251 54.2145 19.5379 54.2189 19.5422 54.2233C19.1147 54.1263 18.7172 53.9763 18.3368 53.8616C17.8537 53.694 17.3921 53.5616 16.9133 53.5616C16.8193 53.3543 16.6312 53.2749 16.4346 53.2572C15.9259 53.1029 15.5327 52.7853 15.2676 52.5162C15.1052 52.7147 14.8658 52.1809 14.6264 52.1721C14.6307 52.1148 14.5922 52.0795 14.6777 52.0751C14.1691 52.0398 14.1349 51.4663 13.6005 51.281C13.8057 51.4398 13.3056 51.334 13.7117 51.5678C13.8228 51.5369 13.6518 51.3648 13.7886 51.4398C13.6604 51.6251 14.1092 51.8501 14.1733 52.1147C14.5623 52.1103 14.759 52.4676 15.1693 52.7147C15.1779 52.7985 15.1779 53.0543 15.3617 53.019C15.1308 52.9264 15.46 52.922 15.4985 52.8779C15.7207 52.9838 15.9003 53.1381 16.0841 53.2749C15.9558 53.3014 15.849 53.3411 15.7891 53.3808C15.8404 53.4028 15.8874 53.4205 15.9387 53.4425C15.9345 53.4822 15.943 53.5043 15.8703 53.5528C16.1097 53.7204 16.1696 53.6234 16.3064 53.641C16.1311 53.8307 16.9133 54.038 17.0629 54.2498C17.08 54.1704 17.1484 54.166 17.2767 54.2145C17.2339 54.2542 17.1826 54.2454 17.2382 54.3203C18.3624 54.7218 19.4011 55.0305 20.4313 55.3482C20.8117 55.3217 21.8462 55.4673 21.7265 55.829C22.979 56.2392 24.3212 56.323 25.7275 56.4465C26.202 56.2745 26.7833 56.3627 27.215 56.4024C27.1509 56.3936 27.3433 56.3098 27.463 56.3539C27.9075 56.5039 27.1595 56.6539 26.7876 56.6362C27.1125 56.6318 26.7961 56.8833 26.732 56.9715C26.0224 57.0421 25.4454 57.0112 24.8213 57.0773C24.6546 57.0553 24.6375 56.9582 24.4451 56.945C24.1673 57.0773 23.8894 56.8038 23.5646 56.795C23.3765 56.7862 23.2226 56.9318 23.0388 56.9053C22.8293 56.8788 22.6626 56.698 22.4874 56.6715C22.3805 56.6539 22.1882 56.6936 22.0984 56.6847C22.1069 56.6847 22.154 56.6186 22.1711 56.623C21.983 56.5921 21.8718 56.6803 21.7094 56.6627C21.6795 56.6583 21.6795 56.5436 21.6667 56.5392C21.4529 56.4245 21.1409 56.548 20.893 56.4995C20.7348 56.3495 21.1366 56.3848 20.8673 56.301C20.8246 56.4201 20.5638 56.3319 20.4527 56.3892C20.3202 56.1422 19.7474 56.226 19.8713 56.0451C19.6533 56.0187 19.3498 55.9966 19.0592 55.926C18.7728 55.8554 18.4907 55.776 18.3026 55.7011C18.371 55.7319 18.3496 55.7804 18.3325 55.829C17.8751 55.6613 17.7255 55.6084 17.4562 55.5864C17.469 55.5511 17.5203 55.5643 17.5417 55.5378C17.1955 55.4143 16.8706 55.3217 16.5927 55.1938C16.3149 55.0658 16.0712 54.9423 15.8746 54.8232C15.7977 54.8409 15.7336 54.8806 15.6395 54.8762C15.5284 54.7174 15.4771 54.735 15.3317 54.7659C15.242 54.6468 15.3531 54.5321 15.1565 54.5144C15.3147 54.7085 14.8744 54.5144 14.7419 54.4747C14.7718 54.4086 14.6008 54.3512 14.6863 54.2806C14.7077 54.1968 14.8744 54.3292 14.9086 54.2674C14.5239 54.0866 14.4768 54.188 14.37 54.3336C14.4854 54.4571 14.7205 54.5762 14.853 54.6997C15.0496 54.563 15.631 54.9864 15.7378 55.132C15.6609 55.0967 15.6609 55.1673 15.5925 55.1408C15.601 55.0967 15.6438 55.0482 15.5754 55.0085C15.1394 55.0526 14.8188 54.7526 14.3657 54.4968C14.4384 54.6997 14.2033 54.5409 14.1349 54.6688C14.6051 54.9026 15.0838 55.1276 15.507 55.3438C15.3488 55.1849 15.725 55.3261 15.802 55.3217C15.896 55.4276 16.1952 55.6878 16.2978 55.6834C16.2294 55.6437 16.2551 55.5996 16.2764 55.5511C16.4602 55.8378 16.8706 55.904 17.2083 56.0892C16.8236 55.9216 16.9732 56.076 16.674 56.0054C16.9304 56.1554 17.0672 56.2613 17.3109 56.2039L17.2767 56.3098C17.5887 56.3627 17.9563 56.5259 18.3453 56.698C18.5419 56.7818 18.7386 56.8744 18.9395 56.945C19.1447 57.0068 19.3498 57.0509 19.5507 57.0729C19.5507 57.117 19.5166 57.1744 19.5892 57.2009C20.2945 57.2406 21.2392 57.7478 21.6068 57.6596C21.6111 57.8096 21.2734 57.792 21.1323 57.6684C21.1281 57.9331 21.5427 57.8316 21.7137 57.8272C21.7051 57.8272 21.7137 57.9022 21.7009 57.9022C21.9702 57.9066 22.1112 57.7567 22.3933 57.7831C22.7524 57.814 22.8293 58.0258 23.3038 58.0302C23.1841 57.8361 23.7911 58.0875 23.9749 58.0125C23.6201 57.9552 23.8253 57.9375 24.1117 57.9684C24.3981 57.9905 24.7743 58.0213 24.7657 58.1493C24.5477 58.1272 24.5092 58.2198 24.3596 58.2375C24.7272 58.2419 24.552 58.286 24.6161 58.4404C24.9153 58.4139 24.9453 58.5198 25.1504 58.5419C25.1248 58.4228 24.8555 58.4228 24.7572 58.3345C24.8469 58.3389 24.9025 58.3257 24.9581 58.3081C25.112 58.361 25.206 58.5551 25.3556 58.4007C25.3471 58.4669 25.3684 58.5198 25.4197 58.5551C24.8769 58.5727 24.505 58.5904 24.1416 58.5771C23.7826 58.5374 23.4321 58.4669 22.9362 58.3213C22.6284 58.3345 22.3207 58.2551 22.0129 58.1846C21.7009 58.114 21.3888 58.061 21.0597 58.0743C21.0639 58.0037 20.8459 57.9949 20.8844 57.9155C20.0423 57.8096 19.2558 57.2317 18.5291 57.2803C18.7087 57.3552 18.978 57.3905 18.9609 57.4964C18.7557 57.4479 17.8195 57.2273 18.1017 57.0509C17.9435 57.0156 17.7939 56.9979 17.5802 56.9009C17.4348 57.0156 17.9093 57.0288 17.8666 57.1259C17.5716 57.0376 16.9005 56.8656 16.7552 56.5965C16.1696 56.398 15.6823 56.1466 15.242 55.9304C14.806 55.7055 14.4255 55.4761 14.1092 55.2026C13.9895 55.357 14.0237 55.0658 13.8998 55.0129C13.7288 54.9688 13.8741 55.207 13.7587 55.1452C13.6989 55.11 13.6775 55.132 13.6262 55.11C13.3868 55.0041 13.4595 54.9026 13.327 54.8012C13.2073 54.8497 12.938 54.6468 12.7114 54.5144C12.8012 54.2409 12.3011 54.1395 12.0745 53.9851C11.6043 53.6895 11.1256 53.244 10.6468 52.8514C10.1809 52.4456 9.71496 52.0883 9.3901 51.7927C9.8432 52.3309 10.0997 52.375 10.4502 52.8691C10.8135 53.0543 11.1683 53.3411 11.5274 53.6454C11.895 53.9366 12.284 54.2189 12.6687 54.4439C12.6131 54.5189 12.7029 54.5983 12.6943 54.6777C12.6003 54.6821 12.4464 54.5938 12.3481 54.5938C12.5362 54.8056 13.2671 54.982 13.545 55.4099C13.6305 55.3217 13.7929 55.4937 13.9254 55.5731C14.2332 55.4452 15.1437 55.9128 15.4771 56.1245C15.4343 56.1819 14.9171 55.8599 15.0795 56.0142C15.2634 56.1025 15.4557 56.1907 15.4087 56.2966C15.2933 56.2657 15.0625 56.0804 15.024 56.151C15.1992 56.2966 15.631 56.4289 15.4343 56.5965C15.6865 56.7465 15.4044 56.4245 15.678 56.548C15.6823 56.5833 15.7165 56.6142 15.7891 56.6406C15.8062 56.8391 15.6096 56.7553 15.507 56.795C15.7507 57.02 15.8233 56.8877 15.8618 56.8391C16.02 57.0244 15.6481 56.8921 15.7806 57.0465C16.0242 57.2361 16.3234 57.3508 16.4688 57.4038C16.3961 57.3685 16.379 57.3244 16.3619 57.2847C16.4688 57.3508 16.6697 57.2847 16.6868 57.4082C16.6098 57.3861 16.503 57.3332 16.4773 57.3685C16.8107 57.6023 17.4348 57.739 17.6015 57.986C17.7768 57.9993 17.5161 57.8361 17.7127 57.867C18.1059 57.9508 18.0162 58.114 18.2641 58.2243C18.3154 58.1846 18.2385 58.0125 18.3795 58.0699C18.6061 58.1757 19.0421 58.1934 18.9523 58.3566C18.8754 58.3654 18.4308 58.2507 18.5932 58.3389C18.9908 58.3742 19.2387 58.5242 19.4396 58.4095C19.7004 58.5242 19.3456 58.5904 19.5935 58.6786C19.6918 58.683 19.6362 58.5419 19.7602 58.5683C19.8329 58.6566 20.5211 58.9962 20.2176 58.7624C20.4997 58.8683 20.5553 58.8771 20.9614 58.983C20.9827 58.93 20.9614 58.8418 21.0554 58.8506C21.6154 59.0403 22.1582 59.0977 22.6797 59.1727C23.2012 59.2344 23.7056 59.305 24.2143 59.402C24.2442 59.3403 24.1203 59.3006 24.2229 59.2918C24.6076 59.3712 24.9239 59.4417 25.1889 59.305C25.1889 59.3579 25.1547 59.3844 25.1162 59.4153C25.4026 59.3623 25.7617 59.4594 26.0182 59.53C25.8258 59.6711 25.471 59.53 25.3855 59.7682C25.8728 59.7682 26.0866 59.4682 26.6423 59.552C26.7363 59.4682 26.4627 59.4064 26.638 59.402C26.8474 59.455 26.9073 59.4462 27.0526 59.3668C27.0526 59.4947 27.2578 59.4947 27.4031 59.5388C27.946 59.3712 28.4974 59.5961 28.9847 59.3359C29.2626 59.3403 29.5703 59.3447 29.8909 59.3182C30.2115 59.2785 30.5407 59.23 30.8613 59.1682C31.5067 59.0491 32.1137 58.8992 32.5326 58.7492C32.6138 58.833 32.9173 58.6962 32.913 58.8506C33.2678 58.6168 33.5371 58.7845 33.7722 58.5463C33.6867 58.5639 33.6098 58.5772 33.6184 58.511C33.7722 58.436 33.7893 58.4404 34.0757 58.3478C34.0971 58.4007 34.1014 58.4757 34.2424 58.4184C34.3921 58.1272 34.9905 58.2066 35.3239 58.1493C35.3196 58.0743 35.2085 58.1052 35.1529 58.0831C35.4094 57.9949 35.8668 57.7787 35.9907 57.9419C35.8369 58.0434 35.7086 57.8758 35.653 58.0302C35.7471 58.0037 35.7556 58.0787 35.8198 58.0875C36.4652 57.6199 37.4612 57.3023 37.9314 57.1435C38.0981 57.0773 38.1237 56.923 38.2007 56.8877C38.3973 56.7994 38.6239 56.8744 38.9359 56.645C38.8803 56.6847 39.0257 56.6054 39.1838 56.5171C39.248 56.4862 39.8592 56.0848 40.09 56.1333C40.1627 56.2039 39.6284 56.4333 39.8336 56.3936C40.0516 56.2657 40.1071 56.1863 40.3337 56.1333C40.261 56.0628 40.3251 55.9834 40.4235 55.9304C40.5175 55.8687 40.65 55.8202 40.7227 55.8246C40.5645 55.9966 40.291 56.151 40.2653 56.301C40.6329 56.0584 41.2271 55.4584 41.351 55.7805C41.334 55.7496 41.4323 55.6746 41.4707 55.7055C41.2741 55.9393 41.4109 55.9437 41.2442 56.1554C41.552 55.7716 41.9281 55.5952 42.2872 55.4011C42.642 55.2026 42.9968 55.0173 43.1848 54.5674C43.2404 54.6159 43.1677 54.6821 43.2148 54.7306C43.3943 54.5983 43.3088 54.5144 43.5653 54.3645C43.5952 54.4306 43.6764 54.3821 43.7106 54.4394C43.8474 54.3159 44.0098 54.1836 44.0611 54.0733C43.8217 54.2806 43.6679 54.3027 43.5567 54.2321C43.9628 53.9851 44.044 53.7116 44.4971 53.5881C44.2535 53.7381 44.3988 53.8086 44.1509 53.9542C44.2578 53.9807 44.3133 54.1263 44.5142 53.9498C44.4886 53.9013 44.4116 53.8572 44.48 53.791C44.5399 53.9454 45.3264 53.4205 45.6128 53.1382C45.5786 52.9838 45.4119 53.1823 45.3606 53.0676C45.4504 53.0411 45.5743 52.9264 45.6983 52.8029C45.647 52.9705 45.6769 52.9308 45.7923 53.019C45.9847 52.8867 45.7838 52.8602 45.9291 52.7411C46.0146 52.8514 46.254 52.5382 46.3694 52.5823C46.5147 52.2736 46.6515 52.2868 46.6814 52.3838C46.8097 52.1192 46.9123 52.0706 46.9721 51.8501C47.1089 51.8192 47.002 51.8898 47.0747 51.9559C47.2713 51.7133 47.2585 51.7486 47.4637 51.6295C47.515 51.5236 47.515 51.431 47.5577 51.3163C47.6988 51.2722 47.7715 51.1134 47.686 51.3384C48.2716 50.7914 48.1348 50.3062 48.4468 50.0768C48.2716 49.865 48.5665 49.6842 48.8102 49.5386C48.8102 49.4107 48.5836 49.5915 48.699 49.446C48.8871 49.3445 48.994 49.221 49.135 48.974C49.2633 48.996 49.1564 49.1372 49.1949 49.2034C49.2419 49.0357 49.43 48.8946 49.4214 48.8328C49.3445 48.9034 49.2718 48.9387 49.2077 48.9387C49.3103 48.8019 49.2846 48.7314 49.4343 48.5681L49.5197 48.6343C49.7164 48.0212 50.3533 47.4389 50.3704 47.1257C50.473 46.9184 50.5328 47.0551 50.6269 46.9536C50.5884 46.9228 50.5414 46.936 50.4944 46.9536C50.5414 46.7728 51.1911 46.1861 50.8021 46.4684C50.9859 46.1861 51.1612 46.1729 51.1911 45.9479C51.0971 46.0891 51.0244 46.0405 51.0971 45.8905C51.0928 46.0052 51.1697 45.9964 51.2638 45.8244C51.2467 45.7317 51.3065 45.5906 51.3493 45.4583C51.3364 45.6744 51.5715 45.2068 51.5929 45.101C51.5587 45.1451 51.5202 45.2245 51.4903 45.2068C51.5502 45.0745 51.6741 44.7039 51.8109 44.6466C51.8323 44.7084 51.6784 44.8892 51.734 44.9333C51.9092 44.7525 51.8494 44.629 51.952 44.3996C52.2042 44.4084 52.1144 43.6806 52.3923 43.7379C52.2042 43.9673 52.1828 44.2231 52.1401 44.4393C52.093 44.651 52.0417 44.8319 51.8323 44.9113C52.0075 45.0215 51.7767 45.1715 51.6741 45.4847C51.8152 45.4715 51.6955 45.6259 51.7297 45.6832C51.9221 45.4053 51.7981 45.4847 51.8109 45.3965C51.8793 45.3568 51.952 45.1715 52.0161 45.2598C51.9776 45.3347 51.9092 45.4362 51.9392 45.4671C52.0631 45.1892 52.1785 45.0789 52.2854 45.0745C52.341 44.8848 52.4265 44.7481 52.5376 44.5628C52.6402 44.3687 52.7641 44.1305 52.9138 43.7511C52.9138 43.6012 52.7684 43.7952 52.8454 43.557C53.3882 42.7586 53.4737 41.8499 53.7729 41.1794C53.7174 40.9985 53.5336 41.2323 53.6404 40.8971C53.7473 40.7471 53.8029 40.8177 53.8713 40.9015C53.9567 40.2222 54.303 39.8869 54.4953 39.1855C54.2816 38.815 54.8117 37.9195 54.6749 37.4255C54.645 37.7651 54.5424 38.1886 54.3799 38.3209C54.3201 38.0254 54.474 37.1961 54.692 37.3505C54.6578 36.9402 55.004 36.6623 54.8159 36.4903C55.0767 36.4594 55.1964 35.6389 55.1836 35.1581C55.1836 35.2287 55.2391 35.0567 55.2605 34.8758C55.3161 34.3994 55.393 33.8656 55.4486 33.3407C55.4699 32.9305 55.4657 32.5202 55.4315 32.1453C55.47 32.1453 55.5127 32.1497 55.564 32.1673C55.5341 31.7174 55.5041 31.2719 55.4742 30.8307C55.4828 30.8396 55.4913 30.844 55.5127 30.8351C55.4529 30.6146 55.47 30.5352 55.44 30.3279C55.4272 30.1779 55.4187 30.0323 55.4058 29.8823C55.4785 29.6971 55.5341 29.3618 55.5512 29.1721C55.5597 29.3133 55.6538 29.2559 55.6367 29.4544C55.5854 29.772 55.6067 30.1646 55.7435 30.394C55.7179 30.544 55.6837 30.5484 55.6324 30.469C55.7222 31.316 55.6067 31.9468 55.7606 32.7231C55.6367 32.529 55.6324 33.4333 55.7692 33.2348C55.6666 33.7245 55.5597 34.3509 55.5041 34.9728C55.4742 35.286 55.4529 35.5948 55.4486 35.886C55.4443 36.0315 55.4443 36.1727 55.4486 36.305C55.4443 36.4374 55.4443 36.5609 55.4486 36.68C55.4956 36.3183 55.7008 35.683 55.6025 35.361C55.735 35.5507 55.6751 35.0434 55.6196 34.9905L55.7264 35.0037C55.9573 33.4333 55.9829 31.7659 56 30.1558ZM45.7752 9.75846C45.8992 9.6967 45.9761 9.8908 46.0231 9.99225C45.9548 10.0452 45.7923 9.80698 45.7752 9.75846ZM15.7934 55.1673C15.8062 54.9732 16.1054 55.2555 16.1311 55.207C16.285 55.3526 15.9473 55.2687 15.7934 55.1673ZM17.8666 56.4245C17.9563 56.2304 18.0675 56.4862 18.3154 56.548C18.2641 56.6186 18.0034 56.451 17.8666 56.4245ZM18.3881 55.8599C18.418 55.7628 18.7001 55.8775 18.7642 55.9569C18.73 56.0319 18.4992 55.8775 18.3881 55.8599ZM22.8635 57.7567C22.9234 57.7346 23.0174 57.739 23.1286 57.7567C23.1157 57.8096 23.1072 57.8625 23.1799 57.8802C23.1243 57.9552 22.7738 57.8537 22.8635 57.7567ZM24.9581 58.1713C24.9153 58.0655 25.0949 58.1007 25.0949 58.0302C24.5734 57.8978 24.0305 57.9772 23.8638 57.6729C24.3126 57.8052 24.4964 57.6993 24.8469 57.642C24.9324 57.6817 24.9709 57.7478 25.1034 57.7655C25.0008 57.8493 24.941 57.814 24.7743 57.7875C24.8213 57.9331 24.9965 58.0169 25.2915 58.039C25.3385 58.1801 25.1846 58.1978 24.9581 58.1713ZM53.2643 37.4563C53.3455 37.4652 53.2215 37.699 53.2172 37.8004C53.1959 37.7651 53.1745 37.7254 53.166 37.6725C53.1916 37.6107 53.2172 37.5534 53.2386 37.4916C53.2472 37.4916 53.2557 37.4828 53.2643 37.4563ZM52.6829 42.2866C52.5376 42.538 52.5761 42.5072 52.4478 42.8071C52.341 42.8909 52.2298 42.7718 52.3709 42.5381C52.4777 42.8248 52.482 42.2425 52.6829 42.2866ZM35.1486 56.1466C35.1315 56.2392 34.8152 56.301 34.6699 56.3539C34.7255 56.151 34.8922 56.2304 35.1486 56.1466ZM31.7589 57.7081C31.3913 57.7434 31.2203 57.6905 30.81 57.6773C30.998 57.4788 31.387 57.567 31.7717 57.4391C31.7675 57.5317 31.6948 57.5979 31.7589 57.7081ZM29.7499 57.7346C29.6986 57.8625 29.5276 57.739 29.4848 57.7214C29.4549 57.6376 29.6687 57.6684 29.6644 57.5934C29.8952 57.5714 29.5233 57.7611 29.7499 57.7346ZM30.5407 57.6861C30.5107 57.7787 30.3398 57.8184 30.3098 57.9111C30.2072 57.814 29.7456 57.9949 29.6986 57.8537C30.0021 57.9199 30.1987 57.6596 30.5407 57.6861ZM30.0534 57.1523C29.8439 57.2053 29.6558 57.2758 29.3096 57.3244C29.16 57.1347 29.4592 57.0641 29.8354 56.9671C30.2115 56.8788 30.6732 56.8171 30.8527 56.7642C31.1348 56.8171 31.2118 56.9582 30.8399 57.0685C30.8484 57.0376 30.8997 57.02 30.8912 56.9847C30.4851 57.0509 30.2628 57.0994 30.0534 57.1523ZM29.425 57.7655C28.9505 57.8934 27.8434 57.8978 28.1084 57.7037C28.4461 57.8405 28.8779 57.6508 29.425 57.7655ZM31.1989 56.8965C31.1605 56.8038 31.3144 56.7774 31.4298 56.7421C31.4469 56.8391 31.3229 56.945 31.1989 56.8965ZM31.682 55.7628C31.2417 55.829 30.7971 55.8731 30.4552 55.9216C30.3056 55.9834 30.5321 56.076 30.6646 56.0407C30.6219 56.1554 30.4039 56.0716 30.297 56.1025C30.2799 56.0363 30.3611 56.0142 30.3355 55.9437C30.297 55.8643 30.032 55.979 29.9038 55.9745C30.2927 55.7275 30.6988 55.6393 31.169 55.5819C31.4041 55.5555 31.6563 55.529 31.9214 55.4981C32.1864 55.454 32.4685 55.3834 32.7763 55.2952C32.7848 55.3482 32.7934 55.4011 32.866 55.3878C32.7079 55.4717 32.5241 55.5467 32.3232 55.6128C32.2248 55.6481 32.118 55.679 32.0111 55.7055C31.9 55.7231 31.7931 55.7452 31.682 55.7628ZM17.1442 51.3163C17.1698 51.3119 17.1997 51.3163 17.2254 51.3296C17.2211 51.3384 17.2254 51.3472 17.2168 51.356C17.1356 51.3384 17.0971 51.3296 17.0758 51.3163C17.1014 51.3163 17.1228 51.3207 17.1442 51.3163ZM13.7117 49.8121C13.6946 49.8298 13.6732 49.8474 13.6561 49.865C13.639 49.8562 13.6219 49.8474 13.6048 49.8386C13.6134 49.8253 13.6219 49.8121 13.6305 49.7989C13.639 49.7856 13.6476 49.7724 13.6561 49.7592C13.6732 49.7768 13.6903 49.7945 13.7117 49.8121ZM24.6546 8.59831C24.6076 8.64684 24.5349 8.67331 24.4238 8.68213C24.4067 8.68213 24.3896 8.68213 24.3725 8.68213C24.3254 8.66448 24.2485 8.67772 24.1716 8.68654C24.3254 8.60273 24.4879 8.58508 24.6546 8.59831ZM54.4526 23.3758C54.4996 23.539 54.4612 23.6096 54.4184 23.6758C54.3671 23.4773 54.3543 23.27 54.2944 23.0714C54.2987 23.0317 54.303 22.9965 54.3115 22.97C54.4312 23.3846 54.2731 23.3493 54.4526 23.3758ZM54.5424 23.7243C54.5637 23.8522 54.5851 23.9449 54.6022 24.0287C54.5937 24.0243 54.5894 24.0199 54.5766 24.0199C54.5509 23.9846 54.5295 23.9493 54.5124 23.914C54.4782 23.7993 54.4526 23.6978 54.5424 23.7243ZM54.3073 33.0628C54.3158 32.9658 54.2987 32.9084 54.2688 32.8731C54.2816 32.7099 54.303 32.5555 54.3372 32.4408C54.3628 32.4849 54.3842 32.5335 54.4056 32.582C54.4141 32.5158 54.3885 32.4188 54.3799 32.3305C54.3842 32.3217 54.3885 32.3085 54.3928 32.2997C54.3885 32.282 54.3842 32.26 54.3799 32.2379C54.3842 32.207 54.397 32.1806 54.4227 32.1629C54.4312 32.2952 54.521 32.2908 54.4782 32.5158C54.2346 32.7849 54.397 32.6349 54.3073 33.0628ZM31.8444 8.97768C31.8017 8.9865 31.7803 8.97327 31.7675 8.95563C31.7931 8.94681 31.823 8.94239 31.853 8.93357C31.853 8.95563 31.8487 8.97768 31.8444 8.97768ZM49.2676 16.1062C49.1564 16.0973 49.0624 16.0665 49.0538 15.9253C49.0538 15.9209 49.0538 15.9209 49.0538 15.9165C49.1265 15.9738 49.1992 16.0356 49.2676 16.1062ZM54.2389 30.9057C54.2303 30.7954 54.2218 30.6808 54.2132 30.5661C54.2175 30.5572 54.2218 30.5484 54.2218 30.5396C54.2474 30.4558 54.3201 30.3852 54.3885 30.3146C54.3885 30.4293 54.3885 30.5484 54.3928 30.6631C54.4013 30.919 54.4184 31.166 54.4569 31.3998C54.4013 31.4042 54.3329 31.391 54.3415 31.5365C54.397 31.5498 54.4782 31.5145 54.4825 31.6071C54.4569 31.8144 54.4141 31.9821 54.35 32.1144C54.2773 31.7747 54.256 31.3513 54.2389 30.9057ZM54.3714 29.9176C54.3714 29.9353 54.3714 29.9573 54.3757 29.975C54.3671 29.9529 54.3671 29.9353 54.3714 29.9176ZM50.8235 17.8442C50.7423 17.756 50.7594 17.6324 50.862 17.5486C50.8705 17.5442 50.8791 17.5398 50.8919 17.5398C51.0116 17.6898 51.1227 17.8618 51.2296 18.0559C51.0757 18.0868 50.9902 18.0295 50.8235 17.8442ZM50.7038 17.3325C50.5798 17.2972 50.4986 17.2134 50.4559 17.0855C50.5414 17.1604 50.6226 17.2398 50.7038 17.3325ZM54.2645 32.9349C54.2773 33.0187 54.2731 33.1113 54.256 33.204C54.256 33.1157 54.256 33.0231 54.2645 32.9349ZM55.0724 26.446C55.0895 26.3931 55.1152 26.3357 55.1451 26.2828C55.1494 26.4019 55.1323 26.5034 55.0852 26.5431C55.081 26.5122 55.0767 26.4769 55.0724 26.446ZM54.9869 25.7534C54.9869 25.7314 54.9869 25.7005 54.9912 25.6829C55.0168 25.7138 55.0382 25.7623 55.0596 25.824C55.0382 25.8064 55.0126 25.7843 54.9869 25.7534ZM54.7689 24.9947C54.6792 25.1976 54.8074 25.4403 54.8715 25.4138C54.863 25.5064 54.8373 25.5373 54.8074 25.5417C54.7775 25.502 54.7475 25.4623 54.7219 25.4226C54.7134 25.3961 54.7091 25.3697 54.7048 25.3432C54.6706 25.2991 54.6321 25.2594 54.5937 25.2241C54.5723 25.1844 54.5509 25.1491 54.5424 25.1271C54.5124 25.0521 54.5979 24.9506 54.6877 24.9638C54.7091 24.9683 54.7347 24.9727 54.7561 24.9815C54.7646 24.9859 54.7646 24.9903 54.7689 24.9947ZM54.2602 22.9788C54.256 22.9744 54.256 22.9656 54.2517 22.9568C54.2389 22.9259 54.2389 22.9038 54.2431 22.8774C54.2517 22.9126 54.256 22.9479 54.2602 22.9788ZM25.0692 8.69095C25.0265 8.68654 24.9923 8.67772 24.9581 8.66007C24.9923 8.66889 25.0307 8.67772 25.0692 8.69095ZM33.7509 56.226C33.8022 56.3848 33.5585 56.2613 33.3875 56.3627C33.4474 56.2525 33.5842 56.2436 33.7509 56.226ZM47.7543 49.296C47.8227 49.4195 47.5663 49.5033 47.4167 49.7415C47.3739 49.693 47.3012 49.7548 47.2628 49.6974C47.4338 49.5474 47.6047 49.3842 47.7543 49.296ZM48.0878 48.8505C48.122 48.8902 48.1604 48.9254 48.216 48.8681C48.2972 48.9387 48.0279 49.2254 47.9296 49.2607C47.8826 49.1681 47.9424 49.0269 48.0878 48.8505ZM53.3797 37.1167C53.3925 37.1255 53.4053 37.1299 53.4182 37.1387C53.3754 37.2402 53.3583 37.249 53.3369 37.2358C53.3498 37.1917 53.3669 37.1564 53.3797 37.1167ZM54.1662 34.3112C54.1619 34.2538 54.1577 34.2009 54.1491 34.1524C54.1705 34.1303 54.1918 34.1127 54.2132 34.1038C54.2089 34.17 54.1918 34.2406 54.1662 34.3112ZM54.2987 33.8612C54.2859 33.773 54.2731 33.6583 54.2645 33.5348C54.2859 33.4333 54.3115 33.3407 54.3671 33.2084C54.35 33.5216 54.3201 33.623 54.3329 33.8524C54.3244 33.8568 54.3115 33.8612 54.2987 33.8612ZM55.1622 27.7385C55.1964 27.5665 55.2092 27.3944 55.1793 27.1827C55.3802 27.2665 55.2947 27.7605 55.1921 27.937C55.1836 27.8708 55.1707 27.8047 55.1622 27.7385ZM55.1066 26.6842C55.1707 26.7636 55.2092 26.918 55.2391 27.0989C55.1109 27.1827 55.0681 26.7989 55.1066 26.6842ZM54.5937 23.1861L54.4526 23.2258C54.4013 23.1067 54.4825 22.9082 54.3628 22.8774C54.3372 22.6347 54.4526 22.9347 54.4868 22.9171C54.5039 22.8244 54.4569 22.7715 54.397 22.7009C54.4227 22.6788 54.444 22.6568 54.4654 22.6347C54.5552 22.7803 54.6193 22.9612 54.5937 23.1861ZM54.3158 21.9863C54.2688 21.9819 54.2431 21.854 54.2175 21.7525C54.2218 21.7525 54.2261 21.7525 54.2303 21.7525C54.2645 21.7481 54.2944 21.7216 54.3158 21.6907C54.4056 21.8892 54.303 21.8716 54.3158 21.9863ZM53.7302 21.2893C53.743 21.2805 53.7772 21.2849 53.7943 21.2981C53.9183 21.382 53.9995 21.4878 54.0294 21.6466C54.0422 21.7216 54.1021 21.7481 54.1705 21.7525C54.1833 21.8098 54.1918 21.8716 54.1918 21.951C54.1576 21.9598 54.1662 22.0216 54.1406 22.0436C54.0508 21.7216 53.8798 21.8319 54.0893 21.9863C54.0978 22.0304 54.1064 22.0745 54.1149 22.1186C53.9995 22.1142 53.8841 22.1142 53.7687 22.101C53.7345 22.0966 53.6832 22.0084 53.6917 21.9687C53.7174 21.8628 53.8114 21.7569 53.7986 21.6687C53.7815 21.5672 53.6575 21.4922 53.6832 21.3599C53.6832 21.3334 53.7046 21.307 53.7302 21.2893ZM52.5077 18.9558C52.4649 18.9337 52.4222 18.9161 52.3794 18.9382C52.3538 18.872 52.3239 18.8191 52.2982 18.7705C52.2897 18.7264 52.2854 18.6779 52.2854 18.6338C52.3538 18.7308 52.435 18.8499 52.5077 18.9558ZM47.8569 12.3743C47.8826 12.4052 47.9125 12.4405 47.9382 12.4713C47.9339 12.4802 47.9296 12.4934 47.9211 12.5022C47.7714 12.4713 47.6988 12.2684 47.609 12.0743C47.6902 12.1758 47.7715 12.2773 47.8569 12.3743ZM45.3777 11.5582C45.3905 11.5671 45.3991 11.5847 45.4076 11.6023C45.3777 11.5891 45.3478 11.5759 45.3178 11.5671C45.3307 11.5494 45.352 11.5406 45.3777 11.5582ZM23.6757 8.75712C23.6757 8.788 23.6757 8.81888 23.68 8.84535C23.7484 8.84535 23.7911 8.80564 23.8168 8.75271C23.9322 8.75271 24.0476 8.75712 24.1673 8.76153C24.1245 8.85858 24.039 8.92033 23.9578 8.97768C23.821 9.07031 23.7227 9.01738 23.6757 8.86299C23.6287 8.88063 23.5774 8.89387 23.5304 8.91592C23.3038 9.03502 23.2226 9.03062 23.1029 8.87181C23.0986 8.8674 23.0944 8.85858 23.0901 8.85417C23.2824 8.788 23.4748 8.76594 23.6757 8.75712ZM22.0043 9.03062C22.201 8.99092 22.3891 8.97327 22.56 8.97327C22.5173 9.01297 22.4617 9.03944 22.372 9.03503C22.3164 9.03503 22.2395 9.03503 22.2138 9.07032C22.0215 9.32175 21.7137 9.11442 21.5 9.27323C21.3503 9.38351 21.2648 9.32616 21.1922 9.24235C21.4658 9.14531 21.7436 9.07914 22.0043 9.03062ZM7.79141 44.5275C7.76576 44.5231 7.74439 44.4393 7.74866 44.3952C7.75294 44.3731 7.76576 44.3511 7.77858 44.329C7.79141 44.3069 7.80851 44.2893 7.82133 44.2672C7.8427 44.3113 7.8769 44.351 7.88545 44.3952C7.89827 44.4657 7.88973 44.5495 7.79141 44.5275ZM8.57366 46.7463C8.56511 46.786 8.51381 46.8125 8.48389 46.8478C8.46679 46.8257 8.4326 46.8081 8.4326 46.786C8.42405 46.7066 8.42404 46.6272 8.41977 46.5478C8.4155 46.5478 8.41122 46.5478 8.40695 46.5478C8.40695 46.5434 8.40695 46.5346 8.40695 46.5302C8.36848 46.5125 8.33 46.4949 8.29581 46.4728C8.28726 46.4684 8.30008 46.4155 8.30436 46.4155C8.3984 46.4022 8.40267 46.464 8.40695 46.5302C8.41122 46.5302 8.4155 46.5346 8.41977 46.5346C8.41977 46.539 8.41977 46.5434 8.41977 46.5478C8.54373 46.5478 8.60785 46.614 8.57366 46.7463ZM9.09088 47.2316C9.04813 47.2051 9.00539 47.1786 8.95837 47.1522C9.00539 47.1257 9.05241 47.0816 9.09943 47.086C9.14645 47.086 9.18919 47.1345 9.23621 47.1654C9.18919 47.183 9.1379 47.2095 9.09088 47.2316ZM9.43712 47.6109C9.43284 47.6771 9.42857 47.7433 9.33025 47.7256C9.32598 47.7256 9.31316 47.6727 9.3217 47.6683C9.3559 47.6462 9.39437 47.6286 9.43712 47.6109C9.43712 47.6065 9.43712 47.5977 9.43712 47.5933C9.44139 47.5933 9.44567 47.5933 9.44994 47.5933C9.44567 47.4874 9.43284 47.3815 9.51833 47.2977C9.56963 47.2492 9.73634 47.2492 9.73206 47.2977C9.72779 47.3418 9.71496 47.3948 9.68932 47.4256C9.6252 47.5051 9.56963 47.6021 9.44567 47.5933C9.44567 47.5977 9.44567 47.6021 9.44567 47.6065C9.44567 47.6065 9.44139 47.6109 9.43712 47.6109ZM10.1125 47.7741C9.99281 48.0565 9.74061 48.2726 9.71497 48.6078C9.71497 48.6255 9.61238 48.652 9.56963 48.6387C9.52689 48.6255 9.46277 48.5593 9.46704 48.5284C9.54826 48.1976 9.68932 47.8888 9.89022 47.6153C9.90732 47.5933 9.99709 47.6153 10.0484 47.6286C10.0484 47.6286 10.0484 47.6286 10.0527 47.6286C10.0655 47.6418 10.0783 47.655 10.0954 47.6683C10.0997 47.6771 10.1039 47.6815 10.1125 47.6859C10.1082 47.7212 10.1253 47.7521 10.1125 47.7741ZM12.673 49.9665C12.643 50.0327 12.6003 50.0591 12.5362 50.0371C12.5533 49.9797 12.5875 49.9312 12.673 49.918C12.8183 49.8959 12.8824 49.9886 12.8653 50.1209C12.8653 50.1385 12.8696 50.1474 12.8696 50.1606C12.8226 50.1121 12.767 50.0503 12.673 49.9665ZM13.7416 50.24C13.7416 50.2444 13.7373 50.2532 13.7373 50.2576L13.7245 50.2444C13.7288 50.2444 13.7331 50.2444 13.7416 50.24C13.7459 50.2268 13.7502 50.2135 13.7544 50.2003C13.7673 50.2091 13.7801 50.2135 13.7886 50.2223C13.7715 50.2312 13.7544 50.2356 13.7416 50.24ZM19.5166 54.8894C18.9865 54.638 18.4693 54.3865 17.8409 54.2674C17.6357 54.1704 17.4348 54.0336 17.2168 53.8925C17.1955 53.8748 17.1698 53.8572 17.1442 53.8439C17.2425 53.866 17.3408 53.8881 17.4348 53.9101C17.6699 53.963 17.8965 54.016 18.123 54.0866C18.3539 54.1483 18.5932 54.2277 18.8497 54.3468C19.2815 54.1483 19.8927 54.9379 20.3031 54.8806C20.1406 54.6115 20.8331 54.832 21.2307 54.8806C21.1665 54.9997 21.2136 55.1541 21.2392 55.3702C20.6066 55.304 20.0594 55.0967 19.5166 54.8894ZM27.5143 56.2745C27.6425 56.1907 27.7194 56.3627 27.9503 56.323C27.946 56.2877 27.8733 56.301 27.822 56.2922C27.8349 56.2392 28.0058 56.2701 28.0016 56.2083C27.9289 56.1289 27.6126 56.2172 27.4459 56.2039C27.6981 56.0187 28.3264 56.0319 28.5316 55.9128C28.6342 55.9878 28.5915 56.1113 28.553 56.1378C28.6214 56.2613 28.6898 56.1334 28.8052 56.1951C28.9719 56.1334 28.6043 56.1334 28.6641 56.0187C29.1343 55.9834 29.2455 56.0231 29.4506 55.8907C29.6516 55.9216 29.4506 55.9569 29.8183 55.8731C29.8824 56.1245 29.4335 55.9966 29.2882 56.0892C29.5148 56.248 30.0619 55.8378 30.1004 56.0936C29.908 56.1157 29.7071 56.1598 29.4977 56.2039C29.2882 56.2348 29.0702 56.2701 28.8479 56.301C28.4077 56.3583 27.946 56.3892 27.5143 56.2745ZM27.6553 57.8008C27.5955 57.9155 27.8049 57.8581 27.9204 57.8625C27.7066 57.9243 27.3561 57.9419 26.9671 57.9552C26.5739 57.9419 26.1421 57.9199 25.7574 57.9464C26.2191 57.6684 26.9628 57.9331 27.6553 57.8008ZM25.5608 58.0478C25.9327 58.1096 26.0224 58.0831 26.42 58.1184C26.0481 57.9287 27.245 58.0258 27.3433 58.114C27.0312 58.2198 26.6636 58.1978 26.3174 58.1757C25.9711 58.1581 25.6506 58.1404 25.424 58.2287C25.3684 58.1096 25.5309 58.1184 25.5608 58.0478ZM25.3513 58.3786C25.4069 58.2507 25.5864 58.3478 25.6848 58.3919C25.6677 58.4801 25.3898 58.4007 25.3513 58.3786ZM29.861 58.586L29.8439 58.4669C29.814 58.4757 29.7841 58.4801 29.7541 58.4889C29.6088 58.5154 29.4592 58.533 29.301 58.5551C28.989 58.5948 28.6599 58.6301 28.3264 58.6521C27.6553 58.6918 26.9458 58.7271 26.2832 58.5992C26.2105 58.608 26.2362 58.6742 26.1507 58.6698C25.9925 58.6521 25.8728 58.6124 25.7489 58.5771C25.766 58.4625 26.0823 58.5286 26.2875 58.5242C26.2917 58.4713 26.296 58.4183 26.2191 58.4095C26.8688 58.3919 28.0443 58.3963 29.0018 58.1272C29.2198 58.1537 29.4293 58.1846 29.5532 58.2728C29.7456 58.2287 29.4977 58.1581 29.5319 58.0875C29.6986 58.0522 29.8525 58.1978 29.9337 58.0787C30.1303 58.0831 30.0149 58.1228 30.0192 58.2154C30.3483 58.1096 30.5834 58.0258 30.8014 58.0169C30.8484 57.8846 30.5877 57.9949 30.4594 57.9949C30.6475 57.8317 31.1135 57.8052 31.3144 57.8537C31.3913 57.9861 31.0493 58.1493 31.4298 58.1007C31.1605 58.2816 30.3569 58.1493 30.2414 58.3345C30.7629 58.3478 31.635 58.0654 31.9427 58.2419C31.2545 58.533 30.6176 58.4183 29.861 58.586ZM32.9173 57.6905C32.9088 57.6243 32.819 57.6332 32.819 57.5626C33.0669 57.4567 33.0413 57.6199 33.2892 57.514C33.2379 57.589 33.0242 57.6287 32.9173 57.6905ZM34.6742 57.0112C33.8834 57.1391 33.2037 57.3508 32.3958 57.5185C32.4215 57.5846 32.6181 57.4832 32.6694 57.5229C32.6865 57.6376 32.289 57.6949 32.2719 57.5802C32.1052 57.6861 32.0966 57.7214 32.1949 57.8581C31.8957 57.7787 31.8359 57.6817 31.9384 57.5979C32.0453 57.5096 32.3189 57.4435 32.695 57.3597C32.6267 57.32 32.477 57.3597 32.3574 57.3729C32.3018 57.267 32.6438 57.267 32.6523 57.1788C32.7421 57.1656 32.7292 57.2582 32.7506 57.3067C33.3619 57.1038 33.4046 57.0729 34.0715 56.87C34.1954 56.9803 34.3921 56.7818 34.563 56.8877C34.7255 56.8083 34.345 56.8612 34.516 56.7465C34.9734 56.6495 34.9606 56.7553 35.4137 56.5215C35.388 56.4201 35.0247 56.7156 35.0674 56.5348C35.3709 56.4818 35.5847 56.3671 35.7941 56.2172C35.8454 56.2921 35.8326 56.3539 35.7984 56.4157C35.9651 56.3627 35.9822 56.2877 35.9309 56.2039C36.2301 56.0451 36.3327 56.1201 36.478 56.151C36.2515 56.5304 35.0418 56.72 34.6742 57.0112ZM40.6115 55.3614C40.603 55.1673 40.8723 55.1497 41.0219 54.9732C41.0775 55.0879 40.7355 55.2335 40.6115 55.3614ZM42.5009 54.9467C42.3898 55.2202 42.3983 54.8938 42.2231 55.0394C42.2145 54.9864 42.3556 54.9159 42.4411 54.8541C42.4667 54.9026 42.4881 54.9467 42.5607 54.907C42.5693 54.9511 42.5095 54.9644 42.5009 54.9467ZM42.2829 54.3821L42.5137 54.2321L42.5778 54.3248C42.4582 54.3821 42.3214 54.4747 42.2829 54.3821ZM42.5522 54.1615C42.5052 54.0821 42.6933 53.963 42.8386 53.8483L42.9027 53.9366C42.7702 54.0469 42.642 54.1483 42.5522 54.1615ZM42.4539 53.9807C42.0948 54.2365 41.7272 54.4747 41.5434 54.638C41.5648 54.4836 41.8725 54.2454 42.2402 53.9851C42.6035 53.7204 43.0096 53.4028 43.2789 53.1734C43.1335 53.4072 42.8001 53.7028 42.4539 53.9807ZM44.9973 53.4205C44.8733 53.3366 44.8519 53.3411 44.8861 53.1778C45.0186 53.169 45.2281 53.2308 44.9973 53.4205ZM45.2024 53.1117C45.1426 53.1117 45.0528 53.1867 45.0186 53.1161C45.0827 53.094 45.1469 53.072 45.1298 53.0279C45.1939 52.9838 45.211 53.0499 45.2836 52.9882C45.2751 53.0367 45.2666 53.0852 45.3008 53.1205C45.2366 53.169 45.1255 53.1867 45.2024 53.1117ZM46.1856 52.6C46.1685 52.5471 46.2967 52.4544 46.3694 52.375C46.3309 52.353 46.254 52.4412 46.1856 52.4985C46.0915 52.4941 46.2583 52.2603 46.0873 52.3882C46.1001 52.3 46.3779 52.278 46.472 52.2735C46.2967 52.4588 46.4121 52.4721 46.1856 52.6ZM47.4209 50.4076L47.5022 50.4826L47.267 50.7473C47.173 50.6899 47.3654 50.5223 47.4209 50.4076ZM47.8056 50.862C47.8484 50.6899 47.7373 50.8223 47.609 50.9723C47.5577 50.8046 47.9168 50.659 48.0621 50.5091C48.1177 50.5752 47.874 50.7517 47.8056 50.862ZM48.0151 49.8959C47.9681 50.2135 47.8869 50.5047 47.4209 50.7958C47.468 50.5885 47.8954 50.3018 47.7458 50.0371C48.1775 49.6313 48.4426 49.2298 48.6777 49.0666C48.6734 49.3578 48.2844 49.7856 48.0151 49.8959ZM49.2504 48.4314C49.0111 48.7093 48.8786 48.7755 48.7803 49.0578L48.6392 48.9431C48.9213 48.674 49.1393 48.202 49.4685 47.8844C49.4685 48.0962 49.1906 48.2329 49.2504 48.4314ZM52.0973 43.8305C51.9776 43.8261 52.0546 43.6717 51.9306 43.6673C52.0375 43.5967 52.1315 43.2218 52.2426 43.3453C52.1657 43.1953 52.4265 42.9218 52.5419 42.6968C52.3196 43.1159 52.2982 43.535 52.0973 43.8305ZM52.1443 45.0745C52.093 45.0392 52.0332 45.0745 51.9776 45.1495C51.9135 45.1009 51.999 44.9554 52.093 44.801C52.0973 44.9466 52.1828 44.7878 52.1871 44.9333C52.2683 44.823 52.3581 44.5275 52.4307 44.651C52.3367 44.7084 52.2384 44.9069 52.1443 45.0745ZM52.5248 44.2893C52.5119 44.0643 52.6188 44.0202 52.7428 43.8261C52.7513 44.0511 52.6487 44.0952 52.5248 44.2893ZM52.7727 41.6337C52.7513 41.5588 52.7684 41.4397 52.8325 41.2764C52.9351 41.2985 52.871 41.5632 52.7727 41.6337ZM52.7129 40.628C52.7086 40.4383 52.8069 40.3766 52.8625 40.0854C52.9693 40.1295 52.7941 40.5486 52.7129 40.628ZM53.0762 39.1282C53.1788 39.2252 52.9779 39.3929 52.9907 39.6134C52.8411 39.6267 53.0505 39.287 53.0762 39.1282ZM53.0591 40.306C53.0206 40.0413 53.0719 39.9178 53.136 39.5164C53.1574 39.6311 53.0976 40.0016 53.2514 39.6267C53.3711 39.7678 53.1232 40.0546 53.0591 40.306ZM53.5763 37.2446C53.4353 37.9284 53.4994 38.1886 53.4865 38.5194C53.4566 38.6782 53.3669 38.568 53.3284 38.6915C53.5207 38.6253 53.3882 39.1414 53.2985 39.4855C53.1831 39.4237 53.1189 39.4237 53.1147 39.3532C53.1788 39.2958 53.2301 39.0532 53.213 38.9429C53.0805 39.1105 53.1531 38.7091 53.0676 38.6827C53.1275 38.5503 53.1617 38.5547 53.1916 38.6474C53.2386 38.1269 53.4823 37.5269 53.5207 37.0108C53.5592 37.0285 53.572 37.1476 53.6276 37.0329C53.478 37.1079 53.6618 36.7991 53.5678 36.8079C53.5207 36.8829 53.4908 36.8608 53.4737 36.7991C53.525 36.6403 53.5763 36.4815 53.6191 36.3183C53.7516 36.2697 53.5549 36.6138 53.649 36.6138C53.7046 36.3094 53.961 35.8463 53.8328 35.7316C53.7558 36.0315 53.7601 36.1595 53.6233 36.3006C53.6276 36.2918 53.6276 36.283 53.6319 36.2742C53.6917 36.0095 53.7388 35.736 53.7772 35.4537C53.8328 35.4537 53.8798 35.4272 53.9268 35.3875C53.9268 35.3919 53.9268 35.3919 53.9226 35.3963C54.0251 35.5463 54.0038 35.7404 53.961 35.9389C53.914 36.1374 53.8371 36.3359 53.8584 36.5168C53.7687 36.6756 53.7217 36.6579 53.6704 36.6932C53.7644 36.83 53.649 37.4696 53.602 37.6063C53.4823 37.6152 53.649 37.2931 53.5763 37.2446ZM53.572 40.7118C53.6875 40.478 53.6105 40.3545 53.7387 40.2354C53.914 40.2045 53.6917 40.8441 53.572 40.7118ZM53.7473 40.0854C53.8969 39.9796 54.0209 39.6928 54.1876 39.6928C54.0593 39.9531 53.9311 40.2045 53.7473 40.0854ZM55.2135 28.1178C55.2135 28.1178 55.2135 28.1223 55.2135 28.1267C55.2135 28.1267 55.2135 28.1223 55.2135 28.1178ZM55.3759 27.8091C55.4058 27.6988 55.4101 28.1134 55.4486 28.3825C55.2861 28.3075 55.3246 27.9811 55.3759 27.8091Z" fill="#00B307"/>
<path fill-rule="evenodd" clip-rule="evenodd" d="M15.7382 5.37793C15.6356 5.54114 14.973 5.75729 14.9346 5.82787C15.0799 5.80581 15.9519 5.40881 15.7382 5.37793Z" fill="#00B307"/>
<path fill-rule="evenodd" clip-rule="evenodd" d="M30.1557 0.2477C30.113 0.159476 29.7582 0.207997 29.7325 0.128595C30.1856 0.0271379 30.4763 0.349158 30.938 0.39327C30.9551 0.349158 30.938 0.287396 31.0192 0.291807C31.0876 0.353564 31.126 0.419734 31.2158 0.472668C31.7031 0.450612 32.605 0.746163 33.0154 0.618238C32.9128 0.534426 32.4939 0.499135 32.7589 0.410912C32.4041 0.335921 32.6991 0.512369 32.5195 0.521191C32.511 0.490313 32.4682 0.468257 32.3828 0.459435C32.511 0.309454 31.9168 0.35798 31.6817 0.234466C31.4979 0.256522 31.7971 0.366801 31.592 0.371212C31.4466 0.225643 31.1517 0.155064 31.1645 0.309456C31.2115 0.260933 30.5917 0.24329 30.8183 0.146244C30.0488 0.0712537 30.1301 -0.00814865 29.5273 0.000673734C29.5829 0.137421 29.5316 0.093304 29.5872 0.230051C29.8693 0.172705 29.9676 0.291811 30.1557 0.2477Z" fill="#00B307"/>
<path fill-rule="evenodd" clip-rule="evenodd" d="M38.3379 5.94266C38.5131 5.99119 38.7525 6.13234 38.8936 6.13234C38.7525 6.03971 38.4319 5.88973 38.3379 5.94266Z" fill="#00B307"/>
<path fill-rule="evenodd" clip-rule="evenodd" d="M40.996 6.0835C40.9276 6.19819 40.654 5.9644 40.5215 5.96881C40.5942 6.10997 41.1156 6.25554 40.996 6.0835Z" fill="#00B307"/>
<path fill-rule="evenodd" clip-rule="evenodd" d="M42.8388 4.95862C42.873 4.90569 43.0184 5.04685 43.0611 5.01156C42.9542 4.96304 42.9243 4.76012 43.0739 4.84394C43.1509 4.96304 43.2449 4.88364 43.433 4.92775C43.0825 4.80865 42.5781 4.46016 42.4199 4.52192C42.6849 4.57486 43.0013 4.88363 42.8388 4.95862Z" fill="#00B307"/>
<path fill-rule="evenodd" clip-rule="evenodd" d="M42.9881 8.66846C42.8983 8.74345 43.0308 8.84932 43.1847 8.9596C43.1505 8.78315 43.5096 9.14487 43.3514 8.95077C43.2189 8.85373 43.1463 8.88461 43.1634 8.7611C43.1933 8.78315 43.2403 8.78315 43.1847 8.73021C43.1334 8.74786 43.0821 8.75668 43.0138 8.73904C43.0309 8.71698 43.0351 8.69492 42.9881 8.66846Z" fill="#00B307"/>
<path fill-rule="evenodd" clip-rule="evenodd" d="M43.4629 9.12752C43.7621 9.48924 44.1212 10.0803 44.4973 10.1377C44.4631 10.098 44.4033 10.0495 44.4247 10.0186C44.5786 10.1421 44.6683 10.0892 44.8564 10.3185C44.9333 10.2568 44.8179 10.1509 44.7324 10.0539C44.4931 9.93918 43.6296 9.35249 43.7065 9.12752C43.6253 9.12752 43.5227 9.079 43.4629 9.12752Z" fill="#00B307"/>
<path fill-rule="evenodd" clip-rule="evenodd" d="M45.9717 7.8833C46.0657 8.11709 46.8009 8.52734 46.7967 8.79642C46.9206 8.91111 46.9933 8.89347 47.1344 9.0655C47.0702 9.07874 46.9976 9.06109 46.9335 9.07874C47.0446 9.15814 47.16 9.24195 47.2712 9.34341C47.378 9.44927 47.4849 9.56396 47.596 9.68748C47.814 9.93009 48.032 10.1992 48.25 10.4639C48.6903 10.9976 49.1391 11.5225 49.5751 11.8975C49.6179 12.3563 50.2206 12.4798 50.1608 12.815C50.2206 12.7047 50.1864 12.7312 50.3018 12.7003C49.9428 12.4092 49.6093 11.8225 49.6435 11.5931C49.6307 11.5843 49.6307 11.5667 49.6606 11.5314C49.6478 11.5446 49.6478 11.5711 49.6435 11.5931C49.6863 11.624 49.9043 11.5578 49.9086 11.8004C50.0325 11.8269 49.9 11.5578 50.0197 11.7034C50.0582 11.849 50.0838 11.9857 50.0966 12.1136C50.2078 12.2416 50.3104 12.3254 50.413 12.418C50.3873 12.4533 50.3232 12.4754 50.3702 12.5459C50.4985 12.3607 50.6352 12.815 50.6994 12.9341C50.725 12.7488 50.4642 12.418 50.5113 12.2416C50.3745 12.268 50.4172 12.1445 50.2634 11.9681C50.289 11.9328 50.3488 11.9107 50.3061 11.8401C50.242 11.8181 50.1693 11.5181 49.9684 11.452C50.0453 11.5887 50.0197 11.6152 49.9299 11.5843C49.759 11.2535 49.4213 10.9932 49.2759 10.5962C49.1007 10.7109 48.9981 10.4418 48.8356 10.208C48.7886 10.2389 48.7544 10.3227 48.6818 10.2565C48.592 10.1374 48.6561 10.0801 48.6433 9.99185C48.7202 10.0933 48.981 10.2653 48.8656 10.0801C48.7843 10.1462 48.5535 9.68307 48.4723 9.74923C48.5834 9.86393 48.6048 9.94333 48.5407 9.99185C48.4894 9.79335 48.3825 9.9301 48.2244 9.69189C48.1389 9.74042 48.0577 9.81099 47.9465 9.77129C47.9594 9.50662 47.6259 9.52868 47.4592 9.34782C47.3866 9.13608 47.3224 8.95522 47.3737 8.79642C47.1899 8.65967 47.16 8.5891 47.0873 8.57586C47.1899 8.68614 47.1258 8.7479 47.1472 8.83612C46.771 8.58909 46.6813 8.45676 46.3564 8.09945C46.2282 8.10827 46.0914 8.05093 45.9717 7.8833ZM48.7929 10.6579C48.8698 10.6976 48.9553 10.7682 49.0579 10.905C49.0194 11.0947 48.7972 10.5962 48.7587 10.7903C48.7117 10.7197 48.7715 10.6932 48.7929 10.6579Z" fill="#00B307"/>
<path fill-rule="evenodd" clip-rule="evenodd" d="M45.6943 11.0549C45.7756 11.1828 45.7499 11.2799 45.7456 11.3813C45.8482 11.5313 45.8867 11.4254 45.9722 11.5225C45.9252 11.5666 45.9423 11.6284 45.985 11.6989C46.109 11.4784 45.7798 11.3108 45.8354 11.0946C45.7969 11.1343 45.7328 11.0373 45.6943 11.0549Z" fill="#00B307"/>
<path fill-rule="evenodd" clip-rule="evenodd" d="M53.2896 18.7396C53.2639 18.3603 53.5247 18.8499 53.5546 18.6161C53.4349 18.6558 53.3238 18.4 53.2041 18.3823C53.3665 18.6029 53.1742 18.5499 53.2896 18.7396Z" fill="#00B307"/>
<path fill-rule="evenodd" clip-rule="evenodd" d="M53.3886 20.0317C53.3373 20.0317 53.2903 19.9611 53.2305 20.0229C53.3117 20.217 53.2518 20.2787 53.2518 20.3978C53.2946 20.367 53.4442 20.711 53.4015 20.4905C53.2006 20.2479 53.4271 20.1949 53.3886 20.0317Z" fill="#00B307"/>
<path fill-rule="evenodd" clip-rule="evenodd" d="M51.4092 45.9123C51.5331 45.824 51.7255 45.8461 51.6742 45.8152C51.7255 45.6211 51.4861 45.7446 51.4092 45.9123Z" fill="#00B307"/>
<path fill-rule="evenodd" clip-rule="evenodd" d="M49.0963 49.3089C48.921 49.5339 48.6987 49.6353 48.7073 49.825C48.8312 49.7456 49.0834 49.5074 49.0364 49.7236C49.0792 49.5383 49.5878 49.1942 49.451 49.2207C49.31 49.3354 48.9466 49.6177 49.0963 49.3089Z" fill="#00B307"/>
<path fill-rule="evenodd" clip-rule="evenodd" d="M51.5711 52.2381C51.5625 52.3263 51.5625 52.3175 51.5283 52.6263C51.7378 52.3307 51.9216 52.044 51.8062 51.9028C51.7463 52.0043 51.5027 52.194 51.5711 52.2381Z" fill="#00B307"/>
<path fill-rule="evenodd" clip-rule="evenodd" d="M42.6291 55.7935C42.5308 55.8729 42.441 55.8464 42.4453 55.9126C42.6932 55.8376 42.2401 56.1067 42.2615 56.164C42.4239 56.1111 42.8129 55.8376 42.7317 55.8155C42.4795 55.9831 42.5735 55.8905 42.6291 55.7935Z" fill="#00B307"/>
<path fill-rule="evenodd" clip-rule="evenodd" d="M34.4132 59.2561C34.5158 59.2649 34.6825 59.2164 34.721 59.2869C34.3961 59.3928 33.8489 59.3178 34.0285 59.4766C34.1268 59.3619 34.4602 59.406 34.5457 59.4502C34.6055 59.3487 35.2425 59.0487 35.0458 59.1149C34.7466 59.2737 34.5115 59.137 34.4132 59.2561Z" fill="#00B307"/>
<path fill-rule="evenodd" clip-rule="evenodd" d="M32.7461 59.3532C32.7504 59.5296 32.4854 59.7281 32.776 59.8031C32.7376 59.737 32.853 59.7105 32.8914 59.662C32.6649 59.6223 32.6948 59.4017 33.1052 59.3355C33.1479 59.1944 32.8786 59.3355 32.7461 59.3532Z" fill="#00B307"/>
<path fill-rule="evenodd" clip-rule="evenodd" d="M31.5192 59.7196C31.3781 59.7769 31.6816 59.8431 31.6389 59.9666L31.3567 60.0151L31.3225 59.8299C31.1088 59.9842 30.6899 60.0107 30.8652 60.1298C30.7497 60.0901 30.5702 60.1475 30.5146 60.2225C31.0618 60.1872 31.1986 60.0284 31.6517 60.0372C31.6517 59.9931 31.656 59.949 31.7799 59.9401C31.5619 59.8784 31.7628 59.7108 31.5192 59.7196Z" fill="#00B307"/>
<path fill-rule="evenodd" clip-rule="evenodd" d="M28.4844 61.8366C28.6254 61.8852 28.9845 61.8058 28.8776 61.9998C29.4162 61.9469 28.6596 61.6999 28.4844 61.8366Z" fill="#00B307"/>
<path fill-rule="evenodd" clip-rule="evenodd" d="M25.5225 59.843C25.6037 59.8651 25.6806 59.8915 25.7319 59.9268C26.5142 59.8959 25.6763 59.8386 25.5225 59.843Z" fill="#00B307"/>
<path fill-rule="evenodd" clip-rule="evenodd" d="M25.0946 60.0105C25.1544 60.1252 25.475 60.1693 25.6588 60.1473C25.6075 60.0635 25.3511 59.9973 25.522 59.9179C25.1459 59.8738 24.9193 59.9179 24.6757 59.9532C24.8809 60.0899 24.4662 60.0811 24.5945 60.1341C24.6885 60.0855 24.9322 60.0988 25.0219 60.1561C25.1117 60.0679 24.9877 60.0414 25.0946 60.0105Z" fill="#00B307"/>
<path fill-rule="evenodd" clip-rule="evenodd" d="M24.1242 59.6622C24.1285 59.7548 24.0088 59.7769 23.9062 59.7901C23.8934 59.7107 23.5984 59.7372 23.5642 59.6666C23.4873 59.6886 23.53 59.7989 23.3462 59.7504C22.1322 59.5563 21.226 59.4372 20.3839 59.1858C19.9608 59.0711 19.5461 58.9564 19.1059 58.8373C18.8878 58.7755 18.6613 58.7138 18.4262 58.6476C18.1954 58.5638 17.956 58.48 17.6995 58.3873C17.6568 58.6344 17.4815 58.2726 17.3447 58.3388C17.4174 58.5726 17.5798 58.5902 17.8876 58.7711C17.9816 58.6785 17.7337 58.6344 17.7294 58.555C17.8192 58.5903 17.8833 58.5902 17.9389 58.5902C17.8021 58.7138 18.2552 58.8152 18.0116 58.8549C18.5117 58.9961 19.0759 59.0711 19.6872 59.2078C19.995 59.274 20.3113 59.3446 20.649 59.424C20.8157 59.4637 20.9867 59.5078 21.1662 59.5519C21.3457 59.5872 21.5253 59.6225 21.7133 59.6622C21.7176 59.596 21.7817 59.5739 21.8672 59.5739C22.0254 59.693 22.0468 59.6401 22.3545 59.6886C22.2605 59.7857 22.2947 59.821 22.4699 59.896C22.487 59.8563 22.4699 59.7901 22.5554 59.7945C22.9188 59.8474 23.4018 59.8695 23.825 59.8519C24.2054 59.8342 24.5346 59.7592 24.7055 59.6886C24.573 59.7151 24.2866 59.6489 24.1242 59.6622Z" fill="#00B307"/>
<path fill-rule="evenodd" clip-rule="evenodd" d="M15.1826 53.5439C15.4263 53.641 15.6956 53.8307 15.4177 53.7822C15.5502 53.888 15.7255 54.0071 15.8324 53.941C16.0076 54.113 16.029 54.3909 16.3026 54.4571C16.2812 54.5188 16.247 54.5585 16.1871 54.5673C16.388 54.6335 16.4906 54.5673 16.6573 54.585C16.7642 54.6512 16.6488 54.7394 16.8454 54.7967C16.9352 54.7306 17.2601 54.8144 17.5636 54.9335C17.5465 54.9511 17.5294 54.9732 17.5251 54.9908C17.5208 55.0393 17.555 55.0879 17.5678 55.1408C17.5977 55.1099 17.6448 55.079 17.6448 55.0482C17.6448 55.0217 17.6405 54.9908 17.6277 54.9644C17.9654 55.1099 18.2518 55.2908 18.1321 55.3658C18.3073 55.4099 18.4826 55.4805 18.6536 55.5554H18.6493C18.6279 55.5599 18.6065 55.5907 18.5852 55.6084C18.5467 55.6437 18.5638 55.6966 18.6365 55.7143C18.7946 55.754 18.9742 55.7054 19.0981 55.8598C19.2435 55.754 19.3674 55.8025 19.517 55.8819C19.6025 55.926 19.6666 55.8819 19.7008 55.7892C19.7137 55.7848 19.7222 55.7848 19.735 55.7804C19.7265 55.776 19.7179 55.7716 19.7094 55.7672C19.7179 55.7363 19.7179 55.7054 19.7222 55.6657C19.8291 55.6878 19.9488 55.7187 19.9659 55.6481C19.8889 55.6304 19.8034 55.6128 19.7222 55.5951C19.7094 55.5157 19.6752 55.4055 19.6324 55.4364C19.5726 55.4805 19.5085 55.5069 19.4444 55.5246C19.3845 55.5113 19.3289 55.4981 19.2691 55.4805C19.034 55.4011 18.7904 55.3128 18.5553 55.2202C18.085 55.0393 17.6319 54.8629 17.2772 54.7306C17.3199 54.6997 17.3712 54.6732 17.4353 54.6688C17.6148 54.7262 17.679 54.9158 17.7901 54.8011C17.6063 54.735 17.5208 54.6512 17.4011 54.5762C17.3071 54.66 17.1361 54.6203 16.9694 54.5541C16.8027 54.4791 16.636 54.3865 16.5248 54.3997C16.6146 54.3909 16.6488 54.3071 16.5932 54.2277C16.3496 54.1439 16.0333 53.9542 15.9007 53.7689C15.9349 53.7248 16.0204 53.7557 16.0589 53.7204C15.6998 53.5528 15.546 53.6189 15.1826 53.5439Z" fill="#00B307"/>
<path fill-rule="evenodd" clip-rule="evenodd" d="M16.7812 56.495C17.1232 56.5347 17.4182 56.57 17.743 56.8126C17.7601 56.7641 17.7388 56.7244 17.7131 56.6847C17.82 56.7244 17.8841 56.7155 17.9226 56.6803C17.525 56.5876 17.3412 56.4862 16.9522 56.4023C17.3711 56.5523 16.8796 56.4994 16.7812 56.495Z" fill="#00B307"/>
<path fill-rule="evenodd" clip-rule="evenodd" d="M16.1606 56.045C16.0537 55.9965 15.9725 55.948 15.9298 55.895C15.8229 55.9656 16.1349 56.2611 16.058 56.12C15.887 56.0141 16.1734 56.1068 16.1606 56.045Z" fill="#00B307"/>
<path fill-rule="evenodd" clip-rule="evenodd" d="M14.7415 56.27C14.5748 56.4773 15.3057 56.645 15.3314 56.8435L15.357 56.7729C15.3955 56.7905 15.434 56.8038 15.434 56.7685C15.2886 56.6759 15.0792 56.592 14.8227 56.4332C14.8398 56.3759 14.8826 56.3185 14.7415 56.27Z" fill="#00B307"/>
<path fill-rule="evenodd" clip-rule="evenodd" d="M12.6215 57.9547C12.6899 57.9636 12.9036 57.9018 12.7669 57.8224C12.5916 57.8753 12.5104 57.743 12.3693 57.7827C12.4805 57.8489 12.5275 57.9018 12.536 57.9592C12.3009 57.8974 12.3138 57.8401 12.0787 57.6989C12.0316 57.7518 12.1128 57.8136 12.0787 57.8709C11.8777 57.6901 11.6726 57.7165 11.5059 57.6548C11.7025 57.7607 11.6683 57.8489 11.8649 57.9592C12.1128 57.9327 12.271 58.0915 12.7284 58.2635C12.7412 58.1885 12.8523 58.2415 12.9122 58.2282C12.7369 58.1356 12.7027 58.043 12.6215 57.9547Z" fill="#00B307"/>
<path fill-rule="evenodd" clip-rule="evenodd" d="M14.3955 50.981C14.5408 51.0162 14.5964 51.2015 14.6434 51.1354C14.4254 50.9854 14.5494 50.9501 14.5366 50.853C14.4212 50.8839 14.3998 50.8486 14.3955 50.981Z" fill="#00B307"/>
<path fill-rule="evenodd" clip-rule="evenodd" d="M44.3564 5.94716C44.6043 6.15448 44.7197 6.09714 44.9035 6.17654C45.0488 6.32652 45.0574 6.45445 45.1429 6.5956C45.2839 6.64413 45.4335 6.77646 45.6045 6.92644C45.767 7.08966 45.9508 7.27052 46.1645 7.41168C45.8909 7.18671 45.908 7.04114 45.8439 6.87351C45.5917 6.77205 45.4977 6.60001 45.2668 6.55149C45.3096 6.49855 45.2668 6.45445 45.1728 6.43239C45.2369 6.36622 45.2882 6.29564 45.1642 6.19418C44.9762 6.18095 44.7026 5.99127 44.5145 5.97362C44.4846 5.88981 44.4803 5.81041 44.4205 5.71777C44.3948 5.76189 44.3478 5.7663 44.3008 5.7663C44.4076 5.84129 44.4162 5.89863 44.3564 5.94716Z" fill="#00B307"/>
<path fill-rule="evenodd" clip-rule="evenodd" d="M18.1617 59.1903C18.0207 59.0844 17.854 58.983 17.6787 58.8903C17.3239 58.7051 16.9136 58.5595 16.5203 58.5462C16.4947 58.855 16.204 58.8771 15.815 58.7977C15.9005 58.6301 15.4645 58.5198 15.426 58.3654C15.3918 58.5286 15.1524 58.3522 15.161 58.4448C15.1439 58.3786 15.0883 58.3125 15.0028 58.2463C14.9558 58.4271 14.5497 58.1581 14.2847 58.0654C14.2377 58.1978 14.3189 58.1978 14.1992 58.2728C14.4642 58.5286 15.1311 58.8727 15.3448 59.0094C16.0373 59.0624 16.7811 59.8961 17.6616 60.1034C18.2515 60.2357 18.6362 59.9711 18.5165 59.4682C18.4268 59.3844 18.3071 59.2917 18.1617 59.1903Z" fill="#00B307"/>
</g>
<path d="M20 23H36C37.1 23 38 23.9 38 25V37C38 38.1 37.1 39 36 39H20C18.9 39 18 38.1 18 37V25C18 23.9 18.9 23 20 23Z" stroke="#00B307" stroke-width="1.5" stroke-linecap="round" stroke-linejoin="round"/>
<path d="M38 25L28 32L18 25" stroke="#00B307" stroke-width="1.5" stroke-linecap="round" stroke-linejoin="round"/>
</svg>
