<svg width="169" height="92" viewBox="0 0 169 92" fill="none" xmlns="http://www.w3.org/2000/svg">
<path d="M167.169 44.5965C168.531 43.6026 168.462 42.3402 167.01 41.4059C165.231 40.2529 163.263 40.2231 161.245 40.5411C159.814 40.7697 158.383 40.9586 156.783 40.7697C157.111 40.4318 157.409 40.0441 157.786 39.7658C159.963 38.1457 162.18 36.5851 164.337 34.9252C164.893 34.4978 165.42 33.8518 165.639 33.2057C165.818 32.6789 165.708 31.8241 165.36 31.4066C164.446 30.3033 163.213 29.5379 161.693 29.7168C159.436 29.9852 157.15 30.1939 154.954 30.7307C149.367 32.1024 143.801 32.7186 138.116 31.4265C136.466 31.0488 134.756 30.9096 133.106 30.5418C130.482 29.9653 127.868 29.8659 125.204 30.2834C124.548 30.3828 123.753 30.2039 123.157 29.8958C120.473 28.5141 117.899 26.894 115.165 25.6515C111.169 23.8326 107.631 21.3178 104.013 18.9124C100.067 16.2884 95.8523 14.211 91.4888 12.392C87.0259 10.5333 82.394 9.34053 77.613 8.78391C71.0528 8.02849 65.0393 5.81193 59.334 2.5219C57.515 1.4683 55.4078 0.88188 53.4 0.186103C52.734 -0.0425092 51.9389 -0.0226444 51.2232 0.0469333C48.6588 0.315304 47.8636 1.72674 49.0166 3.99298C49.5434 5.03665 50.1696 6.0505 50.8455 7.01465C52.4358 9.32065 54.0858 11.5769 55.706 13.8631C57.4852 16.3579 59.7117 18.3856 62.1966 20.1251C63.439 20.9898 64.2342 22.1031 65.0493 23.3753C67.1764 26.725 69.5719 29.9057 71.8679 33.146C72.1661 33.5635 72.5239 33.9312 73.0905 34.6071C71.848 34.9352 70.8242 35.2135 69.7905 35.4818C65.924 36.5056 62.0078 37.0026 58.0021 37.0523C49.2552 37.1617 40.6275 38.3345 32.3577 41.1773C27.5668 42.8273 22.9945 45.1432 18.4124 47.3598C13.8898 49.5564 9.33743 51.6139 4.41729 52.7669C3.36369 53.0154 2.29021 53.4726 1.3857 54.0591C-0.56247 55.3314 -0.423293 57.0311 1.59446 58.1443C3.06553 58.9594 4.63598 59.1084 6.2959 59.1283C8.42299 59.1482 10.5501 59.3569 12.6673 59.506C13.6215 59.5756 14.5757 59.834 15.5199 59.8241C20.1419 59.7545 24.5948 60.6292 29.0379 61.8021C31.7216 62.5078 34.5047 62.796 37.6555 63.3427C34.4053 65.1617 31.4532 66.8216 28.4912 68.4617C24.2668 70.7975 20.619 73.8987 17.0506 77.0992C16.1859 77.8745 15.4305 78.8188 14.7844 79.8028C13.2935 82.0591 13.7904 84.7031 16.0567 86.1841C23.1635 90.8557 31.0059 92.8139 39.4248 91.6907C45.8657 90.8359 52.0979 88.9871 58.1014 86.4525C66.6893 82.8245 75.5953 80.2402 84.7994 78.7492C88.6461 78.123 92.5722 77.9938 96.399 77.2782C102.253 76.1749 108.078 74.833 113.863 73.4017C116.209 72.8252 118.465 71.8312 120.682 70.8571C126.963 68.1038 133.225 65.3108 139.438 62.4183C141.296 61.5536 143.016 60.3807 144.736 59.2377C145.958 58.4226 147.171 58.0449 148.672 58.2636C150.779 58.5717 152.926 58.8898 154.954 57.8262C155.212 57.697 155.451 57.538 155.649 57.4187C156.146 55.8383 154.854 55.1127 154.158 54.0492C157.011 51.276 160.082 48.9302 163.472 46.9721C164.744 46.2564 165.987 45.4613 167.169 44.5965ZM126.735 31.8837C128.266 32.0228 129.796 32.0725 131.307 32.3111C134.369 32.7882 137.4 33.3846 140.452 33.9114C143.453 34.4183 146.465 34.5276 149.457 33.9014C152.697 33.2255 155.928 32.4701 159.168 31.8042C160.649 31.4961 162.15 31.4066 163.591 32.2316C161.474 33.7424 159.526 35.1141 157.598 36.5056C155.928 37.7083 154.278 38.9508 152.588 40.1137C152.25 40.3523 151.733 40.3324 151.027 40.4914C152.648 38.2351 155.043 37.1219 156.017 34.7165C154.904 34.955 153.88 35.3129 153.005 35.8795C151.833 36.6448 150.769 37.5692 149.676 38.4339C148.364 39.4776 146.883 40.0442 145.193 40.0541C141.535 40.074 137.847 39.8056 134.428 41.0083C131.744 38.0065 129.2 35.1638 126.665 32.331C126.695 32.1918 126.715 32.0427 126.735 31.8837ZM29.9622 59.4961C25.5192 58.2934 21.0364 57.5976 16.4244 57.707C15.4006 57.7268 14.3471 57.6672 13.3432 57.4684C11.0073 56.9913 8.67149 56.9118 6.30585 57.1603C4.9143 57.3093 3.53272 57.21 1.80321 56.1166C3.31404 55.5699 4.38751 55.0829 5.51069 54.8046C9.74499 53.741 13.7805 52.1805 17.6967 50.2423C21.6527 48.2742 25.6584 46.3857 29.7138 44.6164C31.9303 43.6423 34.2363 42.7676 36.5821 42.211C43.9772 40.4716 51.432 39.1198 59.0756 39.1893C60.5466 39.1993 62.0376 39.1198 63.4689 38.8514C66.4309 38.3047 69.383 37.6785 72.3152 36.9529C73.9453 36.5454 75.2076 36.6945 76.5694 37.8475C78.5275 39.5074 80.744 40.8691 82.8512 42.3502C85.6244 44.2983 88.3976 46.2366 91.1608 48.2046C91.618 48.5227 91.9957 48.9401 92.6021 49.4868C89.0635 50.2224 85.7735 50.9082 82.4835 51.5841C82.1952 51.6437 81.897 51.6636 81.6088 51.6736C80.3763 51.7332 79.1338 51.763 77.9013 51.8227C77.0962 51.8624 76.2811 52.0413 75.4959 51.9618C70.2974 51.445 65.0692 51.0772 59.9204 50.282C53.0919 49.2185 46.3031 48.9203 39.4745 50.1329C36.7908 50.61 34.0972 51.1667 31.3936 51.2859C24.068 51.5841 16.8916 52.6874 9.87422 54.7946C9.53627 54.894 9.22811 55.0928 8.91004 55.2419C9.9537 55.5401 10.898 55.5103 11.8323 55.5003C12.7169 55.4904 13.6016 55.4109 14.4763 55.5202C18.1241 55.9973 21.7621 56.5738 25.4099 57.041C30.0816 57.6374 34.7532 58.2934 39.4944 57.6075C40.9456 57.3988 42.4465 57.4087 43.9076 57.538C46.0347 57.7268 48.1419 58.1244 50.2491 58.4325C50.2491 58.6413 50.2492 58.8401 50.2591 59.0488C48.3308 59.3868 46.4124 59.9434 44.4742 60.003C43.0528 60.0527 41.6116 59.4464 40.1803 59.1482C39.6038 59.0289 38.9676 58.5121 38.4309 59.2575C38.739 59.7048 38.9974 60.0825 39.3652 60.6193C36.0354 60.6193 32.9541 60.3012 29.9622 59.4961ZM73.7664 54.566C73.2893 54.725 72.8221 54.9537 72.3351 55.0232C69.7209 55.4208 67.0969 55.8085 64.4828 56.1564C62.2861 56.4446 61.5903 55.5798 62.0674 53.0949C65.914 53.4826 69.7706 53.8802 73.6372 54.2778C73.667 54.3772 73.7167 54.4766 73.7664 54.566ZM60.3975 56.9416C56.5906 56.6235 52.8732 56.375 49.1756 55.9774C48.0226 55.8582 46.9889 54.0889 47.1778 52.916C47.307 52.1407 47.625 51.5245 48.5892 51.5642C52.4756 51.7133 56.3521 51.8326 60.1292 52.757C60.2186 54.0591 60.2882 55.2817 60.3975 56.9416ZM45.3389 55.1028C41.9595 55.3612 38.739 55.6196 35.5186 55.8482C33.6499 55.9775 33.3219 55.5103 33.7692 53.4329C37.4767 52.8564 41.1742 51.9519 44.9811 51.8426C45.1103 53.0154 45.2197 54.0293 45.3389 55.1028ZM31.2643 55.7886C27.855 55.4705 24.6246 55.1624 21.3843 54.8642C24.7042 53.7907 28.69 53.5025 31.2047 53.9299C31.2146 54.4666 31.2345 55.0232 31.2643 55.7886ZM138.543 60.5398C131.476 63.7105 124.399 66.8415 117.322 69.9824C116.914 70.1614 116.497 70.3005 116.07 70.4297C106.895 73.2625 97.5222 75.2405 87.9801 76.1649C79.6208 76.98 71.6095 79.107 63.7373 81.8305C57.4753 83.9974 51.4618 86.8103 44.9513 88.3112C39.7031 89.5238 34.5445 90.0009 29.1969 89.1064C25.0422 88.4106 21.3247 86.7109 17.5874 84.9715C16.6729 84.544 15.7585 84.0172 15.4801 82.9537C17.3886 79.3754 18.7006 78.3019 24.3464 74.0676C31.7017 68.5511 39.892 64.5057 48.6986 61.7524C54.4934 59.9434 60.4572 58.9693 66.4607 58.3332C71.4306 57.8064 76.0923 56.3154 80.7838 54.7549C84.3322 53.572 88.0298 52.8365 91.6379 51.7928C94.1725 51.0573 96.3592 51.4947 98.4366 53.1049C99.2915 53.7708 100.395 54.1088 101.379 54.6157C101.776 54.8145 102.154 55.063 102.542 55.2817C98.3969 55.9774 94.3713 56.375 90.3358 56.5937C85.6542 56.8521 81.1516 57.7666 76.7781 59.4762C72.8023 61.0268 68.7767 62.4879 64.7809 64.0087C64.3535 64.1677 63.9559 64.4361 63.1111 64.8834C65.3574 65.3506 67.0869 65.3704 68.7766 64.784C70.5161 64.1777 72.2555 63.5515 73.9353 62.8159C79.6009 60.3509 85.4256 58.7208 91.6677 58.6313C96.3891 58.5717 101.061 57.8461 105.643 56.6832C107.641 56.1762 109.35 56.7825 111.468 57.9355C110.563 58.2536 110.165 58.4624 109.738 58.522C106.309 58.9892 102.89 59.5458 99.4406 59.844C91.2602 60.5497 83.1693 61.6729 75.4661 64.6349C69.3631 66.9807 63.0614 68.2629 56.5608 68.8791C49.5832 69.5451 42.695 70.7279 36.2541 73.7098C35.7969 73.9186 35.2701 74.0179 34.7631 74.1074C29.684 75.0616 25.1614 77.4074 20.6587 79.7631C19.7244 80.2501 18.9193 81.1347 18.2931 82.0094C17.5576 83.0233 17.975 83.9974 19.1678 84.4645C19.6449 84.6534 20.1717 84.7031 20.6687 84.8124C26.7021 86.0648 32.7056 85.7666 38.6396 84.3154C43.0727 83.232 47.4262 81.8405 51.8196 80.608C55.368 79.614 58.8668 78.3914 62.4749 77.7453C67.0173 76.9402 71.5598 76.145 76.2513 76.0456C84.531 75.8568 92.5325 73.5309 100.574 71.7119C107.889 70.062 114.559 66.7123 121.258 63.4322C124.29 61.9512 127.451 60.5596 130.701 59.7843C134.16 58.9494 137.808 58.8798 141.366 58.4822C141.426 58.6313 141.475 58.7804 141.535 58.9196C140.551 59.4563 139.577 60.0726 138.543 60.5398ZM84.4018 72.8848C82.9606 73.1234 81.8871 73.3719 80.7937 73.4613C77.2055 73.7595 73.6173 74.018 70.0291 74.2366C69.5619 74.2664 68.9457 74.1173 68.6276 73.8092C67.5143 72.7258 66.5601 71.5132 66.8186 69.8532C71.8182 68.2132 76.7185 66.6129 81.8772 64.9231C81.3106 68.1138 82.5829 70.3999 84.4018 72.8848ZM84.6205 64.2274C88.8448 63.3726 93.1488 62.647 97.7806 62.2593C96.9755 65.2412 98.6056 67.2192 100.186 69.565C96.1406 70.4595 92.4232 71.2845 88.7057 72.0897C87.3838 72.3779 86.4395 71.5529 85.6046 70.7577C83.8353 69.0779 83.5072 66.7023 84.6205 64.2274ZM100.295 62.1202C100.862 62.0605 101.448 62.0307 102.025 61.9412C105.792 61.3448 109.668 61.1659 113.197 59.6253C114.569 59.0289 115.414 59.2774 116.258 60.2316C116.835 60.8777 117.322 61.5933 117.889 62.3189C117.571 62.6966 117.501 62.8557 117.382 62.9054C113.058 64.7144 108.724 66.5234 104.381 68.3126C104.053 68.4517 103.655 68.5312 103.307 68.4815C100.852 68.1535 99.1225 64.5057 100.295 62.1202ZM66.3017 74.6143C61.8984 75.6679 57.4952 76.7116 53.0422 77.7751C51.76 76.7414 50.5374 75.5984 50.5871 73.6701C50.6169 72.2586 50.8853 71.7915 52.2967 71.6125C56.5111 71.0957 60.7256 70.6583 64.7909 70.211C65.3376 71.7716 65.8345 73.2426 66.3017 74.6143ZM50.3088 78.7989C47.4362 79.6637 44.4145 80.5483 41.4128 81.4926C39.9218 81.9597 38.8185 81.4329 38.0233 80.2402C37.5363 79.5146 37.1387 78.6995 36.8902 77.8745C36.4827 76.4929 37.0294 75.2902 38.4209 74.8926C41.7209 73.9484 45.0705 73.1731 48.1021 72.4077C48.8576 74.6143 49.5335 76.5724 50.3088 78.7989ZM36.5722 82.6058C34.2761 82.8444 32.0197 83.1028 29.7634 83.3115C29.1074 83.3711 28.4315 83.3911 27.7755 83.3314C26.9108 83.2519 25.6882 82.0492 25.5391 81.1546C25.4198 80.3893 25.5192 79.604 26.3144 79.2561C28.9782 78.1031 31.5526 76.642 34.2264 76.3736C35.0315 78.4809 35.7372 80.3694 36.5722 82.6058ZM25.0223 83.401C23.3425 82.7947 21.9012 83.1823 20.5196 82.1784C21.7819 81.5025 22.8455 80.9359 23.9786 80.3296C24.3364 81.3633 24.5849 82.1188 25.0223 83.401ZM118.574 59.7347C119.499 59.834 120.075 59.8638 120.632 59.9533C121.159 60.0328 121.666 60.172 122.481 60.341C121.377 60.8578 120.612 61.2256 119.658 61.6729C119.32 61.0765 119.012 60.5199 118.574 59.7347ZM152.598 56.385C150.968 56.2359 149.328 56.0768 147.698 55.9277C147.688 55.9277 147.668 55.9277 147.658 55.9277C147.529 55.9377 147.409 55.9476 147.28 55.9675C142.37 56.3552 137.42 56.4943 132.56 57.2C126.725 58.0548 120.98 58.3431 115.255 56.7229C112.143 55.8383 109.072 54.8344 105.961 53.9299C101.21 52.5482 97.1246 49.9639 93.2084 47.0119C90.0972 44.6661 86.9364 42.3303 83.6265 40.2827C77.3347 36.3864 72.4146 31.2177 68.2797 24.7371C70.357 26.0193 71.4604 28.0768 73.7564 28.6135C74.0049 27.0629 73.0905 26.0889 72.1959 25.3136C69.8601 23.2958 67.4547 21.3476 64.9698 19.5187C62.3457 17.5904 59.7912 15.6423 57.7237 13.0779C55.7457 10.6128 53.6684 8.23724 51.6407 5.81196C50.766 4.75835 49.8217 3.7246 49.8018 2.27341C50.8952 1.47824 51.9587 1.6671 52.8931 2.03487C54.8114 2.7704 56.7596 3.50595 58.5288 4.52973C64.0752 7.73031 69.8701 10.1556 76.2811 10.9706C82.9208 11.8155 89.2623 13.6842 95.2261 16.7456C96.9855 17.6501 98.6752 18.6838 100.325 19.7672C104.818 22.7094 109.072 26.059 114.082 28.1663C120.692 30.9394 126.129 35.1737 130.572 40.7896C134.249 45.4414 138.941 48.8109 144.418 51.1169C146.445 51.9718 148.374 53.0751 150.312 54.1485C151.177 54.6256 151.942 55.2916 152.757 55.8681C152.707 56.0371 152.648 56.216 152.598 56.385ZM147.737 50.1031C148.93 49.6658 149.974 49.2781 151.216 48.8209C149.636 50.8883 149.397 50.9778 147.737 50.1031ZM153.761 51.2561C153.125 51.7332 152.588 52.5284 151.246 52.1407C151.922 51.445 152.429 50.9579 152.886 50.4411C153.622 49.6161 154.496 48.8706 154.993 47.9164C155.461 47.0218 156.047 46.6043 156.971 46.4056C157.836 46.2266 158.681 45.9682 159.526 45.6998C160.44 45.4116 161.365 45.1035 161.981 43.5727C160.729 43.7119 159.804 43.7218 158.919 43.9206C155.53 44.686 152.339 45.9881 149.109 47.2504C146.465 48.2841 143.553 48.811 140.859 47.1212C139.617 46.336 138.434 45.4414 137.291 44.5269C136.754 44.0995 136.376 43.4932 135.641 42.6484C136.853 42.4893 137.629 42.2806 138.404 42.3005C142.817 42.3899 147.23 42.4297 151.624 42.6881C155.063 42.8869 158.482 43.5429 161.931 42.6384C163.054 42.3502 164.307 42.2508 165.768 42.9465C163.919 44.03 162.269 44.855 160.778 45.9086C158.383 47.6182 156.107 49.4769 153.761 51.2561Z" fill="currentColor"/>
<path d="M148.274 55.252C147.966 54.8544 147.628 54.4071 147.191 54.1885C145.431 53.274 143.712 52.1608 141.823 51.634C138.424 50.6698 134.955 49.8846 131.466 49.3777C127.013 48.7316 122.928 47.2406 119.002 45.0937C116.229 43.5729 113.366 42.2112 110.483 40.8991C107.233 39.4281 104.202 37.6389 101.647 35.1242C94.9875 28.564 87.1253 23.8427 78.6467 20.0855C75.5058 18.6939 72.6929 16.8352 70.1384 14.5888C65.7252 10.7124 60.9044 7.52172 55.4475 5.29524C54.5231 4.91753 53.6485 4.4305 52.4756 3.854C52.6346 4.40069 52.6446 4.69885 52.7837 4.88771C53.8174 6.21962 54.9306 7.50184 55.9147 8.86357C57.0876 10.4937 58.5785 11.756 60.0893 13.0681C63.9857 16.4376 67.7031 20.0159 71.52 23.4749C74.4124 26.099 77.2551 28.7727 80.2768 31.2378C85.9225 35.8498 91.6378 40.3823 97.4227 44.8352C100.683 47.35 103.973 49.9045 107.541 51.9322C112.74 54.8843 118.435 56.4348 124.498 56.0373C129.488 55.7093 134.468 55.2321 139.448 54.8942C141.127 54.7749 142.827 54.7351 144.487 54.9041C145.441 55.0035 146.346 55.6098 147.27 55.9776C147.399 55.9577 147.519 55.9478 147.648 55.9379C147.658 55.9379 147.678 55.9379 147.688 55.9379C147.896 55.6894 148.314 55.3017 148.274 55.252ZM67.8423 16.7855C64.7411 14.3205 61.6499 11.8455 58.5587 9.37051C62.1568 11.2292 65.6258 13.237 68.3194 16.3481C68.0411 16.5966 67.8622 16.7954 67.8423 16.7855ZM76.2413 25.1149C74.0049 22.8686 71.8977 20.7713 69.8302 18.6343C69.7109 18.515 69.8998 18.0975 69.9594 17.7C72.5338 19.2704 75.0187 20.7812 77.5334 22.3119C77.1657 23.1071 76.7681 23.9619 76.2413 25.1149ZM79.8097 28.2459C78.5175 27.3215 78.4082 26.0692 78.6467 24.7273C78.8754 23.4351 79.7103 22.9879 80.8832 23.5942C83.2886 24.8366 85.6244 26.1984 87.8906 27.4607C86.8171 29.2896 85.9524 30.7607 85.0777 32.2417C83.3283 30.9098 81.6087 29.5281 79.8097 28.2459ZM96.2499 40.9886C93.7351 39.0901 90.9123 37.142 88.318 34.9155C86.668 33.504 87.8608 29.876 89.9978 29.3095C90.3159 29.23 90.7731 29.2498 91.0216 29.4287C93.8345 31.3968 96.6872 33.3152 98.7746 35.641C97.88 37.5395 97.0848 39.2094 96.2499 40.9886ZM110.185 50.7891C106.478 48.8509 103.029 46.6542 99.8779 44.0301C98.5559 42.9268 98.526 39.8356 99.6592 38.5235C100.256 37.8278 100.872 37.6091 101.737 38.2552C103.267 39.3883 104.848 40.4618 106.478 41.4458C107.78 42.231 109.191 42.8374 110.593 43.5431C109.897 45.9385 109.012 48.2644 110.185 50.7891ZM124.3 53.7611C121.387 53.9996 118.564 53.7312 115.791 52.8267C112.014 51.5843 110.374 47.509 112.422 44.0599C114.867 45.3919 117.272 46.8232 119.787 48.0259C122.292 49.2286 124.906 50.1927 127.629 51.3358C127.063 52.9361 125.979 53.6219 124.3 53.7611ZM129.071 53.1547C129.25 52.449 129.369 51.9719 129.488 51.5047C132.062 51.5644 133.245 51.8029 134.955 52.6577C132.878 52.8367 131.049 52.9858 129.071 53.1547Z" fill="currentColor"/>
<path d="M125.016 37.9072C125.165 40.1735 125.652 42.0223 126.248 43.9506C127.709 43.5629 127.779 42.6286 127.65 41.6744C127.441 40.1635 127.123 38.6825 125.016 37.9072Z" fill="currentColor"/>
<path d="M121.755 36.8833C122.242 38.4041 122.55 39.398 122.908 40.5113C124.17 39.0899 123.922 38.1854 121.755 36.8833Z" fill="currentColor"/>
</svg>
