<svg width="141" height="287" viewBox="0 0 141 287" fill="none" xmlns="http://www.w3.org/2000/svg">
<path d="M54.4674 213.496C51.6459 214.764 48.9921 216.463 46.45 218.246C40.7791 222.202 38.4046 228.679 40.3741 235.24C41.0864 237.608 40.8071 239.21 38.7539 240.547C36.9102 241.745 35.9603 243.584 35.4575 245.646C34.6474 248.989 35.681 251.482 38.6002 253.349C39.1589 253.697 39.7595 253.989 40.3042 254.282C40.2065 254.644 40.2204 254.95 40.0808 255.048C36.3654 257.583 35.1782 261.093 35.3318 265.495C35.4156 267.696 34.4798 269.952 33.9769 272.167C33.3484 274.953 32.3009 277.711 32.1612 280.511C31.9656 284.383 34.1026 286.347 37.9856 286.905C40.9328 287.336 43.4609 286.25 45.7935 284.718C47.1344 283.84 48.3216 282.712 49.4809 281.597C51.4783 279.661 53.6572 278.951 56.4088 279.94C66.661 283.631 73.4772 276.29 74.4689 268.49C74.6784 266.888 74.6923 265.258 74.9996 263.684C75.3069 262.124 75.5444 260.397 76.4104 259.143C78.9804 255.41 79.8464 251.649 76.9272 246.76C78.6452 247.498 79.4972 247.86 80.3492 248.222C85.4195 250.382 90.2662 247.526 90.3779 242.052C90.4338 239.447 89.917 236.773 89.3024 234.223C88.5342 231.006 88.3945 227.913 89.3862 224.71C90.5735 220.907 89.917 217.188 88.2549 213.636C87.1514 211.282 85.5451 209.387 83.1288 208.245C82.0952 207.758 81.0895 207.145 80.1676 206.476C78.4357 205.236 77.4859 203.481 77.9747 201.392C79.1899 196.182 78.2541 191.363 75.4606 186.64C79.0083 187.226 82.3186 187.783 85.2518 188.27C86.1318 190.847 86.6067 193.633 87.9755 195.89C90.8249 200.584 95.4621 200.681 98.5629 196.14C99.8619 194.232 100.49 191.753 101.007 189.44C101.468 187.337 102.139 186.069 104.499 185.498C108.55 184.523 110.687 182.378 113.299 177.879C120.995 177.545 125.059 170.218 122.126 163.545C125.017 163.016 127.797 162.487 130.604 162.027C131.736 161.832 132.909 161.888 134.054 161.693C139.963 160.676 142.882 154.7 139.683 149.63C136.68 144.88 132.923 140.827 126.498 140.464C129.585 134.976 130.144 129.14 130.8 123.359C131.345 118.526 129.529 114.291 126.386 110.669C122.364 106.059 115.547 106.881 112.936 112.438C111.637 115.21 111.022 118.289 109.974 121.632C109.569 120.796 109.29 120.155 108.969 119.542C108.159 118.024 107.558 116.311 106.469 115.043C104.443 112.675 103.368 110.14 102.977 107.02C102.53 103.329 99.5127 102.242 96.3141 104.262C93.786 105.85 92.473 108.19 92.3194 111.143C92.1518 114.263 93.1714 117.035 95.1129 119.459C95.8253 120.35 96.5795 121.2 97.7668 122.579C94.2749 123.234 91.23 123.819 87.4168 124.529C87.5425 123.791 87.8358 123.094 87.738 122.454C87.2212 118.93 84.8887 116.729 81.3409 117.077C78.1843 117.383 75.9774 116.478 74.3013 113.887C73.0442 111.951 71.0189 111.087 68.9237 110.321C66.9124 109.583 64.943 108.691 62.9456 107.856C63.0713 106.992 63.0434 106.504 63.211 106.128C70.0132 91.1821 66.3258 78.172 55.9619 66.318C52.7633 62.6546 48.7826 60.0916 44.3688 58.4061C36.9101 55.5506 29.6331 56.7067 22.6912 60.4119C21.8811 60.8438 21.1128 61.3452 20.3167 61.7909C20.2329 61.8467 20.0932 61.7909 19.7859 61.7909C16.2242 56.8042 16.6432 51.3857 19.0037 46.1761C20.596 42.6519 23.0404 39.4899 25.2053 36.2304C26.225 34.6982 27.51 33.347 28.6134 31.8705C32.5662 26.6191 34.5496 20.7688 34.0328 14.1244C33.6697 9.4302 33.2367 4.70815 35.9045 0.306445C35.695 0.208939 35.4854 0.0975014 35.2759 -4.62135e-06C35.0105 0.222866 34.7033 0.403922 34.4938 0.668581C34.2004 1.03075 33.963 1.42077 33.7535 1.83865C31.9098 5.55781 30.1079 9.31879 29.647 13.4976C28.9626 19.5987 25.764 24.4879 22.2721 29.2239C19.3389 33.2077 16.0845 36.9408 13.277 40.9943C9.18454 46.9282 7.73193 53.5586 8.97505 60.7044C9.31027 62.6267 9.57565 64.5768 9.98071 66.4852C10.2461 67.7667 9.841 68.6024 8.90518 69.4939C0.692257 77.2526 -1.06765 87.0032 0.538631 97.6453C1.15319 101.727 3.17849 105.306 5.90216 108.329C10.6372 113.595 16.0706 117.996 22.6493 120.88C28.6833 123.526 34.9268 123.805 41.3239 122.816C42.0083 122.704 42.6648 122.565 43.3911 122.426C45.2348 126.925 47.1484 131.313 48.7965 135.812C49.453 137.609 49.5648 139.629 49.7882 141.565C49.9698 143.083 49.4949 144.281 48.3915 145.576C47.0227 147.192 46.1148 149.296 45.4723 151.343C45.1091 152.513 45.2767 154.227 45.9053 155.271C47.0646 157.194 46.7712 158.726 45.598 160.342C44.2431 162.194 43.3213 164.117 44.8158 166.262C44.4107 166.526 44.2291 166.735 44.0336 166.763C35.7927 167.71 31.0717 176.388 34.6334 183.994C35.2061 185.22 35.9045 186.585 35.8905 187.866C35.8626 190.262 36.5889 192.143 38.6701 193.744C37.9158 194.413 37.2593 194.984 36.6168 195.569C35.8486 196.266 35.0105 196.906 34.3541 197.7C32.4684 199.985 31.7003 202.59 32.9015 205.417C34.1027 208.245 36.7146 208.997 39.4522 209.039C40.9049 209.067 42.4413 208.691 43.8241 208.189C45.6678 207.521 47.316 207.451 49.1737 208.217C52.6236 209.638 56.1015 209.861 59.8588 207.172C58.3503 210.139 57.1771 212.285 54.4674 213.496ZM133.202 148.822C135.759 149.212 137.044 150.591 137.183 153.168C137.309 155.592 135.982 157.389 133.524 157.82C131.931 158.099 130.283 158.043 128.705 158.35C124.459 159.172 121.665 156.79 118.872 154.171C121.414 153.516 123.886 152.931 126.358 152.959C128.928 153.001 131.484 153.628 134.264 154.032C132.546 151.678 129.948 151.733 127.294 150.856C129.152 148.961 131.024 148.488 133.202 148.822ZM98.954 118.999C96.9147 116.993 95.49 114.709 95.1688 111.867C94.8196 108.803 96.5935 106.713 99.7082 106.407C99.8479 106.699 100.113 106.992 100.127 107.312C100.309 111.073 102.083 113.998 104.667 116.645C105.812 117.829 106.622 119.487 107.167 121.075C108.187 124 107.195 126.605 104.332 128.708C103.815 124.487 101.594 121.604 98.954 118.999ZM96.4119 131.898C94.1911 132.176 91.8585 131.898 89.6237 131.536C87.8498 131.257 87.4727 130.003 88.4364 128.471C89.4421 126.869 91.0484 126.437 92.8222 126.201C94.9174 125.922 96.9985 125.462 99.5406 125.003C101.915 128.569 100.896 131.327 96.4119 131.898ZM68.6723 113.79C69.7897 114.291 71.0329 115.001 71.6893 115.963C74.0219 119.333 76.983 120.838 81.1314 120.378C83.4919 120.113 84.4976 121.353 84.3719 123.749C84.33 124.654 84.0227 125.56 83.883 126.465C83.3104 130.226 84.6931 132.525 88.3666 133.402C90.7131 133.959 93.1574 134.099 95.5459 134.419C103.424 135.478 112.712 128.499 113.871 120.768C114.193 118.637 114.835 116.478 115.729 114.5C117.475 110.6 121.19 110.168 124.012 113.344C127.476 117.258 128.328 123.624 126.023 128.262C124.892 130.519 123.635 131.591 121.162 132.371C123.397 124.278 122.992 119.166 119.766 116.171C118.914 117.578 119.682 118.874 119.989 120.127C120.841 123.582 120.869 126.981 119.584 130.31C118.928 132.009 117.866 132.97 115.855 133.388C113.69 133.834 111.497 134.907 109.723 136.23C107.963 137.539 106.706 139.517 105.142 141.3C107.251 142.303 108.857 141.286 110.212 139.81C112.028 137.832 114.234 136.829 116.86 136.522C119.542 136.216 122.21 135.812 125.185 135.408C124.696 136.272 124.333 137.358 123.621 138.138C117.894 144.351 110.421 146.649 101.985 142.93C101.259 142.61 100.504 142.345 99.7641 142.052C99.6105 142.317 99.4708 142.568 99.3172 142.832C100.504 143.821 101.552 145.131 102.921 145.744C108.075 148.07 113.396 148.725 118.564 145.841C121.204 144.379 123.97 143.947 126.861 143.905C129.082 143.877 131.024 144.56 132.714 146.802C129.333 146.677 126.763 147.777 124.948 149.95C123.998 151.093 123.034 151.469 121.777 151.608C116.972 152.151 112.349 151.496 107.935 149.449C106.888 148.961 105.896 148.126 103.982 148.808C105.323 149.755 106.147 150.591 107.153 150.981C109.29 151.803 111.511 152.402 113.704 153.084C114.57 153.349 115.631 153.377 116.274 153.92C118.355 155.634 120.268 157.542 122.406 159.506C119.221 160.523 115.994 160.244 113.522 158.406C109.304 155.257 105.309 151.719 101.608 147.986C99.5407 145.897 98.2836 143.041 96.5236 140.618C95.7973 139.601 95.0291 138.277 92.92 138.849C95.3644 142.512 98.0461 145.799 99.2892 149.881C94.0793 150.898 92.7664 151.789 92.2217 155.007C93.3391 154.422 94.1771 153.864 95.099 153.544C96.5935 153.015 98.1299 152.402 99.6803 152.277C101.929 152.095 103.535 153.795 103.549 156.093C103.563 157.57 103.41 159.06 103.326 160.69C101.622 161.359 100.029 161.985 98.4372 162.626C95.5459 163.768 92.5429 164.716 89.8053 166.136C88.3666 166.875 87.2492 168.365 86.2296 169.688C85.7407 170.329 85.6708 171.443 87.0816 171.973C90.4757 166.234 97.0544 166.304 102.348 163.671C101.315 165.969 100.002 167.947 98.6328 169.897C96.9846 172.237 94.9732 174.396 93.6742 176.918C91.0623 182.002 90.7271 187.365 93.0038 192.839C94.0235 190.081 93.8139 187.128 94.3726 184.3C94.9872 181.194 96.0767 178.311 97.9763 175.789C99.7362 173.435 101.664 171.221 103.633 168.797C105.938 171.68 104.387 174.926 105.966 177.545C106.524 176.639 107.013 175.692 106.916 174.8C106.664 172.53 106.161 170.301 105.756 168.059C105.603 167.195 105.225 166.262 105.393 165.454C105.854 163.128 106.538 160.843 107.041 158.935C110.212 160.356 113.452 161.762 116.623 163.295C117.391 163.671 118.062 164.395 118.578 165.092C120.045 167.07 120.073 169.145 118.704 171.193C117.349 173.24 115.715 174.773 112.963 173.798C111.357 173.226 110.072 173.658 109.835 175.399C109.248 179.843 106.147 181.542 102.362 182.434C100.029 182.977 98.7585 184.356 98.2277 186.543C97.9064 187.88 97.7947 189.287 97.3617 190.582C96.9008 191.975 96.3281 193.396 95.504 194.594C94.5402 195.973 93.0038 196.823 91.2858 196.294C89.6237 195.792 89.3024 194.162 89.1348 192.644C89.0231 191.613 89.0091 190.569 89.0929 189.538C89.3164 186.905 89.6656 184.272 89.8891 181.64C89.9868 180.386 90.0706 179.091 89.8891 177.851C89.5259 175.469 88.1571 174.55 85.7547 174.842C85.182 174.912 84.6093 175.163 84.0506 175.135C81.6063 175.009 80.042 173.463 78.8687 171.555C77.6954 169.647 78.9944 168.323 80.2934 167.097C82.2907 165.203 83.045 163.016 82.4025 160.23C81.5923 156.762 81.9834 156.386 85.4474 154.853C86.4391 154.422 87.766 153.683 88.0034 152.82C88.4504 151.19 89.6237 150.772 90.8109 150.09C93.4787 148.543 94.7358 146.106 93.5066 143.78C92.3613 141.607 90.5735 139.726 88.8834 137.887C88.3945 137.358 87.2911 137.386 86.467 137.149C86.3133 137.33 86.1597 137.511 86.0061 137.679C87.0676 139.615 88.1291 141.565 89.4561 143.975C85.9223 143.083 82.7237 142.568 79.7626 141.439C74.6365 139.489 71.7592 133.667 73.0582 128.374C74.1756 130.31 74.3711 132.887 77.2624 133.653C75.9355 129.293 75.1673 125.072 72.1363 121.883C69.5244 119.138 66.7448 116.548 64.0491 113.859C63.3228 113.135 62.1216 112.759 61.8841 111.226C64.3843 112.174 66.5772 112.856 68.6723 113.79ZM79.1061 154.784C78.7709 155.494 78.4496 156.191 78.0446 157.04C76.7037 156.469 75.7818 155.996 74.8041 155.689C73.7146 155.341 72.5553 155.23 71.4798 154.853C69.1472 154.06 68.8819 153.474 69.4126 150.814C72.9185 151.441 76.8154 151.093 79.1061 154.784ZM78.7569 150.494C77.4998 149.087 76.0612 148.418 74.2454 148.348C68.7841 148.126 69.5383 146.579 69.0774 143.153C68.7701 140.799 68.1835 138.723 66.9823 136.689C66.4236 135.742 65.9627 134.503 66.0744 133.444C66.6052 128.248 64.2586 124.376 60.7947 120.866C59.5096 119.57 58.4202 118.052 57.4145 116.52C56.5066 115.141 57.0793 114.138 58.4062 113.748C60.1382 115.141 61.7025 116.506 63.3507 117.732C67.3734 120.726 68.9796 124.724 69.0215 129.697C69.1333 139.824 75.2092 145.618 85.4055 145.66C86.6905 145.66 87.9895 145.799 89.2745 145.883C88.5063 146.956 87.6543 147.234 86.9419 147.722C86.1318 148.279 85.2239 148.906 84.763 149.727C83.0031 152.764 81.0895 153.126 78.7569 150.494ZM10.5673 108.677C6.85195 104.833 4.49145 100.334 3.72323 95.0127C2.75947 88.2429 4.74287 82.0165 7.39671 75.9711C7.99731 74.606 9.29631 73.5474 10.6372 71.9037C11.0702 73.631 11.3495 74.6896 11.6149 75.7482C11.9222 75.7343 12.2295 75.7343 12.5368 75.7204C12.4809 73.7145 12.5647 71.6809 12.3552 69.689C11.992 66.3737 11.4613 63.0725 10.9724 59.7712C10.3997 55.9267 10.8746 52.2353 12.1317 48.558C13.738 43.8777 16.5035 39.9356 19.744 36.314C23.0683 32.5948 26.0294 28.6807 28.2642 24.2093C28.7531 23.2343 29.3956 22.3428 29.9683 21.4095C29.8007 25.1008 27.8452 27.9145 25.8478 30.7004C23.2359 34.3499 20.5541 37.9577 18.026 41.6629C15.4141 45.4935 14.2548 49.7838 14.4643 54.4084C14.7297 60.3423 18.3612 65.3151 23.6689 66.9866C24.3393 67.1956 25.1076 67.1259 25.8339 67.1816C25.8898 67.0284 25.9316 66.8891 25.9875 66.7359C24.9539 65.9837 23.9203 65.2176 22.8867 64.4654C23.1521 64.0893 23.2359 63.8386 23.4035 63.7411C35.5972 56.9296 45.6119 60.2308 54.6629 68.5328C58.909 72.433 61.5349 77.6844 63.1552 83.3676C66.8426 96.3638 62.1355 111.881 46.9807 118.665C44.1593 119.932 41.268 121.033 37.9996 120.894C27.2027 120.42 18.0539 116.422 10.5673 108.677ZM51.5062 168.992C46.5617 168.17 45.6817 166.345 48.1959 162.111C48.3775 161.818 48.5172 161.498 48.6988 161.205C50.1235 158.879 50.6123 156.595 48.8943 154.129C47.8188 152.583 48.5172 151.148 49.6346 149.644C49.9698 150.104 50.2212 150.326 50.319 150.619C51.4504 153.976 52.5677 157.347 53.8667 161.275C55.0819 158.35 54.7048 155.815 54.2718 153.224C53.755 150.173 53.0845 147.081 53.1264 144.03C53.2103 139.183 52.2884 134.67 50.1374 130.366C49.6346 129.349 49.2714 128.262 48.8384 127.204C51.3107 129.544 52.8751 132.246 54.0344 135.297C57.4006 144.17 57.8475 153.502 58.6436 162.765C59.0487 167.529 56.2552 169.772 51.5062 168.992ZM41.8966 205.236C41.0864 205.584 40.0947 205.696 39.2008 205.654C35.8067 205.487 34.5356 202.91 36.5889 200.166C37.6085 198.801 39.0891 197.812 40.2903 196.572C41.1143 195.722 41.7988 194.747 42.6089 193.758C41.9803 193.243 41.7569 192.923 41.4636 192.853C39.2288 192.268 38.8237 190.917 39.0332 188.702C39.2008 186.975 38.8516 184.941 38.0415 183.423C36.3794 180.344 36.7286 177.419 37.9018 174.452C39.4243 170.594 42.3994 169.201 46.2544 170.844C50.2492 172.544 54.1601 173.101 58.4621 171.402C58.7135 174.814 59.4258 178.088 56.9815 180.762C55.6965 182.169 54.0902 183.325 52.5258 184.454C50.1095 186.167 47.5534 187.699 46.45 191.571C50.8637 188.354 54.7188 185.54 58.6995 182.629C59.3839 188.242 59.9845 193.48 60.655 198.717C60.8924 200.57 60.2778 201.977 59.0347 203.384C56.7161 206.03 53.8807 206.573 50.9056 205.278C47.7908 203.913 44.9275 203.913 41.8966 205.236ZM63.3926 192.783C62.6663 186.627 62.1076 180.4 62.1635 174.201C62.2333 166.234 61.6606 158.336 60.9762 150.424C60.4315 144.016 58.5179 138.027 56.4228 132.051C55.892 130.561 55.0261 129.154 54.1182 127.83C52.3303 125.226 51.1431 122.426 50.8497 119.083C51.7856 118.498 52.7214 117.899 53.5455 117.383C55.501 119.542 57.2609 121.492 59.0487 123.415C61.6467 126.215 63.3786 129.279 63.0015 133.346C62.8618 134.739 63.211 136.494 64.0072 137.609C66.689 141.328 66.0185 145.563 65.9347 149.574C65.823 154.867 67.4013 157.319 72.6391 158.127C73.7705 158.308 74.9577 158.392 76.0053 158.823C79.2039 160.161 79.6788 162.292 77.4719 164.966C77.1786 165.328 76.8573 165.649 76.578 166.011C74.5667 168.644 74.4549 171.29 76.4244 173.951C78.8407 177.196 81.8996 179.23 86.7324 178.255C86.6346 179.885 86.6206 181.138 86.467 182.392C86.2156 184.495 85.7267 184.997 83.6176 184.955C78.8826 184.858 75.0136 182.824 71.5636 179.648C68.5606 176.876 67.7924 173.644 68.1136 169.702C68.3511 166.889 67.946 163.977 67.513 161.164C67.3315 159.966 66.3537 158.879 65.7391 157.751C65.4458 157.834 65.1525 157.918 64.8592 157.988C64.8453 159.06 64.7614 160.133 64.8173 161.205C64.957 164.061 65.1106 166.93 65.3341 169.786C65.5157 172.07 65.7811 174.341 66.0604 176.625C66.3258 178.784 66.9823 180.957 66.9124 183.102C66.7588 188.047 66.1582 192.964 65.9626 197.909C65.823 201.35 65.9766 204.791 66.0883 208.231C66.1163 208.886 66.5213 209.54 66.7588 210.195C66.9543 210.153 67.1499 210.125 67.3594 210.084C68.3092 202.478 69.259 194.887 70.2786 186.752C73.6448 190.569 75.0136 194.441 74.2454 199.079C73.2257 205.236 74.7063 208.454 80.2514 211.184C84.6373 213.357 86.02 217.048 85.8245 221.408C85.7127 224.18 84.7769 226.91 84.2322 229.599C81.6342 228.345 79.2877 227.105 76.8434 226.089C73.8264 224.835 71.5636 222.913 70.2228 219.89C69.7618 218.831 69.4964 217.494 67.4991 216.798C67.6806 218.483 67.5829 219.862 68.0159 221.046C69.1752 224.194 71.3401 226.534 74.5108 227.844C76.1031 228.498 77.7373 229.083 79.3296 229.794C84.6512 232.162 86.8301 235.714 86.6067 241.495C86.467 244.893 84.0087 246.537 80.9219 245.005C79.2039 244.155 77.7093 242.846 76.1869 241.634C75.3069 240.923 74.6225 239.893 72.8766 240.896C73.3375 241.926 73.7984 242.901 74.2175 243.904C76.117 248.404 77.3601 252.819 73.7705 257.193C72.0385 259.296 71.5776 261.957 71.41 264.645C71.2703 266.874 71.1586 269.131 69.8177 271.777C69.7478 270.635 69.678 270.175 69.7059 269.73C70.0272 264.297 68.8539 259.213 66.214 254.449C64.5659 251.482 63.6859 248.292 63.5882 244.879C63.5323 243.083 63.2529 241.3 61.8003 239.21C61.3394 240.715 60.8924 241.634 60.7947 242.581C60.4315 246.426 60.8086 250.173 62.5964 253.669C63.5881 255.619 64.6218 257.541 65.5855 259.519C67.527 263.531 68.4349 267.779 68.1136 272.251C67.9041 275.218 66.7029 276.583 63.7837 277.238C61.4511 277.767 59.2163 277.391 56.9955 276.597C53.6572 275.413 50.6542 276.012 48.0004 278.421C46.6316 279.661 45.2627 280.915 43.7682 281.96C42.148 283.102 40.3322 283.854 38.251 283.506C36.3095 283.171 35.4575 282.489 35.5972 280.553C35.7369 278.644 36.1698 276.666 36.8962 274.897C38.3488 271.331 39.4662 267.765 39.117 263.851C38.9215 261.581 39.9271 259.937 41.7289 258.558C43.0838 257.513 44.2012 256.162 45.3605 254.895C46.1846 253.989 46.7712 252.736 45.7237 251.844C45.151 251.357 43.7822 251.44 42.9441 251.747C41.268 252.36 39.7735 252.513 38.5164 251.078C37.2034 249.574 37.3012 247.749 38.3069 246.258C39.3126 244.768 40.6674 243.459 42.0502 242.302C44.2152 240.506 45.2767 238.458 44.4526 235.644C44.2571 234.976 44.0894 234.307 43.9637 233.624C43.1536 229.46 44.2431 225.754 47.3159 222.913C50.6123 219.862 54.8026 218.163 58.9369 215.934C59.3979 219.695 59.1465 222.481 55.8501 224.682C54.1042 225.852 53.1823 228.317 52.0091 230.281C50.7799 232.343 49.7044 234.502 48.5591 236.619C48.2797 237.135 48.0004 237.65 47.5674 238.472C50.0396 238.347 51.0453 236.995 51.8973 235.491C52.8611 233.792 53.7271 232.023 54.7607 230.365C55.5009 229.153 56.1155 227.718 57.8475 227.412C58.7833 229.32 58.6436 231.117 57.8615 232.858C56.786 235.268 55.7663 237.734 54.4813 240.032C52.009 244.448 51.157 249.003 52.2605 253.989C53.1544 258.015 52.0649 261.748 49.6904 265.105C49.0898 265.955 48.5172 266.832 47.8467 267.612C45.8354 269.98 43.7542 272.293 41.7289 274.661C40.4998 276.095 39.3824 277.614 40.402 280.344C44.1034 276.416 47.5255 272.892 50.8078 269.256C55.2635 264.311 56.9675 258.558 55.5009 251.983C54.8165 248.933 55.3612 246.063 56.744 243.278C58.1408 240.506 59.5934 237.734 60.6969 234.85C61.3673 233.081 61.9679 230.978 61.6606 229.181C60.8086 224.292 61.3114 219.57 62.345 214.806C63.9234 207.493 64.2726 200.194 63.3926 192.783Z" fill="currentColor"/>
</svg>
