<svg width="96" height="193" viewBox="0 0 96 193" fill="none" xmlns="http://www.w3.org/2000/svg">
<path d="M37.3037 142.862C35.4213 143.71 33.6508 144.847 31.9548 146.04C28.1714 148.686 26.5872 153.019 27.9012 157.408C28.3764 158.993 28.1901 160.064 26.8202 160.959C25.5901 161.76 24.9565 162.99 24.621 164.37C24.0805 166.606 24.7701 168.274 26.7177 169.523C27.0904 169.756 27.4911 169.951 27.8546 170.147C27.7893 170.389 27.7987 170.594 27.7055 170.66C25.2267 172.356 24.4346 174.704 24.5371 177.649C24.593 179.121 23.9687 180.631 23.6332 182.112C23.2139 183.976 22.515 185.821 22.4218 187.694C22.2914 190.285 23.7171 191.599 26.3077 191.971C28.2739 192.26 29.9606 191.533 31.5168 190.508C32.4114 189.921 33.2035 189.166 33.9769 188.421C35.3095 187.126 36.7632 186.65 38.599 187.312C45.4389 189.781 49.9863 184.871 50.648 179.652C50.7878 178.58 50.7971 177.49 51.0021 176.437C51.2071 175.393 51.3655 174.238 51.9433 173.399C53.6579 170.902 54.2357 168.386 52.2881 165.115C53.4343 165.609 54.0027 165.851 54.5711 166.093C57.9538 167.538 61.1874 165.628 61.2619 161.965C61.2992 160.223 60.9544 158.434 60.5444 156.728C60.0319 154.576 59.9387 152.507 60.6003 150.364C61.3924 147.82 60.9544 145.332 59.8455 142.955C59.1093 141.38 58.0377 140.113 56.4255 139.349C55.736 139.023 55.065 138.613 54.45 138.165C53.2945 137.336 52.6608 136.162 52.987 134.764C53.7977 131.279 53.1733 128.055 51.3096 124.896C53.6766 125.287 55.8851 125.66 57.842 125.986C58.429 127.71 58.7459 129.574 59.6591 131.083C61.5601 134.224 64.6539 134.289 66.7226 131.251C67.5893 129.974 68.0086 128.316 68.3534 126.769C68.6609 125.362 69.1082 124.514 70.6831 124.132C73.3855 123.479 74.8112 122.044 76.5538 119.034C81.6884 118.811 84.4001 113.909 82.4432 109.445C84.3722 109.091 86.2266 108.737 88.0996 108.43C88.8544 108.299 89.6372 108.336 90.4013 108.206C94.3431 107.526 96.2907 103.528 94.1567 100.136C92.1532 96.9584 89.6465 94.2467 85.3599 94.0044C87.4194 90.3329 87.7921 86.4284 88.2301 82.5611C88.5935 79.3275 87.3821 76.4947 85.2854 74.0718C82.6016 70.9873 78.0541 71.5372 76.3115 75.2553C75.4449 77.1097 75.0349 79.1691 74.336 81.4056C74.0658 80.8465 73.8794 80.4178 73.6651 80.0078C73.1246 78.992 72.7239 77.8459 71.997 76.9979C70.6458 75.4137 69.9283 73.7177 69.6673 71.6303C69.3691 69.1609 67.3563 68.434 65.2224 69.7852C63.5357 70.8475 62.6597 72.4131 62.5572 74.3886C62.4454 76.476 63.1256 78.3304 64.4209 79.9519C64.8962 80.5483 65.3994 81.1167 66.1915 82.0393C63.8618 82.4772 61.8304 82.8686 59.2864 83.3439C59.3702 82.85 59.5659 82.3841 59.5007 81.9554C59.1559 79.5978 57.5997 78.1254 55.2328 78.3584C53.1267 78.5634 51.6544 77.9577 50.5362 76.2244C49.6975 74.9291 48.3463 74.3514 46.9485 73.8388C45.6066 73.345 44.2927 72.7486 42.9601 72.1895C43.044 71.6117 43.0253 71.2856 43.1371 71.0339C47.6753 61.035 45.2152 52.3314 38.3008 44.4012C36.1668 41.9504 33.511 40.2358 30.5663 39.1082C25.5901 37.1979 20.7351 37.9714 16.1038 40.4501C15.5633 40.739 15.0508 41.0745 14.5196 41.3727C14.4637 41.4099 14.3705 41.3727 14.1655 41.3727C11.7892 38.0366 12.0688 34.4116 13.6436 30.9265C14.706 28.5689 16.3367 26.4535 17.7811 24.2729C18.4614 23.2479 19.3187 22.344 20.0549 21.3562C22.692 17.8431 24.0153 13.9292 23.6705 9.48425C23.4282 6.34386 23.1393 3.18486 24.9192 0.240165C24.7794 0.174934 24.6396 0.100384 24.4999 0.0351532C24.3228 0.184252 24.1178 0.305376 23.978 0.48243C23.7823 0.724715 23.6239 0.985634 23.4841 1.26519C22.2541 3.75327 21.052 6.26933 20.7444 9.06493C20.2878 13.1465 18.1539 16.4173 15.8242 19.5857C13.8673 22.2508 11.696 24.7482 9.82298 27.4599C7.09262 31.4297 6.1235 35.8653 6.95286 40.6458C7.1765 41.9318 7.35355 43.2364 7.62379 44.513C7.80085 45.3704 7.53059 45.9295 6.90624 46.5259C1.42688 51.7164 0.252736 58.2394 1.32438 65.3589C1.7344 68.0892 3.0856 70.4841 4.90274 72.5063C8.06176 76.0287 11.6867 78.9734 16.0758 80.9024C20.1015 82.6729 24.2669 82.8593 28.5348 82.1977C28.9915 82.1231 29.4294 82.0299 29.914 81.9367C31.144 84.9467 32.4207 87.8821 33.5203 90.892C33.9583 92.0941 34.0328 93.4453 34.1819 94.7406C34.3031 95.7563 33.9863 96.5577 33.2501 97.4243C32.3368 98.5053 31.7311 99.9124 31.3025 101.282C31.0602 102.065 31.172 103.211 31.5914 103.91C32.3648 105.196 32.1691 106.221 31.3863 107.302C30.4824 108.541 29.8674 109.827 30.8645 111.263C30.5943 111.44 30.4731 111.579 30.3427 111.598C24.8447 112.232 21.6949 118.037 24.0712 123.125C24.4533 123.945 24.9192 124.858 24.9099 125.716C24.8912 127.319 25.3758 128.577 26.7643 129.648C26.2611 130.096 25.8231 130.478 25.3945 130.869C24.8819 131.335 24.3228 131.764 23.8848 132.295C22.6268 133.823 22.1143 135.566 22.9157 137.457C23.7171 139.349 25.4597 139.852 27.2861 139.88C28.2553 139.899 29.2803 139.647 30.2029 139.312C31.4329 138.864 32.5325 138.818 33.7719 139.33C36.0736 140.281 38.394 140.43 40.9007 138.631C39.8943 140.616 39.1115 142.051 37.3037 142.862ZM89.8329 99.5956C91.5382 99.8565 92.3955 100.779 92.4887 102.503C92.5726 104.124 91.6873 105.327 90.0472 105.615C88.9849 105.802 87.8853 105.765 86.8323 105.97C83.9994 106.519 82.1357 104.926 80.272 103.174C81.968 102.736 83.6174 102.345 85.2668 102.363C86.9814 102.391 88.6867 102.811 90.5411 103.081C89.3949 101.506 87.6617 101.543 85.8911 100.956C87.1305 99.6888 88.3792 99.372 89.8329 99.5956ZM66.9836 79.6444C65.623 78.3025 64.6725 76.7742 64.4582 74.8732C64.2253 72.8231 65.4087 71.4253 67.4868 71.2203C67.58 71.416 67.757 71.6117 67.7664 71.826C67.8875 74.342 69.071 76.299 70.7949 78.0695C71.559 78.8616 72.0995 79.9705 72.4629 81.0328C73.1432 82.9898 72.4816 84.7324 70.5713 86.1395C70.2265 83.3159 68.7448 81.387 66.9836 79.6444ZM65.2876 88.2734C63.8059 88.4598 62.2497 88.2734 60.7587 88.0311C59.5752 87.8448 59.3236 87.0061 59.9666 85.981C60.6376 84.9094 61.7092 84.6205 62.8927 84.4621C64.2905 84.2757 65.679 83.9682 67.375 83.6607C68.9591 86.0463 68.2789 87.8914 65.2876 88.2734ZM46.7807 76.1592C47.5262 76.4947 48.3556 76.9699 48.7936 77.6129C50.3498 79.868 52.3254 80.8744 55.093 80.5669C56.6678 80.3899 57.3388 81.2192 57.2549 82.822C57.2269 83.4277 57.0219 84.0334 56.9288 84.6392C56.5467 87.1552 57.4692 88.6928 59.92 89.2798C61.4856 89.6526 63.1163 89.7458 64.7098 89.9601C69.9655 90.6683 76.1625 85.9997 76.9359 80.8278C77.1502 79.4021 77.5789 77.9577 78.1753 76.6344C79.3401 74.0252 81.8189 73.7364 83.7012 75.861C86.0122 78.4795 86.5807 82.7382 85.0431 85.8413C84.2883 87.3509 83.4496 88.0684 81.8002 88.5903C83.2912 83.1761 83.021 79.7562 80.8684 77.7527C80.2999 78.6939 80.8124 79.5605 81.0174 80.3992C81.5859 82.7102 81.6045 84.9839 80.7472 87.2111C80.3093 88.348 79.601 88.991 78.2591 89.2705C76.8147 89.5687 75.3517 90.2863 74.1683 91.1715C72.9941 92.0475 72.1554 93.3707 71.1117 94.5635C72.5189 95.2345 73.5905 94.5542 74.4944 93.5664C75.7058 92.2432 77.1782 91.5722 78.9301 91.3672C80.7193 91.1622 82.4991 90.892 84.484 90.6217C84.1578 91.1995 83.9156 91.9263 83.4403 92.4482C79.6197 96.6043 74.6342 98.1419 69.0057 95.6538C68.5212 95.4395 68.018 95.2624 67.5241 95.0667C67.4216 95.2438 67.3284 95.4115 67.2259 95.5886C68.0179 96.2502 68.7169 97.1261 69.6301 97.5362C73.0687 99.0924 76.6191 99.5304 80.067 97.6014C81.8282 96.6229 83.6733 96.3341 85.6022 96.3061C87.0839 96.2875 88.3792 96.7441 89.5068 98.2444C87.2516 98.1605 85.537 98.8967 84.3256 100.35C83.6919 101.115 83.0489 101.366 82.2103 101.459C79.0046 101.823 75.9202 101.385 72.9755 100.015C72.2766 99.6888 71.6149 99.1297 70.3383 99.5863C71.2329 100.22 71.7827 100.779 72.4536 101.04C73.8794 101.59 75.361 101.99 76.8241 102.447C77.4018 102.624 78.1101 102.643 78.5387 103.006C79.9272 104.152 81.2038 105.429 82.6296 106.743C80.5049 107.423 78.3523 107.237 76.7029 106.007C73.8887 103.901 71.2236 101.534 68.7541 99.0365C67.375 97.6387 66.5363 95.7283 65.3621 94.1069C64.8776 93.4266 64.365 92.5414 62.9579 92.9234C64.5887 95.3743 66.3779 97.5734 67.2072 100.304C63.7314 100.984 62.8554 101.58 62.492 103.733C63.2375 103.342 63.7966 102.969 64.4116 102.755C65.4087 102.4 66.4338 101.99 67.4682 101.907C68.9685 101.785 70.0401 102.922 70.0494 104.46C70.0587 105.448 69.9562 106.445 69.9003 107.535C68.7634 107.982 67.7011 108.402 66.6388 108.83C64.7098 109.595 62.7063 110.228 60.8799 111.179C59.92 111.673 59.1746 112.67 58.4943 113.555C58.1681 113.984 58.1215 114.729 59.0627 115.083C61.3271 111.244 65.7163 111.291 69.248 109.529C68.5584 111.067 67.6825 112.39 66.7693 113.695C65.6697 115.26 64.3277 116.705 63.4611 118.391C61.7185 121.793 61.4949 125.38 63.0138 129.043C63.6941 127.197 63.5543 125.222 63.927 123.33C64.3371 121.252 65.0639 119.323 66.3313 117.636C67.5054 116.062 68.7914 114.58 70.1053 112.959C71.6429 114.887 70.6085 117.059 71.6615 118.811C72.0343 118.205 72.3604 117.571 72.2952 116.975C72.1275 115.456 71.792 113.965 71.5218 112.465C71.4193 111.887 71.1677 111.263 71.2795 110.722C71.587 109.166 72.0436 107.638 72.3791 106.361C74.4944 107.311 76.6563 108.253 78.7717 109.278C79.2842 109.529 79.7315 110.014 80.0763 110.48C81.0547 111.803 81.0734 113.192 80.1601 114.561C79.2562 115.931 78.1659 116.956 76.3302 116.304C75.2585 115.922 74.4012 116.211 74.2428 117.376C73.8514 120.348 71.7827 121.485 69.2573 122.082C67.7011 122.445 66.8531 123.367 66.499 124.83C66.2847 125.725 66.2101 126.666 65.9213 127.533C65.6137 128.465 65.2317 129.415 64.6819 130.217C64.0389 131.139 63.0138 131.708 61.8676 131.354C60.7587 131.018 60.5444 129.928 60.4326 128.912C60.358 128.222 60.3487 127.524 60.4046 126.834C60.5537 125.073 60.7867 123.312 60.9358 121.55C61.001 120.712 61.0569 119.845 60.9358 119.016C60.6935 117.422 59.7803 116.807 58.1775 117.003C57.7954 117.049 57.4133 117.217 57.0406 117.199C55.4098 117.115 54.3661 116.08 53.5834 114.804C52.8006 113.527 53.6672 112.642 54.5339 111.822C55.8664 110.554 56.3696 109.091 55.941 107.228C55.4005 104.907 55.6614 104.656 57.9724 103.631C58.6341 103.342 59.5193 102.848 59.6777 102.27C59.9759 101.18 60.7587 100.9 61.5508 100.444C63.3307 99.4092 64.1693 97.7785 63.3493 96.2223C62.5852 94.7685 61.3924 93.5105 60.2648 92.2805C59.9387 91.9263 59.2025 91.945 58.6527 91.7866C58.5502 91.9077 58.4477 92.0289 58.3452 92.1407C59.0534 93.436 59.7616 94.7406 60.6469 96.3527C58.2893 95.7563 56.1553 95.4115 54.1798 94.6567C50.7598 93.3521 48.8402 89.4569 49.7068 85.9158C50.4523 87.2111 50.5827 88.935 52.5117 89.4476C51.6264 86.5308 51.1139 83.7073 49.0918 81.5733C47.3492 79.7376 45.4948 78.0043 43.6963 76.2058C43.2117 75.7212 42.4103 75.4696 42.2519 74.4445C43.9199 75.0782 45.3829 75.5348 46.7807 76.1592ZM53.7418 103.584C53.5181 104.059 53.3038 104.525 53.0335 105.094C52.139 104.712 51.5239 104.395 50.8716 104.19C50.1448 103.957 49.3713 103.882 48.6538 103.631C47.0976 103.099 46.9205 102.708 47.2746 100.928C49.6136 101.347 52.2135 101.115 53.7418 103.584ZM53.5088 100.714C52.6701 99.7726 51.7103 99.3254 50.4989 99.2788C46.8553 99.1297 47.3585 98.0953 47.051 95.8029C46.846 94.228 46.4546 92.8396 45.6532 91.479C45.2804 90.8454 44.9729 90.016 45.0475 89.3078C45.4016 85.8319 43.8361 83.2414 41.525 80.8931C40.6677 80.0264 39.9409 79.0107 39.2699 77.9856C38.6642 77.0631 39.0463 76.3922 39.9315 76.1312C41.087 77.0631 42.1307 77.9763 43.2303 78.7964C45.9141 80.7999 46.9858 83.4743 47.0137 86.8011C47.0883 93.5757 51.1419 97.4523 57.9445 97.4802C58.8018 97.4802 59.6684 97.5734 60.5257 97.6293C60.0132 98.3469 59.4448 98.5333 58.9696 98.8594C58.4291 99.2322 57.8234 99.6515 57.5158 100.201C56.3417 102.233 55.065 102.475 53.5088 100.714ZM8.01516 72.7392C5.5364 70.1673 3.96155 67.1574 3.44903 63.5976C2.80604 59.0688 4.1293 54.9033 5.89984 50.859C6.30054 49.9458 7.16718 49.2376 8.06177 48.138C8.35065 49.2935 8.53701 50.0017 8.71406 50.7099C8.91907 50.7006 9.12408 50.7006 9.3291 50.6913C9.29182 49.3494 9.34773 47.9889 9.20795 46.6564C8.96567 44.4385 8.61156 42.23 8.28541 40.0215C7.90335 37.4495 8.2202 34.9801 9.05887 32.52C10.1305 29.3889 11.9756 26.7517 14.1375 24.3289C16.3554 21.8408 18.3309 19.2222 19.8219 16.2309C20.1481 15.5786 20.5767 14.9823 20.9588 14.3579C20.847 16.8274 19.5423 18.7097 18.2098 20.5734C16.4672 23.0149 14.678 25.4285 12.9913 27.9072C11.2487 30.4699 10.4753 33.34 10.6151 36.4338C10.7921 40.4035 13.215 43.7303 16.7561 44.8485C17.2034 44.9883 17.7159 44.9417 18.2005 44.979C18.2377 44.8765 18.2657 44.7833 18.303 44.6808C17.6134 44.1776 16.9238 43.6651 16.2342 43.1619C16.4113 42.9103 16.4672 42.7425 16.579 42.6773C24.7142 38.1205 31.3957 40.329 37.4341 45.8829C40.267 48.4921 42.0189 52.0052 43.0999 55.8072C45.56 64.5015 42.4196 74.8825 32.3089 79.4207C30.4265 80.2687 28.4976 81.0049 26.317 80.9117C19.1137 80.5949 13.01 77.9204 8.01516 72.7392ZM35.3281 113.089C32.0293 112.539 31.4422 111.318 33.1196 108.486C33.2407 108.29 33.3339 108.076 33.4551 107.88C34.4056 106.324 34.7317 104.795 33.5855 103.146C32.868 102.112 33.3339 101.152 34.0794 100.145C34.3031 100.453 34.4708 100.602 34.5361 100.798C35.2909 103.043 36.0363 105.299 36.903 107.926C37.7137 105.97 37.4621 104.274 37.1732 102.54C36.8284 100.5 36.3811 98.4308 36.4091 96.39C36.465 93.1471 35.85 90.1279 34.4149 87.2484C34.0794 86.5681 33.8372 85.8413 33.5483 85.133C35.1977 86.6986 36.2414 88.5064 37.0148 90.5472C39.2606 96.4832 39.5588 102.727 40.09 108.924C40.3602 112.111 38.4965 113.611 35.3281 113.089ZM28.9169 137.336C28.3764 137.569 27.7148 137.644 27.1184 137.616C24.854 137.504 24.006 135.78 25.3758 133.944C26.0561 133.031 27.0438 132.369 27.8452 131.54C28.395 130.971 28.8517 130.319 29.3921 129.658C28.9728 129.313 28.8237 129.098 28.628 129.052C27.137 128.66 26.8668 127.757 27.0066 126.275C27.1184 125.119 26.8854 123.759 26.345 122.743C25.236 120.684 25.469 118.727 26.2518 116.742C27.2675 114.161 29.2524 113.229 31.8243 114.328C34.4895 115.465 37.0987 115.838 39.9688 114.701C40.1365 116.984 40.6118 119.174 38.981 120.963C38.1237 121.904 37.0521 122.678 36.0084 123.433C34.3963 124.579 32.6909 125.604 31.9548 128.195C34.8995 126.042 37.4714 124.16 40.1272 122.212C40.5839 125.967 40.9845 129.471 41.4318 132.975C41.5903 134.214 41.1802 135.156 40.3509 136.097C38.804 137.867 36.9123 138.231 34.9274 137.364C32.8494 136.451 30.9391 136.451 28.9169 137.336ZM43.2583 129.005C42.7737 124.886 42.401 120.721 42.4382 116.574C42.4848 111.244 42.1028 105.96 41.6462 100.667C41.2827 96.3807 40.0061 92.3736 38.6083 88.3759C38.2542 87.3788 37.6764 86.4377 37.0707 85.5524C35.8779 83.8098 35.0858 81.9367 34.8901 79.7003C35.5145 79.3089 36.1389 78.9082 36.6887 78.5634C37.9933 80.0078 39.1674 81.3124 40.3602 82.5984C42.0935 84.4714 43.249 86.5215 42.9974 89.2426C42.9042 90.1744 43.1372 91.3486 43.6683 92.0941C45.4575 94.5822 45.0102 97.415 44.9543 100.099C44.8797 103.64 45.9327 105.28 49.4272 105.82C50.182 105.942 50.9741 105.998 51.673 106.286C53.807 107.181 54.1239 108.607 52.6515 110.396C52.4558 110.638 52.2415 110.853 52.0551 111.095C50.7132 112.856 50.6387 114.627 51.9526 116.406C53.5647 118.578 55.6055 119.938 58.8297 119.286C58.7645 120.376 58.7552 121.215 58.6527 122.054C58.485 123.461 58.1588 123.796 56.7517 123.768C53.5927 123.703 51.0114 122.342 48.7097 120.218C46.7062 118.363 46.1937 116.201 46.408 113.564C46.5664 111.682 46.2962 109.734 46.0073 107.852C45.8862 107.051 45.2338 106.324 44.8238 105.569C44.6281 105.625 44.4325 105.681 44.2368 105.727C44.2275 106.445 44.1715 107.162 44.2088 107.88C44.302 109.79 44.4045 111.71 44.5536 113.62C44.6747 115.148 44.8518 116.667 45.0382 118.196C45.2152 119.64 45.6532 121.094 45.6066 122.529C45.5041 125.837 45.1034 129.126 44.9729 132.435C44.8797 134.736 44.9822 137.038 45.0568 139.34C45.0754 139.778 45.3457 140.216 45.5041 140.654C45.6345 140.626 45.765 140.607 45.9048 140.579C46.5385 135.491 47.1721 130.412 47.8524 124.97C50.0982 127.524 51.0114 130.114 50.4989 133.217C49.8186 137.336 50.8064 139.489 54.5059 141.315C57.432 142.769 58.3545 145.238 58.224 148.155C58.1495 150.009 57.5252 151.836 57.1617 153.634C55.4285 152.796 53.8629 151.966 52.2322 151.286C50.2193 150.447 48.7097 149.161 47.8151 147.139C47.5076 146.431 47.3305 145.537 45.998 145.071C46.1191 146.198 46.0539 147.121 46.3428 147.913C47.1162 150.019 48.5606 151.584 50.6759 152.46C51.7383 152.898 52.8285 153.29 53.8909 153.765C57.4413 155.349 58.895 157.725 58.7459 161.593C58.6527 163.866 57.0126 164.966 54.9532 163.941C53.807 163.372 52.8099 162.496 51.7942 161.686C51.2071 161.211 50.7505 160.521 49.5857 161.192C49.8932 161.881 50.2007 162.534 50.4802 163.205C51.7476 166.215 52.5769 169.169 50.182 172.095C49.0265 173.502 48.719 175.282 48.6072 177.08C48.514 178.571 48.4395 180.081 47.5449 181.851C47.4983 181.087 47.4517 180.78 47.4703 180.481C47.6846 176.847 46.9019 173.446 45.1406 170.259C44.041 168.274 43.454 166.14 43.3888 163.857C43.3515 162.655 43.1651 161.462 42.196 160.064C41.8885 161.071 41.5903 161.686 41.525 162.319C41.2827 164.891 41.5343 167.398 42.7271 169.737C43.3887 171.042 44.0783 172.328 44.7213 173.651C46.0166 176.335 46.6223 179.177 46.408 182.168C46.2682 184.153 45.4668 185.066 43.5192 185.504C41.963 185.858 40.472 185.607 38.9904 185.076C36.7632 184.283 34.7597 184.684 32.9892 186.296C32.0759 187.126 31.1627 187.964 30.1656 188.663C29.0846 189.427 27.8732 189.931 26.4847 189.698C25.1894 189.474 24.621 189.017 24.7142 187.722C24.8074 186.445 25.0962 185.122 25.5808 183.939C26.55 181.553 27.2954 179.168 27.0625 176.549C26.932 175.03 27.603 173.93 28.8051 173.008C29.709 172.309 30.4545 171.405 31.2279 170.557C31.7777 169.951 32.1691 169.113 31.4702 168.516C31.0881 168.19 30.1749 168.246 29.6158 168.451C28.4976 168.861 27.5005 168.964 26.6618 168.004C25.7858 166.997 25.8511 165.777 26.522 164.78C27.193 163.782 28.0969 162.906 29.0194 162.133C30.4638 160.931 31.172 159.561 30.6222 157.679C30.4917 157.231 30.3799 156.784 30.2961 156.328C29.7556 153.541 30.4824 151.062 32.5325 149.161C34.7317 147.121 37.5273 145.984 40.2856 144.493C40.5932 147.009 40.4254 148.873 38.2262 150.345C37.0614 151.128 36.4464 152.777 35.6636 154.091C34.8436 155.47 34.126 156.915 33.3619 158.331C33.1755 158.676 32.9892 159.021 32.7003 159.57C34.3497 159.487 35.0206 158.583 35.589 157.576C36.232 156.439 36.8098 155.256 37.4994 154.147C37.9933 153.336 38.4033 152.376 39.5588 152.171C40.1831 153.448 40.09 154.65 39.5681 155.815C38.8506 157.427 38.1703 159.077 37.313 160.614C35.6636 163.568 35.0952 166.615 35.8313 169.951C36.4277 172.644 35.7009 175.142 34.1167 177.388C33.716 177.956 33.3339 178.543 32.8866 179.065C31.5447 180.649 30.1563 182.196 28.8051 183.78C27.985 184.74 27.2395 185.756 27.9198 187.582C30.3893 184.954 32.6723 182.597 34.8622 180.165C37.8348 176.857 38.9717 173.008 37.9933 168.61C37.5366 166.569 37.9001 164.649 38.8226 162.785C39.7545 160.931 40.7236 159.077 41.4598 157.148C41.9071 155.964 42.3078 154.557 42.1028 153.355C41.5343 150.084 41.8698 146.925 42.5594 143.738C43.6124 138.846 43.8454 133.963 43.2583 129.005Z" fill="currentColor"/>
<path d="M7.04605 57.8203C8.89115 60.1593 13.2895 59.917 15.498 57.4941C12.7118 58.2862 9.89756 58.4633 7.04605 57.8203Z" fill="currentColor"/>
<path d="M20.8096 76.448C20.7909 76.2896 20.763 76.1405 20.7443 75.982C19.477 75.8702 18.219 75.7584 16.7187 75.6279C17.1473 77.4264 18.3774 77.1655 19.4024 77.2587C19.5329 77.2214 19.6634 77.2028 19.7938 77.1935C20.1293 76.9419 20.4648 76.6903 20.8096 76.448Z" fill="currentColor"/>
<path d="M23.4277 77.7716C22.2163 77.576 20.9956 77.3803 19.7841 77.1846C19.6537 77.1939 19.5232 77.2219 19.3928 77.2498C19.486 77.5853 19.4766 78.1071 19.6816 78.219C20.949 78.8713 22.1977 78.5917 23.4184 78.2842C23.4277 78.1165 23.4277 77.9487 23.4277 77.7716Z" fill="currentColor"/>
<path d="M9.38499 63.1596C10.4287 64.2126 11.5003 64.1381 13.0752 62.731C11.7147 62.8894 10.4846 63.0291 9.38499 63.1596Z" fill="currentColor"/>
<path d="M13.2988 68.4527C12.0129 68.1173 12.0128 68.1173 10.1957 68.723C11.7892 69.9717 12.0501 69.9344 13.2988 68.4527Z" fill="currentColor"/>
<path d="M13.2432 65.4331C11.864 65.722 10.8203 65.9456 9.54366 66.2159C11.2024 67.5205 11.7056 67.418 13.2432 65.4331Z" fill="currentColor"/>
</svg>
