<svg width="99" height="97" viewBox="0 0 99 97" fill="none" xmlns="http://www.w3.org/2000/svg">
<g opacity="0.2">
<path d="M54.6053 69.3555C55.5996 71.4351 56.6913 73.4692 57.8934 75.4376C59.2268 77.6268 60.884 79.6171 62.12 81.8518C64.1909 85.5947 66.6373 89.027 69.4093 92.2843C70.9662 94.1164 72.6869 94.8424 75.093 94.868C78.3783 94.9061 82.225 91.5968 81.1542 87.4208C80.7255 85.7581 79.9965 84.3862 78.7507 83.2967C77.6275 82.3087 76.3937 81.4487 75.2299 80.4973C74.4614 79.8648 73.5771 79.2888 73.0222 78.492C70.6071 74.9974 68.2031 71.49 65.9831 67.8732C64.4545 65.3768 63.2147 62.6961 61.8792 60.0847C61.3272 58.9998 60.8579 57.8655 60.432 56.9297C62.0307 55.9226 63.3776 55.0467 64.7646 54.2278C65.287 53.9233 65.8846 53.6301 66.4777 53.5699C68.5727 53.3447 70.1385 52.3136 71.2316 50.5925C72.5352 48.5344 73.7215 46.4153 74.9573 44.3166C75.4653 43.454 75.8416 42.4955 76.4648 41.7325C77.2762 40.7206 78.4171 39.9485 79.1461 38.8923C79.8732 37.8433 80.2763 36.5637 80.8389 35.3324C83.9821 35.5609 85.4268 33.5621 84.4277 30.8254C83.8282 29.1896 82.8124 27.9322 81.4842 26.7984C79.9767 25.5097 78.4566 24.1476 77.2622 22.5793C74.6889 19.1851 71.608 16.5598 67.4884 15.3494C62.8536 13.9847 58.456 12.0244 54.1934 9.80946C50.3924 7.83671 46.5151 7.57794 42.5663 8.76888C38.2041 10.0812 33.9016 11.6196 29.6319 13.2131C28.2001 13.7473 26.8239 14.6158 25.6401 15.5877C22.9852 17.771 20.4618 20.1127 17.8964 22.4046C17.0585 23.1521 16.2296 23.9253 15.4667 24.7465C12.9972 27.3986 11.4018 30.421 11.4886 34.1674C11.5008 34.8263 11.2853 35.5211 11.0754 36.1627C9.54365 40.8097 9.99668 45.266 12.2397 49.5914C12.81 50.6966 13.3288 51.8512 13.6748 53.04C14.1641 54.7102 14.9091 56.2034 16.1932 57.3572C18.5657 59.4824 21.0175 61.5106 23.4029 63.6157C26.9427 66.7401 31.087 67.2385 35.5296 66.5009C37.6894 66.1438 39.8258 65.6637 41.9872 65.3617C44.1395 65.0651 46.086 64.3181 47.8837 63.1117C48.8627 62.4546 49.8799 61.862 50.9727 61.187C52.2248 64.0036 53.3396 66.715 54.6053 69.3555ZM78.4647 37.0561C78.0714 37.6823 77.7089 38.4023 77.153 38.8388C75.5238 40.1193 74.5702 41.8446 73.6128 43.6159C72.5186 45.649 71.3217 47.6249 70.1121 49.5898C69.2201 51.0419 67.9614 51.9089 66.1729 52.1261C65.2456 52.2419 64.3257 52.8202 63.5051 53.3457C62.4049 54.0501 61.4014 54.8961 59.9249 55.1144C59.6525 54.3425 59.391 53.589 59.1277 52.8428C60.6385 51.3215 62.2905 50.3201 64.2894 49.7972C65.6618 49.4353 67.0056 48.8787 68.2836 48.243C69.5433 47.6182 70.2781 46.4775 70.7784 45.2148C70.6358 45.0693 70.4913 44.9311 70.3487 44.7855C70.2505 45.0183 70.2073 45.2806 70.058 45.4691C68.8461 47.0429 67.1838 47.8699 65.2829 48.1913C62.8274 48.606 60.5414 49.337 58.5106 51.4915C57.8621 48.7579 55.75 46.6833 57.0955 43.7223C58.8228 43.6848 60.27 42.9671 61.3417 41.545C62.1294 40.5037 62.2425 40.1811 62.2471 38.5035C61.2569 38.7439 61.0184 39.6827 60.4362 40.2532C59.8522 40.831 59.2481 41.3958 58.4591 41.8278C59.5614 40.07 60.6783 38.3783 60.5567 36.0597C59.4553 36.5841 59.6493 37.6953 59.153 38.3891C58.5681 39.1852 57.9943 39.9998 57.3637 40.761C56.7773 41.4709 56.1178 42.131 55.4064 42.9029C52.8474 39.606 49.6428 37.1601 44.9285 36.4467C45.7369 37.6905 46.879 37.559 47.6443 38.0813C48.404 38.5944 49.2211 39.0049 49.9195 39.7289C48.5877 39.5311 47.2559 39.3334 45.9242 39.1356C45.8814 39.2731 45.8479 39.4052 45.8052 39.5427C46.0927 39.7016 46.3545 39.9008 46.6605 40.0176C47.4248 40.2976 48.2059 40.5116 48.9665 40.8063C52.117 42.0204 54.3612 44.0974 55.3489 47.4324C55.8998 49.2901 56.6951 51.0772 57.1726 52.9474C58.7118 58.9679 61.937 64.222 64.7816 69.6215C66.6368 73.1378 69.1301 76.3244 71.458 79.5782C72.1663 80.5701 73.2649 81.2864 74.196 82.1085C75.6448 83.3823 77.1361 84.6121 78.572 85.906C81.1328 88.2118 79.1311 92.4036 76.0986 92.9997C74.0267 93.4104 72.2144 93.1062 70.7107 91.3109C68.297 88.4257 66.0727 85.4403 64.2885 82.106C63.1129 79.91 61.6781 77.8434 60.245 75.8007C58.6221 73.4911 57.1737 71.1088 56.1081 68.4801C53.6877 62.5169 51.1387 56.5991 48.6668 50.654C48.1866 49.5014 47.7763 48.3197 47.4009 47.1234C46.7498 45.0451 45.5321 43.3226 44.112 41.7204C43.9238 41.5086 43.6343 41.3882 43.2608 41.1372C42.8508 42.782 44.1562 43.6367 44.5293 44.9651C40.2214 45.9712 37.394 43.301 34.1148 40.6878C34.3637 41.3679 34.388 41.7332 34.5854 41.9395C37.1246 44.638 39.997 46.5779 43.9619 46C44.6432 45.8998 44.6468 45.9163 45.445 46.4626C44.1696 47.8564 42.3611 47.0457 40.8982 47.5485C41.6476 49.3629 42.2877 49.4865 46.0115 48.5663C47.0516 51.1417 48.1046 53.7281 49.1356 56.2777C47.456 57.7874 45.66 58.5258 43.4702 58.5707C42.1982 58.599 40.937 59.1375 39.6876 59.5072C39.1565 59.6612 38.6726 59.9989 38.1524 60.2025C35.8714 61.0675 33.7629 60.9458 31.9122 59.1639C30.2828 57.5867 28.4283 56.3426 26.404 55.3053C24.7865 54.4806 24.0613 53.5546 23.48 51.9703C26.8702 50.9498 29.9119 49.3645 32.0943 46.4287C29.0744 48.0508 26.4655 50.6986 22.4975 50.1826C22.3603 47.618 21.2645 45.6922 19.679 44.1573C21.6279 42.2944 23.4754 40.554 25.301 38.7769C27.7272 36.4184 30.5975 35.0159 33.9792 34.7975C37.3039 34.5879 40.5387 33.9027 43.7356 33.0283C44.4577 32.8291 45.1871 32.6318 45.8619 32.3113C47.8274 31.3974 48.6958 29.3927 48.0778 27.3072C47.8386 26.4969 47.5479 25.7047 47.2737 24.9089C47.386 24.836 47.5074 24.7575 47.6196 24.6845C48.2419 25.1549 48.936 25.5576 49.4846 26.103C51.3186 27.9196 53.3867 28.9993 56.061 28.4918C57.3008 28.2524 58.2196 28.9386 58.6804 29.8911C60.2139 33.0447 63.0383 33.606 66.0498 33.7073C67.9309 33.7713 69.8101 33.3507 71.4455 32.3529C72.9246 31.4482 74.5253 31.3863 76.1513 31.4402C77.4745 31.4874 78.5684 31.9761 79.2335 33.2303C79.465 33.6717 79.7976 34.0529 80.0404 34.3878C79.4864 35.2778 79.0058 36.1863 78.4647 37.0561ZM30.5062 64.0537C29.1127 64.6523 27.7234 64.6195 26.422 63.6565C23.1129 61.1919 19.6729 58.8736 16.9832 55.6918C16.2396 54.808 15.7666 53.6885 15.2456 52.6348C14.834 51.7963 14.6486 50.8357 14.1688 50.0501C12.5636 47.4249 11.7613 44.5587 11.4644 41.5475C11.3478 40.3467 11.5764 39.1086 11.6723 37.5324C12.1527 38.1307 12.4286 38.4584 12.7264 38.823C12.8628 38.6858 13.021 38.5855 13.0047 38.5267C12.6466 37.1084 12.8226 35.7086 12.8996 34.2681C13.0856 30.7081 14.7223 27.9227 17.2364 25.6177C20.4135 22.7004 23.671 19.866 26.9633 17.0794C27.8987 16.2864 29.0062 15.5839 30.1513 15.1643C34.4871 13.5563 38.8121 11.8988 43.2403 10.6032C47.5253 9.34926 51.8701 9.7346 55.7598 12.0344C59.3034 14.1291 63.1142 15.4485 66.9693 16.7167C70.6796 17.9402 73.5177 20.1993 75.8978 23.2478C77.2293 24.9524 78.8535 26.4581 80.4779 27.9013C81.5791 28.8838 82.5352 29.884 83.0181 31.3028C83.4756 32.637 83.4865 32.6554 82.2157 33.8161C81.2768 33.6088 80.7858 32.8673 80.3372 32.1131C79.6149 30.899 78.5621 30.2177 77.1865 29.9776C74.9212 29.5818 72.7624 29.6892 70.6365 30.8045C67.9974 32.1876 65.1749 32.5715 62.3105 31.4301C61.5023 31.1077 60.6777 30.7577 60.3274 29.7083C61.4425 28.4846 62.0206 27.0387 61.2666 24.9967C60.6509 26.1911 60.1424 27.1784 59.634 28.1658C58.4952 27.8843 58.3246 27.3881 58.6785 26.4864C59.5793 24.1699 59.0428 21.8864 58.6293 19.6108C58.4751 19.6029 58.321 19.5949 58.1668 19.587C58.147 19.9724 58.1217 20.3486 58.1019 20.7339C58.0601 21.6056 58.0403 22.4828 57.9672 23.3544C57.6371 27.1745 55.6162 27.6917 52.1813 26.46C51.5654 26.2411 51.037 25.7087 50.5174 25.2644C49.5716 24.4386 48.6625 23.6221 47.3808 23.2887C46.9114 23.1694 46.4729 22.652 46.1864 22.2123C45.679 21.4432 45.2931 20.5956 44.5635 19.8715C44.7786 20.746 45.0176 21.6187 45.1997 22.5004C45.4071 23.4666 45.5649 24.4436 45.7319 25.4152C45.8576 26.1498 45.9337 26.8953 46.0833 27.6282C46.4167 29.2666 45.9946 30.2213 44.3852 30.6245C41.5413 31.3388 38.6631 31.9115 35.7867 32.477C34.8738 32.6589 33.9213 32.6278 32.9921 32.7509C30.9868 33.0223 29.177 32.5548 27.9516 30.924C26.845 29.4405 25.9813 27.7688 25.0385 26.1629C24.8653 25.8613 24.7951 25.4921 24.6844 25.1595C24.0329 28.5231 24.9868 30.6081 28.5329 33.984C26.2 34.992 24.3769 36.5746 22.8061 38.4554C22.122 39.2733 21.4325 40.0819 20.7705 40.9054C19.5479 42.4296 18.0652 42.826 16.2751 42.0043C15.5624 41.6749 14.8349 41.373 13.8509 40.9435C14.7711 43.1917 16.5017 43.7249 18.1855 44.0121C18.7417 44.9576 19.2876 45.7287 19.6515 46.5707C20.09 47.58 20.3797 48.653 20.7115 49.7133C21.5984 52.523 22.476 55.3694 25.3373 56.8613C27.3504 57.9115 29.17 59.2013 30.8565 60.7072C31.537 61.3173 32.3705 61.7554 33.3719 62.4236C32.3216 63.0235 31.4603 63.648 30.5062 64.0537ZM46.6558 62.1673C45.2061 63.0483 43.6348 63.5784 41.9289 63.8087C39.5838 64.1265 37.2549 64.5656 34.9189 64.9091C34.0356 65.0361 33.1325 65.0565 32.0108 65.1386C32.8256 64.2056 33.3863 63.4736 34.0403 62.8355C34.3184 62.5704 34.7889 62.4088 35.1762 62.3901C37.1442 62.2966 38.934 61.7362 40.6848 60.8067C41.6963 60.2673 42.9273 59.9397 44.0746 59.8798C45.8369 59.7965 47.3694 59.327 48.7427 58.2548C48.9765 58.0721 49.2797 57.9851 49.6879 57.7921C49.9808 58.4834 50.2336 59.0863 50.5065 59.7334C49.1726 60.5892 47.9269 61.4049 46.6558 62.1673Z" fill="currentColor"/>
<path d="M62.3489 76.0931C62.9587 76.9507 63.5905 77.8139 64.0458 78.7572C64.9163 80.5555 65.7427 82.3739 66.4459 84.2468C67.429 86.8623 69.5952 88.2012 71.8204 89.4925C72.1061 89.6588 72.4952 89.6639 72.9738 89.7777C72.7958 88.2959 71.9862 87.3953 70.9993 86.762C69.4631 85.7706 68.4552 84.3902 67.5984 82.8452C66.7799 81.3646 65.9338 79.9004 65.1759 78.3962C64.0391 76.1399 62.1492 74.5433 60.4121 72.8059C60.664 74.1504 61.6132 75.0551 62.3489 76.0931Z" fill="currentColor"/>
<path d="M72.5827 41.3706C73.7019 39.5468 74.6124 38.0526 75.5838 36.4723C73.5265 36.8866 72.2601 38.8292 72.5827 41.3706Z" fill="currentColor"/>
</g>
</svg>
