<svg width="132" height="142" viewBox="0 0 132 142" fill="none" xmlns="http://www.w3.org/2000/svg">
<path fill-rule="evenodd" clip-rule="evenodd" d="M10.46 94.7C10.35 94.73 10.2 94.81 10.16 94.91C10.1 95.09 10.1 95.3 10.06 95.71C9.81996 96.24 10.41 96.73 10.64 97.33C10.67 97.4 10.93 97.48 10.98 97.43C11.48 97 11.96 96.55 12.42 96.08C12.49 96.01 12.49 95.8 12.44 95.71C11.95 95.04 11.41 94.46 10.46 94.7Z" fill="currentColor"/>
<path fill-rule="evenodd" clip-rule="evenodd" d="M8.42998 96.58C8.29998 96.13 7.93999 95.82 7.38999 95.89C7.26999 95.93 7.12998 95.94 7.03998 96.02C7.00998 96.05 7.04999 96.25 7.11999 96.31C7.52999 96.68 7.78999 97.09 7.66999 97.68C7.61999 97.93 7.64999 98.2 7.68999 98.46C7.69999 98.55 7.85999 98.67 7.96999 98.67C8.46999 98.71 9.02999 98.04 8.77999 97.66C8.53999 97.3 8.53998 96.94 8.42998 96.58Z" fill="currentColor"/>
<path fill-rule="evenodd" clip-rule="evenodd" d="M15.0299 100.65C14.9299 100.52 14.82 100.29 14.6 100.41C14.44 100.5 14.1999 100.79 14.2199 100.82C14.5599 101.28 14.0699 101.63 14.1099 102.04C14.1099 102.09 14.1799 102.14 14.2499 102.23C14.3899 102.15 14.5399 102.06 14.6899 101.98C15.4299 101.57 15.5099 101.26 15.0299 100.65Z" fill="currentColor"/>
<path fill-rule="evenodd" clip-rule="evenodd" d="M6.33 90.41C6.26 90.39 6.09 90.51 6.08 90.58C6.04 90.77 6.07001 90.97 6.07001 91.17C6.08001 91.17 6.09 91.17 6.11 91.17C6.11 91.43 6.09 91.7 6.12 91.96C6.14 92.13 6.26 92.19 6.36 92.13C6.72 91.9 6.92 91.59 6.89 91.15C6.86 90.87 6.6 90.47 6.33 90.41Z" fill="currentColor"/>
<path fill-rule="evenodd" clip-rule="evenodd" d="M38.89 117.4C38.9 117.4 38.88 117.29 38.85 117.25C38.43 116.69 37.78 116.59 37.23 116.3C37.11 116.48 37 116.57 36.98 116.68C36.97 116.79 37.03 116.99 37.1 117C37.26 117.04 37.42 117.09 37.57 117.13C37.64 117.22 37.72 117.3 37.85 117.38C37.9 117.32 37.88 117.26 37.85 117.21C38.09 117.29 38.32 117.38 38.54 117.51C38.62 117.56 38.78 117.45 38.89 117.4Z" fill="currentColor"/>
<path fill-rule="evenodd" clip-rule="evenodd" d="M9.40995 99.51C9.18995 99.44 8.89995 99.65 8.87995 99.91C8.82995 100.39 8.95994 100.65 9.25994 100.67C9.46994 100.69 9.96994 100.35 10.0099 100.16C10.0599 99.98 9.70995 99.61 9.40995 99.51Z" fill="currentColor"/>
<path fill-rule="evenodd" clip-rule="evenodd" d="M13.2199 98.09C13.1999 98.04 13.1299 98.01 13.0899 97.97C13.0499 98.02 12.9699 98.07 12.9699 98.12C12.9599 98.63 12.95 99.13 12.96 99.64C12.96 99.69 13.0199 99.78 13.0599 99.79C13.1099 99.8 13.1699 99.74 13.2199 99.7C13.7299 99.29 13.7499 99.19 13.4299 98.6C13.3499 98.45 13.2999 98.26 13.2199 98.09Z" fill="currentColor"/>
<path fill-rule="evenodd" clip-rule="evenodd" d="M10.85 93.32C10.84 93.27 10.77 93.17 10.73 93.18C10.43 93.21 10.09 93.7 10.13 94.05C10.14 94.11 10.21 94.16 10.25 94.21C10.52 94.17 10.89 93.64 10.85 93.32Z" fill="currentColor"/>
<path fill-rule="evenodd" clip-rule="evenodd" d="M10.96 101.72C10.91 101.89 10.83 102.06 11.04 102.2C11.12 102.15 11.29 102.08 11.28 102.05C11.23 101.89 11.15 101.74 11.08 101.59C11.04 101.63 10.98 101.67 10.96 101.72Z" fill="currentColor"/>
<path fill-rule="evenodd" clip-rule="evenodd" d="M42.97 126.72C43.08 126.72 43.2 126.63 43.31 126.58C43.2 126.53 43.09 126.43 42.98 126.43C42.95 126.43 42.92 126.45 42.88 126.46C42.69 126.35 42.44 126.24 42.38 126.35C42.48 126.41 42.52 126.48 42.47 126.56C42.61 126.62 42.74 126.66 42.84 126.67C42.88 126.69 42.93 126.72 42.97 126.72Z" fill="currentColor"/>
<path fill-rule="evenodd" clip-rule="evenodd" d="M20.27 35.43C20.2 35.47 20.18 35.59 20.15 35.69C20.25 35.66 20.36 35.65 20.41 35.58C20.48 35.49 20.38 35.37 20.27 35.43Z" fill="currentColor"/>
<path fill-rule="evenodd" clip-rule="evenodd" d="M20.15 35.69C20.13 35.69 20.11 35.7 20.1 35.7C20.1 35.71 20.1 35.73 20.1 35.74C20.11 35.74 20.13 35.74 20.14 35.73C20.14 35.73 20.14 35.71 20.15 35.69Z" fill="currentColor"/>
<path fill-rule="evenodd" clip-rule="evenodd" d="M19.85 35.99C19.86 36.04 20 36.06 20.1 36.1C20.1 35.98 20.1 35.87 20.1 35.75C19.95 35.76 19.79 35.79 19.85 35.99Z" fill="currentColor"/>
<path fill-rule="evenodd" clip-rule="evenodd" d="M20.09 36.1C20.09 36.12 20.09 36.13 20.09 36.15C20.1 36.15 20.11 36.15 20.11 36.15C20.11 36.14 20.12 36.13 20.12 36.12C20.12 36.1 20.11 36.1 20.09 36.1Z" fill="currentColor"/>
<path fill-rule="evenodd" clip-rule="evenodd" d="M6.59997 47.08C6.58997 47.08 6.57996 47.2 6.58996 47.21C6.66996 47.25 6.75996 47.28 6.83996 47.31C6.82996 47.18 6.81997 47.04 6.59997 47.08Z" fill="currentColor"/>
<path fill-rule="evenodd" clip-rule="evenodd" d="M6.84998 47.31C6.84998 47.33 6.85997 47.35 6.85997 47.38C6.87997 47.38 6.89997 47.38 6.91997 47.38C6.91997 47.36 6.90997 47.35 6.90997 47.33C6.87997 47.33 6.86998 47.32 6.84998 47.31Z" fill="currentColor"/>
<path fill-rule="evenodd" clip-rule="evenodd" d="M5.07001 50.11C5.12001 50.07 5.16001 50.02 5.21001 49.98C5.14001 49.79 5.04 49.78 4.95 49.97C4.93 49.98 5.02001 50.06 5.07001 50.11Z" fill="currentColor"/>
<path fill-rule="evenodd" clip-rule="evenodd" d="M3.80995 51.89C3.75995 51.9 3.72995 52.04 3.69995 52.14C3.80995 52.14 3.92995 52.14 4.03995 52.14C4.01995 52.01 4.00995 51.85 3.80995 51.89Z" fill="currentColor"/>
<path fill-rule="evenodd" clip-rule="evenodd" d="M3.29999 52.54C3.27999 52.54 3.25998 52.54 3.24998 52.54C3.24998 52.56 3.23999 52.59 3.23999 52.61C3.25999 52.6 3.27999 52.59 3.29999 52.59C3.28999 52.57 3.29999 52.56 3.29999 52.54Z" fill="currentColor"/>
<path fill-rule="evenodd" clip-rule="evenodd" d="M3.64998 52.19C3.43998 52.22 3.31999 52.33 3.29999 52.54C3.41999 52.54 3.52998 52.54 3.64998 52.54C3.64998 52.43 3.64998 52.31 3.64998 52.19Z" fill="currentColor"/>
<path fill-rule="evenodd" clip-rule="evenodd" d="M3.23998 52.61C3.15998 52.64 3.07998 52.67 2.99998 52.71C2.97998 52.72 2.99998 52.83 2.99998 52.83C3.19998 52.86 3.21998 52.74 3.23998 52.61Z" fill="currentColor"/>
<path fill-rule="evenodd" clip-rule="evenodd" d="M26.75 114.65C26.79 114.61 26.86 114.58 26.86 114.54C26.86 114.5 26.7999 114.46 26.7599 114.42C26.7199 114.48 26.68 114.54 26.64 114.59C26.68 114.61 26.71 114.63 26.75 114.65Z" fill="currentColor"/>
<path fill-rule="evenodd" clip-rule="evenodd" d="M33.0099 116.53C33.0699 116.68 33.1599 116.71 33.2299 116.61C33.2499 116.58 33.24 116.53 33.24 116.48C33.2 116.46 33.15 116.41 33.13 116.42C33.08 116.44 33.0099 116.51 33.0099 116.53Z" fill="currentColor"/>
<path fill-rule="evenodd" clip-rule="evenodd" d="M40.25 125.76C40.24 125.8 40.32 125.85 40.35 125.89C40.4 125.85 40.44 125.81 40.49 125.77C40.45 125.72 40.41 125.68 40.37 125.63C40.32 125.68 40.25 125.71 40.25 125.76Z" fill="currentColor"/>
<path fill-rule="evenodd" clip-rule="evenodd" d="M47.7 126.57C47.67 126.53 47.62 126.44 47.6 126.45C47.42 126.51 47.41 126.61 47.58 126.7C47.59 126.7 47.66 126.61 47.7 126.57Z" fill="currentColor"/>
<path fill-rule="evenodd" clip-rule="evenodd" d="M112.4 24.54C112.6 24.21 112.49 23.75 112.03 23.21C111.68 23.49 112.34 24.1 112.4 24.54Z" fill="currentColor"/>
<path fill-rule="evenodd" clip-rule="evenodd" d="M66.85 7.96002C66.06 7.89002 67.82 7.75002 66.87 7.58002C66.89 7.86002 66.07 7.60002 65.73 7.66002C65.56 7.96002 66.67 8.23002 66.85 7.96002Z" fill="currentColor"/>
<path fill-rule="evenodd" clip-rule="evenodd" d="M40.51 10.25C39.93 10.44 39.87 10.7 40.05 10.98C40.63 10.79 40.69 10.54 40.51 10.25Z" fill="currentColor"/>
<path fill-rule="evenodd" clip-rule="evenodd" d="M74.9799 8.55998C74.5599 8.59998 74.2699 8.73998 73.7999 8.71998C73.8099 8.43998 70.9799 7.79998 70.4399 8.24998C71.9099 8.45998 73.2499 8.62998 74.5999 8.87998C75.2799 8.99998 75.9599 9.11998 76.6799 9.23998C77.3899 9.37998 78.1199 9.52998 78.9099 9.68998C78.5999 9.23998 77.8499 9.09998 77.0599 8.98998C76.2799 8.88998 75.4599 8.86998 74.9799 8.55998Z" fill="currentColor"/>
<path fill-rule="evenodd" clip-rule="evenodd" d="M69.85 7.42997C69.09 7.35997 69.03 7.76998 68.23 7.65998C68.52 7.97998 67.61 8.07998 68.19 8.16998C68.48 7.73998 69.51 7.81997 69.85 7.42997Z" fill="currentColor"/>
<path fill-rule="evenodd" clip-rule="evenodd" d="M3.77001 51.56C4.00001 50.63 4.29 50.05 4.5 49.54C4.34 49.5 4.1 50.05 3.93 50.59C3.75 51.13 3.70001 51.67 3.77001 51.56Z" fill="currentColor"/>
<path fill-rule="evenodd" clip-rule="evenodd" d="M34.11 23.78C34.46 23.54 34.61 23.73 35 23.43C34.95 23.13 33.88 23.57 34.11 23.78Z" fill="currentColor"/>
<path fill-rule="evenodd" clip-rule="evenodd" d="M78.09 2.65L78.58 2.77001C78.65 2.62001 78.43 2.54 78.48 2.4C78.17 2.34 77.92 2.32001 77.79 2.41001C78.28 2.50001 78.35 2.56 78.09 2.65Z" fill="currentColor"/>
<path fill-rule="evenodd" clip-rule="evenodd" d="M82.25 12.34L82.95 12.58C83.13 12.24 82.3 12.06 82.25 12.34Z" fill="currentColor"/>
<path fill-rule="evenodd" clip-rule="evenodd" d="M85.3599 9.57001C85.2599 9.45001 84.4699 9.06 84.3199 9.2C84.7399 9.27 85.0599 9.73001 85.3599 9.57001Z" fill="currentColor"/>
<path fill-rule="evenodd" clip-rule="evenodd" d="M85.9599 13.39C85.5299 13.22 85.1699 13.14 84.9299 13.2C85.2699 13.25 85.9599 13.73 85.9599 13.39Z" fill="currentColor"/>
<path fill-rule="evenodd" clip-rule="evenodd" d="M87.7999 13.2C87.9799 13.1 87.67 12.91 87.38 12.8C87.08 12.71 86.8099 12.7 87.1099 12.9C87.3199 12.71 87.4199 13.14 87.7999 13.2Z" fill="currentColor"/>
<path fill-rule="evenodd" clip-rule="evenodd" d="M88.0699 13.33C88.6599 13.65 88.7999 13.54 89.1599 13.84C89.3799 13.59 88.0899 13.1 88.0699 13.33Z" fill="currentColor"/>
<path fill-rule="evenodd" clip-rule="evenodd" d="M95.17 16.67C94.88 16.42 94.76 16.42 94.64 16.06C94.58 16.16 94.3699 15.99 94.2999 16.05C94.3799 16.21 94.85 16.75 95.17 16.67Z" fill="currentColor"/>
<path fill-rule="evenodd" clip-rule="evenodd" d="M99.42 10.81C99.06 10.66 98.3599 10 98.3199 10.35C98.7399 10.59 99.28 11.01 99.42 10.81Z" fill="currentColor"/>
<path fill-rule="evenodd" clip-rule="evenodd" d="M99.15 21C99.59 21.34 99.95 21.68 100.24 22.01C100.32 21.77 99.47 21.03 99.15 21Z" fill="currentColor"/>
<path fill-rule="evenodd" clip-rule="evenodd" d="M105.41 21.05C105.72 21.31 106 21.51 106.22 21.55C106.1 21.23 105.61 21 105.41 21.05Z" fill="currentColor"/>
<path fill-rule="evenodd" clip-rule="evenodd" d="M107.1 25.89C106.8 25.58 106.29 25.24 106.44 25.05C106.67 25.19 107.03 25.72 107.17 25.6C106.65 24.68 105.43 24.44 104.53 23.79C104.98 24.48 106.5 25.6 107.1 25.89Z" fill="currentColor"/>
<path fill-rule="evenodd" clip-rule="evenodd" d="M118.1 30.43C118.38 30.82 118.68 30.63 118.64 30.44L118.34 30.04C118.13 30.11 118.37 30.4 118.1 30.43Z" fill="currentColor"/>
<path fill-rule="evenodd" clip-rule="evenodd" d="M120.85 37.8C120.14 37.14 120.36 36.71 119.69 36.06C119.65 36.36 120.48 38.05 120.85 37.8Z" fill="currentColor"/>
<path fill-rule="evenodd" clip-rule="evenodd" d="M124.18 44.42C124.31 44.35 124.43 44.34 124.55 44.43C124.1 43.62 123.98 42.87 123.48 42.25C123.54 42.52 122.99 42.16 122.82 41.67C122.74 41.74 122.59 41.75 122.66 41.93C123.23 42.89 124.02 43.06 124.18 44.42Z" fill="currentColor"/>
<path fill-rule="evenodd" clip-rule="evenodd" d="M124.9 43.92L125.2 44.68C125.53 44.81 125.05 43.58 124.9 43.92Z" fill="currentColor"/>
<path fill-rule="evenodd" clip-rule="evenodd" d="M124.69 45.96C124.8 45.88 125 45.89 124.95 45.68C124.5 45.83 124.94 44.78 124.45 44.84C124.54 45.24 124.57 45.37 124.69 45.96Z" fill="currentColor"/>
<path fill-rule="evenodd" clip-rule="evenodd" d="M119.65 106.77C119.36 106.94 119.5 107.17 119.1 107.6C119.21 107.93 119.82 107.62 119.76 107.24C119.63 107.39 119.47 107.5 119.33 107.56C119.29 107.4 119.78 106.91 119.65 106.77Z" fill="currentColor"/>
<path fill-rule="evenodd" clip-rule="evenodd" d="M94.55 129.32C95.17 128.93 95.81 128.64 95.74 128.41C95.29 128.88 94.45 129.01 94.17 129.32C94.35 129.23 94.53 129.16 94.55 129.32Z" fill="currentColor"/>
<path fill-rule="evenodd" clip-rule="evenodd" d="M79.21 135.16C79.58 135.03 79.88 134.89 79.95 134.7C79.52 134.82 78.92 134.89 79.21 135.16Z" fill="currentColor"/>
<path fill-rule="evenodd" clip-rule="evenodd" d="M64.62 137.64C63.39 137.81 62.78 137.75 61.79 137.81C62.61 137.99 63.74 138.12 64.47 137.82C64.16 137.79 64.53 137.72 64.62 137.64Z" fill="currentColor"/>
<path fill-rule="evenodd" clip-rule="evenodd" d="M62.9399 137.08C63.2999 136.9 63.9199 136.79 64.2399 136.55C63.4799 136.64 63.0899 136.6 62.9399 137.08Z" fill="currentColor"/>
<path fill-rule="evenodd" clip-rule="evenodd" d="M61.62 137.12C61.96 136.92 62.3 137.43 62.78 137.16C62.8 136.95 62.69 136.81 62.44 136.72C61.99 136.81 61.56 136.92 60.96 136.92C61.1 137.23 60.98 137.13 61.12 137.43C60.85 137.39 60.67 137.53 60.95 137.59C61.16 137.37 61.93 137.44 62.11 137.21C61.92 137.21 61.64 137.23 61.62 137.12Z" fill="currentColor"/>
<path fill-rule="evenodd" clip-rule="evenodd" d="M58.9299 137.95C59.7599 138.47 58.9699 138.06 59.5999 137.98C59.9899 137.93 60.5499 138.17 60.7799 137.86C60.0099 137.94 59.6399 137.78 58.9299 137.95Z" fill="currentColor"/>
<path fill-rule="evenodd" clip-rule="evenodd" d="M53.74 137.45C54.3 137.5 55.74 137.66 55.59 137.53C54.85 137.42 54.17 137.35 53.74 137.45Z" fill="currentColor"/>
<path fill-rule="evenodd" clip-rule="evenodd" d="M51.5099 136.35C51.9199 136.4 52.0399 136.27 52.3399 136.48C52.5399 136.16 51.3999 135.99 51.5099 136.35Z" fill="currentColor"/>
<path fill-rule="evenodd" clip-rule="evenodd" d="M49.9299 134.72C50.4899 134.73 50.61 134.89 50.91 134.8C50.8 134.71 49.8299 134.4 49.9299 134.72Z" fill="currentColor"/>
<path fill-rule="evenodd" clip-rule="evenodd" d="M48.03 125.19C48.46 125.3 48.89 125.61 49.27 125.5L49.33 125.25C48.78 125.11 48.49 125.24 48.03 125.19Z" fill="currentColor"/>
<path fill-rule="evenodd" clip-rule="evenodd" d="M41.5099 126.57C42.0199 126.63 42.25 126.88 42.53 126.84C42.43 126.78 42.39 126.71 42.44 126.63C42.01 126.48 41.5199 126.25 41.5099 126.57Z" fill="currentColor"/>
<path fill-rule="evenodd" clip-rule="evenodd" d="M38.3099 128.08C38.4599 128.17 38.4999 128.27 38.5299 128.37C39.2299 128.44 39.4499 128.53 39.9699 128.54C39.3299 128.24 39.2299 128.3 38.8299 128.03C38.9499 128.41 38.3299 127.87 38.3099 128.08Z" fill="currentColor"/>
<path fill-rule="evenodd" clip-rule="evenodd" d="M36.02 117.42C36.44 117.62 36.66 117.83 36.92 118.04C37.2 117.39 37.89 118.76 38.33 118.26C38.02 118.18 37.32 118.02 37.55 117.7C38.07 117.66 38.7199 118.49 38.8699 118.05C38.0499 117.75 37.52 117.54 37 117.01C37.33 117.65 36.52 117.13 36.8 117.68C36.54 117.59 36.06 117.08 36.02 117.42Z" fill="currentColor"/>
<path fill-rule="evenodd" clip-rule="evenodd" d="M21.42 116.69C21.04 116.91 21.57 117.29 21.89 117.34C21.49 117.07 21.82 116.96 21.42 116.69Z" fill="currentColor"/>
<path fill-rule="evenodd" clip-rule="evenodd" d="M16.22 114.45C16.65 114.58 15.66 113.39 15.36 113.28C15.35 113.65 15.2 113.97 15.36 114.4C15.58 114.36 15.75 114.14 16.05 114.39C16.09 114.59 17.06 115.78 17.21 115.49C16.94 115.07 16.58 114.81 16.22 114.45Z" fill="currentColor"/>
<path fill-rule="evenodd" clip-rule="evenodd" d="M40.42 120.93C40.43 120.93 40.44 120.94 40.45 120.94C40.44 120.93 40.43 120.93 40.43 120.92L40.42 120.93Z" fill="currentColor"/>
<path fill-rule="evenodd" clip-rule="evenodd" d="M70.24 133.29L70.25 133.36C70.51 133.3 70.77 133.23 71.02 133.17C70.76 133.21 70.5 133.25 70.24 133.29Z" fill="currentColor"/>
<path fill-rule="evenodd" clip-rule="evenodd" d="M131.43 69.17C131.32 67.35 131.21 65.56 131.11 63.83C131.08 63.4 131.05 62.97 131.02 62.55C130.96 62.13 130.91 61.71 130.85 61.3C130.73 60.48 130.62 59.68 130.51 58.91C130.1 58.29 130.17 55.95 129.37 55.42C129.33 54.49 129.32 54.16 128.92 53.31C129.47 53.55 128.7 52.31 129.11 52.39C128.74 51.7 128.89 50.72 128.5 50.48C128.69 51.5 129.09 52.07 128.78 52.48C128.63 51.51 128.13 50.58 128.32 49.83C128.03 49.11 127.2 47.88 127.31 47.18C126.92 47.24 127.07 46.31 126.69 46C126.53 45.99 126.58 46.31 126.46 46.1C126.07 45.56 126.12 44.67 125.75 44.25C125.81 44.44 125.87 44.62 125.71 44.63C125.47 44.18 125.67 44.12 125.43 43.67C125.15 43.73 125.56 44.39 125.56 44.7C125.93 44.91 126.62 46.68 126.51 46.98C126.18 46.5 125.92 46.41 125.97 45.78C125.71 45.76 125.93 46.15 125.77 46.22C125.96 46.73 126.22 46.64 126.41 47.2C126.16 47.18 125.95 46.88 125.71 46.77C125.89 47.33 126.18 47.06 126.37 47.57C126.28 47.77 125.94 47.21 126.05 47.69C126.12 47.74 126.17 47.8 126.2 47.87C126.15 47.88 126.1 47.89 126.05 47.91C125.95 47.96 125.84 48.02 125.74 48.07C125.76 48 125.8 47.95 125.87 47.92C125.61 47.5 125.66 47.41 125.61 46.97C125.42 47.05 125.57 47.74 125.68 48.1C125.46 48.22 125.24 48.33 125.01 48.44C124.99 48.45 124.95 48.42 124.91 48.38C124.87 48.23 124.82 48.09 124.77 47.94C124.76 47.77 124.73 47.6 124.57 47.47C124.38 47.02 124.23 46.58 124.43 46.24C123.9 45.98 123.29 43.93 123.36 43.38C123.16 43.42 122.93 43.15 122.73 42.83C122.73 42.71 122.73 42.6 122.75 42.48C122.77 42.32 122.64 42.26 122.47 42.3C122.35 42.01 122.3 41.76 122.37 41.72C122.12 41.49 121.88 41.25 121.63 40.99C121.55 40.79 121.47 40.59 121.38 40.39C121.4 40.39 121.42 40.4 121.44 40.41C121.13 39.74 120.81 39.12 120.47 38.52C120.46 38.51 120.46 38.5 120.45 38.49C119.71 37.12 118.85 35.79 117.9 34.56C117.57 34 117.23 33.41 116.87 32.76C116.76 32.85 116.62 32.79 116.48 32.65C116.41 32.01 115.75 31.36 115.21 30.78C115.08 30.34 114.87 29.92 114.6 29.51C114.62 29.48 114.64 29.45 114.68 29.42C114.49 29.17 114.41 29.14 114.35 29.17C114.27 29.06 114.18 28.96 114.1 28.86C113.74 28.42 113.34 27.99 112.97 27.56C112.58 27.14 112.21 26.72 111.92 26.28C111.02 24.87 110.12 23.42 109.1 22.04C108.04 20.71 106.85 19.46 105.28 18.67C104.97 18.42 104.95 18.86 104.67 18.66C103.75 17.8 102.53 17.02 101.3 16.19C100.02 15.44 98.74 14.62 97.52 13.92C95.82 12.86 94.34 11.51 92.43 10.8C91.31 10.42 90.3 10.15 89.35 10.07C88.4 10 87.52 10.08 86.69 10.34C85.03 9.64 82.68 10.41 81.19 9.25999C80.82 9.30999 80.78 9.69001 80.17 9.49001C79.73 9.40001 79.78 9.2 79.57 9.06C79.47 9.52 79.72 9.47 79.37 9.8C80.66 9.91 81.22 10.14 82.39 10.02C82.68 10.15 82.75 10.32 83.22 10.43C85.82 10.47 88.92 10.71 92.19 11.81C95.33 12.91 97.94 15.18 100.24 15.83C100.66 16.17 100.21 16.43 100.47 16.75C101.73 17.09 102.24 18.24 103.49 19C104.35 19.57 105.42 19.65 106.35 20.38C107.27 21.15 107.9 21.91 108.56 22.71C109.19 23.53 109.84 24.39 110.79 25.38C110.8 25.44 110.81 25.49 110.82 25.55C110.36 25.17 110.04 24.81 109.31 24.25C109.41 24.07 109.69 24.51 109.81 24.41C109.28 23.86 108.81 23.52 108.41 23.17C108.01 22.82 107.68 22.45 107.39 21.89C107.17 22.23 106.58 21.55 106.3 21.71C106.92 22.3 107.72 23.04 107.71 23.66C107.1 23.33 107.2 22.78 106.84 22.76C107.22 23.48 107.67 23.87 108.2 24.24C108.73 24.61 109.26 25.02 109.86 25.7C109.78 25.79 109.68 25.78 109.57 25.76C109.88 26.31 110.5 26.68 110.96 27.01C111.06 27.17 111.18 27.32 111.29 27.47C111.21 27.42 111.13 27.38 111.03 27.36C111.13 27.57 111.26 27.79 111.34 28C111.25 27.95 111.17 27.92 111.12 27.93C111.23 28.04 111.33 28.15 111.42 28.26C111.44 28.37 111.45 28.48 111.42 28.57C110.62 28.13 109.88 27.92 109.16 27.75C109.05 27.59 108.97 27.43 108.91 27.29L108.73 27.47C108.84 27.56 108.91 27.64 108.97 27.71C108.86 27.69 108.76 27.66 108.65 27.64C108.6 27.59 108.55 27.54 108.51 27.48C108.6 27.39 108.43 26.98 108.3 27.26C108.44 27.4 108.47 27.5 108.42 27.58C108.17 27.43 107.88 27.34 107.68 27.14C107.46 26.92 107.38 26.57 107.2 26.32C106.95 25.98 106.2 25.98 106.03 26.37C105.97 26.5 105.91 26.61 105.84 26.73C105.61 26.61 105.38 26.47 105.15 26.32C105.24 25.9 105.18 25.47 104.99 25.04C104.96 24.98 104.76 24.97 104.64 24.97C104.59 24.97 104.51 25.02 104.49 25.07C104.48 25.09 104.47 25.11 104.46 25.14C104.11 24.99 103.75 24.79 103.66 24.37C103.56 24.48 103.51 24.59 103.55 24.73C103.82 24.91 104.08 25.06 104.39 25.37C104.39 25.4 104.39 25.43 104.4 25.44C104.55 25.59 104.62 25.76 104.68 25.93C103.97 25.25 103.31 24.68 102.66 24.25C102.51 24.15 102.36 24.07 102.22 23.98C102.24 23.96 102.26 23.94 102.28 23.92C102.24 23.87 102.2 23.82 102.16 23.77C102.12 23.81 102.08 23.84 102.05 23.88C101.58 23.61 101.13 23.4 100.69 23.22C100.53 23.06 100.38 22.9 100.26 22.76C100.1 22.64 99.92 22.54 99.74 22.43C97.1 20.02 93.64 17.69 89.85 15.98C85.71 14.07 81.26 12.91 77.54 12.51C76.69 12.11 75.89 11.81 75.01 11.63C74.13 11.44 73.19 11.3 72.07 11.3C70.92 10.27 68.66 10.13 66.46 10.24C65.91 10.27 65.36 10.3 64.83 10.33C64.3 10.37 63.78 10.42 63.3 10.44C62.33 10.47 61.49 10.44 60.87 10.23C59.82 11.54 56.28 11.22 55.04 10.78C54.89 11.25 54.37 11.46 53.76 11.54C53.15 11.63 52.44 11.62 51.88 11.58C51.84 11.4 52.7 11.01 51.8 11.21C51.37 11.26 51.41 11.46 51.21 11.59C50.77 11.39 50.22 11.3 49.95 10.96C49.14 11.07 49.09 11.4 48.28 11.51C48.43 11.21 48.51 10.89 48.98 10.68C50.1 10.23 50.35 10.58 51 10.6C50.91 10.29 50.5 10.29 51.11 10.06C51.56 10.78 52.47 9.58999 53.16 10.18C52.76 10.28 52.45 10.4 52.34 10.6C53.16 10.31 54.16 10.03 54.88 9.78999C54.65 9.82999 54.31 9.81 54.64 9.7C50.67 9.55 46.96 10.27 43.47 11.49C39.97 12.72 36.68 14.44 33.37 16.49C32.85 16.43 32.1 16.78 31.37 17.07C29.62 18.55 28.28 19.46 28.58 20.91C30.72 19.36 32.32 17.93 36.13 16.01C37.06 15.89 37.88 16.03 38.36 16.61C35.58 18.45 32.05 19.5 29.66 21.69C29.32 22.01 29.28 22.26 28.94 22.53C26.87 24.18 25.66 24.8 24.21 25.89C21.39 28.02 19.02 30.98 16.73 33.63C16.23 34.22 15.28 34.48 15.22 35.46C15.91 34.78 16.62 34.06 17.21 33.34C17.82 32.63 18.37 31.96 18.72 31.36C19.5 30.73 20.55 29.87 21.55 28.91C22.61 28.01 23.64 27.01 24.55 26.27C25.07 25.98 25.56 25.68 26.03 25.38C26.51 25.09 26.96 24.8 27.4 24.5C28.27 23.88 29.12 23.28 29.99 22.65C31.73 21.39 33.62 20.1 36.21 18.98C36.78 19.44 37.31 19.02 38.17 18.67C38.45 19.37 39.2 19.35 40.15 19C40.59 18.59 39.61 18.68 40.07 18.34C40.7 18.3 41.3 18.3 41.6 18.77C41.1 18.98 40.57 19.29 40.25 19.24C40.67 19.71 41.76 19.14 42.05 19.82C41.18 20.29 40.37 20.83 39.59 21.36C38.83 21.93 38.09 22.49 37.37 23.06C35.93 24.22 34.52 25.33 32.87 26.27C32.26 26.28 31.75 26.02 31.09 26.15C31.08 26.82 32.4 26.23 32.86 26.59C32.52 27.09 31.99 27.58 31.51 28.09C31.37 28.25 31.23 28.41 31.09 28.56C31.06 28.57 31.03 28.58 30.99 28.59C30.37 28.74 29.65 28.95 29.37 29.6C29.32 29.71 29.26 29.81 29.21 29.91C28.74 30.27 28.31 30.63 27.92 30.99C27.9 31 27.88 31.01 27.85 31.02C27.81 31.08 27.76 31.12 27.72 31.17C27.65 31.24 27.56 31.31 27.49 31.39C26.99 31.78 26.35 31.8 25.7 31.79C25.47 31.79 25.35 31.92 25.29 32.13C25.25 32.25 25.19 32.38 25.11 32.47C24.91 32.69 24.73 33.08 24.35 32.67C24 32.75 23.82 33.02 23.7 33.31C23.48 33.85 23.18 34.23 22.53 34.19C22.41 34.18 22.25 34.23 22.17 34.31C21.72 34.79 21.06 35.09 20.85 35.77C20.72 36.21 20.36 36.12 20.07 36.17C20.02 36.28 19.98 36.43 19.91 36.46C18.92 36.76 18.18 37.39 17.48 38.11C17.11 38.49 16.77 38.86 16.24 39.07C15.53 39.36 14.69 39.62 14.83 40.71C14.85 40.85 14.61 41.03 14.47 41.18C14.23 41.42 13.99 41.64 13.73 41.86C13.6 41.97 13.48 42.23 13.27 41.98C13.13 41.81 12.77 41.71 13.05 41.37C13.13 41.27 13.19 41.14 13.19 41.02C13.19 40.9 13.11 40.78 13.07 40.67C13.01 40.71 12.96 40.74 12.9 40.78C12.46 41.11 12.19 41.59 12.22 42.09C12.24 42.35 12.31 42.54 12.11 42.74C11.78 43.06 11.48 43.43 10.95 43.42C10.31 43.41 10.78 43.77 10.73 43.99C10.63 44.41 10.39 44.96 10.04 45.14C9.67997 45.33 9.42998 45.58 9.23998 45.86C9.31998 45.48 9.40997 45.1 9.55997 44.73C10.38 42.47 12.36 40.04 13.17 37.8C14.16 37.47 13.37 37.13 14.46 36.31C14.33 36.02 14.17 35.47 13.85 35.63C13.71 35.59 13.55 35.72 13.39 35.85C12.91 37.11 12.14 37.84 11.83 39.03C9.45998 41.45 8.10998 44.33 7.12998 47.44C7.03998 47.45 6.95997 47.46 6.85997 47.45C6.86997 47.58 6.93997 47.68 7.02997 47.74C7.00997 47.81 6.98997 47.87 6.96997 47.94C6.87997 48.24 6.79997 48.54 6.71997 48.84C6.54997 48.95 6.37998 49.05 6.18998 49.14C5.84998 49.29 5.61997 49.59 5.60997 50.06C5.58997 51.4 5.55998 51.41 4.34998 52.11C4.24998 52.17 4.13997 52.2 4.02997 52.23C3.99997 52.47 3.86997 52.61 3.63997 52.64C3.66997 52.96 4.16997 53.26 3.63997 53.61C3.36997 53.79 3.12998 54.05 2.95998 54.33C2.88998 54.45 2.81998 54.56 2.73998 54.67C2.73998 54.62 2.72998 54.58 2.71998 54.54C2.69998 54.62 2.66997 54.72 2.63997 54.81C2.52997 54.94 2.39998 55.06 2.20998 55.16C1.82998 55.36 2.18997 55.73 2.33997 56C1.71997 56.75 2.34997 57.86 1.61997 58.58C1.60997 59.11 1.69998 59.67 1.56998 60.17C1.41998 60.74 1.13997 61.25 1.22997 61.88C1.29997 62.34 1.04997 62.62 0.609975 62.75C0.529975 62.77 0.429975 63.02 0.469975 63.08C0.749975 63.51 0.569981 63.91 0.459981 64.32C0.969981 64.95 0.849981 65.71 0.819981 66.43C0.789981 67.14 1.00998 67.9 0.469975 68.54C0.369975 68.66 0.479976 68.94 0.689976 69.02C0.939976 69.12 1.19997 69.18 1.17997 69.53C1.16997 69.8 1.17997 70.06 1.19997 70.33C1.26997 71.43 1.04998 72.57 1.59998 73.63C1.66998 73.76 1.55997 74.01 1.49997 74.19C1.43997 74.35 1.21997 74.46 1.41997 74.68C1.72997 75.01 1.64997 75.43 1.61997 75.82C1.55997 76.66 1.56997 77.04 1.75997 77.38C2.03997 77.89 2.25997 78.45 2.74997 78.84C2.93997 78.99 3.16997 79.25 3.17997 79.47C3.20997 80.08 3.32997 80.64 3.61997 81.16C3.49997 82.2 3.99997 83.06 4.44997 83.93C4.50997 84.04 4.60997 84.24 4.64997 84.23C5.41997 84.03 5.53997 84.83 6.00997 85.08C6.47997 85.33 6.96998 85.56 7.45998 85.79C7.54998 86.01 7.63997 86.24 7.72997 86.47C7.69997 86.54 7.71998 86.6 7.79998 86.64C7.87998 86.86 7.95997 87.1 8.03997 87.33C7.75997 87.62 7.56997 87.89 7.86997 88.4C8.18997 88.94 8.29998 89.61 8.45998 90.23C8.50998 90.44 8.56997 90.62 8.75997 90.68C9.03997 90.77 9.20998 90.83 9.01998 91.19C8.87998 91.47 8.94997 91.9 8.75997 92.12C8.28997 92.65 8.90998 92.94 8.95998 93.35C8.97998 93.56 9.31998 93.54 9.45998 93.43C9.82998 93.14 10.13 92.78 10.49 92.49C10.84 92.21 10.64 92.01 10.53 91.69C10.31 91.06 10.44 90.39 10.53 89.73C10.54 89.68 10.61 89.64 10.65 89.59C10.69 89.64 10.78 89.69 10.78 89.74C10.81 90.27 11.33 90.47 11.53 90.87C11.63 91.06 11.14 91.37 11.53 91.48C12.13 91.65 12.37 92.06 12.56 92.58C12.79 93.19 13.01 93.8 13.28 94.39C13.57 95.04 13.91 95.68 14.23 96.32C14.31 96.49 14.46 96.69 14.44 96.85C14.35 97.53 14.67 98.03 15.15 98.4C15.66 98.79 15.66 99.28 15.65 99.83C15.64 100.16 15.59 100.51 15.87 100.76C16.42 101.25 16.61 101.97 17 102.56C17.17 102.82 17.21 102.44 17.28 102.31C17.33 102.21 17.42 102.13 17.49 102.04C17.53 102.09 17.61 102.15 17.61 102.2C17.59 102.98 17.81 103.75 17.39 104.52C17.1 105.05 17.28 105.64 17.62 106.2C18.19 107.13 18.26 107.27 19.15 107.57C19.9 107.82 20.03 107.96 20.05 108.65C20.07 109.25 20 109.86 20.58 110.28C20.68 110.35 20.81 110.49 20.81 110.6C20.8 111.53 21.5 112 22.06 112.55C22.48 112.96 22.82 113.5 23.46 113.64C23.75 114.25 24.27 114.67 24.67 115.19C25.11 115.77 26 115.81 26.21 116.61C26.24 116.74 26.4 116.7 26.47 116.53C26.52 116.41 26.51 116.27 26.57 116.15C26.59 116.11 26.62 116.07 26.64 116.03C26.95 116.28 27.3 116.53 27.64 116.77C27.4 116.53 27.12 116.1 26.83 115.73C26.84 115.7 26.86 115.68 26.86 115.65C26.92 115.33 26.68 115.23 26.4 115.15C26.23 115.1 26.01 114.94 25.95 114.79C25.91 114.68 25.85 114.59 25.8 114.49C25.83 114.49 25.87 114.5 25.91 114.51C25.84 114.42 25.78 114.38 25.72 114.34C25.38 113.81 24.87 113.42 24.52 112.9C24.27 112.52 23.84 112.14 23.84 111.75C23.83 111.27 24.18 110.79 24.37 110.31C24.44 110.13 24.5 109.95 24.58 109.77C24.6 109.71 24.66 109.66 24.71 109.62C24.93 109.47 24.77 109.55 24.82 109.77C24.93 110.27 25.2 110.39 25.65 110.38C26.08 110.37 25.96 110.58 25.85 110.86C25.68 111.31 26.17 111.09 26.32 111.23C26.47 111.36 26.5 111.49 26.31 111.51C25.67 111.55 25.85 111.89 26 112.24C25.67 112.55 25.66 112.94 25.76 113.34C25.77 113.4 25.82 113.48 25.87 113.5C25.91 113.52 25.99 113.46 26.03 113.42C26.17 113.28 26.38 113.15 26.42 112.98C26.61 112.22 27.07 111.93 27.84 111.93C28.13 112.08 28.42 112.16 28.65 112.09C28.57 112.27 28.53 112.44 28.59 112.63C28.54 112.6 28.51 112.58 28.5 112.57C28.54 112.62 28.59 112.66 28.63 112.71C28.67 112.8 28.73 112.88 28.84 112.97C28.95 113.06 28.91 113.26 28.84 113.44C28.74 113.37 28.64 113.29 28.52 113.22C28.67 112.89 28 112.19 27.96 112.59C28.64 112.67 27.94 112.96 28.08 113.1C28.31 113.22 28.5 113.47 28.71 113.71C28.52 114.11 28.35 114.53 28.22 114.95C28 115.62 28.01 116.26 28.67 116.72C29.29 117.15 29.45 117.75 29.33 118.46C29.3 118.65 29.34 118.86 29.31 119.06C29.3 119.15 29.31 119.23 29.31 119.31C29.21 119.29 29.1 119.27 28.98 119.23C29.1 119.35 29.22 119.44 29.34 119.52C29.35 119.58 29.37 119.64 29.39 119.69C28.6 119.3 27.79 118.65 26.97 117.95C26.33 117.39 25.68 116.81 25.07 116.27C24.48 115.71 23.94 115.17 23.41 114.79C23.61 114.97 22.8 114.56 22.58 114.16C22.58 114.85 23.73 116.08 23.91 117.03C24.39 117.47 24.68 117.84 24.74 118.2C24.95 118.36 25.13 118.47 25.28 118.5C25.04 119.2 28.02 121.14 27.43 121.33C27.96 121.55 28.44 121.62 29.16 122.06C29.32 121.92 29.02 121.76 29.25 121.62C29.62 121.86 29.93 122 30.12 121.95C29.34 121.43 29.02 121.73 28.33 121.35C28.59 121.17 28.29 120.81 27.97 120.78C27.61 120.89 28.37 121.13 28.21 121.26C28.01 121.12 28 121.37 27.74 121.13C28.25 120.93 26.68 120.41 26.56 119.86C26.67 119.74 26.8 119.69 27 119.76C27.83 120.51 27.57 119.96 28.05 120.1C28.46 120.34 28.25 120.53 28.53 120.76C28.82 120.47 29.51 120.89 30 121.28C30.69 121.52 31.41 121.57 32.08 121.65C32.12 121.68 32.15 121.71 32.19 121.74C32.57 122.08 33.02 122.35 33.45 122.64C33.55 122.71 33.69 122.65 33.7 122.48C33.72 122.09 33.89 121.64 33.61 121.33C33.23 120.91 32.94 120.32 32.2 120.38C32.04 120.39 31.8 120.27 31.7 120.13C31.56 119.93 31.43 119.72 31.29 119.52C31.32 119.5 31.37 119.48 31.43 119.47C31.32 119.42 31.24 119.37 31.16 119.32C30.95 119 30.75 118.67 30.54 118.34C30.74 117.8 30.92 117.25 31.15 116.72C31.24 116.53 31.29 116.36 31.23 116.17C31.21 116.12 31.12 116.04 31.12 116.04C30.39 116.63 30.27 115.78 29.93 115.52C29.67 115.33 29.66 115.01 29.68 114.71C30.11 114.56 30.28 115.39 30.77 115.19C30.81 115.23 30.86 115.28 30.91 115.32C31.18 115.71 31.65 116.19 32.18 116.56C32.73 116.96 33.25 117.31 33.5 117.53C33.46 117.44 33.75 117.32 33.85 117.36C34.12 117.78 35.55 117.97 34.88 118.07C35.31 118.37 35.51 118.23 35.76 118.19C34.7 117.78 33.87 117.09 33.1 117C32.97 116.52 32.3 116.22 31.8 115.9C31.61 115.77 31.44 115.66 31.31 115.54C31.39 115.53 31.49 115.48 31.57 115.45C31.6 115.44 31.62 115.34 31.6 115.31C31.54 115.19 31.43 115.1 31.39 114.98C31.33 114.8 31.27 114.58 31.49 114.46C31.66 114.37 31.85 114.33 32.04 114.47C32.19 114.58 32.35 114.66 32.51 114.75C32.53 114.95 32.5 115.18 32.6 115.32C32.69 115.45 32.92 115.51 33.1 115.54C33.37 115.58 33.64 115.55 33.9 115.63C33.77 115.68 33.63 115.66 33.95 115.84C34.07 115.84 34.21 115.86 34.35 115.9C34.4 115.93 34.45 115.94 34.5 115.95C35.25 116.21 36.14 116.88 36.71 116.98C36.36 116.75 36.02 116.54 35.69 116.32C35.89 116.33 36.09 116.33 36.3 116.32C36.35 116.32 36.41 116.25 36.43 116.2C36.44 116.18 36.4 116.1 36.37 116.08C36.09 115.89 35.8 115.9 35.52 116.08C35.49 116.1 35.48 116.14 35.46 116.18C35.27 116.06 35.09 115.93 34.91 115.81C35.09 115.68 35.26 115.53 35.48 115.57C35.71 115.61 35.95 115.6 36.19 115.58C36.4 115.79 36.63 115.99 36.89 116.11C36.96 115.89 37.36 116.31 37.39 116.01C37.42 115.94 37.4 115.87 37.36 115.8C37.76 116.01 38.15 115.98 38.56 115.97C38.99 115.96 39.26 116.03 39.42 116.54C39.5 116.8 39.69 117 39.95 117.11C39.91 117.26 40.06 117.44 40.25 117.62C39.82 117.6 39.66 118.01 39.13 117.84C39.35 117.96 39.51 118.08 39.54 118.22C39.37 118.35 39 118.17 38.88 118.37C39.37 118.49 39.91 118.82 40.4 119.27C40.57 118.85 41.28 119.35 41.48 119.49C41.24 119.64 40.87 119.52 40.56 119.25C40.64 119.71 40.03 119.13 40.02 119.47C40.48 119.8 42.18 119.51 42.56 120.41C41.47 119.86 41.11 120.14 40.38 120.01C40.01 120.38 40.13 120.68 40.43 120.95L40.52 120.73C40.8 120.82 40.83 120.94 40.99 121.04C40.88 121.07 40.78 121.11 40.93 121.2C40.82 121.38 40.76 121.02 40.46 120.97C40.84 121.3 41.47 121.59 41.83 121.94C42.99 122.24 44.52 123.3 45.49 123.33C45.11 123.09 44.16 122.91 44.18 122.42C44.59 122.12 44.89 122.89 45.15 122.58C44.61 122.27 44.3 122.37 44.19 121.97C44.36 122.03 44.36 121.87 44.5 121.9C44.99 122.18 45.51 122.62 45.36 122.83C45.4 122.56 45.67 123.17 45.78 122.89C45.61 122.75 45.67 122.56 45.64 122.39C45 122.19 44.62 121.92 44.61 121.58C45.45 121.51 46.01 121.93 46.64 121.99C46.76 122.23 46.91 122.45 47.1 122.64C47.27 122.81 47.45 122.77 47.64 122.7C47.8 122.64 47.89 122.39 48.13 122.54C48.46 122.74 48.86 122.87 49.13 123.13C49.74 123.75 50.45 124.17 51.26 124.48C51.27 124.48 51.27 124.49 51.27 124.5C51.25 124.53 51.22 124.56 51.21 124.6C50.45 124.48 49.91 124.67 49.15 124.27C49.18 124.34 49.24 124.37 49.29 124.42C48.81 124.32 48.32 124.23 47.82 124.14C47.48 124.66 48.39 124.13 48.35 124.56C48.03 124.64 46.98 124.41 46.96 124.05C47.2 124.16 47.45 124.27 47.68 124.34C47.61 124.15 47.29 124.03 47.01 123.91V123.9C47 123.9 46.98 123.89 46.97 123.89C46.8 123.81 46.64 123.73 46.57 123.61C46.47 123.66 45.8 123.56 46.1 123.72C46.11 123.72 46.14 123.73 46.15 123.74C45.15 123.52 44.22 123.18 43.33 122.92C42.2 122.54 41.12 122.24 40 122.24C39.78 121.77 39.34 121.59 38.88 121.55C37.69 121.2 36.77 120.48 36.15 119.87C35.77 120.32 35.21 119.11 34.65 119.09C34.66 118.96 34.57 118.88 34.77 118.87C33.58 118.79 33.5 117.49 32.25 117.07C32.73 117.43 31.56 117.19 32.51 117.72C32.77 117.65 32.37 117.26 32.69 117.43C32.39 117.85 33.44 118.36 33.59 118.96C34.5 118.95 34.96 119.76 35.92 120.32C35.94 120.51 35.94 121.09 36.37 121.01C35.83 120.8 36.6 120.79 36.69 120.69C37.21 120.93 37.63 121.28 38.06 121.59C37.76 121.65 37.51 121.74 37.37 121.83C37.49 121.88 37.6 121.92 37.72 121.97C37.71 122.06 37.73 122.11 37.56 122.22C38.12 122.6 38.26 122.38 38.58 122.42C38.17 122.85 40 123.32 40.35 123.8C40.39 123.62 40.55 123.61 40.85 123.72C40.75 123.81 40.63 123.79 40.76 123.96C43.39 124.87 45.82 125.57 48.23 126.29C49.12 126.23 51.54 126.56 51.26 127.38C54.19 128.31 57.33 128.5 60.62 128.78C61.73 128.39 63.09 128.59 64.1 128.68C63.95 128.66 64.4 128.47 64.68 128.57C65.72 128.91 63.97 129.25 63.1 129.21C63.86 129.2 63.12 129.77 62.97 129.97C61.31 130.13 59.96 130.06 58.5 130.21C58.11 130.16 58.07 129.94 57.62 129.91C56.97 130.21 56.32 129.59 55.56 129.57C55.12 129.55 54.76 129.88 54.33 129.82C53.84 129.76 53.45 129.35 53.04 129.29C52.79 129.25 52.34 129.34 52.13 129.32C52.15 129.32 52.26 129.17 52.3 129.18C51.86 129.11 51.6 129.31 51.22 129.27C51.15 129.26 51.15 129 51.12 128.99C50.62 128.73 49.89 129.01 49.31 128.9C48.94 128.56 49.88 128.64 49.25 128.45C49.15 128.72 48.54 128.52 48.28 128.65C47.97 128.09 46.63 128.28 46.92 127.87C46.41 127.81 45.7 127.76 45.02 127.6C44.35 127.44 43.69 127.26 43.25 127.09C43.41 127.16 43.36 127.27 43.32 127.38C42.25 127 41.9 126.88 41.27 126.83C41.3 126.75 41.42 126.78 41.47 126.72C40.66 126.44 39.9 126.23 39.25 125.94C38.6 125.65 38.03 125.37 37.57 125.1C37.39 125.14 37.24 125.23 37.02 125.22C36.76 124.86 36.64 124.9 36.3 124.97C36.09 124.7 36.35 124.44 35.89 124.4C36.26 124.84 35.23 124.4 34.92 124.31C34.99 124.16 34.59 124.03 34.79 123.87C34.84 123.68 35.23 123.98 35.31 123.84C34.41 123.43 34.3 123.66 34.05 123.99C34.32 124.27 34.87 124.54 35.18 124.82C35.64 124.51 37 125.47 37.25 125.8C37.07 125.72 37.07 125.88 36.91 125.82C36.93 125.72 37.03 125.61 36.87 125.52C35.85 125.62 35.1 124.94 34.04 124.36C34.21 124.82 33.66 124.46 33.5 124.75C34.6 125.28 35.72 125.79 36.71 126.28C36.34 125.92 37.22 126.24 37.4 126.23C37.62 126.47 38.32 127.06 38.56 127.05C38.4 126.96 38.46 126.86 38.51 126.75C38.94 127.4 39.9 127.55 40.69 127.97C39.79 127.59 40.14 127.94 39.44 127.78C40.04 128.12 40.36 128.36 40.93 128.23L40.85 128.47C41.58 128.59 42.44 128.96 43.35 129.35C43.81 129.54 44.27 129.75 44.74 129.91C45.22 130.05 45.7 130.15 46.17 130.2C46.17 130.3 46.09 130.43 46.26 130.49C47.91 130.58 50.12 131.73 50.98 131.53C50.99 131.87 50.21 131.83 49.87 131.55C49.86 132.15 50.83 131.92 51.23 131.91C51.21 131.91 51.23 132.08 51.2 132.08C51.83 132.09 52.16 131.75 52.82 131.81C53.66 131.88 53.84 132.36 54.95 132.37C54.67 131.93 56.09 132.5 56.52 132.33C55.69 132.2 56.17 132.16 56.84 132.23C57.51 132.28 58.39 132.35 58.37 132.64C57.86 132.59 57.77 132.8 57.42 132.84C58.28 132.85 57.87 132.95 58.02 133.3C58.72 133.24 58.79 133.48 59.27 133.53C59.21 133.26 58.58 133.26 58.35 133.06C58.56 133.07 58.69 133.04 58.82 133C59.18 133.12 59.4 133.56 59.75 133.21C59.73 133.36 59.78 133.48 59.9 133.56C58.63 133.6 57.76 133.64 56.91 133.61C56.07 133.52 55.25 133.36 54.09 133.03C53.37 133.06 52.65 132.88 51.93 132.72C51.2 132.56 50.47 132.44 49.7 132.47C49.71 132.31 49.2 132.29 49.29 132.11C47.32 131.87 45.48 130.56 43.78 130.67C44.2 130.84 44.83 130.92 44.79 131.16C44.31 131.05 42.13 130.55 42.78 130.15C42.41 130.07 42.06 130.03 41.56 129.81C41.22 130.07 42.33 130.1 42.23 130.32C41.54 130.12 39.97 129.73 39.63 129.12C38.26 128.67 37.12 128.1 36.09 127.61C35.07 127.1 34.18 126.58 33.44 125.96C33.16 126.31 33.24 125.65 32.95 125.53C32.55 125.43 32.89 125.97 32.62 125.83C32.48 125.75 32.43 125.8 32.31 125.75C31.75 125.51 31.92 125.28 31.61 125.05C31.33 125.16 30.7 124.7 30.17 124.4C30.38 123.78 29.21 123.55 28.68 123.2C27.58 122.53 26.46 121.52 25.34 120.63C24.25 119.71 23.16 118.9 22.4 118.23C23.46 119.45 24.06 119.55 24.88 120.67C25.73 121.09 26.56 121.74 27.4 122.43C28.26 123.09 29.17 123.73 30.07 124.24C29.94 124.41 30.15 124.59 30.13 124.77C29.91 124.78 29.55 124.58 29.32 124.58C29.76 125.06 31.47 125.46 32.12 126.43C32.32 126.23 32.7 126.62 33.01 126.8C33.73 126.51 35.86 127.57 36.64 128.05C36.54 128.18 35.33 127.45 35.71 127.8C36.14 128 36.59 128.2 36.48 128.44C36.21 128.37 35.67 127.95 35.58 128.11C35.99 128.44 37 128.74 36.54 129.12C37.13 129.46 36.47 128.73 37.11 129.01C37.12 129.09 37.19 129.16 37.37 129.22C37.41 129.67 36.95 129.48 36.71 129.57C37.28 130.08 37.45 129.78 37.54 129.67C37.91 130.09 37.04 129.79 37.35 130.14C37.92 130.57 38.62 130.83 38.96 130.95C38.79 130.87 38.75 130.77 38.71 130.68C38.96 130.83 39.43 130.68 39.47 130.96C39.29 130.91 39.04 130.79 38.98 130.87C39.76 131.4 41.22 131.71 41.61 132.27C42.02 132.3 41.41 131.93 41.87 132C42.79 132.19 42.58 132.56 43.16 132.81C43.28 132.72 43.1 132.33 43.43 132.46C43.96 132.7 44.98 132.74 44.77 133.11C44.59 133.13 43.54 132.87 43.93 133.07C44.86 133.15 45.44 133.49 45.91 133.23C46.52 133.49 45.69 133.64 46.27 133.84C46.5 133.85 46.37 133.53 46.66 133.59C46.83 133.79 48.44 134.56 47.73 134.03C48.39 134.27 48.52 134.29 49.47 134.53C49.52 134.41 49.47 134.21 49.69 134.23C51 134.66 52.27 134.79 53.49 134.96C54.71 135.1 55.89 135.26 57.08 135.48C57.15 135.34 56.85 135.25 57.1 135.23C58 135.41 58.74 135.57 59.36 135.26C59.36 135.38 59.28 135.44 59.19 135.51C59.86 135.39 60.7 135.61 61.3 135.77C60.85 136.09 60.02 135.77 59.82 136.31C60.96 136.31 61.46 135.63 62.76 135.82C62.98 135.63 62.34 135.49 62.75 135.48C63.24 135.6 63.38 135.58 63.72 135.4C63.72 135.69 64.21 135.69 64.54 135.79C65.81 135.41 67.1 135.92 68.24 135.33C68.89 135.34 69.61 135.35 70.36 135.29C71.11 135.2 71.88 135.09 72.63 134.95C74.14 134.68 75.56 134.34 76.54 134C76.73 134.19 77.44 133.88 77.43 134.23C78.26 133.7 78.89 134.08 79.44 133.54C79.24 133.58 79.06 133.61 79.08 133.46C79.44 133.29 79.48 133.3 80.15 133.09C80.2 133.21 80.21 133.38 80.54 133.25C80.89 132.59 82.29 132.77 83.07 132.64C83.06 132.47 82.8 132.54 82.67 132.49C83.27 132.29 84.34 131.8 84.63 132.17C84.27 132.4 83.97 132.02 83.84 132.37C84.06 132.31 84.08 132.48 84.23 132.5C85.74 131.44 88.07 130.72 89.17 130.36C89.56 130.21 89.62 129.86 89.8 129.78C90.26 129.58 90.79 129.75 91.52 129.23C91.39 129.32 91.73 129.14 92.1 128.94C92.25 128.87 93.68 127.96 94.22 128.07C94.39 128.23 93.14 128.75 93.62 128.66C94.13 128.37 94.26 128.19 94.79 128.07C94.62 127.91 94.77 127.74 95 127.61C95.22 127.47 95.53 127.36 95.7 127.37C95.33 127.76 94.69 128.11 94.63 128.45C95.49 127.9 96.88 126.54 97.17 127.27C97.13 127.2 97.36 127.03 97.45 127.1C96.99 127.63 97.31 127.64 96.92 128.12C97.64 127.25 98.52 126.85 99.36 126.41C100.19 125.96 101.02 125.54 101.46 124.52C101.59 124.63 101.42 124.78 101.53 124.89C101.95 124.59 101.75 124.4 102.35 124.06C102.42 124.21 102.61 124.1 102.69 124.23C103.01 123.95 103.39 123.65 103.51 123.4C102.95 123.87 102.59 123.92 102.33 123.76C103.28 123.2 103.47 122.58 104.53 122.3C103.96 122.64 104.3 122.8 103.72 123.13C103.97 123.19 104.1 123.52 104.57 123.12C104.51 123.01 104.33 122.91 104.49 122.76C104.63 123.11 106.47 121.92 107.14 121.28C107.06 120.93 106.67 121.38 106.55 121.12C106.76 121.06 107.05 120.8 107.34 120.52C107.22 120.9 107.29 120.81 107.56 121.01C108.01 120.71 107.54 120.65 107.88 120.38C108.08 120.63 108.64 119.92 108.91 120.02C109.25 119.32 109.57 119.35 109.64 119.57C109.94 118.97 110.18 118.86 110.32 118.36C110.64 118.29 110.39 118.45 110.56 118.6C111.02 118.05 110.99 118.13 111.47 117.86C111.59 117.62 111.59 117.41 111.69 117.15C112.02 117.05 112.19 116.69 111.99 117.2C113.36 115.96 113.04 114.86 113.77 114.34C113.36 113.86 114.05 113.45 114.62 113.12C114.62 112.83 114.09 113.24 114.36 112.91C114.8 112.68 115.05 112.4 115.38 111.84C115.68 111.89 115.43 112.21 115.52 112.36C115.63 111.98 116.07 111.66 116.05 111.52C115.87 111.68 115.7 111.76 115.55 111.76C115.79 111.45 115.73 111.29 116.08 110.92L116.28 111.07C116.74 109.68 118.23 108.36 118.27 107.65C118.51 107.18 118.65 107.49 118.87 107.26C118.78 107.19 118.67 107.22 118.56 107.26C118.67 106.85 120.19 105.52 119.28 106.16C119.71 105.52 120.12 105.49 120.19 104.98C119.97 105.3 119.8 105.19 119.97 104.85C119.96 105.11 120.14 105.09 120.36 104.7C120.32 104.49 120.46 104.17 120.56 103.87C120.53 104.36 121.08 103.3 121.13 103.06C121.05 103.16 120.96 103.34 120.89 103.3C121.03 103 121.32 102.16 121.64 102.03C121.69 102.17 121.33 102.58 121.46 102.68C121.87 102.27 121.73 101.99 121.97 101.47C122.56 101.49 122.35 99.84 123 99.97C122.56 100.49 122.51 101.07 122.41 101.56C122.3 102.04 122.18 102.45 121.69 102.63C122.1 102.88 121.56 103.22 121.32 103.93C121.65 103.9 121.37 104.25 121.45 104.38C121.9 103.75 121.61 103.93 121.64 103.73C121.8 103.64 121.97 103.22 122.12 103.42C122.03 103.59 121.87 103.82 121.94 103.89C122.23 103.26 122.5 103.01 122.75 103C122.88 102.57 123.08 102.26 123.34 101.84C123.58 101.4 123.87 100.86 124.22 100C124.22 99.66 123.88 100.1 124.06 99.56C125.33 97.75 125.53 95.69 126.23 94.17C126.1 93.76 125.67 94.29 125.92 93.53C126.17 93.19 126.3 93.35 126.46 93.54C126.66 92 127.47 91.24 127.92 89.65C127.42 88.81 128.66 86.78 128.34 85.66C128.27 86.43 128.03 87.39 127.65 87.69C127.51 87.02 127.87 85.14 128.38 85.49C128.3 84.56 129.11 83.93 128.67 83.54C129.28 83.47 129.56 81.61 129.53 80.52C129.53 80.68 129.66 80.29 129.71 79.88C129.84 78.8 130.02 77.59 130.15 76.4C130.2 75.47 130.19 74.54 130.11 73.69C130.2 73.69 130.3 73.7 130.42 73.74C130.35 72.72 130.28 71.71 130.21 70.71C130.23 70.73 130.25 70.74 130.3 70.72C130.16 70.22 130.2 70.04 130.13 69.57C130.1 69.23 130.08 68.9 130.05 68.56C130.22 68.14 130.35 67.38 130.39 66.95C130.41 67.27 130.63 67.14 130.59 67.59C130.47 68.31 130.52 69.2 130.84 69.72C130.78 70.06 130.7 70.07 130.58 69.89C130.79 71.81 130.52 73.24 130.88 75C130.59 74.56 130.58 76.61 130.9 76.16C130.66 77.27 130.41 78.69 130.28 80.1C130.21 80.81 130.16 81.51 130.15 82.17C130.14 82.5 130.14 82.82 130.15 83.12C130.14 83.42 130.14 83.7 130.15 83.97C130.26 83.15 130.74 81.71 130.51 80.98C130.82 81.41 130.68 80.26 130.55 80.14L130.8 80.17C131.34 76.6 131.39 72.82 131.43 69.17ZM107.52 22.93C107.81 22.79 107.99 23.23 108.1 23.46C107.93 23.58 107.55 23.04 107.52 22.93ZM37.38 125.88C37.41 125.44 38.11 126.08 38.17 125.97C38.52 126.29 37.74 126.1 37.38 125.88ZM42.23 128.72C42.44 128.28 42.7 128.86 43.28 129C43.16 129.16 42.55 128.78 42.23 128.72ZM43.44 127.44C43.51 127.22 44.17 127.48 44.32 127.66C44.25 127.83 43.71 127.48 43.44 127.44ZM53.92 131.74C54.06 131.69 54.28 131.7 54.54 131.74C54.51 131.86 54.49 131.98 54.66 132.02C54.53 132.19 53.7 131.96 53.92 131.74ZM58.82 132.68C58.72 132.44 59.14 132.52 59.14 132.36C57.92 132.06 56.65 132.24 56.26 131.55C57.31 131.85 57.74 131.61 58.56 131.48C58.76 131.57 58.85 131.72 59.16 131.76C58.92 131.95 58.78 131.87 58.39 131.81C58.5 132.14 58.91 132.33 59.6 132.38C59.7 132.7 59.35 132.74 58.82 132.68ZM125.04 85.72C125.23 85.74 124.94 86.27 124.93 86.5C124.88 86.42 124.83 86.33 124.81 86.21C124.87 86.07 124.93 85.94 124.98 85.8C125 85.8 125.02 85.78 125.04 85.72ZM123.67 96.67C123.33 97.24 123.42 97.17 123.12 97.85C122.87 98.04 122.61 97.77 122.94 97.24C123.2 97.89 123.2 96.57 123.67 96.67ZM82.65 128.09C82.61 128.3 81.87 128.44 81.53 128.56C81.67 128.1 82.06 128.28 82.65 128.09ZM74.72 131.63C73.86 131.71 73.46 131.59 72.5 131.56C72.94 131.11 73.85 131.31 74.75 131.02C74.75 131.23 74.58 131.38 74.72 131.63ZM70.03 131.69C69.91 131.98 69.51 131.7 69.41 131.66C69.34 131.47 69.84 131.54 69.83 131.37C70.37 131.32 69.49 131.75 70.03 131.69ZM71.88 131.58C71.81 131.79 71.41 131.88 71.34 132.09C71.1 131.87 70.02 132.28 69.91 131.96C70.61 132.11 71.07 131.52 71.88 131.58ZM70.74 130.37C70.25 130.49 69.81 130.65 69 130.76C68.65 130.33 69.35 130.17 70.23 129.95C71.11 129.75 72.19 129.61 72.61 129.49C73.27 129.61 73.45 129.93 72.58 130.18C72.6 130.11 72.72 130.07 72.7 129.99C71.74 130.14 71.22 130.25 70.74 130.37ZM69.27 131.76C68.16 132.05 65.57 132.06 66.19 131.62C66.98 131.93 67.99 131.5 69.27 131.76ZM73.42 129.79C73.33 129.58 73.69 129.52 73.96 129.44C74 129.67 73.7 129.9 73.42 129.79ZM74.55 127.22C73.52 127.37 72.48 127.47 71.68 127.58C71.33 127.72 71.86 127.93 72.17 127.85C72.07 128.11 71.56 127.92 71.31 127.99C71.27 127.84 71.46 127.79 71.4 127.63C71.31 127.45 70.69 127.71 70.39 127.7C71.3 127.14 72.25 126.94 73.35 126.81C73.9 126.75 74.49 126.69 75.11 126.62C75.73 126.52 76.39 126.36 77.11 126.16C77.13 126.28 77.15 126.4 77.32 126.37C76.95 126.56 76.52 126.73 76.05 126.88C75.82 126.96 75.57 127.03 75.32 127.09C75.06 127.13 74.8 127.18 74.55 127.22ZM40.54 117.14C40.6 117.13 40.67 117.14 40.73 117.17C40.72 117.19 40.73 117.21 40.71 117.23C40.52 117.19 40.43 117.17 40.38 117.14C40.43 117.14 40.48 117.15 40.54 117.14ZM32.5 113.73C32.46 113.77 32.41 113.81 32.37 113.85C32.33 113.83 32.29 113.81 32.25 113.79C32.27 113.76 32.29 113.73 32.31 113.7C32.33 113.67 32.35 113.64 32.37 113.61C32.42 113.65 32.46 113.69 32.5 113.73ZM58.1 20.31C57.99 20.42 57.82 20.48 57.56 20.5C57.52 20.5 57.48 20.5 57.44 20.5C57.33 20.46 57.15 20.49 56.98 20.51C57.33 20.31 57.71 20.27 58.1 20.31ZM127.82 53.8C127.93 54.17 127.84 54.33 127.74 54.48C127.62 54.03 127.59 53.56 127.45 53.11C127.46 53.02 127.47 52.94 127.49 52.88C127.77 53.82 127.39 53.74 127.82 53.8ZM128.02 54.59C128.07 54.88 128.12 55.09 128.16 55.28C128.14 55.27 128.13 55.26 128.1 55.26C128.04 55.18 127.99 55.1 127.95 55.02C127.88 54.76 127.82 54.53 128.02 54.59ZM127.48 75.76C127.5 75.54 127.46 75.41 127.39 75.33C127.42 74.96 127.47 74.61 127.55 74.35C127.61 74.45 127.66 74.56 127.71 74.67C127.73 74.52 127.67 74.3 127.65 74.1C127.66 74.08 127.67 74.05 127.68 74.03C127.67 73.99 127.66 73.94 127.65 73.89C127.66 73.82 127.69 73.76 127.75 73.72C127.77 74.02 127.98 74.01 127.88 74.52C127.31 75.13 127.68 74.79 127.48 75.76ZM74.93 21.16C74.83 21.18 74.78 21.15 74.75 21.11C74.81 21.09 74.88 21.08 74.95 21.06C74.94 21.11 74.94 21.16 74.93 21.16ZM115.69 37.32C115.43 37.3 115.21 37.23 115.19 36.91C115.19 36.9 115.19 36.9 115.19 36.89C115.36 37.02 115.53 37.16 115.69 37.32ZM127.32 70.87C127.3 70.62 127.28 70.36 127.26 70.1C127.27 70.08 127.28 70.06 127.28 70.04C127.34 69.85 127.51 69.69 127.67 69.53C127.67 69.79 127.67 70.06 127.68 70.32C127.7 70.9 127.74 71.46 127.83 71.99C127.7 72 127.54 71.97 127.56 72.3C127.69 72.33 127.88 72.25 127.89 72.46C127.83 72.93 127.72 73.31 127.58 73.61C127.4 72.84 127.36 71.88 127.32 70.87ZM127.63 68.63C127.63 68.67 127.63 68.72 127.64 68.76C127.62 68.71 127.62 68.67 127.63 68.63ZM119.33 41.26C119.14 41.06 119.18 40.78 119.42 40.59C119.44 40.58 119.46 40.57 119.49 40.57C119.77 40.91 120.03 41.3 120.28 41.74C119.92 41.81 119.71 41.68 119.33 41.26ZM119.05 40.1C118.76 40.02 118.57 39.83 118.47 39.54C118.66 39.71 118.86 39.89 119.05 40.1ZM127.37 75.47C127.4 75.66 127.39 75.87 127.35 76.08C127.35 75.88 127.36 75.67 127.37 75.47ZM129.26 60.76C129.3 60.64 129.36 60.51 129.43 60.39C129.44 60.66 129.4 60.89 129.29 60.98C129.29 60.91 129.27 60.83 129.26 60.76ZM129.07 59.19C129.07 59.14 129.07 59.07 129.08 59.03C129.14 59.1 129.19 59.21 129.24 59.35C129.19 59.31 129.13 59.26 129.07 59.19ZM128.56 57.47C128.35 57.93 128.65 58.48 128.8 58.42C128.78 58.63 128.72 58.7 128.65 58.71C128.58 58.62 128.51 58.53 128.45 58.44C128.43 58.38 128.42 58.32 128.41 58.26C128.33 58.16 128.24 58.07 128.15 57.99C128.1 57.9 128.05 57.82 128.03 57.77C127.96 57.6 128.16 57.37 128.37 57.4C128.42 57.41 128.48 57.42 128.53 57.44C128.54 57.45 128.55 57.46 128.56 57.47ZM127.37 52.9C127.36 52.89 127.36 52.87 127.35 52.85C127.32 52.78 127.32 52.73 127.33 52.67C127.35 52.75 127.36 52.83 127.37 52.9ZM59.07 20.51C58.97 20.5 58.89 20.48 58.81 20.44C58.9 20.46 58.99 20.48 59.07 20.51ZM79.38 128.27C79.5 128.63 78.93 128.35 78.53 128.58C78.68 128.33 78.99 128.31 79.38 128.27ZM112.15 112.56C112.31 112.84 111.71 113.03 111.36 113.57C111.26 113.46 111.09 113.6 111 113.47C111.39 113.13 111.79 112.76 112.15 112.56ZM112.93 111.55C113.01 111.64 113.1 111.72 113.23 111.59C113.42 111.75 112.79 112.4 112.56 112.48C112.44 112.27 112.59 111.95 112.93 111.55ZM125.31 84.95C125.34 84.97 125.37 84.98 125.4 85C125.3 85.23 125.26 85.25 125.21 85.22C125.24 85.12 125.27 85.04 125.31 84.95ZM127.15 78.59C127.14 78.46 127.13 78.34 127.11 78.23C127.16 78.18 127.21 78.14 127.26 78.12C127.25 78.27 127.2 78.43 127.15 78.59ZM127.46 77.57C127.43 77.37 127.4 77.11 127.38 76.83C127.43 76.6 127.49 76.39 127.62 76.09C127.58 76.8 127.51 77.03 127.54 77.55C127.51 77.56 127.48 77.57 127.46 77.57ZM129.48 63.69C129.56 63.3 129.59 62.91 129.52 62.43C129.99 62.62 129.79 63.74 129.55 64.14C129.52 63.99 129.5 63.84 129.48 63.69ZM129.35 61.3C129.5 61.48 129.59 61.83 129.66 62.24C129.36 62.43 129.25 61.57 129.35 61.3ZM128.14 53.37L127.81 53.46C127.69 53.19 127.88 52.74 127.6 52.67C127.54 52.12 127.81 52.8 127.89 52.76C127.93 52.55 127.82 52.43 127.68 52.27C127.74 52.22 127.79 52.17 127.84 52.12C128.06 52.45 128.2 52.86 128.14 53.37ZM127.5 50.65C127.39 50.64 127.33 50.35 127.27 50.12C127.28 50.12 127.29 50.12 127.3 50.12C127.38 50.11 127.45 50.05 127.5 49.98C127.71 50.43 127.46 50.39 127.5 50.65ZM126.12 49.07C126.15 49.05 126.23 49.06 126.27 49.09C126.56 49.28 126.75 49.52 126.82 49.88C126.85 50.05 126.99 50.11 127.15 50.12C127.18 50.25 127.2 50.39 127.2 50.57C127.12 50.59 127.14 50.73 127.08 50.78C126.87 50.05 126.47 50.3 126.96 50.65C126.98 50.75 127 50.85 127.02 50.95C126.75 50.94 126.48 50.94 126.21 50.91C126.13 50.9 126.01 50.7 126.03 50.61C126.09 50.37 126.31 50.13 126.28 49.93C126.24 49.7 125.95 49.53 126.01 49.23C126.02 49.17 126.07 49.11 126.12 49.07ZM123.27 43.78C123.17 43.73 123.07 43.69 122.97 43.74C122.91 43.59 122.84 43.47 122.78 43.36C122.76 43.26 122.75 43.15 122.75 43.05C122.91 43.27 123.1 43.54 123.27 43.78ZM112.38 28.86C112.44 28.93 112.51 29.01 112.57 29.08C112.56 29.1 112.55 29.13 112.53 29.15C112.18 29.08 112.01 28.62 111.8 28.18C112 28.42 112.18 28.64 112.38 28.86ZM106.58 27.01C106.61 27.03 106.63 27.07 106.65 27.11C106.58 27.08 106.51 27.05 106.44 27.03C106.47 26.99 106.53 26.97 106.58 27.01ZM55.81 20.66C55.81 20.73 55.81 20.8 55.82 20.86C55.98 20.86 56.08 20.77 56.14 20.65C56.41 20.65 56.68 20.66 56.96 20.67C56.86 20.89 56.66 21.03 56.47 21.16C56.15 21.37 55.92 21.25 55.81 20.9C55.7 20.94 55.58 20.97 55.47 21.02C54.94 21.29 54.75 21.28 54.47 20.92C54.46 20.91 54.45 20.89 54.44 20.88C54.89 20.73 55.35 20.68 55.81 20.66ZM51.91 21.28C52.37 21.19 52.81 21.15 53.21 21.15C53.11 21.24 52.98 21.3 52.77 21.29C52.64 21.29 52.46 21.29 52.4 21.37C51.95 21.94 51.23 21.47 50.73 21.83C50.38 22.08 50.18 21.95 50.01 21.76C50.64 21.54 51.3 21.39 51.91 21.28ZM18.65 101.75C18.59 101.74 18.54 101.55 18.55 101.45C18.56 101.4 18.59 101.35 18.62 101.3C18.65 101.25 18.69 101.21 18.72 101.16C18.77 101.26 18.85 101.35 18.87 101.45C18.9 101.61 18.88 101.8 18.65 101.75ZM20.49 106.78C20.47 106.87 20.35 106.93 20.28 107.01C20.24 106.96 20.16 106.92 20.16 106.87C20.14 106.69 20.14 106.51 20.13 106.33C20.12 106.33 20.11 106.33 20.1 106.33C20.1 106.32 20.1 106.3 20.1 106.29C20.01 106.25 19.92 106.21 19.84 106.16C19.82 106.15 19.85 106.03 19.86 106.03C20.08 106 20.09 106.14 20.1 106.29C20.11 106.29 20.12 106.3 20.13 106.3C20.13 106.31 20.13 106.32 20.13 106.33C20.42 106.33 20.57 106.48 20.49 106.78ZM21.7 107.88C21.6 107.82 21.5 107.76 21.39 107.7C21.5 107.64 21.61 107.54 21.72 107.55C21.83 107.55 21.93 107.66 22.04 107.73C21.92 107.78 21.81 107.83 21.7 107.88ZM22.5 108.74C22.49 108.89 22.48 109.04 22.25 109C22.24 109 22.21 108.88 22.23 108.87C22.32 108.82 22.41 108.78 22.5 108.74C22.5 108.73 22.5 108.71 22.5 108.7C22.51 108.7 22.52 108.7 22.53 108.7C22.52 108.46 22.49 108.22 22.69 108.03C22.81 107.92 23.2 107.92 23.19 108.03C23.18 108.13 23.15 108.25 23.09 108.32C22.94 108.5 22.81 108.72 22.52 108.7C22.52 108.71 22.52 108.72 22.52 108.73C22.52 108.73 22.51 108.74 22.5 108.74ZM24.09 109.11C23.81 109.75 23.22 110.24 23.16 111C23.16 111.04 22.92 111.1 22.82 111.07C22.72 111.04 22.57 110.89 22.58 110.82C22.77 110.07 23.1 109.37 23.57 108.75C23.61 108.7 23.82 108.75 23.94 108.78C23.94 108.78 23.94 108.78 23.95 108.78C23.98 108.81 24.01 108.84 24.05 108.87C24.06 108.89 24.07 108.9 24.09 108.91C24.08 108.99 24.11 109.06 24.09 109.11ZM30.08 114.08C30.01 114.23 29.91 114.29 29.76 114.24C29.8 114.11 29.88 114 30.08 113.97C30.42 113.92 30.57 114.13 30.53 114.43C30.53 114.47 30.54 114.49 30.54 114.52C30.42 114.41 30.29 114.27 30.08 114.08ZM32.57 114.7C32.57 114.71 32.56 114.73 32.56 114.74L32.53 114.71C32.54 114.71 32.56 114.71 32.57 114.7C32.58 114.67 32.59 114.64 32.6 114.61C32.63 114.63 32.66 114.64 32.68 114.66C32.65 114.68 32.61 114.69 32.57 114.7ZM46.09 125.24C44.85 124.67 43.64 124.1 42.17 123.83C41.69 123.61 41.22 123.3 40.71 122.98C40.66 122.94 40.6 122.9 40.54 122.87C40.77 122.92 41 122.97 41.22 123.02C41.77 123.14 42.3 123.26 42.83 123.42C43.37 123.56 43.93 123.74 44.53 124.01C45.54 123.56 46.97 125.35 47.93 125.22C47.55 124.61 49.17 125.11 50.1 125.22C49.95 125.49 50.06 125.84 50.12 126.33C48.64 126.18 47.35 125.71 46.09 125.24ZM64.8 128.38C65.1 128.19 65.28 128.58 65.82 128.49C65.81 128.41 65.64 128.44 65.52 128.42C65.55 128.3 65.95 128.37 65.94 128.23C65.77 128.05 65.03 128.25 64.64 128.22C65.23 127.8 66.7 127.83 67.18 127.56C67.42 127.73 67.32 128.01 67.23 128.07C67.39 128.35 67.55 128.06 67.82 128.2C68.21 128.06 67.35 128.06 67.49 127.8C68.59 127.72 68.85 127.81 69.33 127.51C69.8 127.58 69.33 127.66 70.19 127.47C70.34 128.04 69.29 127.75 68.95 127.96C69.48 128.32 70.76 127.39 70.85 127.97C70.4 128.02 69.93 128.12 69.44 128.22C68.95 128.29 68.44 128.37 67.92 128.44C66.89 128.57 65.81 128.64 64.8 128.38ZM65.13 131.84C64.99 132.1 65.48 131.97 65.75 131.98C65.25 132.12 64.43 132.16 63.52 132.19C62.6 132.16 61.59 132.11 60.69 132.17C61.76 131.54 63.51 132.14 65.13 131.84ZM60.22 132.41C61.09 132.55 61.3 132.49 62.23 132.57C61.36 132.14 64.16 132.36 64.39 132.56C63.66 132.8 62.8 132.75 61.99 132.7C61.18 132.66 60.42 132.62 59.9 132.82C59.78 132.54 60.15 132.56 60.22 132.41ZM59.74 133.15C59.87 132.86 60.29 133.08 60.52 133.18C60.47 133.38 59.83 133.2 59.74 133.15ZM70.29 133.62L70.25 133.35C70.18 133.37 70.11 133.38 70.04 133.4C69.7 133.46 69.35 133.5 68.98 133.55C68.25 133.64 67.48 133.72 66.7 133.77C65.13 133.86 63.47 133.94 61.92 133.65C61.75 133.67 61.81 133.82 61.61 133.81C61.24 133.77 60.96 133.68 60.67 133.6C60.71 133.34 61.45 133.49 61.93 133.48C61.94 133.36 61.95 133.24 61.77 133.22C63.29 133.18 66.04 133.19 68.28 132.58C68.79 132.64 69.28 132.71 69.57 132.92C70.02 132.82 69.44 132.66 69.52 132.5C69.91 132.42 70.27 132.75 70.46 132.48C70.92 132.49 70.65 132.58 70.66 132.79C71.43 132.55 71.98 132.36 72.49 132.34C72.6 132.04 71.99 132.29 71.69 132.29C72.13 131.92 73.22 131.86 73.69 131.97C73.87 132.27 73.07 132.64 73.96 132.53C73.33 132.94 71.45 132.64 71.18 133.06C72.4 133.09 74.44 132.45 75.16 132.85C73.55 133.5 72.06 133.24 70.29 133.62ZM77.43 131.59C77.41 131.44 77.2 131.46 77.2 131.3C77.78 131.06 77.72 131.43 78.3 131.19C78.19 131.36 77.68 131.45 77.43 131.59ZM81.54 130.05C79.69 130.34 78.1 130.82 76.21 131.2C76.27 131.35 76.73 131.12 76.85 131.21C76.89 131.47 75.96 131.6 75.92 131.34C75.53 131.58 75.51 131.66 75.74 131.97C75.04 131.79 74.9 131.57 75.14 131.38C75.39 131.18 76.03 131.03 76.91 130.84C76.75 130.75 76.4 130.84 76.12 130.87C75.99 130.63 76.79 130.63 76.81 130.43C77.02 130.4 76.99 130.61 77.04 130.72C78.47 130.26 78.57 130.19 80.13 129.73C80.42 129.98 80.88 129.53 81.28 129.77C81.66 129.59 80.77 129.71 81.17 129.45C82.24 129.23 82.21 129.47 83.27 128.94C83.21 128.71 82.36 129.38 82.46 128.97C83.17 128.85 83.67 128.59 84.16 128.25C84.28 128.42 84.25 128.56 84.17 128.7C84.56 128.58 84.6 128.41 84.48 128.22C85.18 127.86 85.42 128.03 85.76 128.1C85.24 128.96 82.41 129.39 81.54 130.05ZM95.44 126.31C95.42 125.87 96.05 125.83 96.4 125.43C96.53 125.69 95.73 126.02 95.44 126.31ZM99.85 125.37C99.59 125.99 99.61 125.25 99.2 125.58C99.18 125.46 99.51 125.3 99.71 125.16C99.77 125.27 99.82 125.37 99.99 125.28C100.02 125.38 99.88 125.41 99.85 125.37ZM99.35 124.09L99.89 123.75L100.04 123.96C99.76 124.09 99.44 124.3 99.35 124.09ZM99.98 123.59C99.87 123.41 100.31 123.14 100.65 122.88L100.8 123.08C100.49 123.33 100.19 123.56 99.98 123.59ZM99.75 123.18C98.91 123.76 98.05 124.3 97.62 124.67C97.67 124.32 98.39 123.78 99.25 123.19C100.1 122.59 101.05 121.87 101.68 121.35C101.34 121.88 100.55 122.55 99.75 123.18ZM105.7 121.91C105.4 121.72 105.36 121.73 105.44 121.36C105.75 121.34 106.23 121.48 105.7 121.91ZM106.18 121.21C106.04 121.21 105.83 121.38 105.75 121.22C105.9 121.17 106.05 121.12 106.01 121.02C106.16 120.92 106.2 121.07 106.37 120.93C106.35 121.04 106.33 121.15 106.41 121.23C106.26 121.34 105.99 121.38 106.18 121.21ZM108.47 120.05C108.43 119.93 108.73 119.72 108.9 119.54C108.81 119.49 108.63 119.69 108.47 119.82C108.25 119.81 108.64 119.28 108.24 119.57C108.27 119.37 108.92 119.32 109.14 119.31C108.74 119.73 109.01 119.76 108.47 120.05ZM111.37 115.08L111.56 115.25L111.01 115.85C110.78 115.73 111.24 115.34 111.37 115.08ZM112.27 116.11C112.37 115.72 112.11 116.02 111.81 116.36C111.69 115.98 112.53 115.65 112.87 115.31C113 115.46 112.43 115.86 112.27 116.11ZM112.76 113.92C112.65 114.64 112.46 115.3 111.37 115.96C111.48 115.49 112.48 114.84 112.13 114.24C113.14 113.32 113.76 112.41 114.31 112.04C114.29 112.7 113.39 113.67 112.76 113.92ZM115.65 110.6C115.09 111.23 114.78 111.38 114.55 112.02L114.22 111.76C114.88 111.15 115.39 110.08 116.16 109.36C116.16 109.84 115.5 110.15 115.65 110.6ZM122.3 100.17C122.02 100.16 122.2 99.81 121.91 99.8C122.16 99.64 122.38 98.79 122.64 99.07C122.46 98.73 123.07 98.11 123.34 97.6C122.83 98.55 122.77 99.5 122.3 100.17ZM122.41 103C122.29 102.92 122.15 103 122.02 103.17C121.87 103.06 122.07 102.73 122.29 102.38C122.3 102.71 122.5 102.35 122.51 102.68C122.7 102.43 122.91 101.76 123.08 102.04C122.86 102.16 122.64 102.61 122.41 103ZM123.3 101.21C123.27 100.7 123.52 100.6 123.81 100.16C123.84 100.67 123.6 100.77 123.3 101.21ZM123.89 95.19C123.84 95.02 123.88 94.75 124.03 94.38C124.27 94.43 124.12 95.03 123.89 95.19ZM123.75 92.91C123.74 92.48 123.97 92.34 124.1 91.68C124.34 91.78 123.94 92.73 123.75 92.91ZM124.6 89.51C124.84 89.73 124.37 90.11 124.4 90.61C124.04 90.64 124.54 89.87 124.6 89.51ZM124.56 92.18C124.47 91.58 124.59 91.3 124.74 90.39C124.79 90.65 124.65 91.49 125.01 90.64C125.29 90.96 124.71 91.61 124.56 92.18ZM125.77 85.24C125.44 86.79 125.59 87.38 125.56 88.13C125.49 88.49 125.28 88.24 125.19 88.52C125.64 88.37 125.33 89.54 125.12 90.32C124.85 90.18 124.7 90.18 124.69 90.02C124.84 89.89 124.96 89.34 124.92 89.09C124.61 89.47 124.78 88.56 124.58 88.5C124.72 88.2 124.8 88.21 124.87 88.42C124.98 87.24 125.55 85.88 125.64 84.71C125.73 84.75 125.76 85.02 125.89 84.76C125.54 84.93 125.97 84.23 125.75 84.25C125.64 84.42 125.57 84.37 125.53 84.23C125.65 83.87 125.77 83.51 125.87 83.14C126.18 83.03 125.72 83.81 125.94 83.81C126.07 83.12 126.67 82.07 126.37 81.81C126.19 82.49 126.2 82.78 125.88 83.1C125.89 83.08 125.89 83.06 125.9 83.04C126.04 82.44 126.15 81.82 126.24 81.18C126.37 81.18 126.48 81.12 126.59 81.03C126.59 81.04 126.59 81.04 126.58 81.05C126.82 81.39 126.77 81.83 126.67 82.28C126.56 82.73 126.38 83.18 126.43 83.59C126.22 83.95 126.11 83.91 125.99 83.99C126.21 84.3 125.94 85.75 125.83 86.06C125.55 86.08 125.94 85.35 125.77 85.24ZM125.76 93.1C126.03 92.57 125.85 92.29 126.15 92.02C126.55 91.95 126.03 93.4 125.76 93.1ZM126.17 91.69C126.52 91.45 126.81 90.8 127.2 90.8C126.9 91.38 126.59 91.95 126.17 91.69ZM129.59 64.55C129.59 64.55 129.59 64.56 129.59 64.57C129.59 64.57 129.59 64.56 129.59 64.55ZM129.97 63.85C130.04 63.6 130.05 64.54 130.14 65.15C129.77 64.98 129.85 64.24 129.97 63.85Z" fill="currentColor"/>
<path fill-rule="evenodd" clip-rule="evenodd" d="M37.24 13C37 13.37 35.45 13.86 35.36 14.02C35.7 13.97 37.75 13.07 37.24 13Z" fill="currentColor"/>
<path fill-rule="evenodd" clip-rule="evenodd" d="M70.97 1.37C70.87 1.17 70.04 1.28001 69.98 1.10001C71.04 0.870008 71.72 1.6 72.8 1.7C72.84 1.6 72.8 1.46 72.99 1.47C73.15 1.61 73.24 1.76001 73.45 1.88001C74.59 1.83001 76.7 2.50001 77.66 2.21001C77.42 2.02001 76.44 1.94001 77.06 1.74001C76.23 1.57001 76.92 1.97001 76.5 1.99001C76.48 1.92001 76.38 1.87001 76.18 1.85001C76.48 1.51001 75.09 1.62 74.54 1.34C74.11 1.39 74.81 1.64 74.33 1.65C73.99 1.32 73.3 1.16 73.33 1.51C73.44 1.4 71.99 1.36 72.52 1.14C70.72 0.970001 70.91 0.789999 69.5 0.809999C69.63 1.12 69.51 1.02 69.64 1.33C70.3 1.2 70.53 1.47 70.97 1.37Z" fill="currentColor"/>
<path fill-rule="evenodd" clip-rule="evenodd" d="M90.12 14.28C90.53 14.39 91.09 14.71 91.42 14.71C91.09 14.5 90.33 14.16 90.12 14.28Z" fill="currentColor"/>
<path fill-rule="evenodd" clip-rule="evenodd" d="M96.33 14.6C96.17 14.86 95.53 14.33 95.22 14.34C95.39 14.66 96.61 14.99 96.33 14.6Z" fill="currentColor"/>
<path fill-rule="evenodd" clip-rule="evenodd" d="M100.64 12.05C100.72 11.93 101.06 12.25 101.16 12.17C100.91 12.06 100.84 11.6 101.19 11.79C101.37 12.06 101.59 11.88 102.03 11.98C101.21 11.71 100.03 10.92 99.66 11.06C100.28 11.18 101.03 11.88 100.64 12.05Z" fill="currentColor"/>
<path fill-rule="evenodd" clip-rule="evenodd" d="M101 20.46C100.79 20.63 101.1 20.87 101.46 21.12C101.38 20.72 102.22 21.54 101.85 21.1C101.54 20.88 101.37 20.95 101.41 20.67C101.48 20.72 101.59 20.72 101.46 20.6C101.34 20.64 101.22 20.66 101.06 20.62C101.09 20.57 101.11 20.52 101 20.46Z" fill="currentColor"/>
<path fill-rule="evenodd" clip-rule="evenodd" d="M102.11 21.5C102.81 22.32 103.65 23.66 104.53 23.79C104.45 23.7 104.31 23.59 104.36 23.52C104.72 23.8 104.93 23.68 105.37 24.2C105.55 24.06 105.28 23.82 105.08 23.6C104.52 23.34 102.5 22.01 102.68 21.5C102.49 21.5 102.25 21.39 102.11 21.5Z" fill="currentColor"/>
<path fill-rule="evenodd" clip-rule="evenodd" d="M107.98 18.68C108.2 19.21 109.92 20.14 109.91 20.75C110.2 21.01 110.37 20.97 110.7 21.36C110.55 21.39 110.38 21.35 110.23 21.39C110.49 21.57 110.76 21.76 111.02 21.99C111.27 22.23 111.52 22.49 111.78 22.77C112.29 23.32 112.8 23.93 113.31 24.53C114.34 25.74 115.39 26.93 116.41 27.78C116.51 28.82 117.92 29.1 117.78 29.86C117.92 29.61 117.84 29.67 118.11 29.6C117.27 28.94 116.49 27.61 116.57 27.09C116.54 27.07 116.54 27.03 116.61 26.95C116.58 26.98 116.58 27.04 116.57 27.09C116.67 27.16 117.18 27.01 117.19 27.56C117.48 27.62 117.17 27.01 117.45 27.34C117.54 27.67 117.6 27.98 117.63 28.27C117.89 28.56 118.13 28.75 118.37 28.96C118.31 29.04 118.16 29.09 118.27 29.25C118.57 28.83 118.89 29.86 119.04 30.13C119.1 29.71 118.49 28.96 118.6 28.56C118.28 28.62 118.38 28.34 118.02 27.94C118.08 27.86 118.22 27.81 118.12 27.65C117.97 27.6 117.8 26.92 117.33 26.77C117.51 27.08 117.45 27.14 117.24 27.07C116.84 26.32 116.05 25.73 115.72 24.83C115.31 25.09 115.07 24.48 114.69 23.95C114.58 24.02 114.5 24.21 114.33 24.06C114.12 23.79 114.27 23.66 114.24 23.46C114.42 23.69 115.03 24.08 114.76 23.66C114.57 23.81 114.03 22.76 113.84 22.91C114.1 23.17 114.15 23.35 114 23.46C113.88 23.01 113.63 23.32 113.26 22.78C113.06 22.89 112.87 23.05 112.61 22.96C112.64 22.36 111.86 22.41 111.47 22C111.3 21.52 111.15 21.11 111.27 20.75C110.84 20.44 110.77 20.28 110.6 20.25C110.84 20.5 110.69 20.64 110.74 20.84C109.86 20.28 109.65 19.98 108.89 19.17C108.57 19.19 108.26 19.06 107.98 18.68ZM114.58 24.97C114.76 25.06 114.96 25.22 115.2 25.53C115.11 25.96 114.59 24.83 114.5 25.27C114.38 25.11 114.52 25.05 114.58 24.97Z" fill="currentColor"/>
<path fill-rule="evenodd" clip-rule="evenodd" d="M107.32 25.87C107.51 26.16 107.45 26.38 107.44 26.61C107.68 26.95 107.77 26.71 107.97 26.93C107.86 27.03 107.9 27.17 108 27.33C108.29 26.83 107.52 26.45 107.65 25.96C107.57 26.05 107.41 25.83 107.32 25.87Z" fill="currentColor"/>
<path fill-rule="evenodd" clip-rule="evenodd" d="M125.1 43.29C125.04 42.43 125.65 43.54 125.72 43.01C125.44 43.1 125.18 42.52 124.9 42.48C125.28 42.98 124.83 42.86 125.1 43.29Z" fill="currentColor"/>
<path fill-rule="evenodd" clip-rule="evenodd" d="M125.33 46.22C125.21 46.22 125.1 46.06 124.96 46.2C125.15 46.64 125.01 46.78 125.01 47.05C125.11 46.98 125.46 47.76 125.36 47.26C124.89 46.71 125.42 46.59 125.33 46.22Z" fill="currentColor"/>
<path fill-rule="evenodd" clip-rule="evenodd" d="M120.7 104.89C120.99 104.69 121.44 104.74 121.32 104.67C121.44 104.23 120.88 104.51 120.7 104.89Z" fill="currentColor"/>
<path fill-rule="evenodd" clip-rule="evenodd" d="M115.28 112.59C114.87 113.1 114.35 113.33 114.37 113.76C114.66 113.58 115.25 113.04 115.14 113.53C115.24 113.11 116.43 112.33 116.11 112.39C115.79 112.65 114.94 113.29 115.28 112.59Z" fill="currentColor"/>
<path fill-rule="evenodd" clip-rule="evenodd" d="M121.08 119.23C121.06 119.43 121.06 119.41 120.98 120.11C121.47 119.44 121.9 118.79 121.63 118.47C121.49 118.7 120.92 119.13 121.08 119.23Z" fill="currentColor"/>
<path fill-rule="evenodd" clip-rule="evenodd" d="M100.16 127.29C99.93 127.47 99.72 127.41 99.73 127.56C100.31 127.39 99.2499 128 99.2999 128.13C99.6799 128.01 100.59 127.39 100.4 127.34C99.8099 127.72 100.03 127.51 100.16 127.29Z" fill="currentColor"/>
<path fill-rule="evenodd" clip-rule="evenodd" d="M80.94 135.14C81.18 135.16 81.57 135.05 81.66 135.21C80.9 135.45 79.62 135.28 80.04 135.64C80.27 135.38 81.05 135.48 81.25 135.58C81.39 135.35 82.88 134.67 82.42 134.82C81.72 135.18 81.17 134.87 80.94 135.14Z" fill="currentColor"/>
<path fill-rule="evenodd" clip-rule="evenodd" d="M77.0299 135.36C77.0399 135.76 76.4199 136.21 77.0999 136.38C77.0099 136.23 77.2799 136.17 77.3699 136.06C76.8399 135.97 76.9099 135.47 77.8699 135.32C77.9699 135.01 77.3499 135.32 77.0299 135.36Z" fill="currentColor"/>
<path fill-rule="evenodd" clip-rule="evenodd" d="M74.1599 136.19C73.8299 136.32 74.5399 136.47 74.4399 136.75L73.7799 136.86L73.7 136.44C73.2 136.79 72.2199 136.85 72.6299 137.12C72.3599 137.03 71.9399 137.16 71.8099 137.33C73.0899 137.25 73.4099 136.89 74.4699 136.91C74.4699 136.81 74.4799 136.71 74.7699 136.69C74.2699 136.55 74.7399 136.17 74.1599 136.19Z" fill="currentColor"/>
<path fill-rule="evenodd" clip-rule="evenodd" d="M67.0699 140.99C67.3999 141.1 68.2399 140.92 67.9899 141.36C69.2499 141.24 67.4799 140.68 67.0699 140.99Z" fill="currentColor"/>
<path fill-rule="evenodd" clip-rule="evenodd" d="M60.14 136.47C60.33 136.52 60.51 136.58 60.63 136.66C62.46 136.59 60.5 136.46 60.14 136.47Z" fill="currentColor"/>
<path fill-rule="evenodd" clip-rule="evenodd" d="M59.14 136.85C59.28 137.11 60.03 137.21 60.46 137.16C60.34 136.97 59.74 136.82 60.14 136.64C59.26 136.54 58.73 136.64 58.16 136.72C58.64 137.03 57.67 137.01 57.97 137.13C58.19 137.02 58.76 137.05 58.97 137.18C59.18 136.98 58.89 136.92 59.14 136.85Z" fill="currentColor"/>
<path fill-rule="evenodd" clip-rule="evenodd" d="M56.8699 136.06C56.8799 136.27 56.5999 136.32 56.3599 136.35C56.3299 136.17 55.64 136.23 55.56 136.07C55.38 136.12 55.4799 136.37 55.0499 136.26C52.2099 135.82 50.0899 135.55 48.1199 134.98C47.1299 134.72 46.16 134.46 45.13 134.19C44.62 134.05 44.0899 133.91 43.5399 133.76C42.9999 133.57 42.44 133.38 41.84 133.17C41.74 133.73 41.3299 132.91 41.0099 133.06C41.1799 133.59 41.56 133.63 42.28 134.04C42.5 133.83 41.92 133.73 41.91 133.55C42.12 133.63 42.2699 133.63 42.3999 133.63C42.0799 133.91 43.14 134.14 42.57 134.23C43.74 134.55 45.06 134.72 46.49 135.03C47.21 135.18 47.95 135.34 48.74 135.52C49.13 135.61 49.53 135.71 49.95 135.81C50.37 135.89 50.79 135.97 51.23 136.06C51.24 135.91 51.39 135.86 51.59 135.86C51.96 136.13 52.01 136.01 52.73 136.12C52.51 136.34 52.59 136.42 53 136.59C53.04 136.5 53 136.35 53.2 136.36C54.05 136.48 55.18 136.53 56.17 136.49C57.06 136.45 57.83 136.28 58.23 136.12C57.91 136.18 57.2499 136.03 56.8699 136.06Z" fill="currentColor"/>
<path fill-rule="evenodd" clip-rule="evenodd" d="M35.9399 122.19C36.5099 122.41 37.1399 122.84 36.4899 122.73C36.7999 122.97 37.2099 123.24 37.4599 123.09C37.8699 123.48 37.9199 124.11 38.5599 124.26C38.5099 124.4 38.4299 124.49 38.2899 124.51C38.7599 124.66 38.9999 124.51 39.3899 124.55C39.6399 124.7 39.3699 124.9 39.8299 125.03C40.0399 124.88 40.7999 125.07 41.5099 125.34C41.4699 125.38 41.4299 125.43 41.4199 125.47C41.4099 125.58 41.4899 125.69 41.5199 125.81C41.5899 125.74 41.6999 125.67 41.6999 125.6C41.6999 125.54 41.6899 125.47 41.6599 125.41C42.4499 125.74 43.1199 126.15 42.8399 126.32C43.2499 126.42 43.6599 126.58 44.0599 126.75H44.0499C43.9999 126.76 43.9499 126.83 43.8999 126.87C43.8099 126.95 43.8499 127.07 44.0199 127.11C44.3899 127.2 44.8099 127.09 45.0999 127.44C45.4399 127.2 45.7299 127.31 46.0799 127.49C46.2799 127.59 46.4299 127.49 46.5099 127.28C46.5399 127.27 46.5599 127.27 46.5899 127.26C46.5699 127.25 46.5499 127.24 46.5299 127.23C46.5499 127.16 46.5499 127.09 46.5599 127C46.8099 127.05 47.0899 127.12 47.1299 126.96C46.9499 126.92 46.7499 126.88 46.5599 126.84C46.5299 126.66 46.4499 126.41 46.3499 126.48C46.2099 126.58 46.0599 126.64 45.9099 126.68C45.7699 126.65 45.6399 126.62 45.4999 126.58C44.9499 126.4 44.3799 126.2 43.8299 125.99C42.7299 125.58 41.6699 125.18 40.8399 124.88C40.9399 124.81 41.0599 124.75 41.2099 124.74C41.6299 124.87 41.7799 125.3 42.0399 125.04C41.6099 124.89 41.4099 124.7 41.1299 124.53C40.9099 124.72 40.5099 124.63 40.1199 124.48C39.7299 124.31 39.3399 124.1 39.0799 124.13C39.2899 124.11 39.3699 123.92 39.2399 123.74C38.6699 123.55 37.9299 123.12 37.6199 122.7C37.6999 122.6 37.8899 122.67 37.9899 122.59C37.1599 122.21 36.7999 122.36 35.9399 122.19Z" fill="currentColor"/>
<path fill-rule="evenodd" clip-rule="evenodd" d="M39.6899 128.88C40.4899 128.97 41.1799 129.05 41.9399 129.6C41.9799 129.49 41.9299 129.4 41.8699 129.31C42.1199 129.4 42.2699 129.38 42.3599 129.3C41.4299 129.09 40.9999 128.86 40.0899 128.67C41.0599 129.01 39.9199 128.89 39.6899 128.88Z" fill="currentColor"/>
<path fill-rule="evenodd" clip-rule="evenodd" d="M38.24 127.86C37.99 127.75 37.7999 127.64 37.6999 127.52C37.4499 127.68 38.18 128.35 38 128.03C37.6 127.79 38.26 128 38.24 127.86Z" fill="currentColor"/>
<path fill-rule="evenodd" clip-rule="evenodd" d="M34.92 128.37C34.53 128.84 36.24 129.22 36.3 129.67L36.36 129.51C36.45 129.55 36.54 129.58 36.54 129.5C36.2 129.29 35.71 129.1 35.11 128.74C35.14 128.61 35.24 128.48 34.92 128.37Z" fill="currentColor"/>
<path fill-rule="evenodd" clip-rule="evenodd" d="M29.96 132.19C30.12 132.21 30.62 132.07 30.3 131.89C29.89 132.01 29.7 131.71 29.37 131.8C29.63 131.95 29.74 132.07 29.76 132.2C29.21 132.06 29.24 131.93 28.69 131.61C28.58 131.73 28.77 131.87 28.69 132C28.22 131.59 27.74 131.65 27.35 131.51C27.81 131.75 27.73 131.95 28.19 132.2C28.77 132.14 29.14 132.5 30.21 132.89C30.24 132.72 30.5 132.84 30.64 132.81C30.23 132.6 30.15 132.39 29.96 132.19Z" fill="currentColor"/>
<path fill-rule="evenodd" clip-rule="evenodd" d="M34.11 116.39C34.45 116.47 34.58 116.89 34.69 116.74C34.18 116.4 34.47 116.32 34.44 116.1C34.17 116.16 34.11 116.08 34.11 116.39Z" fill="currentColor"/>
<path fill-rule="evenodd" clip-rule="evenodd" d="M104.19 14.29C104.77 14.76 105.04 14.63 105.47 14.81C105.81 15.15 105.83 15.44 106.03 15.76C106.36 15.87 106.71 16.17 107.11 16.51C107.49 16.88 107.91 17.29 108.42 17.61C107.78 17.1 107.82 16.77 107.67 16.39C107.08 16.16 106.86 15.77 106.32 15.66C106.42 15.54 106.32 15.44 106.1 15.39C106.24 15.24 106.37 15.08 106.08 14.85C105.64 14.82 105 14.39 104.56 14.35C104.49 14.16 104.48 13.98 104.34 13.77C104.28 13.87 104.17 13.88 104.06 13.88C104.32 14.05 104.34 14.18 104.19 14.29Z" fill="currentColor"/>
<path fill-rule="evenodd" clip-rule="evenodd" d="M42.92 135C42.59 134.76 42.2 134.53 41.79 134.31C40.96 133.89 40 133.56 39.08 133.53C39.02 134.23 38.34 134.28 37.43 134.1C37.63 133.72 36.61 133.47 36.52 133.12C36.44 133.49 35.88 133.09 35.9 133.3C35.86 133.15 35.73 133 35.53 132.85C35.42 133.26 34.47 132.65 33.85 132.44C33.74 132.74 33.93 132.74 33.65 132.91C34.27 133.49 35.83 134.27 36.33 134.58C37.95 134.7 39.69 136.59 41.75 137.06C43.13 137.36 44.03 136.76 43.75 135.62C43.54 135.43 43.25 135.23 42.92 135Z" fill="currentColor"/>
</svg>
