<svg width="33" height="40" viewBox="0 0 33 40" fill="none" xmlns="http://www.w3.org/2000/svg">
<path d="M32.6468 34.6678L30.345 8.72697C30.3036 8.21362 29.873 7.82447 29.3514 7.82447H24.4994C24.4911 3.51066 20.9805 0 16.6667 0C12.3528 0 8.84219 3.51066 8.83391 7.82447H3.98191C3.46856 7.82447 3.038 8.21362 2.98832 8.72697L0.686523 34.6678C0.686523 34.7009 0.686523 34.7257 0.686523 34.7589C0.686523 37.6485 3.34436 40 6.60662 40H26.7267C29.9889 40 32.6468 37.6485 32.6468 34.7589C32.6468 34.7257 32.6468 34.7009 32.6468 34.6678ZM16.6667 1.98717C19.8875 1.98717 22.504 4.6036 22.5122 7.82447H10.8211C10.8294 4.6036 13.4458 1.98717 16.6667 1.98717ZM26.7267 38.0046H6.60662C4.45386 38.0046 2.69853 36.5721 2.67369 34.792L4.89269 9.81163H8.83391V13.2975C8.83391 13.8439 9.28102 14.291 9.82749 14.291C10.374 14.291 10.8211 13.8439 10.8211 13.2975V9.81163H22.5122V13.2975C22.5122 13.8439 22.9593 14.291 23.5058 14.291C24.0523 14.291 24.4994 13.8439 24.4994 13.2975V9.81163H28.4406L30.6596 34.8002C30.6348 36.5721 28.8794 38.0046 26.7267 38.0046Z" fill="#00B307"/>
</svg>
