<svg width="75" height="171" viewBox="0 0 75 171" fill="none" xmlns="http://www.w3.org/2000/svg">
<g opacity="0.2">
<path d="M63.51 98.8371C63.7652 97.7162 64.0316 96.5176 64.309 95.2524C66.9171 97.0281 68.7482 99.1589 70.1133 102.022C68.4042 101.956 66.9726 101.889 65.4521 101.834C64.8417 100.879 64.1759 99.8581 63.51 98.8371Z" fill="currentColor"/>
<path d="M63.011 136.304C63.2552 136.282 63.7324 136.104 64.143 136.204C65.9187 136.603 67.7055 136.981 69.4035 137.602C69.8918 137.78 70.4356 138.801 70.3357 139.3C70.2247 139.855 69.4146 140.621 68.8707 140.665C66.629 140.843 64.5314 140.155 62.7669 138.767C61.8901 138.079 62.0344 136.903 63.011 136.304Z" fill="currentColor"/>
<path d="M59.1376 138.246C58.9601 138.179 58.4052 137.968 57.6172 137.669C58.5383 136.515 58.8047 135.105 60.2363 134.628C59.8257 135.971 59.4928 137.058 59.1376 138.246Z" fill="currentColor"/>
<path d="M65.9848 117.26C65.4632 117.349 64.42 116.838 64.309 116.405C64.1315 115.762 64.3423 114.507 64.7752 114.297C66.7284 113.353 68.8037 112.543 71.3008 113.686C69.9579 115.972 68.1046 116.882 65.9848 117.26Z" fill="currentColor"/>
<path d="M66.1734 124.373C65.896 121.832 67.1057 120.367 69.0256 119.413C70.8013 118.536 72.6324 117.981 74.1973 119.834C73.4426 122.964 70.4239 124.307 66.1734 124.373Z" fill="currentColor"/>
<path d="M61.0017 132.641C60.913 130.977 62.1559 130.71 63.0993 130.344C65.3854 129.456 68.3375 129.723 70.1465 130.832C69.1144 133.507 65.6074 134.24 61.0017 132.641Z" fill="currentColor"/>
<path d="M69.9473 105.23C67.7499 107.072 65.4526 107.882 63.0332 108.315C62.5338 108.404 61.6793 108.126 61.4684 107.749C61.2797 107.405 61.6016 106.561 61.9678 106.184C63.6658 104.397 66.9175 103.964 69.9473 105.23Z" fill="currentColor"/>
<path d="M62.4004 101.567C61.901 103.798 59.4927 105.718 55.9636 106.728C55.4863 103.831 58.2275 101.634 62.4004 101.567Z" fill="currentColor"/>
<path d="M55.4086 101.6C56.6737 98.3262 58.2274 95.6738 61.6567 93.8315C61.8787 98.6703 58.7823 100.058 55.4086 101.6Z" fill="currentColor"/>
<path d="M61.834 144.805C60.5577 145.804 59.3924 145.471 58.3603 144.894C57.3282 144.328 56.4293 143.54 55.4637 142.84C54.6536 142.263 54.5759 141.575 55.0309 140.698C55.5192 139.777 56.2184 139.755 57.1062 139.966C59.5145 140.532 61.0904 142.086 61.834 144.805Z" fill="currentColor"/>
<path d="M51.3583 125.494C52.0686 130.388 50.4039 134.495 46.7194 137.769C46.2644 138.168 45.654 138.379 44.7661 138.867C43.845 136.104 43.6896 133.507 43.734 130.899C43.7673 128.524 43.9893 126.149 44.0892 123.774C44.2001 120.977 44.8438 118.358 46.3088 115.928C47.7737 113.497 48.4729 111.056 47.3964 108.104C46.564 105.84 46.6195 103.287 47.3964 100.812C47.5406 101.201 47.6849 101.589 47.8292 101.978C48.4396 103.676 48.8058 105.529 49.7158 107.06C51.9576 110.834 52.4792 114.796 51.5026 118.98C50.9921 121.166 51.0365 123.275 51.3583 125.494Z" fill="currentColor"/>
<path d="M35.2322 104.564C35.887 101.689 38.6615 99.2809 41.5137 98.9258C40.9144 101.556 38.2953 103.986 35.2322 104.564Z" fill="currentColor"/>
<path d="M40.2373 108.836C37.6515 110.989 34.8215 109.68 30.2047 106.628C31.3034 105.03 32.0026 104.708 33.0902 105.729C34.2666 106.828 35.4541 107.05 37.0078 107.105C38.0732 107.138 39.0942 108.182 40.2373 108.836Z" fill="currentColor"/>
<path d="M49.6822 169.409C45.0876 167.844 40.6262 165.902 36.0983 164.149C31.1486 162.229 26.2876 160.142 20.9273 159.365C14.0355 158.378 9.03027 154.316 5.4789 148.501C1.45034 141.897 0.162971 134.606 0.00759888 126.926C-0.158867 118.869 2.52685 111.611 5.26805 104.308C5.81185 102.866 6.76627 101.578 7.52094 100.224C10.8281 94.298 14.3129 88.4715 17.3871 82.4231C20.894 75.5313 22.2258 68.0179 22.5809 60.3492C22.936 52.6583 22.9138 44.9452 23.4133 37.2543C23.7351 32.2158 24.7228 27.1884 27.1089 22.6605C30.2385 16.7563 34.9441 12.8498 41.9136 12.2949C43.7004 12.1507 45.587 10.1863 45.8423 8.02221C45.9644 6.94571 45.8534 5.8248 45.7535 4.7372C45.6203 3.22787 45.9977 1.94052 47.4071 1.26354C48.872 0.553268 50.1483 1.29683 51.0916 2.34005C51.7353 3.05032 52.1459 4.02693 52.49 4.94806C52.9228 6.14665 53.1448 7.42292 53.5332 8.64369C53.8772 9.698 54.6097 10.0753 55.6862 9.59812C63.366 6.24653 69.37 9.24298 74.6971 14.6699C74.8413 14.8253 74.9745 14.9807 75.1188 15.136V21.1178C74.1089 18.9759 72.7549 16.9894 71.0236 15.1915C66.1294 10.1197 59.859 9.25409 53.7885 12.7389C52.6787 13.3825 51.58 14.0928 50.3814 14.5367C49.4047 14.903 48.2949 14.9917 47.2406 15.0472C44.6215 15.2026 41.8692 14.226 39.3944 15.4801C37.3745 16.5011 35.5988 17.9993 33.6789 19.2201C31.7257 20.4631 30.5937 22.3053 29.6836 24.3473C27.797 28.5868 26.7649 33.0815 26.4763 37.6649C26.0324 44.8897 25.9325 52.1367 25.6994 59.3726C25.3998 68.2732 23.7351 76.8741 19.6732 84.8647C17.3427 89.437 14.9233 93.9761 12.2376 98.3487C9.57407 102.666 7.46545 107.172 5.73416 111.944C2.52684 120.811 2.40477 129.701 4.59107 138.734C6.34455 145.981 10.8503 150.598 18.1195 152.429C21.3157 153.239 24.5231 154.038 27.7637 154.704C34.5223 156.092 41.1256 157.856 47.3738 160.941C49.7155 162.096 52.379 162.739 54.9759 163.228C58.1722 163.838 61.3351 163.483 64.3093 161.84C66.307 160.731 68.4489 159.876 71.0125 158.666C72.4331 157.912 73.8092 157.079 75.1299 156.147V159.865C74.5972 160.198 74.0756 160.52 73.5318 160.83C71.1457 162.184 68.5266 163.117 66.1183 164.448C62.5892 166.402 58.838 166.801 54.9315 166.379C51.5134 166.013 48.306 164.926 45.243 163.427C40.6817 161.197 35.9651 159.476 30.9488 158.611C30.405 158.522 29.8501 158.522 29.2952 158.478C36.7197 161.629 43.8336 165.358 51.702 166.968C54.5542 167.545 57.5729 168.155 60.4029 167.811C65.6855 167.134 70.6463 165.603 75.0855 162.773V166.313C71.1901 168.122 67.2725 169.798 62.9665 170.563C58.3719 171.374 53.966 170.874 49.6822 169.409ZM51.9906 11.0852C51.4135 9.27628 50.903 7.64488 50.3925 6.02457C50.115 5.15893 49.8931 4.28218 49.5601 3.43874C49.2494 2.65078 48.7056 2.27345 47.618 3.03921C48.4059 6.05786 49.0829 9.27627 46.8078 12.1728C48.9053 12.7832 48.9053 12.7832 51.9906 11.0852ZM15.9443 155.126C15.8999 155.293 15.8555 155.459 15.8111 155.625C18.1528 156.269 20.4834 156.913 22.8251 157.557C22.8806 157.346 22.936 157.146 22.9915 156.935C20.6388 156.325 18.286 155.725 15.9443 155.126Z" fill="currentColor"/>
<path d="M68.8267 148.379C67.6281 149.333 66.2297 150.11 64.1655 149.044C65.0201 148.456 65.6305 148.012 66.2741 147.602C70.1584 145.071 73.2437 141.92 74.1648 137.17C74.409 135.927 74.4645 134.617 74.3979 133.352C74.2758 131.077 74.3979 128.868 75.0859 126.715V140.843C73.7542 143.74 71.5679 146.203 68.8267 148.379Z" fill="currentColor"/>
<path d="M53.3672 69.0833C53.5891 69.9156 53.8111 70.748 54.0442 71.5803C55.1761 75.7309 56.1417 79.9149 58.2947 83.7326C59.8262 86.4405 61.957 88.5047 64.1544 90.5911C66.4739 92.7996 68.7268 95.0858 70.9353 97.3942C72.8885 99.4362 73.8652 101.989 74.5976 104.697C74.753 105.274 74.9306 105.851 75.0859 106.428V122.542C73.3879 124.939 70.7799 125.628 68.1275 126.227C65.3308 126.859 63.6106 125.195 64.1877 122.387C64.3653 121.51 64.7426 120.678 65.0201 119.845C61.7018 117.77 61.1691 115.084 63.5218 112.687C65.4529 110.723 70.1584 110.612 72.145 112.51C72.8885 113.231 73.1105 114.063 72.4335 114.962C71.9896 115.539 71.4902 116.072 70.9353 116.727C72.2449 116.993 73.4656 117.249 75.0193 117.559C73.965 114.141 72.944 110.867 71.8231 107.238C70.4692 107.982 69.3261 108.725 68.0942 109.269C66.7624 109.846 65.3641 110.434 63.9436 110.656C61.8127 110.989 59.6264 111.045 58.9162 108.137C58.3058 108.514 57.9395 108.736 57.3957 109.069C59.5931 111.355 59.8928 113.952 59.3157 116.816C59.127 117.748 59.3934 118.813 59.6375 119.768C60.3589 122.687 61.1691 125.583 62.0236 128.824C62.5785 128.713 63.422 128.457 64.2765 128.402C65.9967 128.28 67.7391 128.069 69.4371 128.247C70.7133 128.38 71.8564 129.201 72.145 130.655C72.4113 131.976 71.69 132.93 70.7244 133.729C70.2472 134.117 69.77 134.506 69.1374 135.027C69.7811 135.649 70.3249 136.126 70.8243 136.637C71.6789 137.513 72.4557 138.479 71.923 139.8C71.3681 141.165 70.3471 142.152 68.8489 142.219C67.5837 142.286 66.3074 142.008 65.0423 141.875C64.5207 141.819 63.999 141.72 63.2444 141.609C63.5107 142.352 63.7216 142.84 63.8659 143.34C64.5539 145.848 63.3443 147.457 60.7251 147.524C59.005 147.568 57.4623 147.047 56.175 145.892C55.5646 145.349 54.9986 144.76 54.366 144.15C53.9332 145.97 53.8555 146.081 56.3303 147.79C57.5622 148.634 59.1381 148.978 60.7362 149.61C57.5511 151.053 53.5336 150.132 51.9799 147.635C51.5249 146.902 51.3029 145.915 51.3029 145.049C51.3029 141.864 52.5459 139.178 54.8543 136.981C57.0295 134.928 58.6387 132.53 59.3712 129.567C59.9261 127.337 59.8928 125.217 58.7053 123.175C57.1738 120.534 56.6633 117.77 57.3181 114.707C57.8508 112.232 57.3181 110.035 54.71 108.714C53.2673 107.982 52.9233 106.55 53.5447 104.619C53.8333 103.72 54.022 103.021 53.578 102.055C53.3006 101.434 53.5669 100.446 53.8444 99.7137C55.1651 96.1179 56.9185 93.9538 60.6586 91.2348C55.1096 84.9423 52.4793 77.5843 53.3672 69.0833ZM71.3015 113.686C68.8045 112.543 66.7292 113.364 64.7759 114.296C64.3431 114.496 64.1322 115.761 64.3098 116.405C64.4208 116.827 65.464 117.348 65.9856 117.26C68.1053 116.882 69.9587 115.972 71.3015 113.686ZM69.0264 119.413C67.1065 120.367 65.8968 121.832 66.1743 124.373C70.4359 124.307 73.4434 122.964 74.1981 119.834C72.6333 117.981 70.8021 118.536 69.0264 119.413ZM70.1473 130.832C68.3384 129.712 65.3863 129.456 63.1001 130.344C62.1457 130.71 60.9138 130.977 61.0026 132.641C65.6083 134.24 69.1152 133.507 70.1473 130.832ZM62.7672 138.756C64.5318 140.133 66.6293 140.832 68.8711 140.654C69.426 140.61 70.225 139.844 70.336 139.289C70.4359 138.779 69.8921 137.769 69.4038 137.591C67.7058 136.981 65.9079 136.603 64.1433 136.193C63.7327 136.104 63.2555 136.27 63.0113 136.293C62.0347 136.903 61.8904 138.079 62.7672 138.756ZM55.0319 140.71C54.5769 141.575 54.6545 142.263 55.4647 142.852C56.4191 143.54 57.3292 144.328 58.3613 144.905C59.4045 145.482 60.5587 145.815 61.8349 144.816C61.0914 142.086 59.5044 140.543 57.1072 139.988C56.2194 139.766 55.5202 139.789 55.0319 140.71ZM57.6177 137.669C58.3946 137.968 58.9606 138.179 59.1381 138.246C59.4933 137.07 59.8262 135.971 60.2368 134.639C58.8163 135.105 58.5388 136.515 57.6177 137.669ZM64.3098 95.2523C64.0212 96.5175 63.7549 97.716 63.5107 98.8369C64.1766 99.858 64.8425 100.879 65.464 101.833C66.9844 101.9 68.416 101.956 70.1251 102.022C68.749 99.1588 66.9178 97.028 64.3098 95.2523ZM61.4576 107.76C61.6574 108.137 62.523 108.415 63.0224 108.326C65.4529 107.893 67.7391 107.072 69.9365 105.24C66.9067 103.964 63.655 104.408 61.9459 106.195C61.6019 106.572 61.2689 107.416 61.4576 107.76ZM55.9641 106.728C59.5044 105.718 61.9015 103.798 62.4009 101.567C58.2281 101.634 55.4869 103.831 55.9641 106.728ZM55.4092 101.6C58.783 100.047 61.8904 98.6705 61.6574 93.8318C58.2281 95.674 56.6633 98.3265 55.4092 101.6Z" fill="currentColor"/>
<path d="M53.9217 109.125C54.3323 111.367 55.0426 113.642 54.9094 115.873C54.6763 119.779 54.4655 123.641 54.4766 127.57C54.4988 132.919 51.9018 137.447 47.1186 140.321C44.3885 141.964 42.5573 141.187 41.9137 138.035C41.4586 135.805 41.2367 133.496 41.1923 131.221C41.1479 128.391 41.392 125.55 41.503 122.72C41.614 119.923 42.291 117.282 43.7781 114.885C45.0433 112.854 45.465 110.867 44.7325 108.392C44.0445 106.073 44.1665 103.532 43.9113 100.879C42.4575 102.455 41.1701 103.876 39.7273 105.44C40.2379 105.895 40.7817 106.306 41.2478 106.794C42.746 108.381 42.4797 110.335 40.5153 111.356C38.2513 112.521 35.9318 112.421 33.6457 111.289C32.1807 110.557 30.6936 109.857 29.0955 109.081C28.474 110.468 27.8192 111.677 27.4086 112.965C27.2199 113.564 27.2421 114.519 27.6083 114.962C28.2742 115.795 29.1066 115.151 29.7836 114.696C30.1609 114.441 30.4272 113.997 30.8268 113.819C31.5814 113.486 32.3916 113.298 33.3238 113.453C32.5359 114.363 31.759 115.284 30.971 116.194C29.7281 117.637 28.3297 117.981 26.8315 117.215C25.3555 116.461 24.4898 114.641 25.078 113.02C25.4775 111.922 26.2877 110.989 26.8315 109.935C27.231 109.147 27.7304 108.293 27.7748 107.449C27.9191 104.242 28.929 103.099 32.1696 102.81C32.436 102.788 32.7023 102.755 33.002 102.721C34.6112 100.269 36.9196 98.6373 39.3944 97.2168C41.6806 95.9072 42.3465 96.0182 44.666 97.9382C45.1654 96.7396 45.5982 95.5743 46.1531 94.4534C46.5748 93.61 47.2518 92.7332 48.2839 93.2104C48.9054 93.499 49.3937 94.3202 49.66 95.0083C49.9153 95.6631 49.8265 96.451 49.8154 97.1835C49.7599 100.957 50.6145 104.419 53.1004 107.383C53.5111 107.882 53.8107 108.515 53.9217 109.125ZM33.0908 105.729C32.0032 104.708 31.304 105.041 30.2053 106.628C34.8331 109.68 37.6631 110.989 40.2379 108.836C39.0948 108.182 38.0627 107.138 37.0083 107.105C35.4546 107.05 34.2671 106.828 33.0908 105.729ZM35.2327 104.564C38.2957 103.987 40.9148 101.556 41.5141 98.9259C38.6508 99.281 35.8874 101.689 35.2327 104.564ZM49.7155 107.061C48.8055 105.529 48.4393 103.687 47.8289 101.978C47.6846 101.589 47.5403 101.201 47.3961 100.813C46.6081 103.298 46.5637 105.84 47.3961 108.104C48.4726 111.056 47.7734 113.498 46.3085 115.928C44.8435 118.347 44.1887 120.966 44.0889 123.774C44.0001 126.149 43.7781 128.524 43.7337 130.899C43.6893 133.507 43.8447 136.104 44.7658 138.868C45.6537 138.379 46.2752 138.168 46.7191 137.769C50.4036 134.495 52.0683 130.378 51.358 125.494C51.0362 123.275 50.9807 121.166 51.4912 118.969C52.4789 114.796 51.9573 110.834 49.7155 107.061Z" fill="currentColor"/>
<path d="M27.7749 142.541C25.2556 143.873 23.0138 143.784 21.1494 142.064C19.0741 140.144 17.598 137.758 17.4316 134.905C17.2873 132.464 17.5314 129.978 17.7645 127.525C18.0752 124.063 18.8077 120.622 18.8632 117.171C18.9853 110.09 21.3269 104.097 26.543 99.2698C28.8292 97.1501 31.1043 95.0303 33.4238 92.9439C35.5768 91.0129 37.1305 88.6712 38.5399 86.1852C39.4389 84.6204 40.5709 83.1777 41.6696 81.7239C42.4686 80.6696 43.3675 79.6818 44.3886 78.4722C44.9879 80.1036 44.4663 81.2023 43.4563 82.0679C41.6363 83.6105 40.8039 85.6859 39.794 87.7612C38.6398 90.114 37.1305 92.3668 35.4325 94.3756C33.0131 97.2388 30.2941 99.8469 27.6639 102.533C24.5343 105.729 22.692 109.524 22.1815 113.964C21.7154 117.97 21.2382 121.965 20.7166 126.316C21.4934 126.304 22.1149 126.293 22.692 126.293C22.8252 126.038 22.9916 125.872 22.9584 125.75C22.1149 122.054 23.7019 120.112 27.5085 120.378C28.8625 120.467 30.1831 120.911 31.1265 121.111C32.7912 119.668 34.3671 118.48 35.7099 117.06C36.8086 115.895 37.6188 114.441 38.6398 112.998C38.884 114.929 38.4068 116.105 36.8641 117.848C36.0762 118.736 35.2327 119.59 34.5557 120.545C33.5236 122.01 33.0131 123.652 33.2351 125.483C33.6346 128.935 32.8467 132.042 30.5938 134.728C29.9057 135.549 29.6615 136.381 29.8502 137.502C30.3274 140.343 29.7947 141.475 27.7749 142.541ZM21.6266 129.134C19.5735 129.911 19.4958 130.222 20.0951 132.664C22.7919 132.73 25.411 132.641 27.0313 129.545C25.2223 127.681 23.3801 128.48 21.6266 129.134ZM31.0821 125.972C31.0821 124.917 31.071 124.052 31.071 122.975C28.8736 122.786 26.8426 121.832 24.734 123.696C26.199 126.649 28.6516 125.905 31.0821 125.972ZM30.394 129.223C30.4939 129.057 30.3496 128.735 30.3163 128.38C29.7392 128.402 29.2287 128.413 28.7182 128.435C28.6516 132.386 26.6318 133.929 20.0729 135.127C19.973 137.303 21.1383 138.945 22.5366 140.388C23.4356 141.32 24.5898 141.376 25.8327 140.765C27.1201 140.121 27.1534 139.189 26.8204 138.013C26.2877 136.093 26.7983 134.45 28.0412 132.908C28.9402 131.776 29.6504 130.477 30.394 129.223Z" fill="currentColor"/>
<path d="M36.2874 143.129C40.0718 143.484 43.2015 145.249 45.5542 148.29C45.6874 148.456 45.643 148.756 45.7207 149.211C43.2348 148.179 40.7377 147.513 38.6624 146.181C36.2097 144.616 33.9235 146.47 30.9715 146.07C32.6251 144.084 34.2232 142.941 36.2874 143.129Z" fill="currentColor"/>
</g>
</svg>
