<svg width="16" height="18" viewBox="0 0 16 18" fill="none" xmlns="http://www.w3.org/2000/svg">
<path d="M8.24471 0C3.31136 0 0.687744 3.16139 0.687744 6.60855C0.687744 8.20724 1.58103 10.2008 3.01097 10.8331C3.22811 10.931 3.34624 10.8894 3.39462 10.688C3.43737 10.535 3.62525 9.79807 3.71638 9.45042C3.74451 9.33904 3.72988 9.24229 3.63988 9.13766C3.16511 8.58864 2.78821 7.58847 2.78821 6.65017C2.78821 4.24594 4.69967 1.91146 7.9522 1.91146C10.7648 1.91146 12.7325 3.73854 12.7325 6.35204C12.7325 9.30529 11.1698 11.3484 9.13912 11.3484C8.0152 11.3484 7.17816 10.4663 7.44367 9.37505C7.76431 8.07561 8.39321 6.6783 8.39321 5.74113C8.39321 4.90072 7.91844 4.20544 6.94865 4.20544C5.80447 4.20544 4.87631 5.33837 4.87631 6.85943C4.87631 7.82585 5.21832 8.47838 5.21832 8.47838C5.21832 8.47838 4.08652 13.0506 3.87614 13.9045C3.52062 15.3502 3.92451 17.6914 3.95939 17.8928C3.98077 18.0042 4.10565 18.0391 4.1754 17.9479C4.28678 17.8017 5.65484 15.8497 6.03848 14.4389C6.17799 13.9248 6.75064 11.84 6.75064 11.84C7.12753 12.5207 8.21546 13.0911 9.37426 13.0911C12.8214 13.0911 15.3123 10.0613 15.3123 6.30141C15.2999 2.69675 12.215 0 8.24471 0Z" fill="currentColor"/>
</svg>
