<svg width="12" height="13" viewBox="0 0 12 13" fill="none" xmlns="http://www.w3.org/2000/svg">
<path d="M6.20663 9.44078L8.57101 10.9385C8.87326 11.1298 9.24826 10.8452 9.15863 10.4923L8.47576 7.80541C8.45647 7.73057 8.45869 7.6518 8.48217 7.57816C8.50566 7.50453 8.54945 7.43902 8.60851 7.38916L10.7288 5.62478C11.007 5.39303 10.8638 4.93066 10.5056 4.90741L7.73701 4.72741C7.66246 4.72212 7.59096 4.69577 7.53081 4.65142C7.47066 4.60707 7.42435 4.54656 7.39726 4.47691L6.36451 1.87666C6.33638 1.80276 6.28647 1.73916 6.22137 1.69428C6.15627 1.6494 6.07907 1.62537 6.00001 1.62537C5.92094 1.62537 5.84374 1.6494 5.77864 1.69428C5.71354 1.73916 5.66363 1.80276 5.63551 1.87666L4.60276 4.47691C4.57572 4.54663 4.52943 4.60722 4.46928 4.65164C4.40913 4.69606 4.33759 4.72246 4.26301 4.72778L1.49438 4.90778C1.13663 4.93066 0.992631 5.39303 1.27126 5.62478L3.39151 7.38953C3.4505 7.43936 3.49424 7.50481 3.51772 7.57837C3.54121 7.65193 3.54347 7.73062 3.52426 7.80541L2.89126 10.2973C2.78363 10.7207 3.23401 11.0623 3.59626 10.8324L5.79376 9.44078C5.85552 9.40152 5.92719 9.38066 6.00038 9.38066C6.07357 9.38066 6.14524 9.40152 6.20701 9.44078H6.20663Z" fill="#FF8A00"/>
</svg>
